solid OpenSCAD_Model
  facet normal 1 -0 0
    outer loop
      vertex 29 0 3.5
      vertex 29 8 0
      vertex 29 8 3.5
    endloop
  endfacet
  facet normal 1 0 0
    outer loop
      vertex 29 8 0
      vertex 29 0 3.5
      vertex 29 0 0
    endloop
  endfacet
  facet normal 0 0 1
    outer loop
      vertex 29 8 3.5
      vertex 28.1174 5.2225 3.5
      vertex 29 0 3.5
    endloop
  endfacet
  facet normal 0 0 1
    outer loop
      vertex 29 8 3.5
      vertex 26 6.445 3.5
      vertex 28.1174 5.2225 3.5
    endloop
  endfacet
  facet normal 0 0 1
    outer loop
      vertex 23.8826 5.2225 3.5
      vertex -23.8826 5.2225 3.5
      vertex 23.8826 2.7775 3.5
    endloop
  endfacet
  facet normal 0 0 1
    outer loop
      vertex 26 6.445 3.5
      vertex -23.8826 5.2225 3.5
      vertex 23.8826 5.2225 3.5
    endloop
  endfacet
  facet normal 0 0 1
    outer loop
      vertex -26 6.445 3.5
      vertex 26 6.445 3.5
      vertex 29 8 3.5
    endloop
  endfacet
  facet normal 0 0 1
    outer loop
      vertex 26 6.445 3.5
      vertex -26 6.445 3.5
      vertex -23.8826 5.2225 3.5
    endloop
  endfacet
  facet normal 0 0 1
    outer loop
      vertex -28.1174 5.2225 3.5
      vertex -29 8 3.5
      vertex -28.1174 2.7775 3.5
    endloop
  endfacet
  facet normal 0 0 1
    outer loop
      vertex -26 6.445 3.5
      vertex -29 8 3.5
      vertex -28.1174 5.2225 3.5
    endloop
  endfacet
  facet normal -0 0 1
    outer loop
      vertex -29 8 3.5
      vertex -26 6.445 3.5
      vertex 29 8 3.5
    endloop
  endfacet
  facet normal -0 0 1
    outer loop
      vertex 28.1174 2.7775 3.5
      vertex 29 0 3.5
      vertex 28.1174 5.2225 3.5
    endloop
  endfacet
  facet normal -0 0 1
    outer loop
      vertex 26 1.555 3.5
      vertex 29 0 3.5
      vertex 28.1174 2.7775 3.5
    endloop
  endfacet
  facet normal 0 0 1
    outer loop
      vertex -23.8826 2.7775 3.5
      vertex 23.8826 2.7775 3.5
      vertex -23.8826 5.2225 3.5
    endloop
  endfacet
  facet normal 0 0 1
    outer loop
      vertex 23.8826 2.7775 3.5
      vertex -23.8826 2.7775 3.5
      vertex 26 1.555 3.5
    endloop
  endfacet
  facet normal 0 0 1
    outer loop
      vertex -26 1.555 3.5
      vertex 26 1.555 3.5
      vertex -23.8826 2.7775 3.5
    endloop
  endfacet
  facet normal 0 0 1
    outer loop
      vertex 26 1.555 3.5
      vertex -26 1.555 3.5
      vertex 29 0 3.5
    endloop
  endfacet
  facet normal 0 0 1
    outer loop
      vertex -26 1.555 3.5
      vertex -29 0 3.5
      vertex 29 0 3.5
    endloop
  endfacet
  facet normal 0 0 1
    outer loop
      vertex -28.1174 2.7775 3.5
      vertex -29 0 3.5
      vertex -26 1.555 3.5
    endloop
  endfacet
  facet normal 0 0 1
    outer loop
      vertex -29 0 3.5
      vertex -28.1174 2.7775 3.5
      vertex -29 8 3.5
    endloop
  endfacet
  facet normal 0 0 -1
    outer loop
      vertex 29 0 0
      vertex 27.2 4 0
      vertex 29 8 0
    endloop
  endfacet
  facet normal 0 0 -1
    outer loop
      vertex 29 0 0
      vertex 27.1934 3.87457 0
      vertex 27.2 4 0
    endloop
  endfacet
  facet normal 0 0 -1
    outer loop
      vertex 29 0 0
      vertex 27.1738 3.75051 0
      vertex 27.1934 3.87457 0
    endloop
  endfacet
  facet normal 0 0 -1
    outer loop
      vertex 29 0 0
      vertex 27.1413 3.62918 0
      vertex 27.1738 3.75051 0
    endloop
  endfacet
  facet normal 0 0 -1
    outer loop
      vertex 29 0 0
      vertex 27.0963 3.51192 0
      vertex 27.1413 3.62918 0
    endloop
  endfacet
  facet normal 0 0 -1
    outer loop
      vertex 29 0 0
      vertex 27.0392 3.4 0
      vertex 27.0963 3.51192 0
    endloop
  endfacet
  facet normal 0 0 -1
    outer loop
      vertex 29 0 0
      vertex 26.9708 3.29466 0
      vertex 27.0392 3.4 0
    endloop
  endfacet
  facet normal 0 0 -1
    outer loop
      vertex 29 0 0
      vertex 26.8918 3.19704 0
      vertex 26.9708 3.29466 0
    endloop
  endfacet
  facet normal 0 0 -1
    outer loop
      vertex 29 0 0
      vertex 26.803 3.10823 0
      vertex 26.8918 3.19704 0
    endloop
  endfacet
  facet normal 0 0 -1
    outer loop
      vertex 29 0 0
      vertex 26.7053 3.02918 0
      vertex 26.803 3.10823 0
    endloop
  endfacet
  facet normal 0 0 -1
    outer loop
      vertex 29 0 0
      vertex 26.6 2.96077 0
      vertex 26.7053 3.02918 0
    endloop
  endfacet
  facet normal 0 0 -1
    outer loop
      vertex 29 0 0
      vertex 26.4881 2.90374 0
      vertex 26.6 2.96077 0
    endloop
  endfacet
  facet normal 0 0 -1
    outer loop
      vertex 29 0 0
      vertex 26.3708 2.85873 0
      vertex 26.4881 2.90374 0
    endloop
  endfacet
  facet normal 0 0 -1
    outer loop
      vertex 29 0 0
      vertex 26.2495 2.82622 0
      vertex 26.3708 2.85873 0
    endloop
  endfacet
  facet normal 0 0 -1
    outer loop
      vertex 29 0 0
      vertex 26.1254 2.80657 0
      vertex 26.2495 2.82622 0
    endloop
  endfacet
  facet normal 0 0 -1
    outer loop
      vertex 29 0 0
      vertex 26 2.8 0
      vertex 26.1254 2.80657 0
    endloop
  endfacet
  facet normal 0 0 -1
    outer loop
      vertex 29 0 0
      vertex 25.8746 2.80657 0
      vertex 26 2.8 0
    endloop
  endfacet
  facet normal 0 0 -1
    outer loop
      vertex 29 0 0
      vertex 25.7505 2.82622 0
      vertex 25.8746 2.80657 0
    endloop
  endfacet
  facet normal 0 0 -1
    outer loop
      vertex 29 0 0
      vertex 25.6292 2.85873 0
      vertex 25.7505 2.82622 0
    endloop
  endfacet
  facet normal 0 0 -1
    outer loop
      vertex 29 0 0
      vertex 25.5119 2.90374 0
      vertex 25.6292 2.85873 0
    endloop
  endfacet
  facet normal 0 0 -1
    outer loop
      vertex 29 0 0
      vertex 25.4 2.96077 0
      vertex 25.5119 2.90374 0
    endloop
  endfacet
  facet normal 0 0 -1
    outer loop
      vertex 29 0 0
      vertex 25.2947 3.02918 0
      vertex 25.4 2.96077 0
    endloop
  endfacet
  facet normal 0 0 -1
    outer loop
      vertex -25.2947 3.02918 0
      vertex 25.2947 3.02918 0
      vertex 29 0 0
    endloop
  endfacet
  facet normal 0 0 -1
    outer loop
      vertex 24.8066 3.87457 0
      vertex -24.8 4 0
      vertex 24.8 4 0
    endloop
  endfacet
  facet normal 0 0 -1
    outer loop
      vertex -24.8066 3.87457 0
      vertex 24.8066 3.87457 0
      vertex 24.8262 3.75051 0
    endloop
  endfacet
  facet normal 0 0 -1
    outer loop
      vertex -24.8262 3.75051 0
      vertex 24.8262 3.75051 0
      vertex 24.8587 3.62918 0
    endloop
  endfacet
  facet normal 0 0 -1
    outer loop
      vertex -24.8587 3.62918 0
      vertex 24.8587 3.62918 0
      vertex 24.9037 3.51192 0
    endloop
  endfacet
  facet normal 0 0 -1
    outer loop
      vertex -24.9037 3.51192 0
      vertex 24.9037 3.51192 0
      vertex 24.9608 3.4 0
    endloop
  endfacet
  facet normal 0 0 -1
    outer loop
      vertex -24.9608 3.4 0
      vertex 24.9608 3.4 0
      vertex 25.0292 3.29466 0
    endloop
  endfacet
  facet normal 0 0 -1
    outer loop
      vertex -25.0292 3.29466 0
      vertex 25.0292 3.29466 0
      vertex 25.1082 3.19704 0
    endloop
  endfacet
  facet normal 0 0 -1
    outer loop
      vertex -25.1082 3.19704 0
      vertex 25.1082 3.19704 0
      vertex 25.197 3.10823 0
    endloop
  endfacet
  facet normal 0 0 -1
    outer loop
      vertex 25.2947 3.02918 0
      vertex -25.2947 3.02918 0
      vertex 25.197 3.10823 0
    endloop
  endfacet
  facet normal 0 0 -1
    outer loop
      vertex 24.8066 3.87457 0
      vertex -24.8066 3.87457 0
      vertex -24.8 4 0
    endloop
  endfacet
  facet normal 0 0 -1
    outer loop
      vertex 24.8262 3.75051 0
      vertex -24.8262 3.75051 0
      vertex -24.8066 3.87457 0
    endloop
  endfacet
  facet normal 0 0 -1
    outer loop
      vertex 24.8587 3.62918 0
      vertex -24.8587 3.62918 0
      vertex -24.8262 3.75051 0
    endloop
  endfacet
  facet normal 0 0 -1
    outer loop
      vertex 24.9037 3.51192 0
      vertex -24.9037 3.51192 0
      vertex -24.8587 3.62918 0
    endloop
  endfacet
  facet normal 0 0 -1
    outer loop
      vertex 24.9608 3.4 0
      vertex -24.9608 3.4 0
      vertex -24.9037 3.51192 0
    endloop
  endfacet
  facet normal 0 0 -1
    outer loop
      vertex 25.0292 3.29466 0
      vertex -25.0292 3.29466 0
      vertex -24.9608 3.4 0
    endloop
  endfacet
  facet normal 0 0 -1
    outer loop
      vertex 25.1082 3.19704 0
      vertex -25.1082 3.19704 0
      vertex -25.0292 3.29466 0
    endloop
  endfacet
  facet normal 0 0 -1
    outer loop
      vertex 25.197 3.10823 0
      vertex -25.197 3.10823 0
      vertex -25.1082 3.19704 0
    endloop
  endfacet
  facet normal -0 0 -1
    outer loop
      vertex 25.197 3.10823 0
      vertex -25.2947 3.02918 0
      vertex -25.197 3.10823 0
    endloop
  endfacet
  facet normal 0 0 -1
    outer loop
      vertex -29 0 0
      vertex -25.2947 3.02918 0
      vertex 29 0 0
    endloop
  endfacet
  facet normal 0 0 -1
    outer loop
      vertex -25.2947 3.02918 0
      vertex -29 0 0
      vertex -25.4 2.96077 0
    endloop
  endfacet
  facet normal 0 0 -1
    outer loop
      vertex -25.4 2.96077 0
      vertex -29 0 0
      vertex -25.5119 2.90374 0
    endloop
  endfacet
  facet normal 0 0 -1
    outer loop
      vertex -25.5119 2.90374 0
      vertex -29 0 0
      vertex -25.6292 2.85873 0
    endloop
  endfacet
  facet normal 0 0 -1
    outer loop
      vertex -25.6292 2.85873 0
      vertex -29 0 0
      vertex -25.7505 2.82622 0
    endloop
  endfacet
  facet normal 0 0 -1
    outer loop
      vertex -25.7505 2.82622 0
      vertex -29 0 0
      vertex -25.8746 2.80657 0
    endloop
  endfacet
  facet normal -0 0 -1
    outer loop
      vertex -27.1934 3.87457 0
      vertex -29 0 0
      vertex -27.2 4 0
    endloop
  endfacet
  facet normal -0 0 -1
    outer loop
      vertex -27.1738 3.75051 0
      vertex -29 0 0
      vertex -27.1934 3.87457 0
    endloop
  endfacet
  facet normal -0 0 -1
    outer loop
      vertex -27.1413 3.62918 0
      vertex -29 0 0
      vertex -27.1738 3.75051 0
    endloop
  endfacet
  facet normal -0 0 -1
    outer loop
      vertex -27.0963 3.51192 0
      vertex -29 0 0
      vertex -27.1413 3.62918 0
    endloop
  endfacet
  facet normal -0 0 -1
    outer loop
      vertex -27.0392 3.4 0
      vertex -29 0 0
      vertex -27.0963 3.51192 0
    endloop
  endfacet
  facet normal -0 0 -1
    outer loop
      vertex -26.9708 3.29466 0
      vertex -29 0 0
      vertex -27.0392 3.4 0
    endloop
  endfacet
  facet normal -0 0 -1
    outer loop
      vertex -26.8918 3.19704 0
      vertex -29 0 0
      vertex -26.9708 3.29466 0
    endloop
  endfacet
  facet normal -0 0 -1
    outer loop
      vertex -26.803 3.10823 0
      vertex -29 0 0
      vertex -26.8918 3.19704 0
    endloop
  endfacet
  facet normal -0 0 -1
    outer loop
      vertex -26.7053 3.02918 0
      vertex -29 0 0
      vertex -26.803 3.10823 0
    endloop
  endfacet
  facet normal -0 0 -1
    outer loop
      vertex -26.6 2.96077 0
      vertex -29 0 0
      vertex -26.7053 3.02918 0
    endloop
  endfacet
  facet normal -0 0 -1
    outer loop
      vertex -26.4881 2.90374 0
      vertex -29 0 0
      vertex -26.6 2.96077 0
    endloop
  endfacet
  facet normal -0 0 -1
    outer loop
      vertex -26.3708 2.85873 0
      vertex -29 0 0
      vertex -26.4881 2.90374 0
    endloop
  endfacet
  facet normal -0 0 -1
    outer loop
      vertex -26.2495 2.82622 0
      vertex -29 0 0
      vertex -26.3708 2.85873 0
    endloop
  endfacet
  facet normal -0 0 -1
    outer loop
      vertex -26.1254 2.80657 0
      vertex -29 0 0
      vertex -26.2495 2.82622 0
    endloop
  endfacet
  facet normal -0 0 -1
    outer loop
      vertex -26 2.8 0
      vertex -29 0 0
      vertex -26.1254 2.80657 0
    endloop
  endfacet
  facet normal 0 0 -1
    outer loop
      vertex -25.8746 2.80657 0
      vertex -29 0 0
      vertex -26 2.8 0
    endloop
  endfacet
  facet normal 0 0 -1
    outer loop
      vertex 27.1934 4.12543 0
      vertex 29 8 0
      vertex 27.2 4 0
    endloop
  endfacet
  facet normal 0 0 -1
    outer loop
      vertex 27.1738 4.24949 0
      vertex 29 8 0
      vertex 27.1934 4.12543 0
    endloop
  endfacet
  facet normal 0 0 -1
    outer loop
      vertex 27.1413 4.37082 0
      vertex 29 8 0
      vertex 27.1738 4.24949 0
    endloop
  endfacet
  facet normal 0 0 -1
    outer loop
      vertex 27.0963 4.48808 0
      vertex 29 8 0
      vertex 27.1413 4.37082 0
    endloop
  endfacet
  facet normal 0 0 -1
    outer loop
      vertex 27.0392 4.6 0
      vertex 29 8 0
      vertex 27.0963 4.48808 0
    endloop
  endfacet
  facet normal 0 0 -1
    outer loop
      vertex 26.9708 4.70534 0
      vertex 29 8 0
      vertex 27.0392 4.6 0
    endloop
  endfacet
  facet normal 0 0 -1
    outer loop
      vertex 26.8918 4.80296 0
      vertex 29 8 0
      vertex 26.9708 4.70534 0
    endloop
  endfacet
  facet normal 0 0 -1
    outer loop
      vertex 26.803 4.89177 0
      vertex 29 8 0
      vertex 26.8918 4.80296 0
    endloop
  endfacet
  facet normal 0 0 -1
    outer loop
      vertex 26.7053 4.97082 0
      vertex 29 8 0
      vertex 26.803 4.89177 0
    endloop
  endfacet
  facet normal 0 0 -1
    outer loop
      vertex 26.6 5.03923 0
      vertex 29 8 0
      vertex 26.7053 4.97082 0
    endloop
  endfacet
  facet normal 0 0 -1
    outer loop
      vertex 26.4881 5.09625 0
      vertex 29 8 0
      vertex 26.6 5.03923 0
    endloop
  endfacet
  facet normal 0 0 -1
    outer loop
      vertex 26.3708 5.14127 0
      vertex 29 8 0
      vertex 26.4881 5.09625 0
    endloop
  endfacet
  facet normal 0 0 -1
    outer loop
      vertex 26.2495 5.17378 0
      vertex 29 8 0
      vertex 26.3708 5.14127 0
    endloop
  endfacet
  facet normal 0 0 -1
    outer loop
      vertex 26.1254 5.19343 0
      vertex 29 8 0
      vertex 26.2495 5.17378 0
    endloop
  endfacet
  facet normal 0 0 -1
    outer loop
      vertex 26 5.2 0
      vertex 29 8 0
      vertex 26.1254 5.19343 0
    endloop
  endfacet
  facet normal 0 0 -1
    outer loop
      vertex 25.8746 5.19343 0
      vertex 29 8 0
      vertex 26 5.2 0
    endloop
  endfacet
  facet normal 0 0 -1
    outer loop
      vertex 25.7505 5.17378 0
      vertex 29 8 0
      vertex 25.8746 5.19343 0
    endloop
  endfacet
  facet normal 0 0 -1
    outer loop
      vertex 25.6292 5.14127 0
      vertex 29 8 0
      vertex 25.7505 5.17378 0
    endloop
  endfacet
  facet normal 0 0 -1
    outer loop
      vertex 25.5119 5.09625 0
      vertex 29 8 0
      vertex 25.6292 5.14127 0
    endloop
  endfacet
  facet normal 0 0 -1
    outer loop
      vertex 25.4 5.03923 0
      vertex 29 8 0
      vertex 25.5119 5.09625 0
    endloop
  endfacet
  facet normal 0 0 -1
    outer loop
      vertex 25.2947 4.97082 0
      vertex 29 8 0
      vertex 25.4 5.03923 0
    endloop
  endfacet
  facet normal 0 0 -1
    outer loop
      vertex -25.2947 4.97082 0
      vertex 25.2947 4.97082 0
      vertex 25.197 4.89177 0
    endloop
  endfacet
  facet normal 0 0 -1
    outer loop
      vertex -24.8 4 0
      vertex 24.8066 4.12543 0
      vertex 24.8 4 0
    endloop
  endfacet
  facet normal 0 0 -1
    outer loop
      vertex -24.8066 4.12543 0
      vertex 24.8066 4.12543 0
      vertex -24.8 4 0
    endloop
  endfacet
  facet normal 0 0 -1
    outer loop
      vertex 24.8066 4.12543 0
      vertex -24.8066 4.12543 0
      vertex 24.8262 4.24949 0
    endloop
  endfacet
  facet normal 0 0 -1
    outer loop
      vertex -24.8262 4.24949 0
      vertex 24.8262 4.24949 0
      vertex -24.8066 4.12543 0
    endloop
  endfacet
  facet normal 0 0 -1
    outer loop
      vertex 24.8262 4.24949 0
      vertex -24.8262 4.24949 0
      vertex 24.8587 4.37082 0
    endloop
  endfacet
  facet normal 0 0 -1
    outer loop
      vertex -24.8587 4.37082 0
      vertex 24.8587 4.37082 0
      vertex -24.8262 4.24949 0
    endloop
  endfacet
  facet normal 0 0 -1
    outer loop
      vertex 24.8587 4.37082 0
      vertex -24.8587 4.37082 0
      vertex 24.9037 4.48808 0
    endloop
  endfacet
  facet normal 0 0 -1
    outer loop
      vertex -24.9037 4.48808 0
      vertex 24.9037 4.48808 0
      vertex -24.8587 4.37082 0
    endloop
  endfacet
  facet normal 0 0 -1
    outer loop
      vertex 24.9037 4.48808 0
      vertex -24.9037 4.48808 0
      vertex 24.9608 4.6 0
    endloop
  endfacet
  facet normal 0 0 -1
    outer loop
      vertex -24.9608 4.6 0
      vertex 24.9608 4.6 0
      vertex -24.9037 4.48808 0
    endloop
  endfacet
  facet normal 0 0 -1
    outer loop
      vertex 24.9608 4.6 0
      vertex -24.9608 4.6 0
      vertex 25.0292 4.70534 0
    endloop
  endfacet
  facet normal 0 0 -1
    outer loop
      vertex -25.0292 4.70534 0
      vertex 25.0292 4.70534 0
      vertex -24.9608 4.6 0
    endloop
  endfacet
  facet normal 0 0 -1
    outer loop
      vertex 25.0292 4.70534 0
      vertex -25.0292 4.70534 0
      vertex 25.1082 4.80296 0
    endloop
  endfacet
  facet normal 0 0 -1
    outer loop
      vertex -25.1082 4.80296 0
      vertex 25.1082 4.80296 0
      vertex -25.0292 4.70534 0
    endloop
  endfacet
  facet normal 0 0 -1
    outer loop
      vertex 25.1082 4.80296 0
      vertex -25.1082 4.80296 0
      vertex 25.197 4.89177 0
    endloop
  endfacet
  facet normal 0 0 -1
    outer loop
      vertex -25.197 4.89177 0
      vertex 25.197 4.89177 0
      vertex -25.1082 4.80296 0
    endloop
  endfacet
  facet normal 0 0 -1
    outer loop
      vertex -25.2947 4.97082 0
      vertex 25.197 4.89177 0
      vertex -25.197 4.89177 0
    endloop
  endfacet
  facet normal 0 0 -1
    outer loop
      vertex 25.2947 4.97082 0
      vertex -25.2947 4.97082 0
      vertex 29 8 0
    endloop
  endfacet
  facet normal 0 0 -1
    outer loop
      vertex -29 8 0
      vertex -25.2947 4.97082 0
      vertex -25.4 5.03923 0
    endloop
  endfacet
  facet normal 0 0 -1
    outer loop
      vertex -29 8 0
      vertex -25.4 5.03923 0
      vertex -25.5119 5.09625 0
    endloop
  endfacet
  facet normal 0 0 -1
    outer loop
      vertex -29 8 0
      vertex -25.5119 5.09625 0
      vertex -25.6292 5.14127 0
    endloop
  endfacet
  facet normal 0 0 -1
    outer loop
      vertex -29 8 0
      vertex -25.6292 5.14127 0
      vertex -25.7505 5.17378 0
    endloop
  endfacet
  facet normal 0 0 -1
    outer loop
      vertex -29 8 0
      vertex -25.7505 5.17378 0
      vertex -25.8746 5.19343 0
    endloop
  endfacet
  facet normal 0 0 -1
    outer loop
      vertex -29 8 0
      vertex -25.8746 5.19343 0
      vertex -26 5.2 0
    endloop
  endfacet
  facet normal 0 0 -1
    outer loop
      vertex -29 8 0
      vertex -27.2 4 0
      vertex -29 0 0
    endloop
  endfacet
  facet normal 0 0 -1
    outer loop
      vertex -27.2 4 0
      vertex -29 8 0
      vertex -27.1934 4.12543 0
    endloop
  endfacet
  facet normal 0 0 -1
    outer loop
      vertex -27.1934 4.12543 0
      vertex -29 8 0
      vertex -27.1738 4.24949 0
    endloop
  endfacet
  facet normal 0 0 -1
    outer loop
      vertex -27.1738 4.24949 0
      vertex -29 8 0
      vertex -27.1413 4.37082 0
    endloop
  endfacet
  facet normal 0 0 -1
    outer loop
      vertex -25.2947 4.97082 0
      vertex -29 8 0
      vertex 29 8 0
    endloop
  endfacet
  facet normal 0 0 -1
    outer loop
      vertex -26.1254 5.19343 0
      vertex -29 8 0
      vertex -26 5.2 0
    endloop
  endfacet
  facet normal 0 0 -1
    outer loop
      vertex -26.2495 5.17378 0
      vertex -29 8 0
      vertex -26.1254 5.19343 0
    endloop
  endfacet
  facet normal 0 0 -1
    outer loop
      vertex -26.3708 5.14127 0
      vertex -29 8 0
      vertex -26.2495 5.17378 0
    endloop
  endfacet
  facet normal 0 0 -1
    outer loop
      vertex -26.4881 5.09625 0
      vertex -29 8 0
      vertex -26.3708 5.14127 0
    endloop
  endfacet
  facet normal 0 0 -1
    outer loop
      vertex -26.6 5.03923 0
      vertex -29 8 0
      vertex -26.4881 5.09625 0
    endloop
  endfacet
  facet normal 0 0 -1
    outer loop
      vertex -26.7053 4.97082 0
      vertex -29 8 0
      vertex -26.6 5.03923 0
    endloop
  endfacet
  facet normal 0 0 -1
    outer loop
      vertex -26.803 4.89177 0
      vertex -29 8 0
      vertex -26.7053 4.97082 0
    endloop
  endfacet
  facet normal 0 0 -1
    outer loop
      vertex -26.8918 4.80296 0
      vertex -29 8 0
      vertex -26.803 4.89177 0
    endloop
  endfacet
  facet normal 0 0 -1
    outer loop
      vertex -26.9708 4.70534 0
      vertex -29 8 0
      vertex -26.8918 4.80296 0
    endloop
  endfacet
  facet normal 0 0 -1
    outer loop
      vertex -27.0392 4.6 0
      vertex -29 8 0
      vertex -26.9708 4.70534 0
    endloop
  endfacet
  facet normal 0 0 -1
    outer loop
      vertex -27.0963 4.48808 0
      vertex -29 8 0
      vertex -27.0392 4.6 0
    endloop
  endfacet
  facet normal 0 0 -1
    outer loop
      vertex -27.1413 4.37082 0
      vertex -29 8 0
      vertex -27.0963 4.48808 0
    endloop
  endfacet
  facet normal -1 0 0
    outer loop
      vertex -29 0 0
      vertex -29 8 3.5
      vertex -29 8 0
    endloop
  endfacet
  facet normal -1 -0 0
    outer loop
      vertex -29 8 3.5
      vertex -29 0 0
      vertex -29 0 3.5
    endloop
  endfacet
  facet normal 0 1 -0
    outer loop
      vertex 29 8 0
      vertex -29 8 3.5
      vertex 29 8 3.5
    endloop
  endfacet
  facet normal 0 1 0
    outer loop
      vertex -29 8 3.5
      vertex 29 8 0
      vertex -29 8 0
    endloop
  endfacet
  facet normal 0 -1 0
    outer loop
      vertex -29 0 0
      vertex 29 0 3.5
      vertex -29 0 3.5
    endloop
  endfacet
  facet normal 0 -1 -0
    outer loop
      vertex 29 0 3.5
      vertex -29 0 0
      vertex 29 0 0
    endloop
  endfacet
  facet normal -0.987749 -0.156053 0
    outer loop
      vertex -24.8066 4.12543 0
      vertex -24.8262 4.24949 2
      vertex -24.8262 4.24949 0
    endloop
  endfacet
  facet normal -0.987749 -0.156053 0
    outer loop
      vertex -24.8262 4.24949 2
      vertex -24.8066 4.12543 0
      vertex -24.8066 4.12543 2
    endloop
  endfacet
  facet normal -0.998618 0.0525463 0
    outer loop
      vertex -24.8066 3.87457 0
      vertex -24.8 4 2
      vertex -24.8 4 0
    endloop
  endfacet
  facet normal -0.998618 0.0525463 0
    outer loop
      vertex -24.8 4 2
      vertex -24.8066 3.87457 0
      vertex -24.8066 3.87457 2
    endloop
  endfacet
  facet normal -0.0523206 -0.99863 0
    outer loop
      vertex -26 5.2 0
      vertex -25.8746 5.19343 2
      vertex -26 5.2 2
    endloop
  endfacet
  facet normal -0.0523206 -0.99863 -0
    outer loop
      vertex -25.8746 5.19343 2
      vertex -26 5.2 0
      vertex -25.8746 5.19343 0
    endloop
  endfacet
  facet normal -0.777345 0.629075 0
    outer loop
      vertex -25.1082 3.19704 0
      vertex -25.0292 3.29466 2
      vertex -25.0292 3.29466 0
    endloop
  endfacet
  facet normal -0.777345 0.629075 0
    outer loop
      vertex -25.0292 3.29466 2
      vertex -25.1082 3.19704 0
      vertex -25.1082 3.19704 2
    endloop
  endfacet
  facet normal 0.629004 -0.777402 0
    outer loop
      vertex -26.803 4.89177 0
      vertex -26.7053 4.97082 2
      vertex -26.803 4.89177 2
    endloop
  endfacet
  facet normal 0.629004 -0.777402 0
    outer loop
      vertex -26.7053 4.97082 2
      vertex -26.803 4.89177 0
      vertex -26.7053 4.97082 0
    endloop
  endfacet
  facet normal -0.933612 -0.358285 0
    outer loop
      vertex -24.8587 4.37082 0
      vertex -24.9037 4.48808 2
      vertex -24.9037 4.48808 0
    endloop
  endfacet
  facet normal -0.933612 -0.358285 0
    outer loop
      vertex -24.9037 4.48808 2
      vertex -24.8587 4.37082 0
      vertex -24.8587 4.37082 2
    endloop
  endfacet
  facet normal 0.258877 -0.96591 0
    outer loop
      vertex -26.3708 5.14127 0
      vertex -26.2495 5.17378 2
      vertex -26.3708 5.14127 2
    endloop
  endfacet
  facet normal 0.258877 -0.96591 0
    outer loop
      vertex -26.2495 5.17378 2
      vertex -26.3708 5.14127 0
      vertex -26.2495 5.17378 0
    endloop
  endfacet
  facet normal 0.933612 -0.358285 0
    outer loop
      vertex -27.1413 4.37082 2
      vertex -27.0963 4.48808 0
      vertex -27.0963 4.48808 2
    endloop
  endfacet
  facet normal 0.933612 -0.358285 0
    outer loop
      vertex -27.0963 4.48808 0
      vertex -27.1413 4.37082 2
      vertex -27.1413 4.37082 0
    endloop
  endfacet
  facet normal -0.890768 -0.454457 0
    outer loop
      vertex -24.9037 4.48808 0
      vertex -24.9608 4.6 2
      vertex -24.9608 4.6 0
    endloop
  endfacet
  facet normal -0.890768 -0.454457 0
    outer loop
      vertex -24.9608 4.6 2
      vertex -24.9037 4.48808 0
      vertex -24.9037 4.48808 2
    endloop
  endfacet
  facet normal 0.777345 0.629075 0
    outer loop
      vertex -26.8918 3.19704 2
      vertex -26.9708 3.29466 0
      vertex -26.9708 3.29466 2
    endloop
  endfacet
  facet normal 0.777345 0.629075 0
    outer loop
      vertex -26.9708 3.29466 0
      vertex -26.8918 3.19704 2
      vertex -26.8918 3.19704 0
    endloop
  endfacet
  facet normal -0.838702 -0.544591 0
    outer loop
      vertex -24.9608 4.6 0
      vertex -25.0292 4.70534 2
      vertex -25.0292 4.70534 0
    endloop
  endfacet
  facet normal -0.838702 -0.544591 0
    outer loop
      vertex -25.0292 4.70534 2
      vertex -24.9608 4.6 0
      vertex -24.9608 4.6 2
    endloop
  endfacet
  facet normal -0.156392 0.987695 0
    outer loop
      vertex -25.7505 2.82622 0
      vertex -25.8746 2.80657 2
      vertex -25.7505 2.82622 2
    endloop
  endfacet
  facet normal -0.156392 0.987695 0
    outer loop
      vertex -25.8746 2.80657 2
      vertex -25.7505 2.82622 0
      vertex -25.8746 2.80657 0
    endloop
  endfacet
  facet normal -0.890768 0.454457 0
    outer loop
      vertex -24.9608 3.4 0
      vertex -24.9037 3.51192 2
      vertex -24.9037 3.51192 0
    endloop
  endfacet
  facet normal -0.890768 0.454457 0
    outer loop
      vertex -24.9037 3.51192 2
      vertex -24.9608 3.4 0
      vertex -24.9608 3.4 2
    endloop
  endfacet
  facet normal 0.933612 0.358285 0
    outer loop
      vertex -27.0963 3.51192 2
      vertex -27.1413 3.62918 0
      vertex -27.1413 3.62918 2
    endloop
  endfacet
  facet normal 0.933612 0.358285 0
    outer loop
      vertex -27.1413 3.62918 0
      vertex -27.0963 3.51192 2
      vertex -27.0963 3.51192 0
    endloop
  endfacet
  facet normal -0.998618 -0.0525463 0
    outer loop
      vertex -24.8 4 0
      vertex -24.8066 4.12543 2
      vertex -24.8066 4.12543 0
    endloop
  endfacet
  facet normal -0.998618 -0.0525463 0
    outer loop
      vertex -24.8066 4.12543 2
      vertex -24.8 4 0
      vertex -24.8 4 2
    endloop
  endfacet
  facet normal 0.707147 0.707067 -0
    outer loop
      vertex -26.803 3.10823 0
      vertex -26.8918 3.19704 2
      vertex -26.803 3.10823 2
    endloop
  endfacet
  facet normal 0.707147 0.707067 0
    outer loop
      vertex -26.8918 3.19704 2
      vertex -26.803 3.10823 0
      vertex -26.8918 3.19704 0
    endloop
  endfacet
  facet normal 0.156392 0.987695 -0
    outer loop
      vertex -26.1254 2.80657 0
      vertex -26.2495 2.82622 2
      vertex -26.1254 2.80657 2
    endloop
  endfacet
  facet normal 0.156392 0.987695 0
    outer loop
      vertex -26.2495 2.82622 2
      vertex -26.1254 2.80657 0
      vertex -26.2495 2.82622 0
    endloop
  endfacet
  facet normal -0.358318 -0.9336 0
    outer loop
      vertex -25.6292 5.14127 0
      vertex -25.5119 5.09625 2
      vertex -25.6292 5.14127 2
    endloop
  endfacet
  facet normal -0.358318 -0.9336 -0
    outer loop
      vertex -25.5119 5.09625 2
      vertex -25.6292 5.14127 0
      vertex -25.5119 5.09625 0
    endloop
  endfacet
  facet normal -0.777345 -0.629075 0
    outer loop
      vertex -25.0292 4.70534 0
      vertex -25.1082 4.80296 2
      vertex -25.1082 4.80296 0
    endloop
  endfacet
  facet normal -0.777345 -0.629075 0
    outer loop
      vertex -25.1082 4.80296 2
      vertex -25.0292 4.70534 0
      vertex -25.0292 4.70534 2
    endloop
  endfacet
  facet normal -0.965946 -0.258743 0
    outer loop
      vertex -24.8262 4.24949 0
      vertex -24.8587 4.37082 2
      vertex -24.8587 4.37082 0
    endloop
  endfacet
  facet normal -0.965946 -0.258743 0
    outer loop
      vertex -24.8587 4.37082 2
      vertex -24.8262 4.24949 0
      vertex -24.8262 4.24949 2
    endloop
  endfacet
  facet normal -0.358248 0.933626 0
    outer loop
      vertex -25.5119 2.90374 0
      vertex -25.6292 2.85873 2
      vertex -25.5119 2.90374 2
    endloop
  endfacet
  facet normal -0.358248 0.933626 0
    outer loop
      vertex -25.6292 2.85873 2
      vertex -25.5119 2.90374 0
      vertex -25.6292 2.85873 0
    endloop
  endfacet
  facet normal -0.707147 -0.707067 0
    outer loop
      vertex -25.1082 4.80296 0
      vertex -25.197 4.89177 2
      vertex -25.197 4.89177 0
    endloop
  endfacet
  facet normal -0.707147 -0.707067 0
    outer loop
      vertex -25.197 4.89177 2
      vertex -25.1082 4.80296 0
      vertex -25.1082 4.80296 2
    endloop
  endfacet
  facet normal 0.258877 0.96591 -0
    outer loop
      vertex -26.2495 2.82622 0
      vertex -26.3708 2.85873 2
      vertex -26.2495 2.82622 2
    endloop
  endfacet
  facet normal 0.258877 0.96591 0
    outer loop
      vertex -26.3708 2.85873 2
      vertex -26.2495 2.82622 0
      vertex -26.3708 2.85873 0
    endloop
  endfacet
  facet normal 0.838702 0.544591 0
    outer loop
      vertex -26.9708 3.29466 2
      vertex -27.0392 3.4 0
      vertex -27.0392 3.4 2
    endloop
  endfacet
  facet normal 0.838702 0.544591 0
    outer loop
      vertex -27.0392 3.4 0
      vertex -26.9708 3.29466 2
      vertex -26.9708 3.29466 0
    endloop
  endfacet
  facet normal 0.358248 0.933626 -0
    outer loop
      vertex -26.3708 2.85873 0
      vertex -26.4881 2.90374 2
      vertex -26.3708 2.85873 2
    endloop
  endfacet
  facet normal 0.358248 0.933626 0
    outer loop
      vertex -26.4881 2.90374 2
      vertex -26.3708 2.85873 0
      vertex -26.4881 2.90374 0
    endloop
  endfacet
  facet normal -0.258877 0.96591 0
    outer loop
      vertex -25.6292 2.85873 0
      vertex -25.7505 2.82622 2
      vertex -25.6292 2.85873 2
    endloop
  endfacet
  facet normal -0.258877 0.96591 0
    outer loop
      vertex -25.7505 2.82622 2
      vertex -25.6292 2.85873 0
      vertex -25.7505 2.82622 0
    endloop
  endfacet
  facet normal 0.838702 -0.544591 0
    outer loop
      vertex -27.0392 4.6 2
      vertex -26.9708 4.70534 0
      vertex -26.9708 4.70534 2
    endloop
  endfacet
  facet normal 0.838702 -0.544591 0
    outer loop
      vertex -26.9708 4.70534 0
      vertex -27.0392 4.6 2
      vertex -27.0392 4.6 0
    endloop
  endfacet
  facet normal -0.629004 -0.777402 0
    outer loop
      vertex -25.2947 4.97082 0
      vertex -25.197 4.89177 2
      vertex -25.2947 4.97082 2
    endloop
  endfacet
  facet normal -0.629004 -0.777402 -0
    outer loop
      vertex -25.197 4.89177 2
      vertex -25.2947 4.97082 0
      vertex -25.197 4.89177 0
    endloop
  endfacet
  facet normal -0.707147 0.707067 0
    outer loop
      vertex -25.197 3.10823 0
      vertex -25.1082 3.19704 2
      vertex -25.1082 3.19704 0
    endloop
  endfacet
  facet normal -0.707147 0.707067 0
    outer loop
      vertex -25.1082 3.19704 2
      vertex -25.197 3.10823 0
      vertex -25.197 3.10823 2
    endloop
  endfacet
  facet normal -0.987749 0.156053 0
    outer loop
      vertex -24.8262 3.75051 0
      vertex -24.8066 3.87457 2
      vertex -24.8066 3.87457 0
    endloop
  endfacet
  facet normal -0.987749 0.156053 0
    outer loop
      vertex -24.8066 3.87457 2
      vertex -24.8262 3.75051 0
      vertex -24.8262 3.75051 2
    endloop
  endfacet
  facet normal 0.998618 -0.0525463 0
    outer loop
      vertex -27.2 4 2
      vertex -27.1934 4.12543 0
      vertex -27.1934 4.12543 2
    endloop
  endfacet
  facet normal 0.998618 -0.0525463 0
    outer loop
      vertex -27.1934 4.12543 0
      vertex -27.2 4 2
      vertex -27.2 4 0
    endloop
  endfacet
  facet normal 0.0523206 -0.99863 0
    outer loop
      vertex -26.1254 5.19343 0
      vertex -26 5.2 2
      vertex -26.1254 5.19343 2
    endloop
  endfacet
  facet normal 0.0523206 -0.99863 0
    outer loop
      vertex -26 5.2 2
      vertex -26.1254 5.19343 0
      vertex -26 5.2 0
    endloop
  endfacet
  facet normal 0.358318 -0.9336 0
    outer loop
      vertex -26.4881 5.09625 0
      vertex -26.3708 5.14127 2
      vertex -26.4881 5.09625 2
    endloop
  endfacet
  facet normal 0.358318 -0.9336 0
    outer loop
      vertex -26.3708 5.14127 2
      vertex -26.4881 5.09625 0
      vertex -26.3708 5.14127 0
    endloop
  endfacet
  facet normal 0.45408 0.890961 -0
    outer loop
      vertex -26.4881 2.90374 0
      vertex -26.6 2.96077 2
      vertex -26.4881 2.90374 2
    endloop
  endfacet
  facet normal 0.45408 0.890961 0
    outer loop
      vertex -26.6 2.96077 2
      vertex -26.4881 2.90374 0
      vertex -26.6 2.96077 0
    endloop
  endfacet
  facet normal 0.998618 0.0525463 0
    outer loop
      vertex -27.1934 3.87457 2
      vertex -27.2 4 0
      vertex -27.2 4 2
    endloop
  endfacet
  facet normal 0.998618 0.0525463 0
    outer loop
      vertex -27.2 4 0
      vertex -27.1934 3.87457 2
      vertex -27.1934 3.87457 0
    endloop
  endfacet
  facet normal -0.838702 0.544591 0
    outer loop
      vertex -25.0292 3.29466 0
      vertex -24.9608 3.4 2
      vertex -24.9608 3.4 0
    endloop
  endfacet
  facet normal -0.838702 0.544591 0
    outer loop
      vertex -24.9608 3.4 2
      vertex -25.0292 3.29466 0
      vertex -25.0292 3.29466 2
    endloop
  endfacet
  facet normal -0.544792 -0.838571 0
    outer loop
      vertex -25.4 5.03923 0
      vertex -25.2947 4.97082 2
      vertex -25.4 5.03923 2
    endloop
  endfacet
  facet normal -0.544792 -0.838571 -0
    outer loop
      vertex -25.2947 4.97082 2
      vertex -25.4 5.03923 0
      vertex -25.2947 4.97082 0
    endloop
  endfacet
  facet normal -0.258877 -0.96591 0
    outer loop
      vertex -25.7505 5.17378 0
      vertex -25.6292 5.14127 2
      vertex -25.7505 5.17378 2
    endloop
  endfacet
  facet normal -0.258877 -0.96591 -0
    outer loop
      vertex -25.6292 5.14127 2
      vertex -25.7505 5.17378 0
      vertex -25.6292 5.14127 0
    endloop
  endfacet
  facet normal -0.965946 0.258743 0
    outer loop
      vertex -24.8587 3.62918 0
      vertex -24.8262 3.75051 2
      vertex -24.8262 3.75051 0
    endloop
  endfacet
  facet normal -0.965946 0.258743 0
    outer loop
      vertex -24.8262 3.75051 2
      vertex -24.8587 3.62918 0
      vertex -24.8587 3.62918 2
    endloop
  endfacet
  facet normal -0.933612 0.358285 0
    outer loop
      vertex -24.9037 3.51192 0
      vertex -24.8587 3.62918 2
      vertex -24.8587 3.62918 0
    endloop
  endfacet
  facet normal -0.933612 0.358285 0
    outer loop
      vertex -24.8587 3.62918 2
      vertex -24.9037 3.51192 0
      vertex -24.9037 3.51192 2
    endloop
  endfacet
  facet normal 0.777345 -0.629075 0
    outer loop
      vertex -26.9708 4.70534 2
      vertex -26.8918 4.80296 0
      vertex -26.8918 4.80296 2
    endloop
  endfacet
  facet normal 0.777345 -0.629075 0
    outer loop
      vertex -26.8918 4.80296 0
      vertex -26.9708 4.70534 2
      vertex -26.9708 4.70534 0
    endloop
  endfacet
  facet normal 0.890768 -0.454457 0
    outer loop
      vertex -27.0963 4.48808 2
      vertex -27.0392 4.6 0
      vertex -27.0392 4.6 2
    endloop
  endfacet
  facet normal 0.890768 -0.454457 0
    outer loop
      vertex -27.0392 4.6 0
      vertex -27.0963 4.48808 2
      vertex -27.0963 4.48808 0
    endloop
  endfacet
  facet normal -0.454016 -0.890993 0
    outer loop
      vertex -25.5119 5.09625 0
      vertex -25.4 5.03923 2
      vertex -25.5119 5.09625 2
    endloop
  endfacet
  facet normal -0.454016 -0.890993 -0
    outer loop
      vertex -25.4 5.03923 2
      vertex -25.5119 5.09625 0
      vertex -25.4 5.03923 0
    endloop
  endfacet
  facet normal 0.707147 -0.707067 0
    outer loop
      vertex -26.8918 4.80296 0
      vertex -26.803 4.89177 2
      vertex -26.8918 4.80296 2
    endloop
  endfacet
  facet normal 0.707147 -0.707067 0
    outer loop
      vertex -26.803 4.89177 2
      vertex -26.8918 4.80296 0
      vertex -26.803 4.89177 0
    endloop
  endfacet
  facet normal 0.965946 0.258743 0
    outer loop
      vertex -27.1413 3.62918 2
      vertex -27.1738 3.75051 0
      vertex -27.1738 3.75051 2
    endloop
  endfacet
  facet normal 0.965946 0.258743 0
    outer loop
      vertex -27.1738 3.75051 0
      vertex -27.1413 3.62918 2
      vertex -27.1413 3.62918 0
    endloop
  endfacet
  facet normal -0.544792 0.838571 0
    outer loop
      vertex -25.2947 3.02918 0
      vertex -25.4 2.96077 2
      vertex -25.2947 3.02918 2
    endloop
  endfacet
  facet normal -0.544792 0.838571 0
    outer loop
      vertex -25.4 2.96077 2
      vertex -25.2947 3.02918 0
      vertex -25.4 2.96077 0
    endloop
  endfacet
  facet normal 0.987749 -0.156053 0
    outer loop
      vertex -27.1934 4.12543 2
      vertex -27.1738 4.24949 0
      vertex -27.1738 4.24949 2
    endloop
  endfacet
  facet normal 0.987749 -0.156053 0
    outer loop
      vertex -27.1738 4.24949 0
      vertex -27.1934 4.12543 2
      vertex -27.1934 4.12543 0
    endloop
  endfacet
  facet normal 0.965946 -0.258743 0
    outer loop
      vertex -27.1738 4.24949 2
      vertex -27.1413 4.37082 0
      vertex -27.1413 4.37082 2
    endloop
  endfacet
  facet normal 0.965946 -0.258743 0
    outer loop
      vertex -27.1413 4.37082 0
      vertex -27.1738 4.24949 2
      vertex -27.1738 4.24949 0
    endloop
  endfacet
  facet normal 0.156392 -0.987695 0
    outer loop
      vertex -26.2495 5.17378 0
      vertex -26.1254 5.19343 2
      vertex -26.2495 5.17378 2
    endloop
  endfacet
  facet normal 0.156392 -0.987695 0
    outer loop
      vertex -26.1254 5.19343 2
      vertex -26.2495 5.17378 0
      vertex -26.1254 5.19343 0
    endloop
  endfacet
  facet normal -0.629004 0.777402 0
    outer loop
      vertex -25.197 3.10823 0
      vertex -25.2947 3.02918 2
      vertex -25.197 3.10823 2
    endloop
  endfacet
  facet normal -0.629004 0.777402 0
    outer loop
      vertex -25.2947 3.02918 2
      vertex -25.197 3.10823 0
      vertex -25.2947 3.02918 0
    endloop
  endfacet
  facet normal -0.0523206 0.99863 0
    outer loop
      vertex -25.8746 2.80657 0
      vertex -26 2.8 2
      vertex -25.8746 2.80657 2
    endloop
  endfacet
  facet normal -0.0523206 0.99863 0
    outer loop
      vertex -26 2.8 2
      vertex -25.8746 2.80657 0
      vertex -26 2.8 0
    endloop
  endfacet
  facet normal -0.45408 0.890961 0
    outer loop
      vertex -25.4 2.96077 0
      vertex -25.5119 2.90374 2
      vertex -25.4 2.96077 2
    endloop
  endfacet
  facet normal -0.45408 0.890961 0
    outer loop
      vertex -25.5119 2.90374 2
      vertex -25.4 2.96077 0
      vertex -25.5119 2.90374 0
    endloop
  endfacet
  facet normal 0.987749 0.156053 0
    outer loop
      vertex -27.1738 3.75051 2
      vertex -27.1934 3.87457 0
      vertex -27.1934 3.87457 2
    endloop
  endfacet
  facet normal 0.987749 0.156053 0
    outer loop
      vertex -27.1934 3.87457 0
      vertex -27.1738 3.75051 2
      vertex -27.1738 3.75051 0
    endloop
  endfacet
  facet normal -0.156392 -0.987695 0
    outer loop
      vertex -25.8746 5.19343 0
      vertex -25.7505 5.17378 2
      vertex -25.8746 5.19343 2
    endloop
  endfacet
  facet normal -0.156392 -0.987695 -0
    outer loop
      vertex -25.7505 5.17378 2
      vertex -25.8746 5.19343 0
      vertex -25.7505 5.17378 0
    endloop
  endfacet
  facet normal 0.629004 0.777402 -0
    outer loop
      vertex -26.7053 3.02918 0
      vertex -26.803 3.10823 2
      vertex -26.7053 3.02918 2
    endloop
  endfacet
  facet normal 0.629004 0.777402 0
    outer loop
      vertex -26.803 3.10823 2
      vertex -26.7053 3.02918 0
      vertex -26.803 3.10823 0
    endloop
  endfacet
  facet normal 0.0523206 0.99863 -0
    outer loop
      vertex -26 2.8 0
      vertex -26.1254 2.80657 2
      vertex -26 2.8 2
    endloop
  endfacet
  facet normal 0.0523206 0.99863 0
    outer loop
      vertex -26.1254 2.80657 2
      vertex -26 2.8 0
      vertex -26.1254 2.80657 0
    endloop
  endfacet
  facet normal 0.544792 -0.838571 0
    outer loop
      vertex -26.7053 4.97082 0
      vertex -26.6 5.03923 2
      vertex -26.7053 4.97082 2
    endloop
  endfacet
  facet normal 0.544792 -0.838571 0
    outer loop
      vertex -26.6 5.03923 2
      vertex -26.7053 4.97082 0
      vertex -26.6 5.03923 0
    endloop
  endfacet
  facet normal 0.454016 -0.890993 0
    outer loop
      vertex -26.6 5.03923 0
      vertex -26.4881 5.09625 2
      vertex -26.6 5.03923 2
    endloop
  endfacet
  facet normal 0.454016 -0.890993 0
    outer loop
      vertex -26.4881 5.09625 2
      vertex -26.6 5.03923 0
      vertex -26.4881 5.09625 0
    endloop
  endfacet
  facet normal 0.890768 0.454457 0
    outer loop
      vertex -27.0392 3.4 2
      vertex -27.0963 3.51192 0
      vertex -27.0963 3.51192 2
    endloop
  endfacet
  facet normal 0.890768 0.454457 0
    outer loop
      vertex -27.0963 3.51192 0
      vertex -27.0392 3.4 2
      vertex -27.0392 3.4 0
    endloop
  endfacet
  facet normal 0.544792 0.838571 -0
    outer loop
      vertex -26.6 2.96077 0
      vertex -26.7053 3.02918 2
      vertex -26.6 2.96077 2
    endloop
  endfacet
  facet normal 0.544792 0.838571 0
    outer loop
      vertex -26.7053 3.02918 2
      vertex -26.6 2.96077 0
      vertex -26.7053 3.02918 0
    endloop
  endfacet
  facet normal -0.987749 -0.156053 0
    outer loop
      vertex 27.1934 4.12543 0
      vertex 27.1738 4.24949 2
      vertex 27.1738 4.24949 0
    endloop
  endfacet
  facet normal -0.987749 -0.156053 0
    outer loop
      vertex 27.1738 4.24949 2
      vertex 27.1934 4.12543 0
      vertex 27.1934 4.12543 2
    endloop
  endfacet
  facet normal -0.998618 -0.0525463 0
    outer loop
      vertex 27.2 4 0
      vertex 27.1934 4.12543 2
      vertex 27.1934 4.12543 0
    endloop
  endfacet
  facet normal -0.998618 -0.0525463 0
    outer loop
      vertex 27.1934 4.12543 2
      vertex 27.2 4 0
      vertex 27.2 4 2
    endloop
  endfacet
  facet normal -0.965946 -0.258743 0
    outer loop
      vertex 27.1738 4.24949 0
      vertex 27.1413 4.37082 2
      vertex 27.1413 4.37082 0
    endloop
  endfacet
  facet normal -0.965946 -0.258743 0
    outer loop
      vertex 27.1413 4.37082 2
      vertex 27.1738 4.24949 0
      vertex 27.1738 4.24949 2
    endloop
  endfacet
  facet normal -0.156392 -0.987695 0
    outer loop
      vertex 26.1254 5.19343 0
      vertex 26.2495 5.17378 2
      vertex 26.1254 5.19343 2
    endloop
  endfacet
  facet normal -0.156392 -0.987695 -0
    outer loop
      vertex 26.2495 5.17378 2
      vertex 26.1254 5.19343 0
      vertex 26.2495 5.17378 0
    endloop
  endfacet
  facet normal -0.45408 0.890961 0
    outer loop
      vertex 26.6 2.96077 0
      vertex 26.4881 2.90374 2
      vertex 26.6 2.96077 2
    endloop
  endfacet
  facet normal -0.45408 0.890961 0
    outer loop
      vertex 26.4881 2.90374 2
      vertex 26.6 2.96077 0
      vertex 26.4881 2.90374 0
    endloop
  endfacet
  facet normal -0.629004 -0.777402 0
    outer loop
      vertex 26.7053 4.97082 0
      vertex 26.803 4.89177 2
      vertex 26.7053 4.97082 2
    endloop
  endfacet
  facet normal -0.629004 -0.777402 -0
    outer loop
      vertex 26.803 4.89177 2
      vertex 26.7053 4.97082 0
      vertex 26.803 4.89177 0
    endloop
  endfacet
  facet normal 0.629004 0.777402 -0
    outer loop
      vertex 25.2947 3.02918 0
      vertex 25.197 3.10823 2
      vertex 25.2947 3.02918 2
    endloop
  endfacet
  facet normal 0.629004 0.777402 0
    outer loop
      vertex 25.197 3.10823 2
      vertex 25.2947 3.02918 0
      vertex 25.197 3.10823 0
    endloop
  endfacet
  facet normal 0.965946 0.258743 0
    outer loop
      vertex 24.8587 3.62918 2
      vertex 24.8262 3.75051 0
      vertex 24.8262 3.75051 2
    endloop
  endfacet
  facet normal 0.965946 0.258743 0
    outer loop
      vertex 24.8262 3.75051 0
      vertex 24.8587 3.62918 2
      vertex 24.8587 3.62918 0
    endloop
  endfacet
  facet normal 0.890768 0.454457 0
    outer loop
      vertex 24.9608 3.4 2
      vertex 24.9037 3.51192 0
      vertex 24.9037 3.51192 2
    endloop
  endfacet
  facet normal 0.890768 0.454457 0
    outer loop
      vertex 24.9037 3.51192 0
      vertex 24.9608 3.4 2
      vertex 24.9608 3.4 0
    endloop
  endfacet
  facet normal 0.544792 0.838571 -0
    outer loop
      vertex 25.4 2.96077 0
      vertex 25.2947 3.02918 2
      vertex 25.4 2.96077 2
    endloop
  endfacet
  facet normal 0.544792 0.838571 0
    outer loop
      vertex 25.2947 3.02918 2
      vertex 25.4 2.96077 0
      vertex 25.2947 3.02918 0
    endloop
  endfacet
  facet normal 0.777345 -0.629075 0
    outer loop
      vertex 25.0292 4.70534 2
      vertex 25.1082 4.80296 0
      vertex 25.1082 4.80296 2
    endloop
  endfacet
  facet normal 0.777345 -0.629075 0
    outer loop
      vertex 25.1082 4.80296 0
      vertex 25.0292 4.70534 2
      vertex 25.0292 4.70534 0
    endloop
  endfacet
  facet normal -0.358248 0.933626 0
    outer loop
      vertex 26.4881 2.90374 0
      vertex 26.3708 2.85873 2
      vertex 26.4881 2.90374 2
    endloop
  endfacet
  facet normal -0.358248 0.933626 0
    outer loop
      vertex 26.3708 2.85873 2
      vertex 26.4881 2.90374 0
      vertex 26.3708 2.85873 0
    endloop
  endfacet
  facet normal -0.933612 -0.358285 0
    outer loop
      vertex 27.1413 4.37082 0
      vertex 27.0963 4.48808 2
      vertex 27.0963 4.48808 0
    endloop
  endfacet
  facet normal -0.933612 -0.358285 0
    outer loop
      vertex 27.0963 4.48808 2
      vertex 27.1413 4.37082 0
      vertex 27.1413 4.37082 2
    endloop
  endfacet
  facet normal -0.0523206 -0.99863 0
    outer loop
      vertex 26 5.2 0
      vertex 26.1254 5.19343 2
      vertex 26 5.2 2
    endloop
  endfacet
  facet normal -0.0523206 -0.99863 -0
    outer loop
      vertex 26.1254 5.19343 2
      vertex 26 5.2 0
      vertex 26.1254 5.19343 0
    endloop
  endfacet
  facet normal -0.544792 0.838571 0
    outer loop
      vertex 26.7053 3.02918 0
      vertex 26.6 2.96077 2
      vertex 26.7053 3.02918 2
    endloop
  endfacet
  facet normal -0.544792 0.838571 0
    outer loop
      vertex 26.6 2.96077 2
      vertex 26.7053 3.02918 0
      vertex 26.6 2.96077 0
    endloop
  endfacet
  facet normal -0.258877 0.96591 0
    outer loop
      vertex 26.3708 2.85873 0
      vertex 26.2495 2.82622 2
      vertex 26.3708 2.85873 2
    endloop
  endfacet
  facet normal -0.258877 0.96591 0
    outer loop
      vertex 26.2495 2.82622 2
      vertex 26.3708 2.85873 0
      vertex 26.2495 2.82622 0
    endloop
  endfacet
  facet normal 0.998618 0.0525463 0
    outer loop
      vertex 24.8066 3.87457 2
      vertex 24.8 4 0
      vertex 24.8 4 2
    endloop
  endfacet
  facet normal 0.998618 0.0525463 0
    outer loop
      vertex 24.8 4 0
      vertex 24.8066 3.87457 2
      vertex 24.8066 3.87457 0
    endloop
  endfacet
  facet normal 0.933612 0.358285 0
    outer loop
      vertex 24.9037 3.51192 2
      vertex 24.8587 3.62918 0
      vertex 24.8587 3.62918 2
    endloop
  endfacet
  facet normal 0.933612 0.358285 0
    outer loop
      vertex 24.8587 3.62918 0
      vertex 24.9037 3.51192 2
      vertex 24.9037 3.51192 0
    endloop
  endfacet
  facet normal 0.258877 -0.96591 0
    outer loop
      vertex 25.6292 5.14127 0
      vertex 25.7505 5.17378 2
      vertex 25.6292 5.14127 2
    endloop
  endfacet
  facet normal 0.258877 -0.96591 0
    outer loop
      vertex 25.7505 5.17378 2
      vertex 25.6292 5.14127 0
      vertex 25.7505 5.17378 0
    endloop
  endfacet
  facet normal 0.0523206 -0.99863 0
    outer loop
      vertex 25.8746 5.19343 0
      vertex 26 5.2 2
      vertex 25.8746 5.19343 2
    endloop
  endfacet
  facet normal 0.0523206 -0.99863 0
    outer loop
      vertex 26 5.2 2
      vertex 25.8746 5.19343 0
      vertex 26 5.2 0
    endloop
  endfacet
  facet normal 0.358318 -0.9336 0
    outer loop
      vertex 25.5119 5.09625 0
      vertex 25.6292 5.14127 2
      vertex 25.5119 5.09625 2
    endloop
  endfacet
  facet normal 0.358318 -0.9336 0
    outer loop
      vertex 25.6292 5.14127 2
      vertex 25.5119 5.09625 0
      vertex 25.6292 5.14127 0
    endloop
  endfacet
  facet normal 0.258877 0.96591 -0
    outer loop
      vertex 25.7505 2.82622 0
      vertex 25.6292 2.85873 2
      vertex 25.7505 2.82622 2
    endloop
  endfacet
  facet normal 0.258877 0.96591 0
    outer loop
      vertex 25.6292 2.85873 2
      vertex 25.7505 2.82622 0
      vertex 25.6292 2.85873 0
    endloop
  endfacet
  facet normal -0.0523206 0.99863 0
    outer loop
      vertex 26.1254 2.80657 0
      vertex 26 2.8 2
      vertex 26.1254 2.80657 2
    endloop
  endfacet
  facet normal -0.0523206 0.99863 0
    outer loop
      vertex 26 2.8 2
      vertex 26.1254 2.80657 0
      vertex 26 2.8 0
    endloop
  endfacet
  facet normal -0.998618 0.0525463 0
    outer loop
      vertex 27.1934 3.87457 0
      vertex 27.2 4 2
      vertex 27.2 4 0
    endloop
  endfacet
  facet normal -0.998618 0.0525463 0
    outer loop
      vertex 27.2 4 2
      vertex 27.1934 3.87457 0
      vertex 27.1934 3.87457 2
    endloop
  endfacet
  facet normal -0.707147 -0.707067 0
    outer loop
      vertex 26.803 4.89177 0
      vertex 26.8918 4.80296 2
      vertex 26.803 4.89177 2
    endloop
  endfacet
  facet normal -0.707147 -0.707067 -0
    outer loop
      vertex 26.8918 4.80296 2
      vertex 26.803 4.89177 0
      vertex 26.8918 4.80296 0
    endloop
  endfacet
  facet normal -0.838702 -0.544591 0
    outer loop
      vertex 27.0392 4.6 0
      vertex 26.9708 4.70534 2
      vertex 26.9708 4.70534 0
    endloop
  endfacet
  facet normal -0.838702 -0.544591 0
    outer loop
      vertex 26.9708 4.70534 2
      vertex 27.0392 4.6 0
      vertex 27.0392 4.6 2
    endloop
  endfacet
  facet normal 0.0523206 0.99863 -0
    outer loop
      vertex 26 2.8 0
      vertex 25.8746 2.80657 2
      vertex 26 2.8 2
    endloop
  endfacet
  facet normal 0.0523206 0.99863 0
    outer loop
      vertex 25.8746 2.80657 2
      vertex 26 2.8 0
      vertex 25.8746 2.80657 0
    endloop
  endfacet
  facet normal 0.45408 0.890961 -0
    outer loop
      vertex 25.5119 2.90374 0
      vertex 25.4 2.96077 2
      vertex 25.5119 2.90374 2
    endloop
  endfacet
  facet normal 0.45408 0.890961 0
    outer loop
      vertex 25.4 2.96077 2
      vertex 25.5119 2.90374 0
      vertex 25.4 2.96077 0
    endloop
  endfacet
  facet normal -0.890768 -0.454457 0
    outer loop
      vertex 27.0963 4.48808 0
      vertex 27.0392 4.6 2
      vertex 27.0392 4.6 0
    endloop
  endfacet
  facet normal -0.890768 -0.454457 0
    outer loop
      vertex 27.0392 4.6 2
      vertex 27.0963 4.48808 0
      vertex 27.0963 4.48808 2
    endloop
  endfacet
  facet normal -0.965946 0.258743 0
    outer loop
      vertex 27.1413 3.62918 0
      vertex 27.1738 3.75051 2
      vertex 27.1738 3.75051 0
    endloop
  endfacet
  facet normal -0.965946 0.258743 0
    outer loop
      vertex 27.1738 3.75051 2
      vertex 27.1413 3.62918 0
      vertex 27.1413 3.62918 2
    endloop
  endfacet
  facet normal -0.156392 0.987695 0
    outer loop
      vertex 26.2495 2.82622 0
      vertex 26.1254 2.80657 2
      vertex 26.2495 2.82622 2
    endloop
  endfacet
  facet normal -0.156392 0.987695 0
    outer loop
      vertex 26.1254 2.80657 2
      vertex 26.2495 2.82622 0
      vertex 26.1254 2.80657 0
    endloop
  endfacet
  facet normal 0.454016 -0.890993 0
    outer loop
      vertex 25.4 5.03923 0
      vertex 25.5119 5.09625 2
      vertex 25.4 5.03923 2
    endloop
  endfacet
  facet normal 0.454016 -0.890993 0
    outer loop
      vertex 25.5119 5.09625 2
      vertex 25.4 5.03923 0
      vertex 25.5119 5.09625 0
    endloop
  endfacet
  facet normal 0.777345 0.629075 0
    outer loop
      vertex 25.1082 3.19704 2
      vertex 25.0292 3.29466 0
      vertex 25.0292 3.29466 2
    endloop
  endfacet
  facet normal 0.777345 0.629075 0
    outer loop
      vertex 25.0292 3.29466 0
      vertex 25.1082 3.19704 2
      vertex 25.1082 3.19704 0
    endloop
  endfacet
  facet normal -0.933612 0.358285 0
    outer loop
      vertex 27.0963 3.51192 0
      vertex 27.1413 3.62918 2
      vertex 27.1413 3.62918 0
    endloop
  endfacet
  facet normal -0.933612 0.358285 0
    outer loop
      vertex 27.1413 3.62918 2
      vertex 27.0963 3.51192 0
      vertex 27.0963 3.51192 2
    endloop
  endfacet
  facet normal 0.965946 -0.258743 0
    outer loop
      vertex 24.8262 4.24949 2
      vertex 24.8587 4.37082 0
      vertex 24.8587 4.37082 2
    endloop
  endfacet
  facet normal 0.965946 -0.258743 0
    outer loop
      vertex 24.8587 4.37082 0
      vertex 24.8262 4.24949 2
      vertex 24.8262 4.24949 0
    endloop
  endfacet
  facet normal -0.777345 0.629075 0
    outer loop
      vertex 26.8918 3.19704 0
      vertex 26.9708 3.29466 2
      vertex 26.9708 3.29466 0
    endloop
  endfacet
  facet normal -0.777345 0.629075 0
    outer loop
      vertex 26.9708 3.29466 2
      vertex 26.8918 3.19704 0
      vertex 26.8918 3.19704 2
    endloop
  endfacet
  facet normal 0.707147 -0.707067 0
    outer loop
      vertex 25.1082 4.80296 2
      vertex 25.197 4.89177 0
      vertex 25.197 4.89177 2
    endloop
  endfacet
  facet normal 0.707147 -0.707067 0
    outer loop
      vertex 25.197 4.89177 0
      vertex 25.1082 4.80296 2
      vertex 25.1082 4.80296 0
    endloop
  endfacet
  facet normal -0.890768 0.454457 0
    outer loop
      vertex 27.0392 3.4 0
      vertex 27.0963 3.51192 2
      vertex 27.0963 3.51192 0
    endloop
  endfacet
  facet normal -0.890768 0.454457 0
    outer loop
      vertex 27.0963 3.51192 2
      vertex 27.0392 3.4 0
      vertex 27.0392 3.4 2
    endloop
  endfacet
  facet normal 0.629004 -0.777402 0
    outer loop
      vertex 25.197 4.89177 0
      vertex 25.2947 4.97082 2
      vertex 25.197 4.89177 2
    endloop
  endfacet
  facet normal 0.629004 -0.777402 0
    outer loop
      vertex 25.2947 4.97082 2
      vertex 25.197 4.89177 0
      vertex 25.2947 4.97082 0
    endloop
  endfacet
  facet normal -0.838702 0.544591 0
    outer loop
      vertex 26.9708 3.29466 0
      vertex 27.0392 3.4 2
      vertex 27.0392 3.4 0
    endloop
  endfacet
  facet normal -0.838702 0.544591 0
    outer loop
      vertex 27.0392 3.4 2
      vertex 26.9708 3.29466 0
      vertex 26.9708 3.29466 2
    endloop
  endfacet
  facet normal -0.987749 0.156053 0
    outer loop
      vertex 27.1738 3.75051 0
      vertex 27.1934 3.87457 2
      vertex 27.1934 3.87457 0
    endloop
  endfacet
  facet normal -0.987749 0.156053 0
    outer loop
      vertex 27.1934 3.87457 2
      vertex 27.1738 3.75051 0
      vertex 27.1738 3.75051 2
    endloop
  endfacet
  facet normal -0.454016 -0.890993 0
    outer loop
      vertex 26.4881 5.09625 0
      vertex 26.6 5.03923 2
      vertex 26.4881 5.09625 2
    endloop
  endfacet
  facet normal -0.454016 -0.890993 -0
    outer loop
      vertex 26.6 5.03923 2
      vertex 26.4881 5.09625 0
      vertex 26.6 5.03923 0
    endloop
  endfacet
  facet normal -0.544792 -0.838571 0
    outer loop
      vertex 26.6 5.03923 0
      vertex 26.7053 4.97082 2
      vertex 26.6 5.03923 2
    endloop
  endfacet
  facet normal -0.544792 -0.838571 -0
    outer loop
      vertex 26.7053 4.97082 2
      vertex 26.6 5.03923 0
      vertex 26.7053 4.97082 0
    endloop
  endfacet
  facet normal -0.777345 -0.629075 0
    outer loop
      vertex 26.9708 4.70534 0
      vertex 26.8918 4.80296 2
      vertex 26.8918 4.80296 0
    endloop
  endfacet
  facet normal -0.777345 -0.629075 0
    outer loop
      vertex 26.8918 4.80296 2
      vertex 26.9708 4.70534 0
      vertex 26.9708 4.70534 2
    endloop
  endfacet
  facet normal 0.156392 -0.987695 0
    outer loop
      vertex 25.7505 5.17378 0
      vertex 25.8746 5.19343 2
      vertex 25.7505 5.17378 2
    endloop
  endfacet
  facet normal 0.156392 -0.987695 0
    outer loop
      vertex 25.8746 5.19343 2
      vertex 25.7505 5.17378 0
      vertex 25.8746 5.19343 0
    endloop
  endfacet
  facet normal 0.838702 -0.544591 0
    outer loop
      vertex 24.9608 4.6 2
      vertex 25.0292 4.70534 0
      vertex 25.0292 4.70534 2
    endloop
  endfacet
  facet normal 0.838702 -0.544591 0
    outer loop
      vertex 25.0292 4.70534 0
      vertex 24.9608 4.6 2
      vertex 24.9608 4.6 0
    endloop
  endfacet
  facet normal 0.544792 -0.838571 0
    outer loop
      vertex 25.2947 4.97082 0
      vertex 25.4 5.03923 2
      vertex 25.2947 4.97082 2
    endloop
  endfacet
  facet normal 0.544792 -0.838571 0
    outer loop
      vertex 25.4 5.03923 2
      vertex 25.2947 4.97082 0
      vertex 25.4 5.03923 0
    endloop
  endfacet
  facet normal -0.358318 -0.9336 0
    outer loop
      vertex 26.3708 5.14127 0
      vertex 26.4881 5.09625 2
      vertex 26.3708 5.14127 2
    endloop
  endfacet
  facet normal -0.358318 -0.9336 -0
    outer loop
      vertex 26.4881 5.09625 2
      vertex 26.3708 5.14127 0
      vertex 26.4881 5.09625 0
    endloop
  endfacet
  facet normal 0.358248 0.933626 -0
    outer loop
      vertex 25.6292 2.85873 0
      vertex 25.5119 2.90374 2
      vertex 25.6292 2.85873 2
    endloop
  endfacet
  facet normal 0.358248 0.933626 0
    outer loop
      vertex 25.5119 2.90374 2
      vertex 25.6292 2.85873 0
      vertex 25.5119 2.90374 0
    endloop
  endfacet
  facet normal -0.707147 0.707067 0
    outer loop
      vertex 26.8918 3.19704 0
      vertex 26.803 3.10823 2
      vertex 26.8918 3.19704 2
    endloop
  endfacet
  facet normal -0.707147 0.707067 0
    outer loop
      vertex 26.803 3.10823 2
      vertex 26.8918 3.19704 0
      vertex 26.803 3.10823 0
    endloop
  endfacet
  facet normal 0.987749 -0.156053 0
    outer loop
      vertex 24.8066 4.12543 2
      vertex 24.8262 4.24949 0
      vertex 24.8262 4.24949 2
    endloop
  endfacet
  facet normal 0.987749 -0.156053 0
    outer loop
      vertex 24.8262 4.24949 0
      vertex 24.8066 4.12543 2
      vertex 24.8066 4.12543 0
    endloop
  endfacet
  facet normal -0.258877 -0.96591 0
    outer loop
      vertex 26.2495 5.17378 0
      vertex 26.3708 5.14127 2
      vertex 26.2495 5.17378 2
    endloop
  endfacet
  facet normal -0.258877 -0.96591 -0
    outer loop
      vertex 26.3708 5.14127 2
      vertex 26.2495 5.17378 0
      vertex 26.3708 5.14127 0
    endloop
  endfacet
  facet normal 0.987749 0.156053 0
    outer loop
      vertex 24.8262 3.75051 2
      vertex 24.8066 3.87457 0
      vertex 24.8066 3.87457 2
    endloop
  endfacet
  facet normal 0.987749 0.156053 0
    outer loop
      vertex 24.8066 3.87457 0
      vertex 24.8262 3.75051 2
      vertex 24.8262 3.75051 0
    endloop
  endfacet
  facet normal 0.707147 0.707067 0
    outer loop
      vertex 25.197 3.10823 2
      vertex 25.1082 3.19704 0
      vertex 25.1082 3.19704 2
    endloop
  endfacet
  facet normal 0.707147 0.707067 0
    outer loop
      vertex 25.1082 3.19704 0
      vertex 25.197 3.10823 2
      vertex 25.197 3.10823 0
    endloop
  endfacet
  facet normal 0.156392 0.987695 -0
    outer loop
      vertex 25.8746 2.80657 0
      vertex 25.7505 2.82622 2
      vertex 25.8746 2.80657 2
    endloop
  endfacet
  facet normal 0.156392 0.987695 0
    outer loop
      vertex 25.7505 2.82622 2
      vertex 25.8746 2.80657 0
      vertex 25.7505 2.82622 0
    endloop
  endfacet
  facet normal -0.629004 0.777402 0
    outer loop
      vertex 26.803 3.10823 0
      vertex 26.7053 3.02918 2
      vertex 26.803 3.10823 2
    endloop
  endfacet
  facet normal -0.629004 0.777402 0
    outer loop
      vertex 26.7053 3.02918 2
      vertex 26.803 3.10823 0
      vertex 26.7053 3.02918 0
    endloop
  endfacet
  facet normal 0.838702 0.544591 0
    outer loop
      vertex 25.0292 3.29466 2
      vertex 24.9608 3.4 0
      vertex 24.9608 3.4 2
    endloop
  endfacet
  facet normal 0.838702 0.544591 0
    outer loop
      vertex 24.9608 3.4 0
      vertex 25.0292 3.29466 2
      vertex 25.0292 3.29466 0
    endloop
  endfacet
  facet normal 0.998618 -0.0525463 0
    outer loop
      vertex 24.8 4 2
      vertex 24.8066 4.12543 0
      vertex 24.8066 4.12543 2
    endloop
  endfacet
  facet normal 0.998618 -0.0525463 0
    outer loop
      vertex 24.8066 4.12543 0
      vertex 24.8 4 2
      vertex 24.8 4 0
    endloop
  endfacet
  facet normal 0.890768 -0.454457 0
    outer loop
      vertex 24.9037 4.48808 2
      vertex 24.9608 4.6 0
      vertex 24.9608 4.6 2
    endloop
  endfacet
  facet normal 0.890768 -0.454457 0
    outer loop
      vertex 24.9608 4.6 0
      vertex 24.9037 4.48808 2
      vertex 24.9037 4.48808 0
    endloop
  endfacet
  facet normal 0.933612 -0.358285 0
    outer loop
      vertex 24.8587 4.37082 2
      vertex 24.9037 4.48808 0
      vertex 24.9037 4.48808 2
    endloop
  endfacet
  facet normal 0.933612 -0.358285 0
    outer loop
      vertex 24.9037 4.48808 0
      vertex 24.8587 4.37082 2
      vertex 24.8587 4.37082 0
    endloop
  endfacet
  facet normal 0.500006 -0.866022 0
    outer loop
      vertex -28.1174 5.2225 2
      vertex -26 6.445 3.5
      vertex -28.1174 5.2225 3.5
    endloop
  endfacet
  facet normal 0.500006 -0.866022 0
    outer loop
      vertex -26 6.445 3.5
      vertex -28.1174 5.2225 2
      vertex -26 6.445 2
    endloop
  endfacet
  facet normal -0.500006 -0.866022 0
    outer loop
      vertex -26 6.445 2
      vertex -23.8826 5.2225 3.5
      vertex -26 6.445 3.5
    endloop
  endfacet
  facet normal -0.500006 -0.866022 -0
    outer loop
      vertex -23.8826 5.2225 3.5
      vertex -26 6.445 2
      vertex -23.8826 5.2225 2
    endloop
  endfacet
  facet normal -1 0 0
    outer loop
      vertex -23.8826 2.7775 2
      vertex -23.8826 5.2225 3.5
      vertex -23.8826 5.2225 2
    endloop
  endfacet
  facet normal -1 -0 0
    outer loop
      vertex -23.8826 5.2225 3.5
      vertex -23.8826 2.7775 2
      vertex -23.8826 2.7775 3.5
    endloop
  endfacet
  facet normal 0 0 1
    outer loop
      vertex -23.8826 5.2225 2
      vertex -24.8 4 2
      vertex -23.8826 2.7775 2
    endloop
  endfacet
  facet normal 0 0 1
    outer loop
      vertex -23.8826 5.2225 2
      vertex -24.8066 4.12543 2
      vertex -24.8 4 2
    endloop
  endfacet
  facet normal 0 0 1
    outer loop
      vertex -23.8826 5.2225 2
      vertex -24.8262 4.24949 2
      vertex -24.8066 4.12543 2
    endloop
  endfacet
  facet normal 0 0 1
    outer loop
      vertex -23.8826 5.2225 2
      vertex -24.8587 4.37082 2
      vertex -24.8262 4.24949 2
    endloop
  endfacet
  facet normal 0 0 1
    outer loop
      vertex -23.8826 5.2225 2
      vertex -24.9037 4.48808 2
      vertex -24.8587 4.37082 2
    endloop
  endfacet
  facet normal 0 0 1
    outer loop
      vertex -23.8826 5.2225 2
      vertex -24.9608 4.6 2
      vertex -24.9037 4.48808 2
    endloop
  endfacet
  facet normal 0 0 1
    outer loop
      vertex -23.8826 5.2225 2
      vertex -25.0292 4.70534 2
      vertex -24.9608 4.6 2
    endloop
  endfacet
  facet normal 0 0 1
    outer loop
      vertex -23.8826 5.2225 2
      vertex -25.1082 4.80296 2
      vertex -25.0292 4.70534 2
    endloop
  endfacet
  facet normal 0 0 1
    outer loop
      vertex -23.8826 5.2225 2
      vertex -25.197 4.89177 2
      vertex -25.1082 4.80296 2
    endloop
  endfacet
  facet normal 0 0 1
    outer loop
      vertex -23.8826 5.2225 2
      vertex -25.2947 4.97082 2
      vertex -25.197 4.89177 2
    endloop
  endfacet
  facet normal 0 0 1
    outer loop
      vertex -23.8826 5.2225 2
      vertex -25.4 5.03923 2
      vertex -25.2947 4.97082 2
    endloop
  endfacet
  facet normal 0 0 1
    outer loop
      vertex -26 6.445 2
      vertex -25.4 5.03923 2
      vertex -23.8826 5.2225 2
    endloop
  endfacet
  facet normal 0 0 1
    outer loop
      vertex -25.4 5.03923 2
      vertex -26 6.445 2
      vertex -25.5119 5.09625 2
    endloop
  endfacet
  facet normal 0 0 1
    outer loop
      vertex -25.5119 5.09625 2
      vertex -26 6.445 2
      vertex -25.6292 5.14127 2
    endloop
  endfacet
  facet normal 0 0 1
    outer loop
      vertex -25.6292 5.14127 2
      vertex -26 6.445 2
      vertex -25.7505 5.17378 2
    endloop
  endfacet
  facet normal 0 0 1
    outer loop
      vertex -25.7505 5.17378 2
      vertex -26 6.445 2
      vertex -25.8746 5.19343 2
    endloop
  endfacet
  facet normal 0 0 1
    outer loop
      vertex -26 6.445 2
      vertex -26 5.2 2
      vertex -25.8746 5.19343 2
    endloop
  endfacet
  facet normal 0 0 1
    outer loop
      vertex -26 6.445 2
      vertex -26.1254 5.19343 2
      vertex -26 5.2 2
    endloop
  endfacet
  facet normal 0 0 1
    outer loop
      vertex -26 6.445 2
      vertex -26.2495 5.17378 2
      vertex -26.1254 5.19343 2
    endloop
  endfacet
  facet normal 0 0 1
    outer loop
      vertex -26 6.445 2
      vertex -26.3708 5.14127 2
      vertex -26.2495 5.17378 2
    endloop
  endfacet
  facet normal 0 0 1
    outer loop
      vertex -26 6.445 2
      vertex -26.4881 5.09625 2
      vertex -26.3708 5.14127 2
    endloop
  endfacet
  facet normal 0 0 1
    outer loop
      vertex -26 6.445 2
      vertex -26.6 5.03923 2
      vertex -26.4881 5.09625 2
    endloop
  endfacet
  facet normal -0 0 1
    outer loop
      vertex -28.1174 5.2225 2
      vertex -26.6 5.03923 2
      vertex -26 6.445 2
    endloop
  endfacet
  facet normal 0 0 1
    outer loop
      vertex -26.6 5.03923 2
      vertex -28.1174 5.2225 2
      vertex -26.7053 4.97082 2
    endloop
  endfacet
  facet normal 0 0 1
    outer loop
      vertex -26.7053 4.97082 2
      vertex -28.1174 5.2225 2
      vertex -26.803 4.89177 2
    endloop
  endfacet
  facet normal 0 0 1
    outer loop
      vertex -26.803 4.89177 2
      vertex -28.1174 5.2225 2
      vertex -26.8918 4.80296 2
    endloop
  endfacet
  facet normal 0 0 1
    outer loop
      vertex -26.8918 4.80296 2
      vertex -28.1174 5.2225 2
      vertex -26.9708 4.70534 2
    endloop
  endfacet
  facet normal 0 0 1
    outer loop
      vertex -27.1934 4.12543 2
      vertex -28.1174 5.2225 2
      vertex -27.2 4 2
    endloop
  endfacet
  facet normal 0 0 1
    outer loop
      vertex -27.1738 4.24949 2
      vertex -28.1174 5.2225 2
      vertex -27.1934 4.12543 2
    endloop
  endfacet
  facet normal 0 0 1
    outer loop
      vertex -27.1413 4.37082 2
      vertex -28.1174 5.2225 2
      vertex -27.1738 4.24949 2
    endloop
  endfacet
  facet normal 0 0 1
    outer loop
      vertex -27.0963 4.48808 2
      vertex -28.1174 5.2225 2
      vertex -27.1413 4.37082 2
    endloop
  endfacet
  facet normal 0 0 1
    outer loop
      vertex -27.0392 4.6 2
      vertex -28.1174 5.2225 2
      vertex -27.0963 4.48808 2
    endloop
  endfacet
  facet normal 0 0 1
    outer loop
      vertex -26.9708 4.70534 2
      vertex -28.1174 5.2225 2
      vertex -27.0392 4.6 2
    endloop
  endfacet
  facet normal -0 0 1
    outer loop
      vertex -24.8066 3.87457 2
      vertex -23.8826 2.7775 2
      vertex -24.8 4 2
    endloop
  endfacet
  facet normal -0 0 1
    outer loop
      vertex -24.8262 3.75051 2
      vertex -23.8826 2.7775 2
      vertex -24.8066 3.87457 2
    endloop
  endfacet
  facet normal -0 0 1
    outer loop
      vertex -24.8587 3.62918 2
      vertex -23.8826 2.7775 2
      vertex -24.8262 3.75051 2
    endloop
  endfacet
  facet normal -0 0 1
    outer loop
      vertex -24.9037 3.51192 2
      vertex -23.8826 2.7775 2
      vertex -24.8587 3.62918 2
    endloop
  endfacet
  facet normal -0 0 1
    outer loop
      vertex -24.9608 3.4 2
      vertex -23.8826 2.7775 2
      vertex -24.9037 3.51192 2
    endloop
  endfacet
  facet normal -0 0 1
    outer loop
      vertex -25.0292 3.29466 2
      vertex -23.8826 2.7775 2
      vertex -24.9608 3.4 2
    endloop
  endfacet
  facet normal -0 0 1
    outer loop
      vertex -25.1082 3.19704 2
      vertex -23.8826 2.7775 2
      vertex -25.0292 3.29466 2
    endloop
  endfacet
  facet normal -0 0 1
    outer loop
      vertex -25.197 3.10823 2
      vertex -23.8826 2.7775 2
      vertex -25.1082 3.19704 2
    endloop
  endfacet
  facet normal -0 0 1
    outer loop
      vertex -25.2947 3.02918 2
      vertex -23.8826 2.7775 2
      vertex -25.197 3.10823 2
    endloop
  endfacet
  facet normal -0 0 1
    outer loop
      vertex -25.4 2.96077 2
      vertex -23.8826 2.7775 2
      vertex -25.2947 3.02918 2
    endloop
  endfacet
  facet normal 0 0 1
    outer loop
      vertex -26 1.555 2
      vertex -25.4 2.96077 2
      vertex -25.5119 2.90374 2
    endloop
  endfacet
  facet normal 0 0 1
    outer loop
      vertex -26 1.555 2
      vertex -25.5119 2.90374 2
      vertex -25.6292 2.85873 2
    endloop
  endfacet
  facet normal 0 0 1
    outer loop
      vertex -26 1.555 2
      vertex -25.6292 2.85873 2
      vertex -25.7505 2.82622 2
    endloop
  endfacet
  facet normal 0 0 1
    outer loop
      vertex -26 1.555 2
      vertex -25.7505 2.82622 2
      vertex -25.8746 2.80657 2
    endloop
  endfacet
  facet normal 0 0 1
    outer loop
      vertex -26 1.555 2
      vertex -25.8746 2.80657 2
      vertex -26 2.8 2
    endloop
  endfacet
  facet normal 0 0 1
    outer loop
      vertex -25.4 2.96077 2
      vertex -26 1.555 2
      vertex -23.8826 2.7775 2
    endloop
  endfacet
  facet normal 0 0 1
    outer loop
      vertex -26.1254 2.80657 2
      vertex -26 1.555 2
      vertex -26 2.8 2
    endloop
  endfacet
  facet normal 0 0 1
    outer loop
      vertex -26.2495 2.82622 2
      vertex -26 1.555 2
      vertex -26.1254 2.80657 2
    endloop
  endfacet
  facet normal 0 0 1
    outer loop
      vertex -26.3708 2.85873 2
      vertex -26 1.555 2
      vertex -26.2495 2.82622 2
    endloop
  endfacet
  facet normal 0 0 1
    outer loop
      vertex -26.4881 2.90374 2
      vertex -26 1.555 2
      vertex -26.3708 2.85873 2
    endloop
  endfacet
  facet normal 0 0 1
    outer loop
      vertex -26.6 2.96077 2
      vertex -26 1.555 2
      vertex -26.4881 2.90374 2
    endloop
  endfacet
  facet normal 0 0 1
    outer loop
      vertex -28.1174 2.7775 2
      vertex -26.6 2.96077 2
      vertex -26.7053 3.02918 2
    endloop
  endfacet
  facet normal 0 0 1
    outer loop
      vertex -28.1174 2.7775 2
      vertex -26.7053 3.02918 2
      vertex -26.803 3.10823 2
    endloop
  endfacet
  facet normal 0 0 1
    outer loop
      vertex -28.1174 2.7775 2
      vertex -26.803 3.10823 2
      vertex -26.8918 3.19704 2
    endloop
  endfacet
  facet normal 0 0 1
    outer loop
      vertex -28.1174 2.7775 2
      vertex -26.8918 3.19704 2
      vertex -26.9708 3.29466 2
    endloop
  endfacet
  facet normal 0 0 1
    outer loop
      vertex -28.1174 2.7775 2
      vertex -26.9708 3.29466 2
      vertex -27.0392 3.4 2
    endloop
  endfacet
  facet normal 0 0 1
    outer loop
      vertex -28.1174 2.7775 2
      vertex -27.2 4 2
      vertex -28.1174 5.2225 2
    endloop
  endfacet
  facet normal 0 0 1
    outer loop
      vertex -27.2 4 2
      vertex -28.1174 2.7775 2
      vertex -27.1934 3.87457 2
    endloop
  endfacet
  facet normal 0 0 1
    outer loop
      vertex -27.1934 3.87457 2
      vertex -28.1174 2.7775 2
      vertex -27.1738 3.75051 2
    endloop
  endfacet
  facet normal 0 0 1
    outer loop
      vertex -27.1738 3.75051 2
      vertex -28.1174 2.7775 2
      vertex -27.1413 3.62918 2
    endloop
  endfacet
  facet normal 0 0 1
    outer loop
      vertex -27.1413 3.62918 2
      vertex -28.1174 2.7775 2
      vertex -27.0963 3.51192 2
    endloop
  endfacet
  facet normal 0 0 1
    outer loop
      vertex -27.0963 3.51192 2
      vertex -28.1174 2.7775 2
      vertex -27.0392 3.4 2
    endloop
  endfacet
  facet normal 0 0 1
    outer loop
      vertex -26.6 2.96077 2
      vertex -28.1174 2.7775 2
      vertex -26 1.555 2
    endloop
  endfacet
  facet normal 0.500006 0.866022 -0
    outer loop
      vertex -26 1.555 2
      vertex -28.1174 2.7775 3.5
      vertex -26 1.555 3.5
    endloop
  endfacet
  facet normal 0.500006 0.866022 0
    outer loop
      vertex -28.1174 2.7775 3.5
      vertex -26 1.555 2
      vertex -28.1174 2.7775 2
    endloop
  endfacet
  facet normal -0.500006 0.866022 0
    outer loop
      vertex -23.8826 2.7775 2
      vertex -26 1.555 3.5
      vertex -23.8826 2.7775 3.5
    endloop
  endfacet
  facet normal -0.500006 0.866022 0
    outer loop
      vertex -26 1.555 3.5
      vertex -23.8826 2.7775 2
      vertex -26 1.555 2
    endloop
  endfacet
  facet normal 1 -0 0
    outer loop
      vertex -28.1174 2.7775 3.5
      vertex -28.1174 5.2225 2
      vertex -28.1174 5.2225 3.5
    endloop
  endfacet
  facet normal 1 0 0
    outer loop
      vertex -28.1174 5.2225 2
      vertex -28.1174 2.7775 3.5
      vertex -28.1174 2.7775 2
    endloop
  endfacet
  facet normal 0.500006 -0.866022 0
    outer loop
      vertex 23.8826 5.2225 2
      vertex 26 6.445 3.5
      vertex 23.8826 5.2225 3.5
    endloop
  endfacet
  facet normal 0.500006 -0.866022 0
    outer loop
      vertex 26 6.445 3.5
      vertex 23.8826 5.2225 2
      vertex 26 6.445 2
    endloop
  endfacet
  facet normal -0.500006 -0.866022 0
    outer loop
      vertex 26 6.445 2
      vertex 28.1174 5.2225 3.5
      vertex 26 6.445 3.5
    endloop
  endfacet
  facet normal -0.500006 -0.866022 -0
    outer loop
      vertex 28.1174 5.2225 3.5
      vertex 26 6.445 2
      vertex 28.1174 5.2225 2
    endloop
  endfacet
  facet normal 1 -0 0
    outer loop
      vertex 23.8826 2.7775 3.5
      vertex 23.8826 5.2225 2
      vertex 23.8826 5.2225 3.5
    endloop
  endfacet
  facet normal 1 0 0
    outer loop
      vertex 23.8826 5.2225 2
      vertex 23.8826 2.7775 3.5
      vertex 23.8826 2.7775 2
    endloop
  endfacet
  facet normal -0.500006 0.866022 0
    outer loop
      vertex 28.1174 2.7775 2
      vertex 26 1.555 3.5
      vertex 28.1174 2.7775 3.5
    endloop
  endfacet
  facet normal -0.500006 0.866022 0
    outer loop
      vertex 26 1.555 3.5
      vertex 28.1174 2.7775 2
      vertex 26 1.555 2
    endloop
  endfacet
  facet normal -1 0 0
    outer loop
      vertex 28.1174 2.7775 2
      vertex 28.1174 5.2225 3.5
      vertex 28.1174 5.2225 2
    endloop
  endfacet
  facet normal -1 -0 0
    outer loop
      vertex 28.1174 5.2225 3.5
      vertex 28.1174 2.7775 2
      vertex 28.1174 2.7775 3.5
    endloop
  endfacet
  facet normal 0.500006 0.866022 -0
    outer loop
      vertex 26 1.555 2
      vertex 23.8826 2.7775 3.5
      vertex 26 1.555 3.5
    endloop
  endfacet
  facet normal 0.500006 0.866022 0
    outer loop
      vertex 23.8826 2.7775 3.5
      vertex 26 1.555 2
      vertex 23.8826 2.7775 2
    endloop
  endfacet
  facet normal 0 0 1
    outer loop
      vertex 28.1174 5.2225 2
      vertex 27.2 4 2
      vertex 28.1174 2.7775 2
    endloop
  endfacet
  facet normal 0 0 1
    outer loop
      vertex 28.1174 5.2225 2
      vertex 27.1934 4.12543 2
      vertex 27.2 4 2
    endloop
  endfacet
  facet normal 0 0 1
    outer loop
      vertex 28.1174 5.2225 2
      vertex 27.1738 4.24949 2
      vertex 27.1934 4.12543 2
    endloop
  endfacet
  facet normal 0 0 1
    outer loop
      vertex 28.1174 5.2225 2
      vertex 27.1413 4.37082 2
      vertex 27.1738 4.24949 2
    endloop
  endfacet
  facet normal 0 0 1
    outer loop
      vertex 28.1174 5.2225 2
      vertex 27.0963 4.48808 2
      vertex 27.1413 4.37082 2
    endloop
  endfacet
  facet normal 0 0 1
    outer loop
      vertex 28.1174 5.2225 2
      vertex 27.0392 4.6 2
      vertex 27.0963 4.48808 2
    endloop
  endfacet
  facet normal 0 0 1
    outer loop
      vertex 28.1174 5.2225 2
      vertex 26.9708 4.70534 2
      vertex 27.0392 4.6 2
    endloop
  endfacet
  facet normal 0 0 1
    outer loop
      vertex 28.1174 5.2225 2
      vertex 26.8918 4.80296 2
      vertex 26.9708 4.70534 2
    endloop
  endfacet
  facet normal 0 0 1
    outer loop
      vertex 28.1174 5.2225 2
      vertex 26.803 4.89177 2
      vertex 26.8918 4.80296 2
    endloop
  endfacet
  facet normal 0 0 1
    outer loop
      vertex 28.1174 5.2225 2
      vertex 26.7053 4.97082 2
      vertex 26.803 4.89177 2
    endloop
  endfacet
  facet normal 0 0 1
    outer loop
      vertex 28.1174 5.2225 2
      vertex 26.6 5.03923 2
      vertex 26.7053 4.97082 2
    endloop
  endfacet
  facet normal 0 0 1
    outer loop
      vertex 26 6.445 2
      vertex 26.6 5.03923 2
      vertex 28.1174 5.2225 2
    endloop
  endfacet
  facet normal 0 0 1
    outer loop
      vertex 26.6 5.03923 2
      vertex 26 6.445 2
      vertex 26.4881 5.09625 2
    endloop
  endfacet
  facet normal 0 0 1
    outer loop
      vertex 26.4881 5.09625 2
      vertex 26 6.445 2
      vertex 26.3708 5.14127 2
    endloop
  endfacet
  facet normal 0 0 1
    outer loop
      vertex 26.3708 5.14127 2
      vertex 26 6.445 2
      vertex 26.2495 5.17378 2
    endloop
  endfacet
  facet normal 0 0 1
    outer loop
      vertex 26.2495 5.17378 2
      vertex 26 6.445 2
      vertex 26.1254 5.19343 2
    endloop
  endfacet
  facet normal 0 0 1
    outer loop
      vertex 26 6.445 2
      vertex 26 5.2 2
      vertex 26.1254 5.19343 2
    endloop
  endfacet
  facet normal 0 0 1
    outer loop
      vertex 26 6.445 2
      vertex 25.8746 5.19343 2
      vertex 26 5.2 2
    endloop
  endfacet
  facet normal 0 0 1
    outer loop
      vertex 26 6.445 2
      vertex 25.7505 5.17378 2
      vertex 25.8746 5.19343 2
    endloop
  endfacet
  facet normal 0 0 1
    outer loop
      vertex 26 6.445 2
      vertex 25.6292 5.14127 2
      vertex 25.7505 5.17378 2
    endloop
  endfacet
  facet normal 0 0 1
    outer loop
      vertex 26 6.445 2
      vertex 25.5119 5.09625 2
      vertex 25.6292 5.14127 2
    endloop
  endfacet
  facet normal 0 0 1
    outer loop
      vertex 26 6.445 2
      vertex 25.4 5.03923 2
      vertex 25.5119 5.09625 2
    endloop
  endfacet
  facet normal -0 0 1
    outer loop
      vertex 23.8826 5.2225 2
      vertex 25.4 5.03923 2
      vertex 26 6.445 2
    endloop
  endfacet
  facet normal 0 0 1
    outer loop
      vertex 25.4 5.03923 2
      vertex 23.8826 5.2225 2
      vertex 25.2947 4.97082 2
    endloop
  endfacet
  facet normal 0 0 1
    outer loop
      vertex 25.2947 4.97082 2
      vertex 23.8826 5.2225 2
      vertex 25.197 4.89177 2
    endloop
  endfacet
  facet normal 0 0 1
    outer loop
      vertex 25.197 4.89177 2
      vertex 23.8826 5.2225 2
      vertex 25.1082 4.80296 2
    endloop
  endfacet
  facet normal 0 0 1
    outer loop
      vertex 25.1082 4.80296 2
      vertex 23.8826 5.2225 2
      vertex 25.0292 4.70534 2
    endloop
  endfacet
  facet normal 0 0 1
    outer loop
      vertex 24.8066 4.12543 2
      vertex 23.8826 5.2225 2
      vertex 24.8 4 2
    endloop
  endfacet
  facet normal 0 0 1
    outer loop
      vertex 24.8262 4.24949 2
      vertex 23.8826 5.2225 2
      vertex 24.8066 4.12543 2
    endloop
  endfacet
  facet normal 0 0 1
    outer loop
      vertex 24.8587 4.37082 2
      vertex 23.8826 5.2225 2
      vertex 24.8262 4.24949 2
    endloop
  endfacet
  facet normal 0 0 1
    outer loop
      vertex 24.9037 4.48808 2
      vertex 23.8826 5.2225 2
      vertex 24.8587 4.37082 2
    endloop
  endfacet
  facet normal 0 0 1
    outer loop
      vertex 24.9608 4.6 2
      vertex 23.8826 5.2225 2
      vertex 24.9037 4.48808 2
    endloop
  endfacet
  facet normal 0 0 1
    outer loop
      vertex 25.0292 4.70534 2
      vertex 23.8826 5.2225 2
      vertex 24.9608 4.6 2
    endloop
  endfacet
  facet normal -0 0 1
    outer loop
      vertex 27.1934 3.87457 2
      vertex 28.1174 2.7775 2
      vertex 27.2 4 2
    endloop
  endfacet
  facet normal -0 0 1
    outer loop
      vertex 27.1738 3.75051 2
      vertex 28.1174 2.7775 2
      vertex 27.1934 3.87457 2
    endloop
  endfacet
  facet normal -0 0 1
    outer loop
      vertex 27.1413 3.62918 2
      vertex 28.1174 2.7775 2
      vertex 27.1738 3.75051 2
    endloop
  endfacet
  facet normal -0 0 1
    outer loop
      vertex 27.0963 3.51192 2
      vertex 28.1174 2.7775 2
      vertex 27.1413 3.62918 2
    endloop
  endfacet
  facet normal -0 0 1
    outer loop
      vertex 27.0392 3.4 2
      vertex 28.1174 2.7775 2
      vertex 27.0963 3.51192 2
    endloop
  endfacet
  facet normal -0 0 1
    outer loop
      vertex 26.9708 3.29466 2
      vertex 28.1174 2.7775 2
      vertex 27.0392 3.4 2
    endloop
  endfacet
  facet normal -0 0 1
    outer loop
      vertex 26.8918 3.19704 2
      vertex 28.1174 2.7775 2
      vertex 26.9708 3.29466 2
    endloop
  endfacet
  facet normal -0 0 1
    outer loop
      vertex 26.803 3.10823 2
      vertex 28.1174 2.7775 2
      vertex 26.8918 3.19704 2
    endloop
  endfacet
  facet normal -0 0 1
    outer loop
      vertex 26.7053 3.02918 2
      vertex 28.1174 2.7775 2
      vertex 26.803 3.10823 2
    endloop
  endfacet
  facet normal -0 0 1
    outer loop
      vertex 26.6 2.96077 2
      vertex 28.1174 2.7775 2
      vertex 26.7053 3.02918 2
    endloop
  endfacet
  facet normal 0 0 1
    outer loop
      vertex 26 1.555 2
      vertex 26.6 2.96077 2
      vertex 26.4881 2.90374 2
    endloop
  endfacet
  facet normal 0 0 1
    outer loop
      vertex 26 1.555 2
      vertex 26.4881 2.90374 2
      vertex 26.3708 2.85873 2
    endloop
  endfacet
  facet normal 0 0 1
    outer loop
      vertex 26 1.555 2
      vertex 26.3708 2.85873 2
      vertex 26.2495 2.82622 2
    endloop
  endfacet
  facet normal 0 0 1
    outer loop
      vertex 26 1.555 2
      vertex 26.2495 2.82622 2
      vertex 26.1254 2.80657 2
    endloop
  endfacet
  facet normal 0 0 1
    outer loop
      vertex 26 1.555 2
      vertex 26.1254 2.80657 2
      vertex 26 2.8 2
    endloop
  endfacet
  facet normal 0 0 1
    outer loop
      vertex 26.6 2.96077 2
      vertex 26 1.555 2
      vertex 28.1174 2.7775 2
    endloop
  endfacet
  facet normal 0 0 1
    outer loop
      vertex 25.8746 2.80657 2
      vertex 26 1.555 2
      vertex 26 2.8 2
    endloop
  endfacet
  facet normal 0 0 1
    outer loop
      vertex 25.7505 2.82622 2
      vertex 26 1.555 2
      vertex 25.8746 2.80657 2
    endloop
  endfacet
  facet normal 0 0 1
    outer loop
      vertex 25.6292 2.85873 2
      vertex 26 1.555 2
      vertex 25.7505 2.82622 2
    endloop
  endfacet
  facet normal 0 0 1
    outer loop
      vertex 25.5119 2.90374 2
      vertex 26 1.555 2
      vertex 25.6292 2.85873 2
    endloop
  endfacet
  facet normal 0 0 1
    outer loop
      vertex 25.4 2.96077 2
      vertex 26 1.555 2
      vertex 25.5119 2.90374 2
    endloop
  endfacet
  facet normal 0 0 1
    outer loop
      vertex 23.8826 2.7775 2
      vertex 25.4 2.96077 2
      vertex 25.2947 3.02918 2
    endloop
  endfacet
  facet normal 0 0 1
    outer loop
      vertex 23.8826 2.7775 2
      vertex 25.2947 3.02918 2
      vertex 25.197 3.10823 2
    endloop
  endfacet
  facet normal 0 0 1
    outer loop
      vertex 23.8826 2.7775 2
      vertex 25.197 3.10823 2
      vertex 25.1082 3.19704 2
    endloop
  endfacet
  facet normal 0 0 1
    outer loop
      vertex 23.8826 2.7775 2
      vertex 25.1082 3.19704 2
      vertex 25.0292 3.29466 2
    endloop
  endfacet
  facet normal 0 0 1
    outer loop
      vertex 23.8826 2.7775 2
      vertex 25.0292 3.29466 2
      vertex 24.9608 3.4 2
    endloop
  endfacet
  facet normal 0 0 1
    outer loop
      vertex 23.8826 2.7775 2
      vertex 24.8 4 2
      vertex 23.8826 5.2225 2
    endloop
  endfacet
  facet normal 0 0 1
    outer loop
      vertex 24.8 4 2
      vertex 23.8826 2.7775 2
      vertex 24.8066 3.87457 2
    endloop
  endfacet
  facet normal 0 0 1
    outer loop
      vertex 24.8066 3.87457 2
      vertex 23.8826 2.7775 2
      vertex 24.8262 3.75051 2
    endloop
  endfacet
  facet normal 0 0 1
    outer loop
      vertex 24.8262 3.75051 2
      vertex 23.8826 2.7775 2
      vertex 24.8587 3.62918 2
    endloop
  endfacet
  facet normal 0 0 1
    outer loop
      vertex 24.8587 3.62918 2
      vertex 23.8826 2.7775 2
      vertex 24.9037 3.51192 2
    endloop
  endfacet
  facet normal 0 0 1
    outer loop
      vertex 24.9037 3.51192 2
      vertex 23.8826 2.7775 2
      vertex 24.9608 3.4 2
    endloop
  endfacet
  facet normal 0 0 1
    outer loop
      vertex 25.4 2.96077 2
      vertex 23.8826 2.7775 2
      vertex 26 1.555 2
    endloop
  endfacet
endsolid OpenSCAD_Model
