solid OpenSCAD_Model
  facet normal 1 0 0
    outer loop
      vertex 30 2 6.35
      vertex 30 0 6.35
      vertex 30 2 4.35
    endloop
  endfacet
  facet normal 1 0 0
    outer loop
      vertex 30 17.2 4.35
      vertex 30 19.2 6.35
      vertex 30 17.2 6.35
    endloop
  endfacet
  facet normal 1 0 0
    outer loop
      vertex 30 19.2 6.35
      vertex 30 17.2 4.35
      vertex 30 19.2 0
    endloop
  endfacet
  facet normal 1 -0 0
    outer loop
      vertex 30 2 4.35
      vertex 30 19.2 0
      vertex 30 17.2 4.35
    endloop
  endfacet
  facet normal 1 0 0
    outer loop
      vertex 30 2 4.35
      vertex 30 0 0
      vertex 30 19.2 0
    endloop
  endfacet
  facet normal 1 0 0
    outer loop
      vertex 30 0 0
      vertex 30 2 4.35
      vertex 30 0 6.35
    endloop
  endfacet
  facet normal 0 0 1
    outer loop
      vertex 30 17.2 4.35
      vertex 16.6 10.2 4.35
      vertex 30 2 4.35
    endloop
  endfacet
  facet normal 0 0 1
    outer loop
      vertex 30 17.2 4.35
      vertex 16.5912 10.3672 4.35
      vertex 16.6 10.2 4.35
    endloop
  endfacet
  facet normal 0 0 1
    outer loop
      vertex 30 17.2 4.35
      vertex 16.565 10.5327 4.35
      vertex 16.5912 10.3672 4.35
    endloop
  endfacet
  facet normal 0 0 1
    outer loop
      vertex 30 17.2 4.35
      vertex 16.5217 10.6944 4.35
      vertex 16.565 10.5327 4.35
    endloop
  endfacet
  facet normal 0 0 1
    outer loop
      vertex 30 17.2 4.35
      vertex 16.4617 10.8508 4.35
      vertex 16.5217 10.6944 4.35
    endloop
  endfacet
  facet normal 0 0 1
    outer loop
      vertex 30 17.2 4.35
      vertex 16.3856 11 4.35
      vertex 16.4617 10.8508 4.35
    endloop
  endfacet
  facet normal 0 0 1
    outer loop
      vertex 30 17.2 4.35
      vertex 16.2944 11.1405 4.35
      vertex 16.3856 11 4.35
    endloop
  endfacet
  facet normal 0 0 1
    outer loop
      vertex 30 17.2 4.35
      vertex 16.189 11.2706 4.35
      vertex 16.2944 11.1405 4.35
    endloop
  endfacet
  facet normal 0 0 1
    outer loop
      vertex 30 17.2 4.35
      vertex 16.0706 11.389 4.35
      vertex 16.189 11.2706 4.35
    endloop
  endfacet
  facet normal 0 0 1
    outer loop
      vertex 30 17.2 4.35
      vertex 15.9405 11.4944 4.35
      vertex 16.0706 11.389 4.35
    endloop
  endfacet
  facet normal 0 0 1
    outer loop
      vertex 30 17.2 4.35
      vertex 15.8 11.5856 4.35
      vertex 15.9405 11.4944 4.35
    endloop
  endfacet
  facet normal 0 0 1
    outer loop
      vertex 30 17.2 4.35
      vertex 15.6508 11.6617 4.35
      vertex 15.8 11.5856 4.35
    endloop
  endfacet
  facet normal 0 0 1
    outer loop
      vertex 30 17.2 4.35
      vertex 15.4944 11.7217 4.35
      vertex 15.6508 11.6617 4.35
    endloop
  endfacet
  facet normal 0 0 1
    outer loop
      vertex 30 17.2 4.35
      vertex 15.3327 11.765 4.35
      vertex 15.4944 11.7217 4.35
    endloop
  endfacet
  facet normal 0 0 1
    outer loop
      vertex 30 17.2 4.35
      vertex 15.1672 11.7912 4.35
      vertex 15.3327 11.765 4.35
    endloop
  endfacet
  facet normal 0 0 1
    outer loop
      vertex 30 17.2 4.35
      vertex 15 11.8 4.35
      vertex 15.1672 11.7912 4.35
    endloop
  endfacet
  facet normal -0 0 1
    outer loop
      vertex 0 17.2 4.35
      vertex 15 11.8 4.35
      vertex 30 17.2 4.35
    endloop
  endfacet
  facet normal 0 0 1
    outer loop
      vertex 15 11.8 4.35
      vertex 0 17.2 4.35
      vertex 14.8328 11.7912 4.35
    endloop
  endfacet
  facet normal 0 0 1
    outer loop
      vertex 14.8328 11.7912 4.35
      vertex 0 17.2 4.35
      vertex 14.6673 11.765 4.35
    endloop
  endfacet
  facet normal 0 0 1
    outer loop
      vertex 13.4088 10.3672 4.35
      vertex 0 17.2 4.35
      vertex 13.4 10.2 4.35
    endloop
  endfacet
  facet normal 0 0 1
    outer loop
      vertex 13.435 10.5327 4.35
      vertex 0 17.2 4.35
      vertex 13.4088 10.3672 4.35
    endloop
  endfacet
  facet normal 0 0 1
    outer loop
      vertex 13.4783 10.6944 4.35
      vertex 0 17.2 4.35
      vertex 13.435 10.5327 4.35
    endloop
  endfacet
  facet normal 0 0 1
    outer loop
      vertex 13.5383 10.8508 4.35
      vertex 0 17.2 4.35
      vertex 13.4783 10.6944 4.35
    endloop
  endfacet
  facet normal 0 0 1
    outer loop
      vertex 13.6144 11 4.35
      vertex 0 17.2 4.35
      vertex 13.5383 10.8508 4.35
    endloop
  endfacet
  facet normal 0 0 1
    outer loop
      vertex 13.7056 11.1405 4.35
      vertex 0 17.2 4.35
      vertex 13.6144 11 4.35
    endloop
  endfacet
  facet normal 0 0 1
    outer loop
      vertex 13.811 11.2706 4.35
      vertex 0 17.2 4.35
      vertex 13.7056 11.1405 4.35
    endloop
  endfacet
  facet normal 0 0 1
    outer loop
      vertex 13.9294 11.389 4.35
      vertex 0 17.2 4.35
      vertex 13.811 11.2706 4.35
    endloop
  endfacet
  facet normal 0 0 1
    outer loop
      vertex 14.0595 11.4944 4.35
      vertex 0 17.2 4.35
      vertex 13.9294 11.389 4.35
    endloop
  endfacet
  facet normal 0 0 1
    outer loop
      vertex 14.2 11.5856 4.35
      vertex 0 17.2 4.35
      vertex 14.0595 11.4944 4.35
    endloop
  endfacet
  facet normal 0 0 1
    outer loop
      vertex 14.3492 11.6617 4.35
      vertex 0 17.2 4.35
      vertex 14.2 11.5856 4.35
    endloop
  endfacet
  facet normal 0 0 1
    outer loop
      vertex 14.5056 11.7217 4.35
      vertex 0 17.2 4.35
      vertex 14.3492 11.6617 4.35
    endloop
  endfacet
  facet normal 0 0 1
    outer loop
      vertex 14.6673 11.765 4.35
      vertex 0 17.2 4.35
      vertex 14.5056 11.7217 4.35
    endloop
  endfacet
  facet normal -0 0 1
    outer loop
      vertex 16.5912 10.0328 4.35
      vertex 30 2 4.35
      vertex 16.6 10.2 4.35
    endloop
  endfacet
  facet normal -0 0 1
    outer loop
      vertex 16.565 9.86734 4.35
      vertex 30 2 4.35
      vertex 16.5912 10.0328 4.35
    endloop
  endfacet
  facet normal -0 0 1
    outer loop
      vertex 16.5217 9.70557 4.35
      vertex 30 2 4.35
      vertex 16.565 9.86734 4.35
    endloop
  endfacet
  facet normal -0 0 1
    outer loop
      vertex 16.4617 9.54922 4.35
      vertex 30 2 4.35
      vertex 16.5217 9.70557 4.35
    endloop
  endfacet
  facet normal -0 0 1
    outer loop
      vertex 16.3856 9.4 4.35
      vertex 30 2 4.35
      vertex 16.4617 9.54922 4.35
    endloop
  endfacet
  facet normal -0 0 1
    outer loop
      vertex 16.2944 9.25954 4.35
      vertex 30 2 4.35
      vertex 16.3856 9.4 4.35
    endloop
  endfacet
  facet normal -0 0 1
    outer loop
      vertex 16.189 9.12939 4.35
      vertex 30 2 4.35
      vertex 16.2944 9.25954 4.35
    endloop
  endfacet
  facet normal -0 0 1
    outer loop
      vertex 16.0706 9.01097 4.35
      vertex 30 2 4.35
      vertex 16.189 9.12939 4.35
    endloop
  endfacet
  facet normal -0 0 1
    outer loop
      vertex 15.9405 8.90557 4.35
      vertex 30 2 4.35
      vertex 16.0706 9.01097 4.35
    endloop
  endfacet
  facet normal -0 0 1
    outer loop
      vertex 15.8 8.81436 4.35
      vertex 30 2 4.35
      vertex 15.9405 8.90557 4.35
    endloop
  endfacet
  facet normal -0 0 1
    outer loop
      vertex 15.6508 8.73833 4.35
      vertex 30 2 4.35
      vertex 15.8 8.81436 4.35
    endloop
  endfacet
  facet normal -0 0 1
    outer loop
      vertex 15.4944 8.67831 4.35
      vertex 30 2 4.35
      vertex 15.6508 8.73833 4.35
    endloop
  endfacet
  facet normal -0 0 1
    outer loop
      vertex 15.3327 8.63496 4.35
      vertex 30 2 4.35
      vertex 15.4944 8.67831 4.35
    endloop
  endfacet
  facet normal -0 0 1
    outer loop
      vertex 15.1672 8.60877 4.35
      vertex 30 2 4.35
      vertex 15.3327 8.63496 4.35
    endloop
  endfacet
  facet normal -0 0 1
    outer loop
      vertex 15 8.6 4.35
      vertex 30 2 4.35
      vertex 15.1672 8.60877 4.35
    endloop
  endfacet
  facet normal 0 0 1
    outer loop
      vertex 0 2 4.35
      vertex 15 8.6 4.35
      vertex 14.8328 8.60877 4.35
    endloop
  endfacet
  facet normal 0 0 1
    outer loop
      vertex 0 2 4.35
      vertex 14.8328 8.60877 4.35
      vertex 14.6673 8.63496 4.35
    endloop
  endfacet
  facet normal 0 0 1
    outer loop
      vertex 0 2 4.35
      vertex 14.6673 8.63496 4.35
      vertex 14.5056 8.67831 4.35
    endloop
  endfacet
  facet normal 0 0 1
    outer loop
      vertex 0 2 4.35
      vertex 14.5056 8.67831 4.35
      vertex 14.3492 8.73833 4.35
    endloop
  endfacet
  facet normal 0 0 1
    outer loop
      vertex 0 17.2 4.35
      vertex 13.4088 10.0328 4.35
      vertex 13.4 10.2 4.35
    endloop
  endfacet
  facet normal 0 0 1
    outer loop
      vertex 0 2 4.35
      vertex 13.4088 10.0328 4.35
      vertex 0 17.2 4.35
    endloop
  endfacet
  facet normal 0 0 1
    outer loop
      vertex 13.4088 10.0328 4.35
      vertex 0 2 4.35
      vertex 13.435 9.86734 4.35
    endloop
  endfacet
  facet normal 0 0 1
    outer loop
      vertex 13.435 9.86734 4.35
      vertex 0 2 4.35
      vertex 13.4783 9.70557 4.35
    endloop
  endfacet
  facet normal 0 0 1
    outer loop
      vertex 13.4783 9.70557 4.35
      vertex 0 2 4.35
      vertex 13.5383 9.54922 4.35
    endloop
  endfacet
  facet normal 0 0 1
    outer loop
      vertex 13.5383 9.54922 4.35
      vertex 0 2 4.35
      vertex 13.6144 9.4 4.35
    endloop
  endfacet
  facet normal 0 0 1
    outer loop
      vertex 13.6144 9.4 4.35
      vertex 0 2 4.35
      vertex 13.7056 9.25954 4.35
    endloop
  endfacet
  facet normal 0 0 1
    outer loop
      vertex 13.7056 9.25954 4.35
      vertex 0 2 4.35
      vertex 13.811 9.12939 4.35
    endloop
  endfacet
  facet normal 0 0 1
    outer loop
      vertex 13.811 9.12939 4.35
      vertex 0 2 4.35
      vertex 13.9294 9.01097 4.35
    endloop
  endfacet
  facet normal 0 0 1
    outer loop
      vertex 13.9294 9.01097 4.35
      vertex 0 2 4.35
      vertex 14.0595 8.90557 4.35
    endloop
  endfacet
  facet normal 0 0 1
    outer loop
      vertex 15 8.6 4.35
      vertex 0 2 4.35
      vertex 30 2 4.35
    endloop
  endfacet
  facet normal 0 0 1
    outer loop
      vertex 14.2 8.81436 4.35
      vertex 0 2 4.35
      vertex 14.3492 8.73833 4.35
    endloop
  endfacet
  facet normal 0 0 1
    outer loop
      vertex 14.0595 8.90557 4.35
      vertex 0 2 4.35
      vertex 14.2 8.81436 4.35
    endloop
  endfacet
  facet normal 0 0 -1
    outer loop
      vertex 30 0 0
      vertex 18.475 10.2 0
      vertex 30 19.2 0
    endloop
  endfacet
  facet normal 0 0 -1
    outer loop
      vertex 30 0 0
      vertex 16.7375 7.19056 0
      vertex 18.475 10.2 0
    endloop
  endfacet
  facet normal 0 0 -1
    outer loop
      vertex 30 0 0
      vertex 13.2625 7.19056 0
      vertex 16.7375 7.19056 0
    endloop
  endfacet
  facet normal -0 0 -1
    outer loop
      vertex 13.2625 7.19056 0
      vertex 0 0 0
      vertex 11.525 10.2 0
    endloop
  endfacet
  facet normal 0 0 -1
    outer loop
      vertex 0 0 0
      vertex 13.2625 7.19056 0
      vertex 30 0 0
    endloop
  endfacet
  facet normal 0 0 -1
    outer loop
      vertex 16.7375 13.2094 0
      vertex 30 19.2 0
      vertex 18.475 10.2 0
    endloop
  endfacet
  facet normal 0 0 -1
    outer loop
      vertex 13.2625 13.2094 0
      vertex 30 19.2 0
      vertex 16.7375 13.2094 0
    endloop
  endfacet
  facet normal 0 0 -1
    outer loop
      vertex 0 19.2 0
      vertex 11.525 10.2 0
      vertex 0 0 0
    endloop
  endfacet
  facet normal 0 0 -1
    outer loop
      vertex 13.2625 13.2094 0
      vertex 0 19.2 0
      vertex 30 19.2 0
    endloop
  endfacet
  facet normal 0 0 -1
    outer loop
      vertex 11.525 10.2 0
      vertex 0 19.2 0
      vertex 13.2625 13.2094 0
    endloop
  endfacet
  facet normal -1 0 0
    outer loop
      vertex 0 19.2 0
      vertex 0 17.2 4.35
      vertex 0 19.2 6.35
    endloop
  endfacet
  facet normal -1 0 0
    outer loop
      vertex 0 19.2 0
      vertex 0 2 4.35
      vertex 0 17.2 4.35
    endloop
  endfacet
  facet normal -1 0 0
    outer loop
      vertex 0 0 0
      vertex 0 2 4.35
      vertex 0 19.2 0
    endloop
  endfacet
  facet normal -1 0 0
    outer loop
      vertex 0 0 6.35
      vertex 0 2 4.35
      vertex 0 0 0
    endloop
  endfacet
  facet normal -1 0 0
    outer loop
      vertex 0 2 4.35
      vertex 0 0 6.35
      vertex 0 2 6.35
    endloop
  endfacet
  facet normal -1 -0 0
    outer loop
      vertex 0 19.2 6.35
      vertex 0 17.2 4.35
      vertex 0 17.2 6.35
    endloop
  endfacet
  facet normal 0 1 -0
    outer loop
      vertex 30 19.2 0
      vertex 0 19.2 6.35
      vertex 30 19.2 6.35
    endloop
  endfacet
  facet normal 0 1 0
    outer loop
      vertex 0 19.2 6.35
      vertex 30 19.2 0
      vertex 0 19.2 0
    endloop
  endfacet
  facet normal 0 -1 0
    outer loop
      vertex 0 0 0
      vertex 30 0 6.35
      vertex 0 0 6.35
    endloop
  endfacet
  facet normal 0 -1 -0
    outer loop
      vertex 30 0 6.35
      vertex 0 0 0
      vertex 30 0 0
    endloop
  endfacet
  facet normal -0 0 1
    outer loop
      vertex 0 2 6.35
      vertex 30 0 6.35
      vertex 30 2 6.35
    endloop
  endfacet
  facet normal 0 0 1
    outer loop
      vertex 30 0 6.35
      vertex 0 2 6.35
      vertex 0 0 6.35
    endloop
  endfacet
  facet normal 0 1 -0
    outer loop
      vertex 30 2 4.35
      vertex 0 2 6.35
      vertex 30 2 6.35
    endloop
  endfacet
  facet normal 0 1 0
    outer loop
      vertex 0 2 6.35
      vertex 30 2 4.35
      vertex 0 2 4.35
    endloop
  endfacet
  facet normal -0 0 1
    outer loop
      vertex 0 19.2 6.35
      vertex 30 17.2 6.35
      vertex 30 19.2 6.35
    endloop
  endfacet
  facet normal 0 0 1
    outer loop
      vertex 30 17.2 6.35
      vertex 0 19.2 6.35
      vertex 0 17.2 6.35
    endloop
  endfacet
  facet normal 0 -1 0
    outer loop
      vertex 0 17.2 4.35
      vertex 30 17.2 6.35
      vertex 0 17.2 6.35
    endloop
  endfacet
  facet normal 0 -1 -0
    outer loop
      vertex 30 17.2 6.35
      vertex 0 17.2 4.35
      vertex 30 17.2 4.35
    endloop
  endfacet
  facet normal 0 1 -0
    outer loop
      vertex 16.7375 7.19056 0
      vertex 13.2625 7.19056 2.6
      vertex 16.7375 7.19056 2.6
    endloop
  endfacet
  facet normal 0 1 0
    outer loop
      vertex 13.2625 7.19056 2.6
      vertex 16.7375 7.19056 0
      vertex 13.2625 7.19056 0
    endloop
  endfacet
  facet normal -0.866026 0.5 0
    outer loop
      vertex 16.7375 7.19056 0
      vertex 18.475 10.2 2.6
      vertex 18.475 10.2 0
    endloop
  endfacet
  facet normal -0.866026 0.5 0
    outer loop
      vertex 18.475 10.2 2.6
      vertex 16.7375 7.19056 0
      vertex 16.7375 7.19056 2.6
    endloop
  endfacet
  facet normal 0 -1 0
    outer loop
      vertex 13.2625 13.2094 0
      vertex 16.7375 13.2094 2.6
      vertex 13.2625 13.2094 2.6
    endloop
  endfacet
  facet normal 0 -1 -0
    outer loop
      vertex 16.7375 13.2094 2.6
      vertex 13.2625 13.2094 0
      vertex 16.7375 13.2094 0
    endloop
  endfacet
  facet normal -0.866023 -0.500005 0
    outer loop
      vertex 18.475 10.2 0
      vertex 16.7375 13.2094 2.6
      vertex 16.7375 13.2094 0
    endloop
  endfacet
  facet normal -0.866023 -0.500005 0
    outer loop
      vertex 16.7375 13.2094 2.6
      vertex 18.475 10.2 0
      vertex 18.475 10.2 2.6
    endloop
  endfacet
  facet normal 0.866023 -0.500005 0
    outer loop
      vertex 11.525 10.2 2.6
      vertex 13.2625 13.2094 0
      vertex 13.2625 13.2094 2.6
    endloop
  endfacet
  facet normal 0.866023 -0.500005 0
    outer loop
      vertex 13.2625 13.2094 0
      vertex 11.525 10.2 2.6
      vertex 11.525 10.2 0
    endloop
  endfacet
  facet normal 0.866026 0.5 0
    outer loop
      vertex 13.2625 7.19056 2.6
      vertex 11.525 10.2 0
      vertex 11.525 10.2 2.6
    endloop
  endfacet
  facet normal 0.866026 0.5 0
    outer loop
      vertex 11.525 10.2 0
      vertex 13.2625 7.19056 2.6
      vertex 13.2625 7.19056 0
    endloop
  endfacet
  facet normal 0 0 -1
    outer loop
      vertex 16.3856 9.4 2.6
      vertex 18.475 10.2 2.6
      vertex 16.7375 7.19056 2.6
    endloop
  endfacet
  facet normal 0 0 -1
    outer loop
      vertex 16.5912 10.3672 2.6
      vertex 18.475 10.2 2.6
      vertex 16.6 10.2 2.6
    endloop
  endfacet
  facet normal -0 0 -1
    outer loop
      vertex 18.475 10.2 2.6
      vertex 16.5912 10.0328 2.6
      vertex 16.6 10.2 2.6
    endloop
  endfacet
  facet normal 0 0 -1
    outer loop
      vertex 18.475 10.2 2.6
      vertex 16.565 9.86734 2.6
      vertex 16.5912 10.0328 2.6
    endloop
  endfacet
  facet normal 0 0 -1
    outer loop
      vertex 18.475 10.2 2.6
      vertex 16.5217 9.70557 2.6
      vertex 16.565 9.86734 2.6
    endloop
  endfacet
  facet normal 0 0 -1
    outer loop
      vertex 18.475 10.2 2.6
      vertex 16.4617 9.54922 2.6
      vertex 16.5217 9.70557 2.6
    endloop
  endfacet
  facet normal 0 0 -1
    outer loop
      vertex 18.475 10.2 2.6
      vertex 16.3856 9.4 2.6
      vertex 16.4617 9.54922 2.6
    endloop
  endfacet
  facet normal 0 0 -1
    outer loop
      vertex 16.7375 7.19056 2.6
      vertex 16.2944 9.25954 2.6
      vertex 16.3856 9.4 2.6
    endloop
  endfacet
  facet normal 0 0 -1
    outer loop
      vertex 16.7375 7.19056 2.6
      vertex 16.189 9.12939 2.6
      vertex 16.2944 9.25954 2.6
    endloop
  endfacet
  facet normal 0 0 -1
    outer loop
      vertex 16.7375 7.19056 2.6
      vertex 16.0706 9.01097 2.6
      vertex 16.189 9.12939 2.6
    endloop
  endfacet
  facet normal 0 0 -1
    outer loop
      vertex 16.7375 7.19056 2.6
      vertex 15.9405 8.90557 2.6
      vertex 16.0706 9.01097 2.6
    endloop
  endfacet
  facet normal 0 0 -1
    outer loop
      vertex 16.7375 7.19056 2.6
      vertex 15.8 8.81436 2.6
      vertex 15.9405 8.90557 2.6
    endloop
  endfacet
  facet normal 0 0 -1
    outer loop
      vertex 16.7375 7.19056 2.6
      vertex 15.6508 8.73833 2.6
      vertex 15.8 8.81436 2.6
    endloop
  endfacet
  facet normal 0 0 -1
    outer loop
      vertex 16.7375 7.19056 2.6
      vertex 15.4944 8.67831 2.6
      vertex 15.6508 8.73833 2.6
    endloop
  endfacet
  facet normal 0 0 -1
    outer loop
      vertex 16.7375 7.19056 2.6
      vertex 15.3327 8.63496 2.6
      vertex 15.4944 8.67831 2.6
    endloop
  endfacet
  facet normal 0 0 -1
    outer loop
      vertex 16.7375 7.19056 2.6
      vertex 15.1672 8.60877 2.6
      vertex 15.3327 8.63496 2.6
    endloop
  endfacet
  facet normal 0 0 -1
    outer loop
      vertex 16.7375 7.19056 2.6
      vertex 15 8.6 2.6
      vertex 15.1672 8.60877 2.6
    endloop
  endfacet
  facet normal 0 0 -1
    outer loop
      vertex 13.2625 7.19056 2.6
      vertex 15 8.6 2.6
      vertex 16.7375 7.19056 2.6
    endloop
  endfacet
  facet normal -0 0 -1
    outer loop
      vertex 15 8.6 2.6
      vertex 13.2625 7.19056 2.6
      vertex 14.8328 8.60877 2.6
    endloop
  endfacet
  facet normal -0 0 -1
    outer loop
      vertex 14.8328 8.60877 2.6
      vertex 13.2625 7.19056 2.6
      vertex 14.6673 8.63496 2.6
    endloop
  endfacet
  facet normal -0 0 -1
    outer loop
      vertex 14.6673 8.63496 2.6
      vertex 13.2625 7.19056 2.6
      vertex 14.5056 8.67831 2.6
    endloop
  endfacet
  facet normal -0 0 -1
    outer loop
      vertex 14.5056 8.67831 2.6
      vertex 13.2625 7.19056 2.6
      vertex 14.3492 8.73833 2.6
    endloop
  endfacet
  facet normal 0 0 -1
    outer loop
      vertex 13.435 9.86734 2.6
      vertex 11.525 10.2 2.6
      vertex 13.4088 10.0328 2.6
    endloop
  endfacet
  facet normal 0 0 -1
    outer loop
      vertex 13.4783 9.70557 2.6
      vertex 11.525 10.2 2.6
      vertex 13.435 9.86734 2.6
    endloop
  endfacet
  facet normal 0 0 -1
    outer loop
      vertex 13.5383 9.54922 2.6
      vertex 11.525 10.2 2.6
      vertex 13.4783 9.70557 2.6
    endloop
  endfacet
  facet normal 0 0 -1
    outer loop
      vertex 13.6144 9.4 2.6
      vertex 11.525 10.2 2.6
      vertex 13.5383 9.54922 2.6
    endloop
  endfacet
  facet normal 0 0 -1
    outer loop
      vertex 11.525 10.2 2.6
      vertex 13.6144 9.4 2.6
      vertex 13.2625 7.19056 2.6
    endloop
  endfacet
  facet normal -0 0 -1
    outer loop
      vertex 13.7056 9.25954 2.6
      vertex 13.2625 7.19056 2.6
      vertex 13.6144 9.4 2.6
    endloop
  endfacet
  facet normal -0 0 -1
    outer loop
      vertex 13.811 9.12939 2.6
      vertex 13.2625 7.19056 2.6
      vertex 13.7056 9.25954 2.6
    endloop
  endfacet
  facet normal -0 0 -1
    outer loop
      vertex 13.9294 9.01097 2.6
      vertex 13.2625 7.19056 2.6
      vertex 13.811 9.12939 2.6
    endloop
  endfacet
  facet normal -0 0 -1
    outer loop
      vertex 14.0595 8.90557 2.6
      vertex 13.2625 7.19056 2.6
      vertex 13.9294 9.01097 2.6
    endloop
  endfacet
  facet normal -0 0 -1
    outer loop
      vertex 14.2 8.81436 2.6
      vertex 13.2625 7.19056 2.6
      vertex 14.0595 8.90557 2.6
    endloop
  endfacet
  facet normal -0 0 -1
    outer loop
      vertex 14.3492 8.73833 2.6
      vertex 13.2625 7.19056 2.6
      vertex 14.2 8.81436 2.6
    endloop
  endfacet
  facet normal 0 0 -1
    outer loop
      vertex 16.565 10.5327 2.6
      vertex 18.475 10.2 2.6
      vertex 16.5912 10.3672 2.6
    endloop
  endfacet
  facet normal 0 0 -1
    outer loop
      vertex 16.5217 10.6944 2.6
      vertex 18.475 10.2 2.6
      vertex 16.565 10.5327 2.6
    endloop
  endfacet
  facet normal 0 0 -1
    outer loop
      vertex 16.4617 10.8508 2.6
      vertex 18.475 10.2 2.6
      vertex 16.5217 10.6944 2.6
    endloop
  endfacet
  facet normal 0 0 -1
    outer loop
      vertex 16.3856 11 2.6
      vertex 18.475 10.2 2.6
      vertex 16.4617 10.8508 2.6
    endloop
  endfacet
  facet normal 0 0 -1
    outer loop
      vertex 18.475 10.2 2.6
      vertex 16.3856 11 2.6
      vertex 16.7375 13.2094 2.6
    endloop
  endfacet
  facet normal 0 0 -1
    outer loop
      vertex 16.2944 11.1405 2.6
      vertex 16.7375 13.2094 2.6
      vertex 16.3856 11 2.6
    endloop
  endfacet
  facet normal 0 0 -1
    outer loop
      vertex 16.189 11.2706 2.6
      vertex 16.7375 13.2094 2.6
      vertex 16.2944 11.1405 2.6
    endloop
  endfacet
  facet normal 0 0 -1
    outer loop
      vertex 16.0706 11.389 2.6
      vertex 16.7375 13.2094 2.6
      vertex 16.189 11.2706 2.6
    endloop
  endfacet
  facet normal 0 0 -1
    outer loop
      vertex 15.9405 11.4944 2.6
      vertex 16.7375 13.2094 2.6
      vertex 16.0706 11.389 2.6
    endloop
  endfacet
  facet normal 0 0 -1
    outer loop
      vertex 15.8 11.5856 2.6
      vertex 16.7375 13.2094 2.6
      vertex 15.9405 11.4944 2.6
    endloop
  endfacet
  facet normal 0 0 -1
    outer loop
      vertex 15.6508 11.6617 2.6
      vertex 16.7375 13.2094 2.6
      vertex 15.8 11.5856 2.6
    endloop
  endfacet
  facet normal 0 0 -1
    outer loop
      vertex 15.4944 11.7217 2.6
      vertex 16.7375 13.2094 2.6
      vertex 15.6508 11.6617 2.6
    endloop
  endfacet
  facet normal 0 0 -1
    outer loop
      vertex 15.3327 11.765 2.6
      vertex 16.7375 13.2094 2.6
      vertex 15.4944 11.7217 2.6
    endloop
  endfacet
  facet normal 0 0 -1
    outer loop
      vertex 15.1672 11.7912 2.6
      vertex 16.7375 13.2094 2.6
      vertex 15.3327 11.765 2.6
    endloop
  endfacet
  facet normal 0 0 -1
    outer loop
      vertex 15 11.8 2.6
      vertex 16.7375 13.2094 2.6
      vertex 15.1672 11.7912 2.6
    endloop
  endfacet
  facet normal 0 0 -1
    outer loop
      vertex 13.2625 13.2094 2.6
      vertex 15 11.8 2.6
      vertex 14.8328 11.7912 2.6
    endloop
  endfacet
  facet normal 0 0 -1
    outer loop
      vertex 13.2625 13.2094 2.6
      vertex 14.8328 11.7912 2.6
      vertex 14.6673 11.765 2.6
    endloop
  endfacet
  facet normal 0 0 -1
    outer loop
      vertex 13.2625 13.2094 2.6
      vertex 14.6673 11.765 2.6
      vertex 14.5056 11.7217 2.6
    endloop
  endfacet
  facet normal 0 0 -1
    outer loop
      vertex 13.2625 13.2094 2.6
      vertex 14.5056 11.7217 2.6
      vertex 14.3492 11.6617 2.6
    endloop
  endfacet
  facet normal 0 0 -1
    outer loop
      vertex 13.2625 13.2094 2.6
      vertex 14.3492 11.6617 2.6
      vertex 14.2 11.5856 2.6
    endloop
  endfacet
  facet normal 0 0 -1
    outer loop
      vertex 15 11.8 2.6
      vertex 13.2625 13.2094 2.6
      vertex 16.7375 13.2094 2.6
    endloop
  endfacet
  facet normal 0 0 -1
    outer loop
      vertex 14.0595 11.4944 2.6
      vertex 13.2625 13.2094 2.6
      vertex 14.2 11.5856 2.6
    endloop
  endfacet
  facet normal 0 0 -1
    outer loop
      vertex 13.9294 11.389 2.6
      vertex 13.2625 13.2094 2.6
      vertex 14.0595 11.4944 2.6
    endloop
  endfacet
  facet normal 0 0 -1
    outer loop
      vertex 13.811 11.2706 2.6
      vertex 13.2625 13.2094 2.6
      vertex 13.9294 11.389 2.6
    endloop
  endfacet
  facet normal 0 0 -1
    outer loop
      vertex 13.7056 11.1405 2.6
      vertex 13.2625 13.2094 2.6
      vertex 13.811 11.2706 2.6
    endloop
  endfacet
  facet normal 0 0 -1
    outer loop
      vertex 13.6144 11 2.6
      vertex 13.2625 13.2094 2.6
      vertex 13.7056 11.1405 2.6
    endloop
  endfacet
  facet normal 0 0 -1
    outer loop
      vertex 11.525 10.2 2.6
      vertex 13.6144 11 2.6
      vertex 13.5383 10.8508 2.6
    endloop
  endfacet
  facet normal 0 0 -1
    outer loop
      vertex 11.525 10.2 2.6
      vertex 13.5383 10.8508 2.6
      vertex 13.4783 10.6944 2.6
    endloop
  endfacet
  facet normal 0 0 -1
    outer loop
      vertex 11.525 10.2 2.6
      vertex 13.4783 10.6944 2.6
      vertex 13.435 10.5327 2.6
    endloop
  endfacet
  facet normal 0 0 -1
    outer loop
      vertex 11.525 10.2 2.6
      vertex 13.435 10.5327 2.6
      vertex 13.4088 10.3672 2.6
    endloop
  endfacet
  facet normal 0 0 -1
    outer loop
      vertex 11.525 10.2 2.6
      vertex 13.4088 10.3672 2.6
      vertex 13.4 10.2 2.6
    endloop
  endfacet
  facet normal 0 0 -1
    outer loop
      vertex 13.4088 10.0328 2.6
      vertex 11.525 10.2 2.6
      vertex 13.4 10.2 2.6
    endloop
  endfacet
  facet normal -0 0 -1
    outer loop
      vertex 13.6144 11 2.6
      vertex 11.525 10.2 2.6
      vertex 13.2625 13.2094 2.6
    endloop
  endfacet
  facet normal -0.987694 0.156398 0
    outer loop
      vertex 16.565 9.86734 2.6
      vertex 16.5912 10.0328 4.35
      vertex 16.5912 10.0328 2.6
    endloop
  endfacet
  facet normal -0.987694 0.156398 0
    outer loop
      vertex 16.5912 10.0328 4.35
      vertex 16.565 9.86734 2.6
      vertex 16.565 9.86734 4.35
    endloop
  endfacet
  facet normal -0.9877 -0.156361 0
    outer loop
      vertex 16.5912 10.3672 2.6
      vertex 16.565 10.5327 4.35
      vertex 16.565 10.5327 2.6
    endloop
  endfacet
  facet normal -0.9877 -0.156361 0
    outer loop
      vertex 16.565 10.5327 4.35
      vertex 16.5912 10.3672 2.6
      vertex 16.5912 10.3672 4.35
    endloop
  endfacet
  facet normal -0.998618 -0.0525588 0
    outer loop
      vertex 16.6 10.2 2.6
      vertex 16.5912 10.3672 4.35
      vertex 16.5912 10.3672 2.6
    endloop
  endfacet
  facet normal -0.998618 -0.0525588 0
    outer loop
      vertex 16.5912 10.3672 4.35
      vertex 16.6 10.2 2.6
      vertex 16.6 10.2 4.35
    endloop
  endfacet
  facet normal -0.965967 -0.258666 0
    outer loop
      vertex 16.565 10.5327 2.6
      vertex 16.5217 10.6944 4.35
      vertex 16.5217 10.6944 2.6
    endloop
  endfacet
  facet normal -0.965967 -0.258666 0
    outer loop
      vertex 16.5217 10.6944 4.35
      vertex 16.565 10.5327 2.6
      vertex 16.565 10.5327 4.35
    endloop
  endfacet
  facet normal -0.838784 -0.544464 0
    outer loop
      vertex 16.3856 11 2.6
      vertex 16.2944 11.1405 4.35
      vertex 16.2944 11.1405 2.6
    endloop
  endfacet
  facet normal -0.838784 -0.544464 0
    outer loop
      vertex 16.2944 11.1405 4.35
      vertex 16.3856 11 2.6
      vertex 16.3856 11 4.35
    endloop
  endfacet
  facet normal 0.0525588 -0.998618 0
    outer loop
      vertex 14.8328 11.7912 2.6
      vertex 15 11.8 4.35
      vertex 14.8328 11.7912 4.35
    endloop
  endfacet
  facet normal 0.0525588 -0.998618 0
    outer loop
      vertex 15 11.8 4.35
      vertex 14.8328 11.7912 2.6
      vertex 15 11.8 2.6
    endloop
  endfacet
  facet normal -0.998618 0.0525588 0
    outer loop
      vertex 16.5912 10.0328 2.6
      vertex 16.6 10.2 4.35
      vertex 16.6 10.2 2.6
    endloop
  endfacet
  facet normal -0.998618 0.0525588 0
    outer loop
      vertex 16.6 10.2 4.35
      vertex 16.5912 10.0328 2.6
      vertex 16.5912 10.0328 4.35
    endloop
  endfacet
  facet normal -0.777008 -0.62949 0
    outer loop
      vertex 16.2944 11.1405 2.6
      vertex 16.189 11.2706 4.35
      vertex 16.189 11.2706 2.6
    endloop
  endfacet
  facet normal -0.777008 -0.62949 0
    outer loop
      vertex 16.189 11.2706 4.35
      vertex 16.2944 11.1405 2.6
      vertex 16.2944 11.1405 4.35
    endloop
  endfacet
  facet normal 0.987694 0.156398 0
    outer loop
      vertex 13.435 9.86734 4.35
      vertex 13.4088 10.0328 2.6
      vertex 13.4088 10.0328 4.35
    endloop
  endfacet
  facet normal 0.987694 0.156398 0
    outer loop
      vertex 13.4088 10.0328 2.6
      vertex 13.435 9.86734 4.35
      vertex 13.435 9.86734 2.6
    endloop
  endfacet
  facet normal 0.890816 -0.454364 0
    outer loop
      vertex 13.5383 10.8508 4.35
      vertex 13.6144 11 2.6
      vertex 13.6144 11 4.35
    endloop
  endfacet
  facet normal 0.890816 -0.454364 0
    outer loop
      vertex 13.6144 11 2.6
      vertex 13.5383 10.8508 4.35
      vertex 13.5383 10.8508 2.6
    endloop
  endfacet
  facet normal -0.258666 -0.965967 0
    outer loop
      vertex 15.3327 11.765 2.6
      vertex 15.4944 11.7217 4.35
      vertex 15.3327 11.765 4.35
    endloop
  endfacet
  facet normal -0.258666 -0.965967 -0
    outer loop
      vertex 15.4944 11.7217 4.35
      vertex 15.3327 11.765 2.6
      vertex 15.4944 11.7217 2.6
    endloop
  endfacet
  facet normal -0.358179 -0.933653 0
    outer loop
      vertex 15.4944 11.7217 2.6
      vertex 15.6508 11.6617 4.35
      vertex 15.4944 11.7217 4.35
    endloop
  endfacet
  facet normal -0.358179 -0.933653 -0
    outer loop
      vertex 15.6508 11.6617 4.35
      vertex 15.4944 11.7217 2.6
      vertex 15.6508 11.6617 2.6
    endloop
  endfacet
  facet normal 0.965995 0.258562 0
    outer loop
      vertex 13.4783 9.70557 4.35
      vertex 13.435 9.86734 2.6
      vertex 13.435 9.86734 4.35
    endloop
  endfacet
  facet normal 0.965995 0.258562 0
    outer loop
      vertex 13.435 9.86734 2.6
      vertex 13.4783 9.70557 4.35
      vertex 13.4783 9.70557 2.6
    endloop
  endfacet
  facet normal -0.62949 -0.777008 0
    outer loop
      vertex 15.9405 11.4944 2.6
      vertex 16.0706 11.389 4.35
      vertex 15.9405 11.4944 4.35
    endloop
  endfacet
  facet normal -0.62949 -0.777008 -0
    outer loop
      vertex 16.0706 11.389 4.35
      vertex 15.9405 11.4944 2.6
      vertex 16.0706 11.389 2.6
    endloop
  endfacet
  facet normal -0.358283 0.933613 0
    outer loop
      vertex 15.6508 8.73833 2.6
      vertex 15.4944 8.67831 4.35
      vertex 15.6508 8.73833 4.35
    endloop
  endfacet
  facet normal -0.358283 0.933613 0
    outer loop
      vertex 15.4944 8.67831 4.35
      vertex 15.6508 8.73833 2.6
      vertex 15.4944 8.67831 2.6
    endloop
  endfacet
  facet normal 0.777008 -0.62949 0
    outer loop
      vertex 13.7056 11.1405 4.35
      vertex 13.811 11.2706 2.6
      vertex 13.811 11.2706 4.35
    endloop
  endfacet
  facet normal 0.777008 -0.62949 0
    outer loop
      vertex 13.811 11.2706 2.6
      vertex 13.7056 11.1405 4.35
      vertex 13.7056 11.1405 2.6
    endloop
  endfacet
  facet normal 0.258666 -0.965967 0
    outer loop
      vertex 14.5056 11.7217 2.6
      vertex 14.6673 11.765 4.35
      vertex 14.5056 11.7217 4.35
    endloop
  endfacet
  facet normal 0.258666 -0.965967 0
    outer loop
      vertex 14.6673 11.765 4.35
      vertex 14.5056 11.7217 2.6
      vertex 14.6673 11.765 2.6
    endloop
  endfacet
  facet normal 0.707107 -0.707107 0
    outer loop
      vertex 13.811 11.2706 4.35
      vertex 13.9294 11.389 2.6
      vertex 13.9294 11.389 4.35
    endloop
  endfacet
  facet normal 0.707107 -0.707107 0
    outer loop
      vertex 13.9294 11.389 2.6
      vertex 13.811 11.2706 4.35
      vertex 13.811 11.2706 2.6
    endloop
  endfacet
  facet normal 0.544464 -0.838784 0
    outer loop
      vertex 14.0595 11.4944 2.6
      vertex 14.2 11.5856 4.35
      vertex 14.0595 11.4944 4.35
    endloop
  endfacet
  facet normal 0.544464 -0.838784 0
    outer loop
      vertex 14.2 11.5856 4.35
      vertex 14.0595 11.4944 2.6
      vertex 14.2 11.5856 2.6
    endloop
  endfacet
  facet normal -0.965995 0.258562 0
    outer loop
      vertex 16.5217 9.70557 2.6
      vertex 16.565 9.86734 4.35
      vertex 16.565 9.86734 2.6
    endloop
  endfacet
  facet normal -0.965995 0.258562 0
    outer loop
      vertex 16.565 9.86734 4.35
      vertex 16.5217 9.70557 2.6
      vertex 16.5217 9.70557 4.35
    endloop
  endfacet
  facet normal -0.0523801 0.998627 0
    outer loop
      vertex 15.1672 8.60877 2.6
      vertex 15 8.6 4.35
      vertex 15.1672 8.60877 4.35
    endloop
  endfacet
  facet normal -0.0523801 0.998627 0
    outer loop
      vertex 15 8.6 4.35
      vertex 15.1672 8.60877 2.6
      vertex 15 8.6 2.6
    endloop
  endfacet
  facet normal -0.544464 -0.838784 0
    outer loop
      vertex 15.8 11.5856 2.6
      vertex 15.9405 11.4944 4.35
      vertex 15.8 11.5856 4.35
    endloop
  endfacet
  facet normal -0.544464 -0.838784 -0
    outer loop
      vertex 15.9405 11.4944 4.35
      vertex 15.8 11.5856 2.6
      vertex 15.9405 11.4944 2.6
    endloop
  endfacet
  facet normal 0.838714 0.544573 0
    outer loop
      vertex 13.7056 9.25954 4.35
      vertex 13.6144 9.4 2.6
      vertex 13.6144 9.4 4.35
    endloop
  endfacet
  facet normal 0.838714 0.544573 0
    outer loop
      vertex 13.6144 9.4 2.6
      vertex 13.7056 9.25954 4.35
      vertex 13.7056 9.25954 2.6
    endloop
  endfacet
  facet normal -0.156303 0.987709 0
    outer loop
      vertex 15.3327 8.63496 2.6
      vertex 15.1672 8.60877 4.35
      vertex 15.3327 8.63496 4.35
    endloop
  endfacet
  facet normal -0.156303 0.987709 0
    outer loop
      vertex 15.1672 8.60877 4.35
      vertex 15.3327 8.63496 2.6
      vertex 15.1672 8.60877 2.6
    endloop
  endfacet
  facet normal 0.156303 0.987709 -0
    outer loop
      vertex 14.8328 8.60877 2.6
      vertex 14.6673 8.63496 4.35
      vertex 14.8328 8.60877 4.35
    endloop
  endfacet
  facet normal 0.156303 0.987709 0
    outer loop
      vertex 14.6673 8.63496 4.35
      vertex 14.8328 8.60877 2.6
      vertex 14.6673 8.63496 2.6
    endloop
  endfacet
  facet normal 0.454364 -0.890816 0
    outer loop
      vertex 14.2 11.5856 2.6
      vertex 14.3492 11.6617 4.35
      vertex 14.2 11.5856 4.35
    endloop
  endfacet
  facet normal 0.454364 -0.890816 0
    outer loop
      vertex 14.3492 11.6617 4.35
      vertex 14.2 11.5856 2.6
      vertex 14.3492 11.6617 2.6
    endloop
  endfacet
  facet normal 0.454032 0.890985 -0
    outer loop
      vertex 14.3492 8.73833 2.6
      vertex 14.2 8.81436 4.35
      vertex 14.3492 8.73833 4.35
    endloop
  endfacet
  facet normal 0.454032 0.890985 0
    outer loop
      vertex 14.2 8.81436 4.35
      vertex 14.3492 8.73833 2.6
      vertex 14.2 8.81436 2.6
    endloop
  endfacet
  facet normal 0.358179 -0.933653 0
    outer loop
      vertex 14.3492 11.6617 2.6
      vertex 14.5056 11.7217 4.35
      vertex 14.3492 11.6617 4.35
    endloop
  endfacet
  facet normal 0.358179 -0.933653 0
    outer loop
      vertex 14.5056 11.7217 4.35
      vertex 14.3492 11.6617 2.6
      vertex 14.5056 11.7217 2.6
    endloop
  endfacet
  facet normal -0.454364 -0.890816 0
    outer loop
      vertex 15.6508 11.6617 2.6
      vertex 15.8 11.5856 4.35
      vertex 15.6508 11.6617 4.35
    endloop
  endfacet
  facet normal -0.454364 -0.890816 -0
    outer loop
      vertex 15.8 11.5856 4.35
      vertex 15.6508 11.6617 2.6
      vertex 15.8 11.5856 2.6
    endloop
  endfacet
  facet normal -0.890841 0.454316 0
    outer loop
      vertex 16.3856 9.4 2.6
      vertex 16.4617 9.54922 4.35
      vertex 16.4617 9.54922 2.6
    endloop
  endfacet
  facet normal -0.890841 0.454316 0
    outer loop
      vertex 16.4617 9.54922 4.35
      vertex 16.3856 9.4 2.6
      vertex 16.3856 9.4 4.35
    endloop
  endfacet
  facet normal -0.707107 -0.707107 0
    outer loop
      vertex 16.189 11.2706 2.6
      vertex 16.0706 11.389 4.35
      vertex 16.0706 11.389 2.6
    endloop
  endfacet
  facet normal -0.707107 -0.707107 0
    outer loop
      vertex 16.0706 11.389 4.35
      vertex 16.189 11.2706 2.6
      vertex 16.189 11.2706 4.35
    endloop
  endfacet
  facet normal 0.62949 0.777008 -0
    outer loop
      vertex 14.0595 8.90557 2.6
      vertex 13.9294 9.01097 4.35
      vertex 14.0595 8.90557 4.35
    endloop
  endfacet
  facet normal 0.62949 0.777008 0
    outer loop
      vertex 13.9294 9.01097 4.35
      vertex 14.0595 8.90557 2.6
      vertex 13.9294 9.01097 2.6
    endloop
  endfacet
  facet normal -0.838714 0.544573 0
    outer loop
      vertex 16.2944 9.25954 2.6
      vertex 16.3856 9.4 4.35
      vertex 16.3856 9.4 2.6
    endloop
  endfacet
  facet normal -0.838714 0.544573 0
    outer loop
      vertex 16.3856 9.4 4.35
      vertex 16.2944 9.25954 2.6
      vertex 16.2944 9.25954 4.35
    endloop
  endfacet
  facet normal -0.454032 0.890985 0
    outer loop
      vertex 15.8 8.81436 2.6
      vertex 15.6508 8.73833 4.35
      vertex 15.8 8.81436 4.35
    endloop
  endfacet
  facet normal -0.454032 0.890985 0
    outer loop
      vertex 15.6508 8.73833 4.35
      vertex 15.8 8.81436 2.6
      vertex 15.6508 8.73833 2.6
    endloop
  endfacet
  facet normal 0.156361 -0.9877 0
    outer loop
      vertex 14.6673 11.765 2.6
      vertex 14.8328 11.7912 4.35
      vertex 14.6673 11.765 4.35
    endloop
  endfacet
  facet normal 0.156361 -0.9877 0
    outer loop
      vertex 14.8328 11.7912 4.35
      vertex 14.6673 11.765 2.6
      vertex 14.8328 11.7912 2.6
    endloop
  endfacet
  facet normal -0.933653 -0.358179 0
    outer loop
      vertex 16.5217 10.6944 2.6
      vertex 16.4617 10.8508 4.35
      vertex 16.4617 10.8508 2.6
    endloop
  endfacet
  facet normal -0.933653 -0.358179 0
    outer loop
      vertex 16.4617 10.8508 4.35
      vertex 16.5217 10.6944 2.6
      vertex 16.5217 10.6944 4.35
    endloop
  endfacet
  facet normal -0.777127 0.629344 0
    outer loop
      vertex 16.189 9.12939 2.6
      vertex 16.2944 9.25954 4.35
      vertex 16.2944 9.25954 2.6
    endloop
  endfacet
  facet normal -0.777127 0.629344 0
    outer loop
      vertex 16.2944 9.25954 4.35
      vertex 16.189 9.12939 2.6
      vertex 16.189 9.12939 4.35
    endloop
  endfacet
  facet normal 0.9877 -0.156361 0
    outer loop
      vertex 13.4088 10.3672 4.35
      vertex 13.435 10.5327 2.6
      vertex 13.435 10.5327 4.35
    endloop
  endfacet
  facet normal 0.9877 -0.156361 0
    outer loop
      vertex 13.435 10.5327 2.6
      vertex 13.4088 10.3672 4.35
      vertex 13.4088 10.3672 2.6
    endloop
  endfacet
  facet normal -0.0525588 -0.998618 0
    outer loop
      vertex 15 11.8 2.6
      vertex 15.1672 11.7912 4.35
      vertex 15 11.8 4.35
    endloop
  endfacet
  facet normal -0.0525588 -0.998618 -0
    outer loop
      vertex 15.1672 11.7912 4.35
      vertex 15 11.8 2.6
      vertex 15.1672 11.7912 2.6
    endloop
  endfacet
  facet normal -0.890816 -0.454364 0
    outer loop
      vertex 16.4617 10.8508 2.6
      vertex 16.3856 11 4.35
      vertex 16.3856 11 2.6
    endloop
  endfacet
  facet normal -0.890816 -0.454364 0
    outer loop
      vertex 16.3856 11 4.35
      vertex 16.4617 10.8508 2.6
      vertex 16.4617 10.8508 4.35
    endloop
  endfacet
  facet normal 0.838784 -0.544464 0
    outer loop
      vertex 13.6144 11 4.35
      vertex 13.7056 11.1405 2.6
      vertex 13.7056 11.1405 4.35
    endloop
  endfacet
  facet normal 0.838784 -0.544464 0
    outer loop
      vertex 13.7056 11.1405 2.6
      vertex 13.6144 11 4.35
      vertex 13.6144 11 2.6
    endloop
  endfacet
  facet normal 0.62949 -0.777008 0
    outer loop
      vertex 13.9294 11.389 2.6
      vertex 14.0595 11.4944 4.35
      vertex 13.9294 11.389 4.35
    endloop
  endfacet
  facet normal 0.62949 -0.777008 0
    outer loop
      vertex 14.0595 11.4944 4.35
      vertex 13.9294 11.389 2.6
      vertex 14.0595 11.4944 2.6
    endloop
  endfacet
  facet normal 0.933615 0.358279 0
    outer loop
      vertex 13.5383 9.54922 4.35
      vertex 13.4783 9.70557 2.6
      vertex 13.4783 9.70557 4.35
    endloop
  endfacet
  facet normal 0.933615 0.358279 0
    outer loop
      vertex 13.4783 9.70557 2.6
      vertex 13.5383 9.54922 4.35
      vertex 13.5383 9.54922 2.6
    endloop
  endfacet
  facet normal 0.933653 -0.358179 0
    outer loop
      vertex 13.4783 10.6944 4.35
      vertex 13.5383 10.8508 2.6
      vertex 13.5383 10.8508 4.35
    endloop
  endfacet
  facet normal 0.933653 -0.358179 0
    outer loop
      vertex 13.5383 10.8508 2.6
      vertex 13.4783 10.6944 4.35
      vertex 13.4783 10.6944 2.6
    endloop
  endfacet
  facet normal 0.890841 0.454316 0
    outer loop
      vertex 13.6144 9.4 4.35
      vertex 13.5383 9.54922 2.6
      vertex 13.5383 9.54922 4.35
    endloop
  endfacet
  facet normal 0.890841 0.454316 0
    outer loop
      vertex 13.5383 9.54922 2.6
      vertex 13.6144 9.4 4.35
      vertex 13.6144 9.4 2.6
    endloop
  endfacet
  facet normal -0.258945 0.965892 0
    outer loop
      vertex 15.4944 8.67831 2.6
      vertex 15.3327 8.63496 4.35
      vertex 15.4944 8.67831 4.35
    endloop
  endfacet
  facet normal -0.258945 0.965892 0
    outer loop
      vertex 15.3327 8.63496 4.35
      vertex 15.4944 8.67831 2.6
      vertex 15.3327 8.63496 2.6
    endloop
  endfacet
  facet normal -0.62949 0.777008 0
    outer loop
      vertex 16.0706 9.01097 2.6
      vertex 15.9405 8.90557 4.35
      vertex 16.0706 9.01097 4.35
    endloop
  endfacet
  facet normal -0.62949 0.777008 0
    outer loop
      vertex 15.9405 8.90557 4.35
      vertex 16.0706 9.01097 2.6
      vertex 15.9405 8.90557 2.6
    endloop
  endfacet
  facet normal 0.258945 0.965892 -0
    outer loop
      vertex 14.6673 8.63496 2.6
      vertex 14.5056 8.67831 4.35
      vertex 14.6673 8.63496 4.35
    endloop
  endfacet
  facet normal 0.258945 0.965892 0
    outer loop
      vertex 14.5056 8.67831 4.35
      vertex 14.6673 8.63496 2.6
      vertex 14.5056 8.67831 2.6
    endloop
  endfacet
  facet normal 0.998618 0.0525588 0
    outer loop
      vertex 13.4088 10.0328 4.35
      vertex 13.4 10.2 2.6
      vertex 13.4 10.2 4.35
    endloop
  endfacet
  facet normal 0.998618 0.0525588 0
    outer loop
      vertex 13.4 10.2 2.6
      vertex 13.4088 10.0328 4.35
      vertex 13.4088 10.0328 2.6
    endloop
  endfacet
  facet normal -0.156361 -0.9877 0
    outer loop
      vertex 15.1672 11.7912 2.6
      vertex 15.3327 11.765 4.35
      vertex 15.1672 11.7912 4.35
    endloop
  endfacet
  facet normal -0.156361 -0.9877 -0
    outer loop
      vertex 15.3327 11.765 4.35
      vertex 15.1672 11.7912 2.6
      vertex 15.3327 11.765 2.6
    endloop
  endfacet
  facet normal 0.777127 0.629344 0
    outer loop
      vertex 13.811 9.12939 4.35
      vertex 13.7056 9.25954 2.6
      vertex 13.7056 9.25954 4.35
    endloop
  endfacet
  facet normal 0.777127 0.629344 0
    outer loop
      vertex 13.7056 9.25954 2.6
      vertex 13.811 9.12939 4.35
      vertex 13.811 9.12939 2.6
    endloop
  endfacet
  facet normal 0.965967 -0.258666 0
    outer loop
      vertex 13.435 10.5327 4.35
      vertex 13.4783 10.6944 2.6
      vertex 13.4783 10.6944 4.35
    endloop
  endfacet
  facet normal 0.965967 -0.258666 0
    outer loop
      vertex 13.4783 10.6944 2.6
      vertex 13.435 10.5327 4.35
      vertex 13.435 10.5327 2.6
    endloop
  endfacet
  facet normal 0.707166 0.707047 0
    outer loop
      vertex 13.9294 9.01097 4.35
      vertex 13.811 9.12939 2.6
      vertex 13.811 9.12939 4.35
    endloop
  endfacet
  facet normal 0.707166 0.707047 0
    outer loop
      vertex 13.811 9.12939 2.6
      vertex 13.9294 9.01097 4.35
      vertex 13.9294 9.01097 2.6
    endloop
  endfacet
  facet normal -0.544506 0.838757 0
    outer loop
      vertex 15.9405 8.90557 2.6
      vertex 15.8 8.81436 4.35
      vertex 15.9405 8.90557 4.35
    endloop
  endfacet
  facet normal -0.544506 0.838757 0
    outer loop
      vertex 15.8 8.81436 4.35
      vertex 15.9405 8.90557 2.6
      vertex 15.8 8.81436 2.6
    endloop
  endfacet
  facet normal -0.933615 0.358279 0
    outer loop
      vertex 16.4617 9.54922 2.6
      vertex 16.5217 9.70557 4.35
      vertex 16.5217 9.70557 2.6
    endloop
  endfacet
  facet normal -0.933615 0.358279 0
    outer loop
      vertex 16.5217 9.70557 4.35
      vertex 16.4617 9.54922 2.6
      vertex 16.4617 9.54922 4.35
    endloop
  endfacet
  facet normal 0.358283 0.933613 -0
    outer loop
      vertex 14.5056 8.67831 2.6
      vertex 14.3492 8.73833 4.35
      vertex 14.5056 8.67831 4.35
    endloop
  endfacet
  facet normal 0.358283 0.933613 0
    outer loop
      vertex 14.3492 8.73833 4.35
      vertex 14.5056 8.67831 2.6
      vertex 14.3492 8.73833 2.6
    endloop
  endfacet
  facet normal 0.0523801 0.998627 -0
    outer loop
      vertex 15 8.6 2.6
      vertex 14.8328 8.60877 4.35
      vertex 15 8.6 4.35
    endloop
  endfacet
  facet normal 0.0523801 0.998627 0
    outer loop
      vertex 14.8328 8.60877 4.35
      vertex 15 8.6 2.6
      vertex 14.8328 8.60877 2.6
    endloop
  endfacet
  facet normal 0.998618 -0.0525588 0
    outer loop
      vertex 13.4 10.2 4.35
      vertex 13.4088 10.3672 2.6
      vertex 13.4088 10.3672 4.35
    endloop
  endfacet
  facet normal 0.998618 -0.0525588 0
    outer loop
      vertex 13.4088 10.3672 2.6
      vertex 13.4 10.2 4.35
      vertex 13.4 10.2 2.6
    endloop
  endfacet
  facet normal 0.544506 0.838757 -0
    outer loop
      vertex 14.2 8.81436 2.6
      vertex 14.0595 8.90557 4.35
      vertex 14.2 8.81436 4.35
    endloop
  endfacet
  facet normal 0.544506 0.838757 0
    outer loop
      vertex 14.0595 8.90557 4.35
      vertex 14.2 8.81436 2.6
      vertex 14.0595 8.90557 2.6
    endloop
  endfacet
  facet normal -0.707166 0.707047 0
    outer loop
      vertex 16.0706 9.01097 2.6
      vertex 16.189 9.12939 4.35
      vertex 16.189 9.12939 2.6
    endloop
  endfacet
  facet normal -0.707166 0.707047 0
    outer loop
      vertex 16.189 9.12939 4.35
      vertex 16.0706 9.01097 2.6
      vertex 16.0706 9.01097 4.35
    endloop
  endfacet
endsolid OpenSCAD_Model
