solid OpenSCAD_Model
  facet normal 1 0 0
    outer loop
      vertex 30 2.5 6.85
      vertex 30 0 6.85
      vertex 30 2.5 4.35
    endloop
  endfacet
  facet normal 1 0 0
    outer loop
      vertex 30 19.5 4.35
      vertex 30 22 6.85
      vertex 30 19.5 6.85
    endloop
  endfacet
  facet normal 1 0 0
    outer loop
      vertex 30 22 6.85
      vertex 30 19.5 4.35
      vertex 30 22 0
    endloop
  endfacet
  facet normal 1 -0 0
    outer loop
      vertex 30 2.5 4.35
      vertex 30 22 0
      vertex 30 19.5 4.35
    endloop
  endfacet
  facet normal 1 0 0
    outer loop
      vertex 30 2.5 4.35
      vertex 30 0 0
      vertex 30 22 0
    endloop
  endfacet
  facet normal 1 0 0
    outer loop
      vertex 30 0 0
      vertex 30 2.5 4.35
      vertex 30 0 6.85
    endloop
  endfacet
  facet normal 0 0 1
    outer loop
      vertex 16.5912 12.3328 4.35
      vertex 30 19.5 4.35
      vertex 16.6 12.5 4.35
    endloop
  endfacet
  facet normal 0 0 1
    outer loop
      vertex 30 19.5 4.35
      vertex 16.5912 12.6672 4.35
      vertex 16.6 12.5 4.35
    endloop
  endfacet
  facet normal 0 0 1
    outer loop
      vertex 30 19.5 4.35
      vertex 16.565 12.8327 4.35
      vertex 16.5912 12.6672 4.35
    endloop
  endfacet
  facet normal 0 0 1
    outer loop
      vertex 30 19.5 4.35
      vertex 16.5217 12.9944 4.35
      vertex 16.565 12.8327 4.35
    endloop
  endfacet
  facet normal 0 0 1
    outer loop
      vertex 30 19.5 4.35
      vertex 16.4617 13.1508 4.35
      vertex 16.5217 12.9944 4.35
    endloop
  endfacet
  facet normal 0 0 1
    outer loop
      vertex 30 19.5 4.35
      vertex 16.3856 13.3 4.35
      vertex 16.4617 13.1508 4.35
    endloop
  endfacet
  facet normal 0 0 1
    outer loop
      vertex 30 19.5 4.35
      vertex 16.2944 13.4405 4.35
      vertex 16.3856 13.3 4.35
    endloop
  endfacet
  facet normal 0 0 1
    outer loop
      vertex 30 19.5 4.35
      vertex 16.189 13.5706 4.35
      vertex 16.2944 13.4405 4.35
    endloop
  endfacet
  facet normal 0 0 1
    outer loop
      vertex 30 19.5 4.35
      vertex 16.0706 13.689 4.35
      vertex 16.189 13.5706 4.35
    endloop
  endfacet
  facet normal 0 0 1
    outer loop
      vertex 30 19.5 4.35
      vertex 15.9405 13.7944 4.35
      vertex 16.0706 13.689 4.35
    endloop
  endfacet
  facet normal 0 0 1
    outer loop
      vertex 30 19.5 4.35
      vertex 15.8 13.8856 4.35
      vertex 15.9405 13.7944 4.35
    endloop
  endfacet
  facet normal 0 0 1
    outer loop
      vertex 30 19.5 4.35
      vertex 15.6508 13.9617 4.35
      vertex 15.8 13.8856 4.35
    endloop
  endfacet
  facet normal 0 0 1
    outer loop
      vertex 30 19.5 4.35
      vertex 15.4944 14.0217 4.35
      vertex 15.6508 13.9617 4.35
    endloop
  endfacet
  facet normal 0 0 1
    outer loop
      vertex 30 19.5 4.35
      vertex 15.3327 14.065 4.35
      vertex 15.4944 14.0217 4.35
    endloop
  endfacet
  facet normal 0 0 1
    outer loop
      vertex 30 19.5 4.35
      vertex 15.1672 14.0912 4.35
      vertex 15.3327 14.065 4.35
    endloop
  endfacet
  facet normal 0 0 1
    outer loop
      vertex 30 19.5 4.35
      vertex 15 14.1 4.35
      vertex 15.1672 14.0912 4.35
    endloop
  endfacet
  facet normal -0 0 1
    outer loop
      vertex 0 19.5 4.35
      vertex 15 14.1 4.35
      vertex 30 19.5 4.35
    endloop
  endfacet
  facet normal 0 0 1
    outer loop
      vertex 15 14.1 4.35
      vertex 0 19.5 4.35
      vertex 14.8328 14.0912 4.35
    endloop
  endfacet
  facet normal 0 0 1
    outer loop
      vertex 14.8328 14.0912 4.35
      vertex 0 19.5 4.35
      vertex 14.6673 14.065 4.35
    endloop
  endfacet
  facet normal 0 0 1
    outer loop
      vertex 13.4088 12.6672 4.35
      vertex 0 19.5 4.35
      vertex 13.4 12.5 4.35
    endloop
  endfacet
  facet normal 0 0 1
    outer loop
      vertex 13.435 12.8327 4.35
      vertex 0 19.5 4.35
      vertex 13.4088 12.6672 4.35
    endloop
  endfacet
  facet normal 0 0 1
    outer loop
      vertex 13.4783 12.9944 4.35
      vertex 0 19.5 4.35
      vertex 13.435 12.8327 4.35
    endloop
  endfacet
  facet normal 0 0 1
    outer loop
      vertex 13.5383 13.1508 4.35
      vertex 0 19.5 4.35
      vertex 13.4783 12.9944 4.35
    endloop
  endfacet
  facet normal 0 0 1
    outer loop
      vertex 13.6144 13.3 4.35
      vertex 0 19.5 4.35
      vertex 13.5383 13.1508 4.35
    endloop
  endfacet
  facet normal 0 0 1
    outer loop
      vertex 13.7056 13.4405 4.35
      vertex 0 19.5 4.35
      vertex 13.6144 13.3 4.35
    endloop
  endfacet
  facet normal 0 0 1
    outer loop
      vertex 13.811 13.5706 4.35
      vertex 0 19.5 4.35
      vertex 13.7056 13.4405 4.35
    endloop
  endfacet
  facet normal 0 0 1
    outer loop
      vertex 13.9294 13.689 4.35
      vertex 0 19.5 4.35
      vertex 13.811 13.5706 4.35
    endloop
  endfacet
  facet normal 0 0 1
    outer loop
      vertex 14.0595 13.7944 4.35
      vertex 0 19.5 4.35
      vertex 13.9294 13.689 4.35
    endloop
  endfacet
  facet normal 0 0 1
    outer loop
      vertex 14.2 13.8856 4.35
      vertex 0 19.5 4.35
      vertex 14.0595 13.7944 4.35
    endloop
  endfacet
  facet normal 0 0 1
    outer loop
      vertex 14.3492 13.9617 4.35
      vertex 0 19.5 4.35
      vertex 14.2 13.8856 4.35
    endloop
  endfacet
  facet normal 0 0 1
    outer loop
      vertex 14.5056 14.0217 4.35
      vertex 0 19.5 4.35
      vertex 14.3492 13.9617 4.35
    endloop
  endfacet
  facet normal 0 0 1
    outer loop
      vertex 14.6673 14.065 4.35
      vertex 0 19.5 4.35
      vertex 14.5056 14.0217 4.35
    endloop
  endfacet
  facet normal 0 0 1
    outer loop
      vertex 30 19.5 4.35
      vertex 16.5912 12.3328 4.35
      vertex 30 2.5 4.35
    endloop
  endfacet
  facet normal -0 0 1
    outer loop
      vertex 16.565 12.1673 4.35
      vertex 30 2.5 4.35
      vertex 16.5912 12.3328 4.35
    endloop
  endfacet
  facet normal -0 0 1
    outer loop
      vertex 16.5217 12.0056 4.35
      vertex 30 2.5 4.35
      vertex 16.565 12.1673 4.35
    endloop
  endfacet
  facet normal -0 0 1
    outer loop
      vertex 16.4617 11.8492 4.35
      vertex 30 2.5 4.35
      vertex 16.5217 12.0056 4.35
    endloop
  endfacet
  facet normal -0 0 1
    outer loop
      vertex 16.3856 11.7 4.35
      vertex 30 2.5 4.35
      vertex 16.4617 11.8492 4.35
    endloop
  endfacet
  facet normal -0 0 1
    outer loop
      vertex 16.2944 11.5595 4.35
      vertex 30 2.5 4.35
      vertex 16.3856 11.7 4.35
    endloop
  endfacet
  facet normal -0 0 1
    outer loop
      vertex 16.189 11.4294 4.35
      vertex 30 2.5 4.35
      vertex 16.2944 11.5595 4.35
    endloop
  endfacet
  facet normal -0 0 1
    outer loop
      vertex 16.0706 11.311 4.35
      vertex 30 2.5 4.35
      vertex 16.189 11.4294 4.35
    endloop
  endfacet
  facet normal -0 0 1
    outer loop
      vertex 15.9405 11.2056 4.35
      vertex 30 2.5 4.35
      vertex 16.0706 11.311 4.35
    endloop
  endfacet
  facet normal -0 0 1
    outer loop
      vertex 15.8 11.1144 4.35
      vertex 30 2.5 4.35
      vertex 15.9405 11.2056 4.35
    endloop
  endfacet
  facet normal -0 0 1
    outer loop
      vertex 15.6508 11.0383 4.35
      vertex 30 2.5 4.35
      vertex 15.8 11.1144 4.35
    endloop
  endfacet
  facet normal -0 0 1
    outer loop
      vertex 15.4944 10.9783 4.35
      vertex 30 2.5 4.35
      vertex 15.6508 11.0383 4.35
    endloop
  endfacet
  facet normal -0 0 1
    outer loop
      vertex 15.3327 10.935 4.35
      vertex 30 2.5 4.35
      vertex 15.4944 10.9783 4.35
    endloop
  endfacet
  facet normal -0 0 1
    outer loop
      vertex 15.1672 10.9088 4.35
      vertex 30 2.5 4.35
      vertex 15.3327 10.935 4.35
    endloop
  endfacet
  facet normal -0 0 1
    outer loop
      vertex 15 10.9 4.35
      vertex 30 2.5 4.35
      vertex 15.1672 10.9088 4.35
    endloop
  endfacet
  facet normal 0 0 1
    outer loop
      vertex 0 2.5 4.35
      vertex 15 10.9 4.35
      vertex 14.8328 10.9088 4.35
    endloop
  endfacet
  facet normal 0 0 1
    outer loop
      vertex 0 2.5 4.35
      vertex 14.8328 10.9088 4.35
      vertex 14.6673 10.935 4.35
    endloop
  endfacet
  facet normal 0 0 1
    outer loop
      vertex 0 2.5 4.35
      vertex 14.6673 10.935 4.35
      vertex 14.5056 10.9783 4.35
    endloop
  endfacet
  facet normal 0 0 1
    outer loop
      vertex 0 2.5 4.35
      vertex 14.5056 10.9783 4.35
      vertex 14.3492 11.0383 4.35
    endloop
  endfacet
  facet normal 0 0 1
    outer loop
      vertex 0 2.5 4.35
      vertex 14.3492 11.0383 4.35
      vertex 14.2 11.1144 4.35
    endloop
  endfacet
  facet normal 0 0 1
    outer loop
      vertex 0 19.5 4.35
      vertex 13.4088 12.3328 4.35
      vertex 13.4 12.5 4.35
    endloop
  endfacet
  facet normal 0 0 1
    outer loop
      vertex 0 2.5 4.35
      vertex 13.4088 12.3328 4.35
      vertex 0 19.5 4.35
    endloop
  endfacet
  facet normal 0 0 1
    outer loop
      vertex 13.4088 12.3328 4.35
      vertex 0 2.5 4.35
      vertex 13.435 12.1673 4.35
    endloop
  endfacet
  facet normal 0 0 1
    outer loop
      vertex 13.435 12.1673 4.35
      vertex 0 2.5 4.35
      vertex 13.4783 12.0056 4.35
    endloop
  endfacet
  facet normal 0 0 1
    outer loop
      vertex 13.4783 12.0056 4.35
      vertex 0 2.5 4.35
      vertex 13.5383 11.8492 4.35
    endloop
  endfacet
  facet normal 0 0 1
    outer loop
      vertex 13.5383 11.8492 4.35
      vertex 0 2.5 4.35
      vertex 13.6144 11.7 4.35
    endloop
  endfacet
  facet normal 0 0 1
    outer loop
      vertex 13.6144 11.7 4.35
      vertex 0 2.5 4.35
      vertex 13.7056 11.5595 4.35
    endloop
  endfacet
  facet normal 0 0 1
    outer loop
      vertex 13.7056 11.5595 4.35
      vertex 0 2.5 4.35
      vertex 13.811 11.4294 4.35
    endloop
  endfacet
  facet normal 0 0 1
    outer loop
      vertex 13.811 11.4294 4.35
      vertex 0 2.5 4.35
      vertex 13.9294 11.311 4.35
    endloop
  endfacet
  facet normal 0 0 1
    outer loop
      vertex 13.9294 11.311 4.35
      vertex 0 2.5 4.35
      vertex 14.0595 11.2056 4.35
    endloop
  endfacet
  facet normal 0 0 1
    outer loop
      vertex 15 10.9 4.35
      vertex 0 2.5 4.35
      vertex 30 2.5 4.35
    endloop
  endfacet
  facet normal 0 0 1
    outer loop
      vertex 14.0595 11.2056 4.35
      vertex 0 2.5 4.35
      vertex 14.2 11.1144 4.35
    endloop
  endfacet
  facet normal 0 0 -1
    outer loop
      vertex 30 0 0
      vertex 18.475 12.5 0
      vertex 30 22 0
    endloop
  endfacet
  facet normal 0 0 -1
    outer loop
      vertex 30 0 0
      vertex 16.7375 9.49056 0
      vertex 18.475 12.5 0
    endloop
  endfacet
  facet normal 0 0 -1
    outer loop
      vertex 30 0 0
      vertex 13.2625 9.49056 0
      vertex 16.7375 9.49056 0
    endloop
  endfacet
  facet normal -0 0 -1
    outer loop
      vertex 13.2625 9.49056 0
      vertex 0 0 0
      vertex 11.525 12.5 0
    endloop
  endfacet
  facet normal 0 0 -1
    outer loop
      vertex 0 0 0
      vertex 13.2625 9.49056 0
      vertex 30 0 0
    endloop
  endfacet
  facet normal 0 0 -1
    outer loop
      vertex 16.7375 15.5094 0
      vertex 30 22 0
      vertex 18.475 12.5 0
    endloop
  endfacet
  facet normal 0 0 -1
    outer loop
      vertex 13.2625 15.5094 0
      vertex 30 22 0
      vertex 16.7375 15.5094 0
    endloop
  endfacet
  facet normal 0 0 -1
    outer loop
      vertex 0 22 0
      vertex 11.525 12.5 0
      vertex 0 0 0
    endloop
  endfacet
  facet normal 0 0 -1
    outer loop
      vertex 13.2625 15.5094 0
      vertex 0 22 0
      vertex 30 22 0
    endloop
  endfacet
  facet normal 0 0 -1
    outer loop
      vertex 11.525 12.5 0
      vertex 0 22 0
      vertex 13.2625 15.5094 0
    endloop
  endfacet
  facet normal -1 0 0
    outer loop
      vertex 0 22 0
      vertex 0 19.5 4.35
      vertex 0 22 6.85
    endloop
  endfacet
  facet normal -1 0 0
    outer loop
      vertex 0 22 0
      vertex 0 2.5 4.35
      vertex 0 19.5 4.35
    endloop
  endfacet
  facet normal -1 0 0
    outer loop
      vertex 0 0 0
      vertex 0 2.5 4.35
      vertex 0 22 0
    endloop
  endfacet
  facet normal -1 0 0
    outer loop
      vertex 0 0 6.85
      vertex 0 2.5 4.35
      vertex 0 0 0
    endloop
  endfacet
  facet normal -1 0 0
    outer loop
      vertex 0 2.5 4.35
      vertex 0 0 6.85
      vertex 0 2.5 6.85
    endloop
  endfacet
  facet normal -1 -0 0
    outer loop
      vertex 0 22 6.85
      vertex 0 19.5 4.35
      vertex 0 19.5 6.85
    endloop
  endfacet
  facet normal 0 1 -0
    outer loop
      vertex 30 22 0
      vertex 0 22 6.85
      vertex 30 22 6.85
    endloop
  endfacet
  facet normal 0 1 0
    outer loop
      vertex 0 22 6.85
      vertex 30 22 0
      vertex 0 22 0
    endloop
  endfacet
  facet normal 0 -1 0
    outer loop
      vertex 0 0 0
      vertex 30 0 6.85
      vertex 0 0 6.85
    endloop
  endfacet
  facet normal 0 -1 -0
    outer loop
      vertex 30 0 6.85
      vertex 0 0 0
      vertex 30 0 0
    endloop
  endfacet
  facet normal -0 0 1
    outer loop
      vertex 0 2.5 6.85
      vertex 30 0 6.85
      vertex 30 2.5 6.85
    endloop
  endfacet
  facet normal 0 0 1
    outer loop
      vertex 30 0 6.85
      vertex 0 2.5 6.85
      vertex 0 0 6.85
    endloop
  endfacet
  facet normal 0 1 -0
    outer loop
      vertex 30 2.5 4.35
      vertex 0 2.5 6.85
      vertex 30 2.5 6.85
    endloop
  endfacet
  facet normal 0 1 0
    outer loop
      vertex 0 2.5 6.85
      vertex 30 2.5 4.35
      vertex 0 2.5 4.35
    endloop
  endfacet
  facet normal -0 0 1
    outer loop
      vertex 0 22 6.85
      vertex 30 19.5 6.85
      vertex 30 22 6.85
    endloop
  endfacet
  facet normal 0 0 1
    outer loop
      vertex 30 19.5 6.85
      vertex 0 22 6.85
      vertex 0 19.5 6.85
    endloop
  endfacet
  facet normal 0 -1 0
    outer loop
      vertex 0 19.5 4.35
      vertex 30 19.5 6.85
      vertex 0 19.5 6.85
    endloop
  endfacet
  facet normal 0 -1 -0
    outer loop
      vertex 30 19.5 6.85
      vertex 0 19.5 4.35
      vertex 30 19.5 4.35
    endloop
  endfacet
  facet normal 0 1 -0
    outer loop
      vertex 16.7375 9.49056 0
      vertex 13.2625 9.49056 2.6
      vertex 16.7375 9.49056 2.6
    endloop
  endfacet
  facet normal 0 1 0
    outer loop
      vertex 13.2625 9.49056 2.6
      vertex 16.7375 9.49056 0
      vertex 13.2625 9.49056 0
    endloop
  endfacet
  facet normal -0.866026 0.5 0
    outer loop
      vertex 16.7375 9.49056 0
      vertex 18.475 12.5 2.6
      vertex 18.475 12.5 0
    endloop
  endfacet
  facet normal -0.866026 0.5 0
    outer loop
      vertex 18.475 12.5 2.6
      vertex 16.7375 9.49056 0
      vertex 16.7375 9.49056 2.6
    endloop
  endfacet
  facet normal 0 -1 0
    outer loop
      vertex 13.2625 15.5094 0
      vertex 16.7375 15.5094 2.6
      vertex 13.2625 15.5094 2.6
    endloop
  endfacet
  facet normal 0 -1 -0
    outer loop
      vertex 16.7375 15.5094 2.6
      vertex 13.2625 15.5094 0
      vertex 16.7375 15.5094 0
    endloop
  endfacet
  facet normal -0.866023 -0.500005 0
    outer loop
      vertex 18.475 12.5 0
      vertex 16.7375 15.5094 2.6
      vertex 16.7375 15.5094 0
    endloop
  endfacet
  facet normal -0.866023 -0.500005 0
    outer loop
      vertex 16.7375 15.5094 2.6
      vertex 18.475 12.5 0
      vertex 18.475 12.5 2.6
    endloop
  endfacet
  facet normal 0.866023 -0.500005 0
    outer loop
      vertex 11.525 12.5 2.6
      vertex 13.2625 15.5094 0
      vertex 13.2625 15.5094 2.6
    endloop
  endfacet
  facet normal 0.866023 -0.500005 0
    outer loop
      vertex 13.2625 15.5094 0
      vertex 11.525 12.5 2.6
      vertex 11.525 12.5 0
    endloop
  endfacet
  facet normal 0.866026 0.5 0
    outer loop
      vertex 13.2625 9.49056 2.6
      vertex 11.525 12.5 0
      vertex 11.525 12.5 2.6
    endloop
  endfacet
  facet normal 0.866026 0.5 0
    outer loop
      vertex 11.525 12.5 0
      vertex 13.2625 9.49056 2.6
      vertex 13.2625 9.49056 0
    endloop
  endfacet
  facet normal 0 0 -1
    outer loop
      vertex 16.3856 11.7 2.6
      vertex 18.475 12.5 2.6
      vertex 16.7375 9.49056 2.6
    endloop
  endfacet
  facet normal 0 0 -1
    outer loop
      vertex 16.5912 12.6672 2.6
      vertex 18.475 12.5 2.6
      vertex 16.6 12.5 2.6
    endloop
  endfacet
  facet normal -0 0 -1
    outer loop
      vertex 18.475 12.5 2.6
      vertex 16.5912 12.3328 2.6
      vertex 16.6 12.5 2.6
    endloop
  endfacet
  facet normal 0 0 -1
    outer loop
      vertex 18.475 12.5 2.6
      vertex 16.565 12.1673 2.6
      vertex 16.5912 12.3328 2.6
    endloop
  endfacet
  facet normal 0 0 -1
    outer loop
      vertex 18.475 12.5 2.6
      vertex 16.5217 12.0056 2.6
      vertex 16.565 12.1673 2.6
    endloop
  endfacet
  facet normal 0 0 -1
    outer loop
      vertex 18.475 12.5 2.6
      vertex 16.4617 11.8492 2.6
      vertex 16.5217 12.0056 2.6
    endloop
  endfacet
  facet normal 0 0 -1
    outer loop
      vertex 18.475 12.5 2.6
      vertex 16.3856 11.7 2.6
      vertex 16.4617 11.8492 2.6
    endloop
  endfacet
  facet normal 0 0 -1
    outer loop
      vertex 16.7375 9.49056 2.6
      vertex 16.2944 11.5595 2.6
      vertex 16.3856 11.7 2.6
    endloop
  endfacet
  facet normal 0 0 -1
    outer loop
      vertex 16.7375 9.49056 2.6
      vertex 16.189 11.4294 2.6
      vertex 16.2944 11.5595 2.6
    endloop
  endfacet
  facet normal 0 0 -1
    outer loop
      vertex 16.7375 9.49056 2.6
      vertex 16.0706 11.311 2.6
      vertex 16.189 11.4294 2.6
    endloop
  endfacet
  facet normal 0 0 -1
    outer loop
      vertex 16.7375 9.49056 2.6
      vertex 15.9405 11.2056 2.6
      vertex 16.0706 11.311 2.6
    endloop
  endfacet
  facet normal 0 0 -1
    outer loop
      vertex 16.7375 9.49056 2.6
      vertex 15.8 11.1144 2.6
      vertex 15.9405 11.2056 2.6
    endloop
  endfacet
  facet normal 0 0 -1
    outer loop
      vertex 16.7375 9.49056 2.6
      vertex 15.6508 11.0383 2.6
      vertex 15.8 11.1144 2.6
    endloop
  endfacet
  facet normal 0 0 -1
    outer loop
      vertex 16.7375 9.49056 2.6
      vertex 15.4944 10.9783 2.6
      vertex 15.6508 11.0383 2.6
    endloop
  endfacet
  facet normal 0 0 -1
    outer loop
      vertex 16.7375 9.49056 2.6
      vertex 15.3327 10.935 2.6
      vertex 15.4944 10.9783 2.6
    endloop
  endfacet
  facet normal 0 0 -1
    outer loop
      vertex 16.7375 9.49056 2.6
      vertex 15.1672 10.9088 2.6
      vertex 15.3327 10.935 2.6
    endloop
  endfacet
  facet normal 0 0 -1
    outer loop
      vertex 16.7375 9.49056 2.6
      vertex 15 10.9 2.6
      vertex 15.1672 10.9088 2.6
    endloop
  endfacet
  facet normal 0 0 -1
    outer loop
      vertex 13.2625 9.49056 2.6
      vertex 15 10.9 2.6
      vertex 16.7375 9.49056 2.6
    endloop
  endfacet
  facet normal -0 0 -1
    outer loop
      vertex 15 10.9 2.6
      vertex 13.2625 9.49056 2.6
      vertex 14.8328 10.9088 2.6
    endloop
  endfacet
  facet normal -0 0 -1
    outer loop
      vertex 14.8328 10.9088 2.6
      vertex 13.2625 9.49056 2.6
      vertex 14.6673 10.935 2.6
    endloop
  endfacet
  facet normal -0 0 -1
    outer loop
      vertex 14.6673 10.935 2.6
      vertex 13.2625 9.49056 2.6
      vertex 14.5056 10.9783 2.6
    endloop
  endfacet
  facet normal -0 0 -1
    outer loop
      vertex 14.5056 10.9783 2.6
      vertex 13.2625 9.49056 2.6
      vertex 14.3492 11.0383 2.6
    endloop
  endfacet
  facet normal 0 0 -1
    outer loop
      vertex 13.435 12.1673 2.6
      vertex 11.525 12.5 2.6
      vertex 13.4088 12.3328 2.6
    endloop
  endfacet
  facet normal 0 0 -1
    outer loop
      vertex 13.4783 12.0056 2.6
      vertex 11.525 12.5 2.6
      vertex 13.435 12.1673 2.6
    endloop
  endfacet
  facet normal 0 0 -1
    outer loop
      vertex 13.5383 11.8492 2.6
      vertex 11.525 12.5 2.6
      vertex 13.4783 12.0056 2.6
    endloop
  endfacet
  facet normal 0 0 -1
    outer loop
      vertex 13.6144 11.7 2.6
      vertex 11.525 12.5 2.6
      vertex 13.5383 11.8492 2.6
    endloop
  endfacet
  facet normal 0 0 -1
    outer loop
      vertex 11.525 12.5 2.6
      vertex 13.6144 11.7 2.6
      vertex 13.2625 9.49056 2.6
    endloop
  endfacet
  facet normal -0 0 -1
    outer loop
      vertex 13.7056 11.5595 2.6
      vertex 13.2625 9.49056 2.6
      vertex 13.6144 11.7 2.6
    endloop
  endfacet
  facet normal -0 0 -1
    outer loop
      vertex 13.811 11.4294 2.6
      vertex 13.2625 9.49056 2.6
      vertex 13.7056 11.5595 2.6
    endloop
  endfacet
  facet normal -0 0 -1
    outer loop
      vertex 13.9294 11.311 2.6
      vertex 13.2625 9.49056 2.6
      vertex 13.811 11.4294 2.6
    endloop
  endfacet
  facet normal -0 0 -1
    outer loop
      vertex 14.0595 11.2056 2.6
      vertex 13.2625 9.49056 2.6
      vertex 13.9294 11.311 2.6
    endloop
  endfacet
  facet normal -0 0 -1
    outer loop
      vertex 14.2 11.1144 2.6
      vertex 13.2625 9.49056 2.6
      vertex 14.0595 11.2056 2.6
    endloop
  endfacet
  facet normal -0 0 -1
    outer loop
      vertex 14.3492 11.0383 2.6
      vertex 13.2625 9.49056 2.6
      vertex 14.2 11.1144 2.6
    endloop
  endfacet
  facet normal 0 0 -1
    outer loop
      vertex 16.565 12.8327 2.6
      vertex 18.475 12.5 2.6
      vertex 16.5912 12.6672 2.6
    endloop
  endfacet
  facet normal 0 0 -1
    outer loop
      vertex 16.5217 12.9944 2.6
      vertex 18.475 12.5 2.6
      vertex 16.565 12.8327 2.6
    endloop
  endfacet
  facet normal 0 0 -1
    outer loop
      vertex 16.4617 13.1508 2.6
      vertex 18.475 12.5 2.6
      vertex 16.5217 12.9944 2.6
    endloop
  endfacet
  facet normal 0 0 -1
    outer loop
      vertex 16.3856 13.3 2.6
      vertex 18.475 12.5 2.6
      vertex 16.4617 13.1508 2.6
    endloop
  endfacet
  facet normal 0 0 -1
    outer loop
      vertex 18.475 12.5 2.6
      vertex 16.3856 13.3 2.6
      vertex 16.7375 15.5094 2.6
    endloop
  endfacet
  facet normal 0 0 -1
    outer loop
      vertex 16.2944 13.4405 2.6
      vertex 16.7375 15.5094 2.6
      vertex 16.3856 13.3 2.6
    endloop
  endfacet
  facet normal 0 0 -1
    outer loop
      vertex 16.189 13.5706 2.6
      vertex 16.7375 15.5094 2.6
      vertex 16.2944 13.4405 2.6
    endloop
  endfacet
  facet normal 0 0 -1
    outer loop
      vertex 16.0706 13.689 2.6
      vertex 16.7375 15.5094 2.6
      vertex 16.189 13.5706 2.6
    endloop
  endfacet
  facet normal 0 0 -1
    outer loop
      vertex 15.9405 13.7944 2.6
      vertex 16.7375 15.5094 2.6
      vertex 16.0706 13.689 2.6
    endloop
  endfacet
  facet normal 0 0 -1
    outer loop
      vertex 15.8 13.8856 2.6
      vertex 16.7375 15.5094 2.6
      vertex 15.9405 13.7944 2.6
    endloop
  endfacet
  facet normal 0 0 -1
    outer loop
      vertex 15.6508 13.9617 2.6
      vertex 16.7375 15.5094 2.6
      vertex 15.8 13.8856 2.6
    endloop
  endfacet
  facet normal 0 0 -1
    outer loop
      vertex 15.4944 14.0217 2.6
      vertex 16.7375 15.5094 2.6
      vertex 15.6508 13.9617 2.6
    endloop
  endfacet
  facet normal 0 0 -1
    outer loop
      vertex 15.3327 14.065 2.6
      vertex 16.7375 15.5094 2.6
      vertex 15.4944 14.0217 2.6
    endloop
  endfacet
  facet normal 0 0 -1
    outer loop
      vertex 15.1672 14.0912 2.6
      vertex 16.7375 15.5094 2.6
      vertex 15.3327 14.065 2.6
    endloop
  endfacet
  facet normal 0 0 -1
    outer loop
      vertex 15 14.1 2.6
      vertex 16.7375 15.5094 2.6
      vertex 15.1672 14.0912 2.6
    endloop
  endfacet
  facet normal 0 0 -1
    outer loop
      vertex 13.2625 15.5094 2.6
      vertex 15 14.1 2.6
      vertex 14.8328 14.0912 2.6
    endloop
  endfacet
  facet normal 0 0 -1
    outer loop
      vertex 13.2625 15.5094 2.6
      vertex 14.8328 14.0912 2.6
      vertex 14.6673 14.065 2.6
    endloop
  endfacet
  facet normal 0 0 -1
    outer loop
      vertex 13.2625 15.5094 2.6
      vertex 14.6673 14.065 2.6
      vertex 14.5056 14.0217 2.6
    endloop
  endfacet
  facet normal 0 0 -1
    outer loop
      vertex 13.2625 15.5094 2.6
      vertex 14.5056 14.0217 2.6
      vertex 14.3492 13.9617 2.6
    endloop
  endfacet
  facet normal 0 0 -1
    outer loop
      vertex 13.2625 15.5094 2.6
      vertex 14.3492 13.9617 2.6
      vertex 14.2 13.8856 2.6
    endloop
  endfacet
  facet normal 0 0 -1
    outer loop
      vertex 15 14.1 2.6
      vertex 13.2625 15.5094 2.6
      vertex 16.7375 15.5094 2.6
    endloop
  endfacet
  facet normal 0 0 -1
    outer loop
      vertex 14.0595 13.7944 2.6
      vertex 13.2625 15.5094 2.6
      vertex 14.2 13.8856 2.6
    endloop
  endfacet
  facet normal 0 0 -1
    outer loop
      vertex 13.9294 13.689 2.6
      vertex 13.2625 15.5094 2.6
      vertex 14.0595 13.7944 2.6
    endloop
  endfacet
  facet normal 0 0 -1
    outer loop
      vertex 13.811 13.5706 2.6
      vertex 13.2625 15.5094 2.6
      vertex 13.9294 13.689 2.6
    endloop
  endfacet
  facet normal 0 0 -1
    outer loop
      vertex 13.7056 13.4405 2.6
      vertex 13.2625 15.5094 2.6
      vertex 13.811 13.5706 2.6
    endloop
  endfacet
  facet normal 0 0 -1
    outer loop
      vertex 13.6144 13.3 2.6
      vertex 13.2625 15.5094 2.6
      vertex 13.7056 13.4405 2.6
    endloop
  endfacet
  facet normal 0 0 -1
    outer loop
      vertex 11.525 12.5 2.6
      vertex 13.6144 13.3 2.6
      vertex 13.5383 13.1508 2.6
    endloop
  endfacet
  facet normal 0 0 -1
    outer loop
      vertex 11.525 12.5 2.6
      vertex 13.5383 13.1508 2.6
      vertex 13.4783 12.9944 2.6
    endloop
  endfacet
  facet normal 0 0 -1
    outer loop
      vertex 11.525 12.5 2.6
      vertex 13.4783 12.9944 2.6
      vertex 13.435 12.8327 2.6
    endloop
  endfacet
  facet normal 0 0 -1
    outer loop
      vertex 11.525 12.5 2.6
      vertex 13.435 12.8327 2.6
      vertex 13.4088 12.6672 2.6
    endloop
  endfacet
  facet normal 0 0 -1
    outer loop
      vertex 11.525 12.5 2.6
      vertex 13.4088 12.6672 2.6
      vertex 13.4 12.5 2.6
    endloop
  endfacet
  facet normal 0 0 -1
    outer loop
      vertex 13.4088 12.3328 2.6
      vertex 11.525 12.5 2.6
      vertex 13.4 12.5 2.6
    endloop
  endfacet
  facet normal -0 0 -1
    outer loop
      vertex 13.6144 13.3 2.6
      vertex 11.525 12.5 2.6
      vertex 13.2625 15.5094 2.6
    endloop
  endfacet
  facet normal -0.9877 0.156361 0
    outer loop
      vertex 16.565 12.1673 2.6
      vertex 16.5912 12.3328 4.35
      vertex 16.5912 12.3328 2.6
    endloop
  endfacet
  facet normal -0.9877 0.156361 0
    outer loop
      vertex 16.5912 12.3328 4.35
      vertex 16.565 12.1673 2.6
      vertex 16.565 12.1673 4.35
    endloop
  endfacet
  facet normal -0.9877 -0.156361 0
    outer loop
      vertex 16.5912 12.6672 2.6
      vertex 16.565 12.8327 4.35
      vertex 16.565 12.8327 2.6
    endloop
  endfacet
  facet normal -0.9877 -0.156361 0
    outer loop
      vertex 16.565 12.8327 4.35
      vertex 16.5912 12.6672 2.6
      vertex 16.5912 12.6672 4.35
    endloop
  endfacet
  facet normal -0.998618 -0.0525588 0
    outer loop
      vertex 16.6 12.5 2.6
      vertex 16.5912 12.6672 4.35
      vertex 16.5912 12.6672 2.6
    endloop
  endfacet
  facet normal -0.998618 -0.0525588 0
    outer loop
      vertex 16.5912 12.6672 4.35
      vertex 16.6 12.5 2.6
      vertex 16.6 12.5 4.35
    endloop
  endfacet
  facet normal -0.965967 -0.258666 0
    outer loop
      vertex 16.565 12.8327 2.6
      vertex 16.5217 12.9944 4.35
      vertex 16.5217 12.9944 2.6
    endloop
  endfacet
  facet normal -0.965967 -0.258666 0
    outer loop
      vertex 16.5217 12.9944 4.35
      vertex 16.565 12.8327 2.6
      vertex 16.565 12.8327 4.35
    endloop
  endfacet
  facet normal -0.838784 -0.544464 0
    outer loop
      vertex 16.3856 13.3 2.6
      vertex 16.2944 13.4405 4.35
      vertex 16.2944 13.4405 2.6
    endloop
  endfacet
  facet normal -0.838784 -0.544464 0
    outer loop
      vertex 16.2944 13.4405 4.35
      vertex 16.3856 13.3 2.6
      vertex 16.3856 13.3 4.35
    endloop
  endfacet
  facet normal 0.0525588 -0.998618 0
    outer loop
      vertex 14.8328 14.0912 2.6
      vertex 15 14.1 4.35
      vertex 14.8328 14.0912 4.35
    endloop
  endfacet
  facet normal 0.0525588 -0.998618 0
    outer loop
      vertex 15 14.1 4.35
      vertex 14.8328 14.0912 2.6
      vertex 15 14.1 2.6
    endloop
  endfacet
  facet normal -0.998618 0.0525588 0
    outer loop
      vertex 16.5912 12.3328 2.6
      vertex 16.6 12.5 4.35
      vertex 16.6 12.5 2.6
    endloop
  endfacet
  facet normal -0.998618 0.0525588 0
    outer loop
      vertex 16.6 12.5 4.35
      vertex 16.5912 12.3328 2.6
      vertex 16.5912 12.3328 4.35
    endloop
  endfacet
  facet normal -0.777008 -0.62949 0
    outer loop
      vertex 16.2944 13.4405 2.6
      vertex 16.189 13.5706 4.35
      vertex 16.189 13.5706 2.6
    endloop
  endfacet
  facet normal -0.777008 -0.62949 0
    outer loop
      vertex 16.189 13.5706 4.35
      vertex 16.2944 13.4405 2.6
      vertex 16.2944 13.4405 4.35
    endloop
  endfacet
  facet normal 0.9877 0.156361 0
    outer loop
      vertex 13.435 12.1673 4.35
      vertex 13.4088 12.3328 2.6
      vertex 13.4088 12.3328 4.35
    endloop
  endfacet
  facet normal 0.9877 0.156361 0
    outer loop
      vertex 13.4088 12.3328 2.6
      vertex 13.435 12.1673 4.35
      vertex 13.435 12.1673 2.6
    endloop
  endfacet
  facet normal 0.890816 -0.454364 0
    outer loop
      vertex 13.5383 13.1508 4.35
      vertex 13.6144 13.3 2.6
      vertex 13.6144 13.3 4.35
    endloop
  endfacet
  facet normal 0.890816 -0.454364 0
    outer loop
      vertex 13.6144 13.3 2.6
      vertex 13.5383 13.1508 4.35
      vertex 13.5383 13.1508 2.6
    endloop
  endfacet
  facet normal -0.258666 -0.965967 0
    outer loop
      vertex 15.3327 14.065 2.6
      vertex 15.4944 14.0217 4.35
      vertex 15.3327 14.065 4.35
    endloop
  endfacet
  facet normal -0.258666 -0.965967 -0
    outer loop
      vertex 15.4944 14.0217 4.35
      vertex 15.3327 14.065 2.6
      vertex 15.4944 14.0217 2.6
    endloop
  endfacet
  facet normal -0.358179 -0.933653 0
    outer loop
      vertex 15.4944 14.0217 2.6
      vertex 15.6508 13.9617 4.35
      vertex 15.4944 14.0217 4.35
    endloop
  endfacet
  facet normal -0.358179 -0.933653 -0
    outer loop
      vertex 15.6508 13.9617 4.35
      vertex 15.4944 14.0217 2.6
      vertex 15.6508 13.9617 2.6
    endloop
  endfacet
  facet normal 0.965967 0.258666 0
    outer loop
      vertex 13.4783 12.0056 4.35
      vertex 13.435 12.1673 2.6
      vertex 13.435 12.1673 4.35
    endloop
  endfacet
  facet normal 0.965967 0.258666 0
    outer loop
      vertex 13.435 12.1673 2.6
      vertex 13.4783 12.0056 4.35
      vertex 13.4783 12.0056 2.6
    endloop
  endfacet
  facet normal -0.62949 -0.777008 0
    outer loop
      vertex 15.9405 13.7944 2.6
      vertex 16.0706 13.689 4.35
      vertex 15.9405 13.7944 4.35
    endloop
  endfacet
  facet normal -0.62949 -0.777008 -0
    outer loop
      vertex 16.0706 13.689 4.35
      vertex 15.9405 13.7944 2.6
      vertex 16.0706 13.689 2.6
    endloop
  endfacet
  facet normal -0.358179 0.933653 0
    outer loop
      vertex 15.6508 11.0383 2.6
      vertex 15.4944 10.9783 4.35
      vertex 15.6508 11.0383 4.35
    endloop
  endfacet
  facet normal -0.358179 0.933653 0
    outer loop
      vertex 15.4944 10.9783 4.35
      vertex 15.6508 11.0383 2.6
      vertex 15.4944 10.9783 2.6
    endloop
  endfacet
  facet normal 0.777008 -0.62949 0
    outer loop
      vertex 13.7056 13.4405 4.35
      vertex 13.811 13.5706 2.6
      vertex 13.811 13.5706 4.35
    endloop
  endfacet
  facet normal 0.777008 -0.62949 0
    outer loop
      vertex 13.811 13.5706 2.6
      vertex 13.7056 13.4405 4.35
      vertex 13.7056 13.4405 2.6
    endloop
  endfacet
  facet normal 0.258666 -0.965967 0
    outer loop
      vertex 14.5056 14.0217 2.6
      vertex 14.6673 14.065 4.35
      vertex 14.5056 14.0217 4.35
    endloop
  endfacet
  facet normal 0.258666 -0.965967 0
    outer loop
      vertex 14.6673 14.065 4.35
      vertex 14.5056 14.0217 2.6
      vertex 14.6673 14.065 2.6
    endloop
  endfacet
  facet normal 0.707107 -0.707107 0
    outer loop
      vertex 13.811 13.5706 4.35
      vertex 13.9294 13.689 2.6
      vertex 13.9294 13.689 4.35
    endloop
  endfacet
  facet normal 0.707107 -0.707107 0
    outer loop
      vertex 13.9294 13.689 2.6
      vertex 13.811 13.5706 4.35
      vertex 13.811 13.5706 2.6
    endloop
  endfacet
  facet normal 0.544464 -0.838784 0
    outer loop
      vertex 14.0595 13.7944 2.6
      vertex 14.2 13.8856 4.35
      vertex 14.0595 13.7944 4.35
    endloop
  endfacet
  facet normal 0.544464 -0.838784 0
    outer loop
      vertex 14.2 13.8856 4.35
      vertex 14.0595 13.7944 2.6
      vertex 14.2 13.8856 2.6
    endloop
  endfacet
  facet normal -0.965967 0.258666 0
    outer loop
      vertex 16.5217 12.0056 2.6
      vertex 16.565 12.1673 4.35
      vertex 16.565 12.1673 2.6
    endloop
  endfacet
  facet normal -0.965967 0.258666 0
    outer loop
      vertex 16.565 12.1673 4.35
      vertex 16.5217 12.0056 2.6
      vertex 16.5217 12.0056 4.35
    endloop
  endfacet
  facet normal -0.0525588 0.998618 0
    outer loop
      vertex 15.1672 10.9088 2.6
      vertex 15 10.9 4.35
      vertex 15.1672 10.9088 4.35
    endloop
  endfacet
  facet normal -0.0525588 0.998618 0
    outer loop
      vertex 15 10.9 4.35
      vertex 15.1672 10.9088 2.6
      vertex 15 10.9 2.6
    endloop
  endfacet
  facet normal -0.544464 -0.838784 0
    outer loop
      vertex 15.8 13.8856 2.6
      vertex 15.9405 13.7944 4.35
      vertex 15.8 13.8856 4.35
    endloop
  endfacet
  facet normal -0.544464 -0.838784 -0
    outer loop
      vertex 15.9405 13.7944 4.35
      vertex 15.8 13.8856 2.6
      vertex 15.9405 13.7944 2.6
    endloop
  endfacet
  facet normal 0.838784 0.544464 0
    outer loop
      vertex 13.7056 11.5595 4.35
      vertex 13.6144 11.7 2.6
      vertex 13.6144 11.7 4.35
    endloop
  endfacet
  facet normal 0.838784 0.544464 0
    outer loop
      vertex 13.6144 11.7 2.6
      vertex 13.7056 11.5595 4.35
      vertex 13.7056 11.5595 2.6
    endloop
  endfacet
  facet normal -0.156361 0.9877 0
    outer loop
      vertex 15.3327 10.935 2.6
      vertex 15.1672 10.9088 4.35
      vertex 15.3327 10.935 4.35
    endloop
  endfacet
  facet normal -0.156361 0.9877 0
    outer loop
      vertex 15.1672 10.9088 4.35
      vertex 15.3327 10.935 2.6
      vertex 15.1672 10.9088 2.6
    endloop
  endfacet
  facet normal 0.156361 0.9877 -0
    outer loop
      vertex 14.8328 10.9088 2.6
      vertex 14.6673 10.935 4.35
      vertex 14.8328 10.9088 4.35
    endloop
  endfacet
  facet normal 0.156361 0.9877 0
    outer loop
      vertex 14.6673 10.935 4.35
      vertex 14.8328 10.9088 2.6
      vertex 14.6673 10.935 2.6
    endloop
  endfacet
  facet normal 0.454364 0.890816 -0
    outer loop
      vertex 14.3492 11.0383 2.6
      vertex 14.2 11.1144 4.35
      vertex 14.3492 11.0383 4.35
    endloop
  endfacet
  facet normal 0.454364 0.890816 0
    outer loop
      vertex 14.2 11.1144 4.35
      vertex 14.3492 11.0383 2.6
      vertex 14.2 11.1144 2.6
    endloop
  endfacet
  facet normal 0.358179 -0.933653 0
    outer loop
      vertex 14.3492 13.9617 2.6
      vertex 14.5056 14.0217 4.35
      vertex 14.3492 13.9617 4.35
    endloop
  endfacet
  facet normal 0.358179 -0.933653 0
    outer loop
      vertex 14.5056 14.0217 4.35
      vertex 14.3492 13.9617 2.6
      vertex 14.5056 14.0217 2.6
    endloop
  endfacet
  facet normal -0.454364 -0.890816 0
    outer loop
      vertex 15.6508 13.9617 2.6
      vertex 15.8 13.8856 4.35
      vertex 15.6508 13.9617 4.35
    endloop
  endfacet
  facet normal -0.454364 -0.890816 -0
    outer loop
      vertex 15.8 13.8856 4.35
      vertex 15.6508 13.9617 2.6
      vertex 15.8 13.8856 2.6
    endloop
  endfacet
  facet normal -0.890816 0.454364 0
    outer loop
      vertex 16.3856 11.7 2.6
      vertex 16.4617 11.8492 4.35
      vertex 16.4617 11.8492 2.6
    endloop
  endfacet
  facet normal -0.890816 0.454364 0
    outer loop
      vertex 16.4617 11.8492 4.35
      vertex 16.3856 11.7 2.6
      vertex 16.3856 11.7 4.35
    endloop
  endfacet
  facet normal -0.707107 -0.707107 0
    outer loop
      vertex 16.189 13.5706 2.6
      vertex 16.0706 13.689 4.35
      vertex 16.0706 13.689 2.6
    endloop
  endfacet
  facet normal -0.707107 -0.707107 0
    outer loop
      vertex 16.0706 13.689 4.35
      vertex 16.189 13.5706 2.6
      vertex 16.189 13.5706 4.35
    endloop
  endfacet
  facet normal 0.62949 0.777008 -0
    outer loop
      vertex 14.0595 11.2056 2.6
      vertex 13.9294 11.311 4.35
      vertex 14.0595 11.2056 4.35
    endloop
  endfacet
  facet normal 0.62949 0.777008 0
    outer loop
      vertex 13.9294 11.311 4.35
      vertex 14.0595 11.2056 2.6
      vertex 13.9294 11.311 2.6
    endloop
  endfacet
  facet normal -0.838784 0.544464 0
    outer loop
      vertex 16.2944 11.5595 2.6
      vertex 16.3856 11.7 4.35
      vertex 16.3856 11.7 2.6
    endloop
  endfacet
  facet normal -0.838784 0.544464 0
    outer loop
      vertex 16.3856 11.7 4.35
      vertex 16.2944 11.5595 2.6
      vertex 16.2944 11.5595 4.35
    endloop
  endfacet
  facet normal -0.454364 0.890816 0
    outer loop
      vertex 15.8 11.1144 2.6
      vertex 15.6508 11.0383 4.35
      vertex 15.8 11.1144 4.35
    endloop
  endfacet
  facet normal -0.454364 0.890816 0
    outer loop
      vertex 15.6508 11.0383 4.35
      vertex 15.8 11.1144 2.6
      vertex 15.6508 11.0383 2.6
    endloop
  endfacet
  facet normal 0.156361 -0.9877 0
    outer loop
      vertex 14.6673 14.065 2.6
      vertex 14.8328 14.0912 4.35
      vertex 14.6673 14.065 4.35
    endloop
  endfacet
  facet normal 0.156361 -0.9877 0
    outer loop
      vertex 14.8328 14.0912 4.35
      vertex 14.6673 14.065 2.6
      vertex 14.8328 14.0912 2.6
    endloop
  endfacet
  facet normal -0.933653 -0.358179 0
    outer loop
      vertex 16.5217 12.9944 2.6
      vertex 16.4617 13.1508 4.35
      vertex 16.4617 13.1508 2.6
    endloop
  endfacet
  facet normal -0.933653 -0.358179 0
    outer loop
      vertex 16.4617 13.1508 4.35
      vertex 16.5217 12.9944 2.6
      vertex 16.5217 12.9944 4.35
    endloop
  endfacet
  facet normal -0.777008 0.62949 0
    outer loop
      vertex 16.189 11.4294 2.6
      vertex 16.2944 11.5595 4.35
      vertex 16.2944 11.5595 2.6
    endloop
  endfacet
  facet normal -0.777008 0.62949 0
    outer loop
      vertex 16.2944 11.5595 4.35
      vertex 16.189 11.4294 2.6
      vertex 16.189 11.4294 4.35
    endloop
  endfacet
  facet normal 0.933653 0.358179 0
    outer loop
      vertex 13.5383 11.8492 4.35
      vertex 13.4783 12.0056 2.6
      vertex 13.4783 12.0056 4.35
    endloop
  endfacet
  facet normal 0.933653 0.358179 0
    outer loop
      vertex 13.4783 12.0056 2.6
      vertex 13.5383 11.8492 4.35
      vertex 13.5383 11.8492 2.6
    endloop
  endfacet
  facet normal 0.9877 -0.156361 0
    outer loop
      vertex 13.4088 12.6672 4.35
      vertex 13.435 12.8327 2.6
      vertex 13.435 12.8327 4.35
    endloop
  endfacet
  facet normal 0.9877 -0.156361 0
    outer loop
      vertex 13.435 12.8327 2.6
      vertex 13.4088 12.6672 4.35
      vertex 13.4088 12.6672 2.6
    endloop
  endfacet
  facet normal -0.0525588 -0.998618 0
    outer loop
      vertex 15 14.1 2.6
      vertex 15.1672 14.0912 4.35
      vertex 15 14.1 4.35
    endloop
  endfacet
  facet normal -0.0525588 -0.998618 -0
    outer loop
      vertex 15.1672 14.0912 4.35
      vertex 15 14.1 2.6
      vertex 15.1672 14.0912 2.6
    endloop
  endfacet
  facet normal -0.890816 -0.454364 0
    outer loop
      vertex 16.4617 13.1508 2.6
      vertex 16.3856 13.3 4.35
      vertex 16.3856 13.3 2.6
    endloop
  endfacet
  facet normal -0.890816 -0.454364 0
    outer loop
      vertex 16.3856 13.3 4.35
      vertex 16.4617 13.1508 2.6
      vertex 16.4617 13.1508 4.35
    endloop
  endfacet
  facet normal 0.838784 -0.544464 0
    outer loop
      vertex 13.6144 13.3 4.35
      vertex 13.7056 13.4405 2.6
      vertex 13.7056 13.4405 4.35
    endloop
  endfacet
  facet normal 0.838784 -0.544464 0
    outer loop
      vertex 13.7056 13.4405 2.6
      vertex 13.6144 13.3 4.35
      vertex 13.6144 13.3 2.6
    endloop
  endfacet
  facet normal 0.62949 -0.777008 0
    outer loop
      vertex 13.9294 13.689 2.6
      vertex 14.0595 13.7944 4.35
      vertex 13.9294 13.689 4.35
    endloop
  endfacet
  facet normal 0.62949 -0.777008 0
    outer loop
      vertex 14.0595 13.7944 4.35
      vertex 13.9294 13.689 2.6
      vertex 14.0595 13.7944 2.6
    endloop
  endfacet
  facet normal 0.933653 -0.358179 0
    outer loop
      vertex 13.4783 12.9944 4.35
      vertex 13.5383 13.1508 2.6
      vertex 13.5383 13.1508 4.35
    endloop
  endfacet
  facet normal 0.933653 -0.358179 0
    outer loop
      vertex 13.5383 13.1508 2.6
      vertex 13.4783 12.9944 4.35
      vertex 13.4783 12.9944 2.6
    endloop
  endfacet
  facet normal 0.890816 0.454364 0
    outer loop
      vertex 13.6144 11.7 4.35
      vertex 13.5383 11.8492 2.6
      vertex 13.5383 11.8492 4.35
    endloop
  endfacet
  facet normal 0.890816 0.454364 0
    outer loop
      vertex 13.5383 11.8492 2.6
      vertex 13.6144 11.7 4.35
      vertex 13.6144 11.7 2.6
    endloop
  endfacet
  facet normal -0.258666 0.965967 0
    outer loop
      vertex 15.4944 10.9783 2.6
      vertex 15.3327 10.935 4.35
      vertex 15.4944 10.9783 4.35
    endloop
  endfacet
  facet normal -0.258666 0.965967 0
    outer loop
      vertex 15.3327 10.935 4.35
      vertex 15.4944 10.9783 2.6
      vertex 15.3327 10.935 2.6
    endloop
  endfacet
  facet normal -0.62949 0.777008 0
    outer loop
      vertex 16.0706 11.311 2.6
      vertex 15.9405 11.2056 4.35
      vertex 16.0706 11.311 4.35
    endloop
  endfacet
  facet normal -0.62949 0.777008 0
    outer loop
      vertex 15.9405 11.2056 4.35
      vertex 16.0706 11.311 2.6
      vertex 15.9405 11.2056 2.6
    endloop
  endfacet
  facet normal 0.258666 0.965967 -0
    outer loop
      vertex 14.6673 10.935 2.6
      vertex 14.5056 10.9783 4.35
      vertex 14.6673 10.935 4.35
    endloop
  endfacet
  facet normal 0.258666 0.965967 0
    outer loop
      vertex 14.5056 10.9783 4.35
      vertex 14.6673 10.935 2.6
      vertex 14.5056 10.9783 2.6
    endloop
  endfacet
  facet normal 0.998618 0.0525588 0
    outer loop
      vertex 13.4088 12.3328 4.35
      vertex 13.4 12.5 2.6
      vertex 13.4 12.5 4.35
    endloop
  endfacet
  facet normal 0.998618 0.0525588 0
    outer loop
      vertex 13.4 12.5 2.6
      vertex 13.4088 12.3328 4.35
      vertex 13.4088 12.3328 2.6
    endloop
  endfacet
  facet normal -0.156361 -0.9877 0
    outer loop
      vertex 15.1672 14.0912 2.6
      vertex 15.3327 14.065 4.35
      vertex 15.1672 14.0912 4.35
    endloop
  endfacet
  facet normal -0.156361 -0.9877 -0
    outer loop
      vertex 15.3327 14.065 4.35
      vertex 15.1672 14.0912 2.6
      vertex 15.3327 14.065 2.6
    endloop
  endfacet
  facet normal 0.777008 0.62949 0
    outer loop
      vertex 13.811 11.4294 4.35
      vertex 13.7056 11.5595 2.6
      vertex 13.7056 11.5595 4.35
    endloop
  endfacet
  facet normal 0.777008 0.62949 0
    outer loop
      vertex 13.7056 11.5595 2.6
      vertex 13.811 11.4294 4.35
      vertex 13.811 11.4294 2.6
    endloop
  endfacet
  facet normal 0.454364 -0.890816 0
    outer loop
      vertex 14.2 13.8856 2.6
      vertex 14.3492 13.9617 4.35
      vertex 14.2 13.8856 4.35
    endloop
  endfacet
  facet normal 0.454364 -0.890816 0
    outer loop
      vertex 14.3492 13.9617 4.35
      vertex 14.2 13.8856 2.6
      vertex 14.3492 13.9617 2.6
    endloop
  endfacet
  facet normal 0.965967 -0.258666 0
    outer loop
      vertex 13.435 12.8327 4.35
      vertex 13.4783 12.9944 2.6
      vertex 13.4783 12.9944 4.35
    endloop
  endfacet
  facet normal 0.965967 -0.258666 0
    outer loop
      vertex 13.4783 12.9944 2.6
      vertex 13.435 12.8327 4.35
      vertex 13.435 12.8327 2.6
    endloop
  endfacet
  facet normal 0.707107 0.707107 0
    outer loop
      vertex 13.9294 11.311 4.35
      vertex 13.811 11.4294 2.6
      vertex 13.811 11.4294 4.35
    endloop
  endfacet
  facet normal 0.707107 0.707107 0
    outer loop
      vertex 13.811 11.4294 2.6
      vertex 13.9294 11.311 4.35
      vertex 13.9294 11.311 2.6
    endloop
  endfacet
  facet normal -0.544464 0.838784 0
    outer loop
      vertex 15.9405 11.2056 2.6
      vertex 15.8 11.1144 4.35
      vertex 15.9405 11.2056 4.35
    endloop
  endfacet
  facet normal -0.544464 0.838784 0
    outer loop
      vertex 15.8 11.1144 4.35
      vertex 15.9405 11.2056 2.6
      vertex 15.8 11.1144 2.6
    endloop
  endfacet
  facet normal -0.933653 0.358179 0
    outer loop
      vertex 16.4617 11.8492 2.6
      vertex 16.5217 12.0056 4.35
      vertex 16.5217 12.0056 2.6
    endloop
  endfacet
  facet normal -0.933653 0.358179 0
    outer loop
      vertex 16.5217 12.0056 4.35
      vertex 16.4617 11.8492 2.6
      vertex 16.4617 11.8492 4.35
    endloop
  endfacet
  facet normal 0.0525588 0.998618 -0
    outer loop
      vertex 15 10.9 2.6
      vertex 14.8328 10.9088 4.35
      vertex 15 10.9 4.35
    endloop
  endfacet
  facet normal 0.0525588 0.998618 0
    outer loop
      vertex 14.8328 10.9088 4.35
      vertex 15 10.9 2.6
      vertex 14.8328 10.9088 2.6
    endloop
  endfacet
  facet normal 0.998618 -0.0525588 0
    outer loop
      vertex 13.4 12.5 4.35
      vertex 13.4088 12.6672 2.6
      vertex 13.4088 12.6672 4.35
    endloop
  endfacet
  facet normal 0.998618 -0.0525588 0
    outer loop
      vertex 13.4088 12.6672 2.6
      vertex 13.4 12.5 4.35
      vertex 13.4 12.5 2.6
    endloop
  endfacet
  facet normal 0.358179 0.933653 -0
    outer loop
      vertex 14.5056 10.9783 2.6
      vertex 14.3492 11.0383 4.35
      vertex 14.5056 10.9783 4.35
    endloop
  endfacet
  facet normal 0.358179 0.933653 0
    outer loop
      vertex 14.3492 11.0383 4.35
      vertex 14.5056 10.9783 2.6
      vertex 14.3492 11.0383 2.6
    endloop
  endfacet
  facet normal 0.544464 0.838784 -0
    outer loop
      vertex 14.2 11.1144 2.6
      vertex 14.0595 11.2056 4.35
      vertex 14.2 11.1144 4.35
    endloop
  endfacet
  facet normal 0.544464 0.838784 0
    outer loop
      vertex 14.0595 11.2056 4.35
      vertex 14.2 11.1144 2.6
      vertex 14.0595 11.2056 2.6
    endloop
  endfacet
  facet normal -0.707107 0.707107 0
    outer loop
      vertex 16.0706 11.311 2.6
      vertex 16.189 11.4294 4.35
      vertex 16.189 11.4294 2.6
    endloop
  endfacet
  facet normal -0.707107 0.707107 0
    outer loop
      vertex 16.189 11.4294 4.35
      vertex 16.0706 11.311 2.6
      vertex 16.0706 11.311 4.35
    endloop
  endfacet
endsolid OpenSCAD_Model
