M48
; DRILL file {KiCad 8.0.4-8.0.4-0~ubuntu22.04.1} date 2024-08-01T15:45:43-0400
; FORMAT={-:-/ absolute / metric / decimal}
; #@! TF.CreationDate,2024-08-01T15:45:43-04:00
; #@! TF.GenerationSoftware,Kicad,Pcbnew,8.0.4-8.0.4-0~ubuntu22.04.1
; #@! TF.FileFunction,MixedPlating,1,2
FMAT,2
METRIC
; #@! TA.AperFunction,Plated,PTH,ViaDrill
T1C0.300
; #@! TA.AperFunction,Plated,PTH,ComponentDrill
T2C0.800
; #@! TA.AperFunction,Plated,PTH,ComponentDrill
T3C1.000
; #@! TA.AperFunction,NonPlated,NPTH,ComponentDrill
T4C3.200
%
G90
G05
T1
X64.275Y-127.4
X64.284Y-141.1
X64.623Y-106.925
X64.623Y-124.85
X64.786Y-147.564
X64.8Y-135.025
X65.125Y-105.398
X65.125Y-126.125
X65.3Y-136.3
X65.3Y-147.05
X66.6Y-82.25
X66.7Y-84.1
X66.7Y-91.125
X66.7Y-92.95
X67.65Y-99.15
X67.7Y-103.0
X68.1Y-87.425
X68.125Y-113.875
X68.225Y-133.75
X68.225Y-140.6
X68.627Y-110.1
X68.725Y-139.6
X68.727Y-132.477
X68.773Y-96.3
X69.0Y-122.9
X69.025Y-121.575
X69.125Y-111.325
X69.25Y-131.2
X69.25Y-140.102
X69.325Y-92.375
X69.398Y-117.725
X69.65Y-112.6
X69.752Y-137.55
X69.773Y-99.177
X70.125Y-120.25
X70.248Y-95.098
X70.796Y-89.55
X71.298Y-102.075
X71.3Y-120.275
X71.3Y-124.825
X71.375Y-103.875
X71.4Y-83.65
X71.8Y-85.375
X71.8Y-103.123
X71.821Y-119.275
X72.025Y-137.625
X72.2Y-142.6
X72.323Y-110.725
X72.323Y-129.45
X72.48Y-85.834
X72.506Y-91.254
X72.825Y-109.5
X72.869Y-133.775
X73.0Y-92.879
X73.008Y-86.333
X73.359Y-105.9
X73.359Y-135.025
X73.45Y-100.725
X73.52Y-86.849
X73.542Y-96.65
X73.85Y-104.896
X73.85Y-136.3
X74.044Y-96.096
X74.046Y-87.351
X74.525Y-108.825
X74.55Y-137.575
X74.575Y-87.85
X74.575Y-95.6
X75.375Y-103.85
X75.425Y-98.275
X76.025Y-122.85
X76.325Y-77.575
X76.7Y-96.525
X76.725Y-99.95
X77.175Y-62.975
X77.2Y-63.8
X77.4Y-107.675
X77.4Y-128.65
X77.4Y-132.475
X77.449Y-77.724
X77.9Y-104.577
X77.902Y-114.402
X77.925Y-108.427
X77.925Y-109.357
X77.95Y-78.25
X78.404Y-131.175
X78.425Y-115.925
X78.446Y-69.325
X78.621Y-113.175
X78.684Y-76.709
X79.073Y-68.025
X79.075Y-61.7
X79.075Y-75.2
X79.125Y-138.825
X79.2Y-77.222
X79.275Y-107.425
X79.625Y-112.625
X79.625Y-134.2
X79.7Y-65.1
X79.7Y-71.825
X79.725Y-76.207
X80.125Y-113.9
X80.157Y-132.25
X80.3Y-84.6
X80.3Y-91.875
X80.325Y-83.1
X80.35Y-111.862
X80.625Y-115.175
X80.675Y-134.7
X80.9Y-137.525
X80.967Y-110.1
X80.975Y-108.256
X81.025Y-142.6
X81.05Y-81.45
X81.15Y-116.425
X81.161Y-132.75
X81.55Y-78.25
X81.575Y-87.875
X81.65Y-117.725
X81.675Y-135.225
X81.725Y-115.35
X81.75Y-93.381
X82.165Y-133.275
X82.2Y-118.975
X82.35Y-81.952
X82.675Y-127.075
X82.675Y-141.106
X82.8Y-77.725
X82.85Y-87.55
X83.169Y-140.102
X83.187Y-129.136
X83.45Y-78.225
X83.675Y-129.675
X83.7Y-139.6
X83.9Y-116.7
X83.9Y-126.598
X84.075Y-76.72
X84.125Y-87.2
X84.177Y-136.873
X84.2Y-140.6
X84.3Y-99.448
X84.725Y-106.421
X85.375Y-86.35
X85.4Y-77.225
X85.875Y-59.25
X85.9Y-62.075
X85.9Y-73.075
X85.9Y-74.05
X86.65Y-81.45
X86.66Y-86.04
X86.7Y-97.6
X86.725Y-101.0
X87.3Y-104.577
X87.3Y-107.979
X87.925Y-76.2
X87.95Y-85.625
X88.15Y-97.625
X88.225Y-109.325
X88.675Y-126.598
X88.75Y-107.702
X89.2Y-83.625
X89.225Y-81.975
X89.575Y-103.85
X89.6Y-98.175
X89.8Y-123.749
X90.25Y-93.381
X90.875Y-96.525
X90.875Y-104.577
X90.977Y-93.381
X91.425Y-115.325
X91.5Y-133.25
X91.775Y-86.7
X91.95Y-117.25
X92.062Y-114.438
X92.125Y-101.5
X92.55Y-117.89
X93.162Y-114.504
X93.3Y-103.123
X93.371Y-91.148
X93.475Y-119.377
X93.725Y-121.5
X94.05Y-135.25
X94.604Y-96.721
X94.625Y-92.879
X94.675Y-86.175
X94.825Y-107.702
X94.875Y-133.25
X95.525Y-146.0
X95.773Y-65.525
X95.773Y-68.0
X95.825Y-135.25
X95.868Y-97.275
X95.925Y-96.55
X96.175Y-103.85
X96.223Y-69.298
X96.275Y-61.702
X96.425Y-83.2
X96.425Y-84.6
X96.475Y-91.875
X96.775Y-115.3
X97.205Y-99.95
X97.425Y-132.75
X97.75Y-81.425
X98.275Y-86.15
X98.35Y-97.525
X98.45Y-134.75
X98.5Y-99.7
X98.85Y-82.275
X99.05Y-74.875
X99.375Y-117.875
X99.95Y-116.225
X99.975Y-132.25
X100.28Y-75.32
X100.3Y-145.525
X100.5Y-134.26
X100.875Y-144.975
X101.1Y-70.625
X101.125Y-74.067
X101.55Y-118.925
X101.575Y-75.825
X101.675Y-132.252
X101.75Y-82.325
X101.95Y-97.525
X102.525Y-61.702
X102.725Y-71.075
X102.745Y-62.98
X102.85Y-76.3
X103.3Y-81.375
X103.3Y-103.85
X103.35Y-111.375
X103.45Y-98.25
X103.6Y-144.0
X103.875Y-108.379
X104.09Y-87.7
X104.1Y-76.8
X104.158Y-144.506
X104.177Y-96.775
X104.225Y-134.26
X104.675Y-92.879
X104.7Y-103.123
X104.725Y-74.794
X105.05Y-133.758
X105.35Y-81.575
X105.35Y-84.575
X105.375Y-87.175
X105.45Y-77.275
X105.6Y-137.375
X105.9Y-75.296
X105.975Y-135.766
X106.0Y-66.725
X106.0Y-71.825
X106.0Y-96.775
X106.25Y-119.427
X106.625Y-87.7
X106.65Y-77.723
X106.752Y-130.575
X106.775Y-69.325
X106.808Y-65.275
X107.2Y-75.796
X107.275Y-136.268
X107.3Y-60.6
X107.31Y-66.6
X107.632Y-68.643
X107.65Y-70.6
X107.9Y-81.525
X107.9Y-91.148
X107.925Y-86.498
X107.925Y-142.975
X107.975Y-117.925
X108.25Y-61.425
X108.25Y-66.098
X108.475Y-115.375
X108.5Y-109.429
X108.5Y-143.502
X108.526Y-76.168
X108.775Y-60.725
X108.95Y-65.777
X109.0Y-76.719
X109.0Y-122.559
X109.3Y-133.758
X109.396Y-60.15
X109.45Y-64.261
X109.75Y-111.9
X109.775Y-77.723
X109.898Y-59.55
X109.954Y-63.1
X110.304Y-77.224
X110.325Y-146.529
X110.35Y-110.275
X110.4Y-62.5
X110.431Y-59.048
X111.0Y-104.577
X111.125Y-67.275
X111.15Y-63.05
X111.15Y-124.452
X111.175Y-144.004
X111.25Y-74.1
X111.25Y-91.875
X111.5Y-119.2
X111.55Y-114.0
X111.6Y-116.625
X111.775Y-68.075
X111.85Y-63.759
X112.137Y-125.966
X112.221Y-72.375
X112.35Y-82.6
X112.35Y-99.7
X112.7Y-67.85
X112.723Y-76.275
X112.95Y-92.879
X113.175Y-106.421
X113.225Y-66.605
X113.225Y-77.55
X113.727Y-74.725
X113.75Y-69.975
X113.82Y-130.605
X113.874Y-131.75
X114.1Y-108.702
X114.2Y-126.598
X114.375Y-137.402
X114.525Y-125.75
X115.375Y-90.25
X115.725Y-108.425
X116.0Y-86.375
X116.1Y-78.35
X116.49Y-85.175
X116.675Y-73.642
X116.8Y-127.204
X116.872Y-125.068
X116.952Y-83.897
X117.104Y-79.6
X117.175Y-70.625
X117.3Y-131.4
X117.348Y-85.65
X117.5Y-116.625
X117.5Y-119.2
X117.825Y-78.875
X117.95Y-146.529
X118.075Y-91.875
X118.075Y-96.35
X118.075Y-103.85
X118.3Y-123.375
X118.9Y-140.2
X119.25Y-76.25
X119.325Y-107.425
X119.45Y-129.175
X120.45Y-89.025
X120.475Y-61.927
X121.012Y-96.362
X121.425Y-77.547
X121.744Y-96.243
X121.825Y-120.6
X121.925Y-83.2
X121.948Y-78.9
X121.975Y-129.725
X122.025Y-114.425
X122.05Y-99.8
X122.45Y-77.15
X122.45Y-81.358
X122.6Y-82.625
X122.75Y-129.325
X123.325Y-107.425
X123.35Y-133.256
X123.9Y-70.625
X124.25Y-135.264
X124.55Y-136.9
X124.675Y-103.85
X124.75Y-115.35
X125.4Y-77.55
X125.4Y-103.123
X125.55Y-146.012
X125.575Y-135.264
X125.875Y-108.925
X125.875Y-132.754
X125.902Y-83.925
X125.902Y-91.148
X126.3Y-147.533
X126.377Y-87.0
X126.4Y-80.309
X126.4Y-107.425
X126.8Y-134.762
X127.075Y-147.533
X127.685Y-86.36
X127.7Y-67.875
X128.025Y-145.51
X128.1Y-117.825
X128.198Y-70.425
X128.198Y-86.875
X128.375Y-132.925
X128.55Y-145.008
X128.7Y-69.15
X128.7Y-89.075
X128.7Y-90.25
X129.125Y-134.26
X129.325Y-105.9
X130.275Y-93.45
X130.275Y-96.45
X130.275Y-97.85
X130.475Y-147.016
X130.9Y-80.575
X130.975Y-132.375
X131.0Y-144.004
X131.425Y-100.75
X131.425Y-102.3
X131.6Y-75.525
X131.65Y-89.577
X132.141Y-79.3
X132.15Y-96.502
X132.175Y-135.264
X132.65Y-78.025
X132.652Y-94.5
X132.798Y-72.963
X132.95Y-71.825
X132.95Y-144.525
X133.0Y-69.75
X133.5Y-104.925
X133.5Y-133.6
X133.525Y-103.85
X133.625Y-143.502
X134.4Y-135.425
X134.7Y-136.275
X134.9Y-66.65
X135.075Y-100.75
X135.075Y-102.3
X135.125Y-108.85
X135.225Y-112.35
X135.35Y-137.402
X135.377Y-125.5
X135.45Y-118.125
X135.625Y-143.0
X136.125Y-145.529
X136.575Y-136.9
X136.703Y-74.225
X136.725Y-76.225
X136.85Y-69.85
X137.323Y-72.95
X137.323Y-84.75
X137.825Y-71.825
X137.825Y-93.996
X138.175Y-100.75
X138.175Y-102.3
X138.175Y-115.3
X138.275Y-143.35
X138.675Y-110.3
X138.8Y-146.125
X139.7Y-129.325
X140.95Y-142.875
X141.025Y-124.704
X141.05Y-129.025
X141.075Y-147.5
X141.125Y-71.725
X141.175Y-80.625
X141.175Y-97.45
X141.25Y-136.875
X141.675Y-78.025
X141.677Y-88.475
X141.846Y-108.675
X141.85Y-125.2
X142.175Y-72.925
X142.2Y-68.562
X142.348Y-107.425
X142.35Y-123.925
X142.475Y-91.6
X142.773Y-71.725
X142.773Y-74.144
X142.85Y-106.15
X142.85Y-122.65
X143.125Y-145.027
X143.298Y-70.673
X143.4Y-130.575
X143.8Y-64.773
X143.8Y-79.275
X143.875Y-140.175
X144.0Y-100.75
X144.0Y-102.3
X144.575Y-95.0
X144.75Y-136.277
X145.725Y-109.95
X145.725Y-126.45
X146.175Y-103.85
X146.225Y-127.725
X146.227Y-111.2
X146.725Y-128.975
X146.729Y-112.475
X147.225Y-130.25
X147.231Y-113.775
X147.35Y-104.85
X147.725Y-131.525
X147.733Y-115.075
X147.95Y-65.025
X147.95Y-73.675
X148.425Y-144.525
X148.625Y-67.575
X148.625Y-74.177
X148.675Y-100.75
X148.675Y-102.3
X148.9Y-104.9
X149.1Y-121.375
X149.15Y-70.125
X149.15Y-76.175
X149.65Y-62.5
X149.652Y-71.136
X149.825Y-72.625
X149.825Y-76.702
X149.925Y-135.775
X150.644Y-66.025
X150.644Y-106.15
X151.225Y-61.5
X151.425Y-115.0
X151.648Y-64.175
X151.7Y-111.225
X152.15Y-63.475
X152.15Y-109.95
X152.4Y-122.65
X152.652Y-82.825
X153.45Y-103.85
X154.396Y-60.75
X154.396Y-107.425
X154.85Y-59.602
X154.898Y-108.125
X155.4Y-59.1
X155.4Y-113.725
X155.902Y-60.15
X155.925Y-112.5
X156.404Y-74.675
X156.404Y-77.7
X156.425Y-89.075
X156.525Y-115.025
X156.85Y-85.35
X156.975Y-75.2
X156.975Y-81.03
X157.05Y-123.925
X157.4Y-125.2
X157.55Y-87.925
X157.775Y-126.45
X158.054Y-90.45
X158.225Y-127.725
X158.575Y-88.45
X158.7Y-128.975
X159.025Y-84.838
X159.3Y-130.225
X159.5Y-79.1
X159.825Y-131.525
X160.029Y-82.298
X161.425Y-97.947
X161.45Y-99.3
X161.85Y-128.95
X161.85Y-135.125
X162.425Y-117.625
X162.525Y-113.075
X162.55Y-108.775
X162.75Y-80.25
X162.775Y-98.1
X163.224Y-70.677
X163.225Y-100.475
X163.25Y-69.95
X163.25Y-73.05
X163.275Y-65.05
X163.275Y-77.725
X163.725Y-101.725
X163.725Y-127.1
X163.75Y-75.15
X164.225Y-72.548
X164.225Y-103.0
X164.754Y-79.275
X164.825Y-117.575
X165.45Y-128.95
X165.45Y-135.125
X166.175Y-88.55
X166.175Y-116.325
X166.2Y-86.9
X166.825Y-60.3
X166.825Y-84.075
X168.95Y-68.2
X168.95Y-81.175
X168.95Y-118.9
X169.325Y-120.125
X169.452Y-81.775
X169.475Y-70.55
X169.954Y-111.75
X169.954Y-113.75
X169.975Y-91.1
X169.975Y-97.95
X170.875Y-109.8
X170.875Y-125.175
X171.175Y-78.775
X171.3Y-89.85
X171.675Y-112.525
X172.225Y-72.49
X172.225Y-73.558
X172.25Y-103.85
X172.275Y-102.525
X172.325Y-75.03
X172.373Y-76.098
X173.5Y-60.3
X173.5Y-84.075
X174.025Y-118.875
X174.037Y-107.561
X174.525Y-108.1
X174.55Y-117.6
X175.1Y-88.75
X175.125Y-108.6
X175.125Y-116.325
X175.4Y-73.05
X175.45Y-67.375
X175.65Y-128.95
X175.65Y-135.125
X175.675Y-109.1
X175.675Y-115.0
X176.925Y-110.577
X177.9Y-107.053
X178.173Y-93.0
X178.375Y-96.125
X178.375Y-116.8
X178.375Y-121.4
X178.475Y-64.85
X178.575Y-90.819
X178.675Y-94.9
X178.748Y-91.525
X178.75Y-89.0
X178.825Y-113.675
X178.85Y-97.45
X178.875Y-115.0
X178.876Y-95.599
X178.877Y-118.075
X178.877Y-120.125
X179.15Y-86.425
X179.198Y-93.603
X179.25Y-90.55
X179.273Y-88.495
X179.325Y-116.2
X179.45Y-128.95
X179.45Y-135.125
X179.7Y-117.294
X179.725Y-105.9
X180.775Y-105.0
X182.25Y-125.2
X182.55Y-88.495
X182.6Y-92.039
X182.6Y-94.85
X183.1Y-88.997
X183.1Y-93.325
X183.15Y-83.025
X184.05Y-109.85
X184.075Y-95.0
X184.075Y-97.375
X184.075Y-103.85
X184.45Y-105.85
X184.925Y-62.6
X184.925Y-64.85
X185.275Y-128.95
X185.275Y-135.125
X185.323Y-115.125
X185.323Y-122.675
X185.75Y-65.372
X185.75Y-96.101
X185.825Y-113.75
X185.825Y-123.925
X187.275Y-74.925
X188.15Y-93.575
X188.2Y-92.3
X188.225Y-91.025
X188.25Y-88.475
X188.625Y-60.375
X188.625Y-83.025
X188.975Y-89.775
X188.975Y-96.115
X189.0Y-109.85
X189.0Y-111.15
X189.627Y-118.825
X189.65Y-112.48
X190.175Y-88.997
X191.4Y-64.875
X191.6Y-118.103
X192.1Y-140.375
X192.225Y-135.075
X192.45Y-113.75
X192.525Y-115.025
X192.7Y-72.8
X192.725Y-66.0
X192.75Y-76.425
X192.75Y-78.575
X193.2Y-120.1
X193.571Y-113.75
X193.575Y-83.025
X193.59Y-107.555
X194.073Y-115.047
X194.075Y-108.096
X194.675Y-62.6
X194.705Y-64.83
X194.85Y-103.85
X194.875Y-97.4
X195.225Y-109.775
X195.225Y-111.175
X195.8Y-93.575
X196.2Y-88.573
X196.55Y-67.1
X196.675Y-108.646
X196.675Y-116.775
X197.423Y-72.45
X197.423Y-78.0
X197.925Y-71.2
X197.925Y-79.35
X198.125Y-95.388
X198.9Y-106.675
X199.125Y-60.3
X199.125Y-83.025
X199.125Y-134.975
X199.15Y-140.525
X199.2Y-124.125
X199.2Y-128.2
X199.725Y-89.75
X199.75Y-117.6
X199.752Y-96.101
X199.846Y-108.9
X200.3Y-89.175
X200.325Y-88.0
X200.348Y-96.617
X200.348Y-111.978
X200.348Y-112.705
X200.348Y-118.825
X200.85Y-68.625
X200.85Y-132.825
X201.352Y-115.697
X201.352Y-69.9
X201.352Y-94.875
X201.352Y-102.5
X202.35Y-118.103
X203.075Y-124.1
X203.125Y-128.15
X203.275Y-106.675
X203.525Y-83.025
X204.575Y-120.025
X204.7Y-113.625
X204.977Y-93.275
X205.002Y-101.275
X205.1Y-138.8
X205.975Y-97.25
X205.975Y-103.85
X206.325Y-109.775
X206.325Y-111.175
X207.244Y-98.725
X207.25Y-91.025
X207.725Y-112.975
X207.725Y-115.0
X207.746Y-92.777
X207.754Y-100.027
X208.05Y-60.3
X208.05Y-64.8
X209.175Y-132.15
X209.4Y-137.025
X210.625Y-106.75
X211.7Y-91.0
X211.7Y-93.55
X212.55Y-94.85
X212.625Y-134.25
X212.65Y-62.6
X212.65Y-89.775
X212.65Y-92.3
X212.65Y-99.425
X212.65Y-103.825
X212.65Y-109.775
X212.65Y-120.1
T2
X84.72Y-112.81
X84.72Y-115.35
X84.72Y-117.89
X84.72Y-120.43
X84.72Y-122.97
X84.72Y-125.51
X84.72Y-128.05
X87.26Y-110.27
X87.26Y-112.81
X87.26Y-115.35
X87.26Y-117.89
X87.26Y-120.43
X87.26Y-122.97
X87.26Y-125.51
X87.26Y-128.05
X87.26Y-130.59
X89.8Y-110.27
X89.8Y-112.81
X89.8Y-128.05
X89.8Y-130.59
X92.34Y-110.27
X92.34Y-112.81
X92.34Y-128.05
X92.34Y-130.59
X94.88Y-110.27
X94.88Y-112.81
X94.88Y-128.05
X94.88Y-130.59
X97.42Y-110.27
X97.42Y-112.81
X97.42Y-128.05
X97.42Y-130.59
X99.96Y-110.27
X99.96Y-112.81
X99.96Y-128.05
X99.96Y-130.59
X102.5Y-110.27
X102.5Y-112.81
X102.5Y-115.35
X102.5Y-117.89
X102.5Y-120.43
X102.5Y-122.97
X102.5Y-125.51
X102.5Y-128.05
X102.5Y-130.59
X105.04Y-112.81
X105.04Y-115.35
X105.04Y-117.89
X105.04Y-120.43
X105.04Y-122.97
X105.04Y-125.51
X105.04Y-128.05
X113.18Y-112.81
X113.18Y-115.35
X113.18Y-117.89
X113.18Y-120.43
X113.18Y-122.97
X113.18Y-125.51
X113.18Y-128.05
X115.72Y-110.27
X115.72Y-112.81
X115.72Y-115.35
X115.72Y-117.89
X115.72Y-120.43
X115.72Y-122.97
X115.72Y-125.51
X115.72Y-128.05
X115.72Y-130.59
X118.26Y-110.27
X118.26Y-112.81
X118.26Y-128.05
X118.26Y-130.59
X120.8Y-110.27
X120.8Y-112.81
X120.8Y-128.05
X120.8Y-130.59
X123.34Y-110.27
X123.34Y-112.81
X123.34Y-128.05
X123.34Y-130.59
X125.88Y-110.27
X125.88Y-112.81
X125.88Y-128.05
X125.88Y-130.59
X128.42Y-110.27
X128.42Y-112.81
X128.42Y-128.05
X128.42Y-130.59
X130.96Y-110.27
X130.96Y-112.81
X130.96Y-115.35
X130.96Y-117.89
X130.96Y-120.43
X130.96Y-122.97
X130.96Y-125.51
X130.96Y-128.05
X130.96Y-130.59
X133.5Y-112.81
X133.5Y-115.35
X133.5Y-117.89
X133.5Y-120.43
X133.5Y-122.97
X133.5Y-125.51
X133.5Y-128.05
X146.185Y-62.48
X146.185Y-65.02
X146.185Y-67.56
X146.185Y-70.1
X146.185Y-72.64
X146.185Y-75.18
X146.185Y-77.72
X146.185Y-80.26
X146.185Y-82.8
X146.185Y-85.34
X146.185Y-87.88
X146.185Y-90.42
X146.185Y-92.96
X146.185Y-95.5
X161.425Y-62.48
X161.425Y-65.02
X161.425Y-67.56
X161.425Y-70.1
X161.425Y-72.64
X161.425Y-75.18
X161.425Y-77.72
X161.425Y-80.26
X161.425Y-82.8
X161.425Y-85.34
X161.425Y-87.88
X161.425Y-90.42
X161.425Y-92.96
X161.425Y-95.5
X202.7Y-134.32
X205.2Y-134.32
T3
X66.6Y-63.02
X66.6Y-65.56
X66.6Y-68.1
X66.6Y-70.64
X66.6Y-73.18
X66.6Y-75.72
X88.97Y-138.88
X88.97Y-141.42
X91.51Y-138.88
X91.51Y-141.42
X94.05Y-138.88
X94.05Y-141.42
X96.59Y-138.88
X96.59Y-141.42
X99.13Y-138.88
X99.13Y-141.42
X101.67Y-138.88
X101.67Y-141.42
X104.21Y-138.88
X104.21Y-141.42
X106.75Y-138.88
X106.75Y-141.42
X109.29Y-138.88
X109.29Y-141.42
X111.83Y-138.88
X111.83Y-141.42
X114.37Y-138.88
X114.37Y-141.42
X116.91Y-138.88
X116.91Y-141.42
X119.45Y-138.88
X119.45Y-141.42
X121.99Y-138.88
X121.99Y-141.42
X124.53Y-138.88
X124.53Y-141.42
X127.07Y-138.88
X127.07Y-141.42
X129.61Y-138.88
X129.61Y-141.42
X132.15Y-138.88
X132.15Y-141.42
X134.69Y-138.88
X134.69Y-141.42
X136.6Y-92.8
X137.23Y-138.88
X137.23Y-141.42
X139.14Y-92.8
X139.77Y-138.88
X139.77Y-141.42
X142.31Y-138.88
X142.31Y-141.42
X144.85Y-138.88
X144.85Y-141.42
X147.39Y-138.88
X147.39Y-141.42
X149.93Y-138.88
X149.93Y-141.42
X152.47Y-138.88
X152.47Y-141.42
X155.01Y-138.88
X155.01Y-141.42
X157.55Y-138.88
X157.55Y-141.42
X160.09Y-138.88
X160.09Y-141.42
X162.63Y-138.88
X162.63Y-141.42
X165.17Y-138.88
X165.17Y-141.42
X167.71Y-138.88
X167.71Y-141.42
X170.25Y-138.88
X170.25Y-141.42
X172.79Y-138.88
X172.79Y-141.42
X175.33Y-138.88
X175.33Y-141.42
X177.87Y-138.88
X177.87Y-141.42
X180.41Y-138.88
X180.41Y-141.42
X182.95Y-138.88
X182.95Y-141.42
X185.49Y-138.88
X185.49Y-141.42
X188.03Y-138.88
X188.03Y-141.42
T4
X81.9Y-144.92
X195.1Y-144.92
M30
