M48
; DRILL file {KiCad 5.1.10-88a1d61d58~88~ubuntu20.04.1} date Thu Jun 10 12:47:29 2021
; FORMAT={-:-/ absolute / inch / decimal}
; #@! TF.CreationDate,2021-06-10T12:47:29-04:00
; #@! TF.GenerationSoftware,Kicad,Pcbnew,5.1.10-88a1d61d58~88~ubuntu20.04.1
FMAT,2
INCH
T1C0.0118
T2C0.0276
T3C0.0315
T4C0.0354
T5C0.0390
T6C0.0394
T7C0.0512
T8C0.1260
%
G90
G05
T1
X0.2717Y-0.4921
X0.2717Y-3.2165
X0.311Y-2.2953
X0.311Y-2.9606
X0.4094Y-2.2913
X0.4094Y-2.8425
X0.5984Y-2.2913
X0.6402Y-2.8449
X0.6811Y-0.8307
X0.685Y-1.0433
X0.7165Y-1.1417
X0.8253Y-1.7559
X0.8543Y-2.3346
X0.856Y-2.3645
X0.8819Y-2.32
X0.9517Y-2.2627
X0.9737Y-2.242
X0.9961Y-1.2874
X1.0945Y-1.3898
X1.1535Y-1.248
X1.1535Y-1.9882
X1.2008Y-1.4882
X1.2362Y-1.5906
X1.2559Y-1.6929
X1.2756Y-1.7913
X1.311Y-0.1378
X1.437Y-1.3465
X1.437Y-1.8307
X1.4567Y-0.5906
X1.4567Y-0.7205
X1.4646Y-1.4449
X1.4646Y-1.8031
X1.6929Y-2.2913
X1.7205Y-1.563
X1.7205Y-2.0669
X1.7362Y-1.4055
X1.7402Y-0.7205
X1.8189Y-1.7126
X1.874Y-3.0157
X1.878Y-2.2913
X1.9173Y-1.563
X1.9291Y-0.7205
X1.9882Y-0.7795
X2.0157Y-1.5315
X2.0197Y-0.7795
X2.0236Y-1.4094
X2.1142Y-1.4528
X2.1181Y-2.6693
X2.126Y-0.8543
X2.126Y-1.063
X2.2126Y-2.0669
X2.2165Y-1.4882
X2.2283Y-0.7795
X2.2598Y-2.2244
X2.2717Y-1.063
X2.3189Y-0.7795
X2.3189Y-1.5079
X2.3228Y-0.7205
X2.4134Y-1.8898
X2.4213Y-0.7795
X2.4724Y-1.2598
X2.4764Y-2.2598
X2.5276Y-1.4094
X2.6181Y-2.0669
X2.6732Y-1.2402
X2.7047Y-2.8307
X2.7717Y-2.0315
X2.7795Y-3.0197
X2.8071Y-2.8543
X2.874Y-0.7205
X2.9055Y-1.563
X2.9055Y-2.878
X2.9134Y-2.0669
X2.9252Y-1.4094
X2.9567Y-0.7795
X2.9646Y-3.0197
X2.9685Y-2.2913
X2.9764Y-1.4528
X3.0039Y-2.9016
X3.0354Y-0.878
X3.0433Y-1.4886
X3.0906Y-2.7953
X3.1024Y-1.563
X3.1024Y-2.9252
X3.1063Y-1.8425
X3.1063Y-2.185
X3.1142Y-0.7205
X3.1496Y-2.2913
X3.1535Y-3.0236
X3.184Y-2.7963
X3.2047Y-1.8228
X3.2047Y-2.9488
X3.2087Y-2.2165
X3.2126Y-0.9055
X3.2165Y-1.2323
X3.252Y-2.8228
X3.2559Y-1.5068
X3.3031Y-1.8661
X3.3031Y-2.9696
X3.3071Y-2.2598
X3.315Y-0.9055
X3.315Y-1.0669
X3.3535Y-2.8417
X3.3661Y-1.1654
X3.4016Y-2.6732
X3.4055Y-3.0551
X3.4134Y-1.2323
X3.4528Y-2.2362
X3.4528Y-2.878
X3.4803Y-1.5276
X3.5118Y-1.0669
X3.5157Y-2.6693
X3.5512Y-2.3228
X3.5551Y-1.8819
X3.5551Y-2.9016
X3.6063Y-2.2913
X3.6535Y-2.3452
X3.6535Y-2.9252
X3.7165Y-1.4094
X3.752Y-2.378
X3.7559Y-2.9488
X3.8071Y-2.0669
X3.8543Y-2.9685
X3.8898Y-2.185
X3.9449Y-0.7205
X3.9567Y-3.0551
X3.9843Y-1.9291
X3.9961Y-2.2165
X4.0197Y-1.0118
X4.0236Y-2.1102
X4.0535Y-3.0142
X4.0551Y-2.2598
X4.1063Y-1.563
X4.1102Y-2.0669
X4.2047Y-1.7283
X4.2047Y-2.4803
X4.252Y-2.2913
X4.2559Y-3.0197
X4.2677Y-2.1732
X4.2992Y-1.563
X4.3346Y-2.1102
X4.3937Y-1.7323
X4.3976Y-2.2047
X4.4016Y-2.8031
X4.4213Y-1.7559
X4.4291Y-3.0197
X4.4331Y-2.2913
X4.4685Y-2.2283
X4.4764Y-1.7767
X4.5315Y-2.5276
X4.5551Y-1.8031
X4.5906Y-1.8239
X4.5984Y-2.0669
X4.6417Y-1.3572
X4.6575Y-1.8543
X4.6811Y-0.126
X4.7205Y-0.0394
X4.7362Y-1.378
X4.7756Y-2.0315
X4.8346Y-3.0512
X4.9567Y-1.2559
X4.9606Y-3.1063
X5.0Y-2.0669
X5.0315Y-3.0591
X5.1331Y-3.0126
X5.1654Y-3.0866
X5.4803Y-1.4134
X5.4803Y-2.0669
X5.4803Y-3.2677
X5.4843Y-0.7795
X5.5748Y-3.1693
X5.5787Y-0.7205
X5.5787Y-1.5669
X5.5787Y-2.2874
T2
X0.4724Y-0.2323
X0.4724Y-0.5323
X0.563Y-0.2323
X0.563Y-0.5323
X0.6535Y-0.2323
X0.6535Y-0.5323
X3.9409Y-0.0827
X3.9409Y-0.3827
T3
X0.4094Y-2.4331
X0.4094Y-2.5315
X0.5315Y-0.7638
X0.5906Y-2.9606
X0.5945Y-2.4323
X0.5945Y-2.7323
X0.6299Y-0.7638
X0.6906Y-2.9606
X0.6945Y-2.4323
X0.6945Y-2.7323
X0.7835Y-0.189
X0.7835Y-0.289
X0.7835Y-0.389
X0.7835Y-0.489
X0.7835Y-0.589
X0.7835Y-0.689
X0.7835Y-0.789
X0.7835Y-0.889
X0.7835Y-0.989
X0.7835Y-1.089
X0.7835Y-1.189
X0.7835Y-1.289
X0.7835Y-1.389
X0.7835Y-1.489
X0.7835Y-1.589
X0.7835Y-1.689
X0.7835Y-1.789
X0.7835Y-1.889
X0.7835Y-1.989
X0.7835Y-2.089
X0.7906Y-2.9606
X0.7945Y-2.4323
X0.7945Y-2.7323
X0.8906Y-2.9606
X0.8945Y-2.4323
X0.8945Y-2.7323
X0.9906Y-2.9606
X0.9945Y-2.4323
X0.9945Y-2.7323
X1.0906Y-2.9606
X1.0945Y-2.4323
X1.0945Y-2.7323
X1.1906Y-2.9606
X1.1945Y-2.4323
X1.1945Y-2.7323
X1.2906Y-2.9606
X1.2945Y-2.4323
X1.2945Y-2.7323
X1.3835Y-0.189
X1.3835Y-0.289
X1.3835Y-0.389
X1.3835Y-0.489
X1.3835Y-0.589
X1.3835Y-0.689
X1.3835Y-0.789
X1.3835Y-0.889
X1.3835Y-0.989
X1.3835Y-1.089
X1.3835Y-1.189
X1.3835Y-1.289
X1.3835Y-1.389
X1.3835Y-1.489
X1.3835Y-1.589
X1.3835Y-1.689
X1.3835Y-1.789
X1.3835Y-1.889
X1.3835Y-1.989
X1.3835Y-2.089
X1.3906Y-2.9606
X1.3945Y-2.4323
X1.3945Y-2.7323
X1.4945Y-2.4323
X1.4945Y-2.7323
X1.6457Y-0.2795
X1.6457Y-0.4724
X1.689Y-2.4331
X1.689Y-2.5315
X1.7205Y-1.6614
X1.7205Y-1.7598
X1.7362Y-1.0079
X1.7362Y-1.1063
X1.874Y-2.4323
X1.874Y-2.7323
X1.8898Y-0.2795
X1.8898Y-0.4724
X1.9134Y-1.6646
X1.9134Y-1.9646
X1.9252Y-1.011
X1.9252Y-1.311
X1.974Y-2.4323
X1.974Y-2.7323
X1.9882Y-0.2795
X1.9882Y-0.4724
X2.0134Y-1.6646
X2.0134Y-1.9646
X2.0252Y-1.011
X2.0252Y-1.311
X2.074Y-2.4323
X2.074Y-2.7323
X2.1134Y-1.6646
X2.1134Y-1.9646
X2.1252Y-1.011
X2.1252Y-1.311
X2.174Y-2.4323
X2.174Y-2.7323
X2.2134Y-1.6646
X2.2134Y-1.9646
X2.2244Y-0.1724
X2.2244Y-0.4724
X2.2252Y-1.011
X2.2252Y-1.311
X2.274Y-2.4323
X2.274Y-2.7323
X2.3134Y-1.6646
X2.3134Y-1.9646
X2.3228Y-0.6181
X2.3244Y-0.1724
X2.3244Y-0.4724
X2.3252Y-1.011
X2.3252Y-1.311
X2.374Y-2.4323
X2.374Y-2.7323
X2.4134Y-1.6646
X2.4134Y-1.9646
X2.4213Y-0.6181
X2.4244Y-0.1724
X2.4244Y-0.4724
X2.4252Y-1.011
X2.4252Y-1.311
X2.474Y-2.4323
X2.474Y-2.7323
X2.5134Y-1.6646
X2.5134Y-1.9646
X2.5244Y-0.1724
X2.5244Y-0.4724
X2.5252Y-1.011
X2.5252Y-1.311
X2.574Y-2.4323
X2.574Y-2.7323
X2.6134Y-1.6646
X2.6134Y-1.9646
X2.674Y-2.4323
X2.674Y-2.7323
X2.774Y-2.4323
X2.774Y-2.7323
X2.9134Y-1.6614
X2.9134Y-1.7598
X2.9252Y-1.0079
X2.9252Y-1.1063
X2.9724Y-2.4331
X2.9724Y-2.5315
X3.1063Y-1.6646
X3.1063Y-1.9646
X3.1142Y-1.011
X3.1142Y-1.311
X3.1535Y-2.4323
X3.1535Y-2.7323
X3.2063Y-1.6646
X3.2063Y-1.9646
X3.2142Y-1.011
X3.2142Y-1.311
X3.2535Y-2.4323
X3.2535Y-2.7323
X3.3063Y-1.6646
X3.3063Y-1.9646
X3.3142Y-1.011
X3.3142Y-1.311
X3.3535Y-2.4323
X3.3535Y-2.7323
X3.4063Y-1.6646
X3.4063Y-1.9646
X3.4142Y-1.011
X3.4142Y-1.311
X3.4535Y-2.4323
X3.4535Y-2.7323
X3.5063Y-1.6646
X3.5063Y-1.9646
X3.5142Y-1.011
X3.5142Y-1.311
X3.5535Y-2.4323
X3.5535Y-2.7323
X3.6063Y-1.6646
X3.6063Y-1.9646
X3.6142Y-1.011
X3.6142Y-1.311
X3.6535Y-2.4323
X3.6535Y-2.7323
X3.7063Y-1.6646
X3.7063Y-1.9646
X3.7142Y-1.011
X3.7142Y-1.311
X3.7535Y-2.4323
X3.7535Y-2.7323
X3.8063Y-1.6646
X3.8063Y-1.9646
X3.8535Y-2.4323
X3.8535Y-2.7323
X3.9535Y-2.4323
X3.9535Y-2.7323
X4.0535Y-2.4323
X4.0535Y-2.7323
X4.1102Y-1.6614
X4.1102Y-1.7598
X4.252Y-2.4291
X4.252Y-2.5276
X4.2992Y-1.6646
X4.2992Y-1.9646
X4.3992Y-1.6646
X4.3992Y-1.9646
X4.4331Y-2.4323
X4.4331Y-2.7323
X4.4992Y-1.6646
X4.4992Y-1.9646
X4.5331Y-2.4323
X4.5331Y-2.7323
X4.5992Y-1.6646
X4.5992Y-1.9646
X4.6331Y-2.4323
X4.6331Y-2.7323
X4.6992Y-1.6646
X4.6992Y-1.9646
X4.7331Y-2.4323
X4.7331Y-2.7323
X4.7992Y-1.6646
X4.7992Y-1.9646
X4.8331Y-2.4323
X4.8331Y-2.7323
X4.8992Y-1.6646
X4.8992Y-1.9646
X4.9331Y-2.4323
X4.9331Y-2.7323
X4.9992Y-1.6646
X4.9992Y-1.9646
X5.0331Y-2.4323
X5.0331Y-2.7323
X5.1331Y-2.4323
X5.1331Y-2.7323
X5.4803Y-2.9882
X5.5787Y-2.9882
T4
X3.626Y-0.1732
X3.726Y-0.1732
T5
X2.8169Y-0.122
X2.9941Y-0.122
T6
X1.0028Y-3.1677
X1.0028Y-3.2677
X1.1028Y-3.1677
X1.1028Y-3.2677
X1.2028Y-3.1677
X1.2028Y-3.2677
X1.3028Y-3.1677
X1.3028Y-3.2677
X1.4028Y-3.1677
X1.4028Y-3.2677
X1.5028Y-3.1677
X1.5028Y-3.2677
X1.6028Y-3.1677
X1.6028Y-3.2677
X1.7028Y-3.1677
X1.7028Y-3.2677
X1.8028Y-3.1677
X1.8028Y-3.2677
X1.9028Y-3.1677
X1.9028Y-3.2677
X2.0028Y-3.1677
X2.0028Y-3.2677
X2.1028Y-3.1677
X2.1028Y-3.2677
X2.2028Y-3.1677
X2.2028Y-3.2677
X2.3028Y-3.1677
X2.3028Y-3.2677
X2.4028Y-3.1677
X2.4028Y-3.2677
X2.5028Y-3.1677
X2.5028Y-3.2677
X2.6028Y-3.1677
X2.6028Y-3.2677
X2.7028Y-3.1677
X2.7028Y-3.2677
X2.8028Y-3.1677
X2.8028Y-3.2677
X2.9028Y-3.1677
X2.9028Y-3.2677
X3.0028Y-3.1677
X3.0028Y-3.2677
X3.1028Y-3.1677
X3.1028Y-3.2677
X3.2028Y-3.1677
X3.2028Y-3.2677
X3.2858Y-0.2717
X3.3028Y-3.1677
X3.3028Y-3.2677
X3.3858Y-0.2717
X3.4028Y-3.1677
X3.4028Y-3.2677
X3.5028Y-3.1677
X3.5028Y-3.2677
X3.6028Y-3.1677
X3.6028Y-3.2677
X3.7028Y-3.1677
X3.7028Y-3.2677
X3.8028Y-3.1677
X3.8028Y-3.2677
X3.9028Y-3.1677
X3.9028Y-3.2677
X4.0028Y-3.1677
X4.0028Y-3.2677
X4.1028Y-3.1677
X4.1028Y-3.2677
X4.2028Y-3.1677
X4.2028Y-3.2677
X4.3028Y-3.1677
X4.3028Y-3.2677
X4.4028Y-3.1677
X4.4028Y-3.2677
X4.5028Y-3.1677
X4.5028Y-3.2677
X4.6028Y-3.1677
X4.6028Y-3.2677
X4.7028Y-3.1677
X4.7028Y-3.2677
X4.8028Y-3.1677
X4.8028Y-3.2677
X4.9028Y-3.1677
X4.9028Y-3.2677
T7
X2.7675Y-0.2201
X3.0435Y-0.2201
T8
X0.7244Y-3.4055
X5.1811Y-3.4055
T0
M30
