G04 #@! TF.GenerationSoftware,KiCad,Pcbnew,5.1.10-88a1d61d58~88~ubuntu20.04.1*
G04 #@! TF.CreationDate,2021-05-20T09:11:12-04:00*
G04 #@! TF.ProjectId,CPUandGlueLogic,43505561-6e64-4476-9c75-654c6f676963,1*
G04 #@! TF.SameCoordinates,Original*
G04 #@! TF.FileFunction,Legend,Bot*
G04 #@! TF.FilePolarity,Positive*
%FSLAX46Y46*%
G04 Gerber Fmt 4.6, Leading zero omitted, Abs format (unit mm)*
G04 Created by KiCad (PCBNEW 5.1.10-88a1d61d58~88~ubuntu20.04.1) date 2021-05-20 09:11:12*
%MOMM*%
%LPD*%
G01*
G04 APERTURE LIST*
%ADD10C,3.200000*%
%ADD11R,1.700000X1.700000*%
%ADD12O,1.700000X1.700000*%
%ADD13C,1.950000*%
%ADD14C,1.498000*%
%ADD15O,1.600000X1.600000*%
%ADD16R,1.600000X1.600000*%
%ADD17C,1.600000*%
%ADD18C,1.800000*%
%ADD19R,1.800000X1.800000*%
%ADD20O,1.400000X1.400000*%
%ADD21C,1.400000*%
%ADD22C,1.500000*%
G04 APERTURE END LIST*
%LPC*%
D10*
X18400000Y-86500000D03*
X131600000Y-86500000D03*
D11*
X25470000Y-83000000D03*
D12*
X25470000Y-80460000D03*
X28010000Y-83000000D03*
X28010000Y-80460000D03*
X30550000Y-83000000D03*
X30550000Y-80460000D03*
X33090000Y-83000000D03*
X33090000Y-80460000D03*
X35630000Y-83000000D03*
X35630000Y-80460000D03*
X38170000Y-83000000D03*
X38170000Y-80460000D03*
X40710000Y-83000000D03*
X40710000Y-80460000D03*
X43250000Y-83000000D03*
X43250000Y-80460000D03*
X45790000Y-83000000D03*
X45790000Y-80460000D03*
X48330000Y-83000000D03*
X48330000Y-80460000D03*
X50870000Y-83000000D03*
X50870000Y-80460000D03*
X53410000Y-83000000D03*
X53410000Y-80460000D03*
X55950000Y-83000000D03*
X55950000Y-80460000D03*
X58490000Y-83000000D03*
X58490000Y-80460000D03*
X61030000Y-83000000D03*
X61030000Y-80460000D03*
X63570000Y-83000000D03*
X63570000Y-80460000D03*
X66110000Y-83000000D03*
X66110000Y-80460000D03*
X68650000Y-83000000D03*
X68650000Y-80460000D03*
X71190000Y-83000000D03*
X71190000Y-80460000D03*
X73730000Y-83000000D03*
X73730000Y-80460000D03*
X76270000Y-83000000D03*
X76270000Y-80460000D03*
X78810000Y-83000000D03*
X78810000Y-80460000D03*
X81350000Y-83000000D03*
X81350000Y-80460000D03*
X83890000Y-83000000D03*
X83890000Y-80460000D03*
X86430000Y-83000000D03*
X86430000Y-80460000D03*
X88970000Y-83000000D03*
X88970000Y-80460000D03*
X91510000Y-83000000D03*
X91510000Y-80460000D03*
X94050000Y-83000000D03*
X94050000Y-80460000D03*
X96590000Y-83000000D03*
X96590000Y-80460000D03*
X99130000Y-83000000D03*
X99130000Y-80460000D03*
X101670000Y-83000000D03*
X101670000Y-80460000D03*
X104210000Y-83000000D03*
X104210000Y-80460000D03*
X106750000Y-83000000D03*
X106750000Y-80460000D03*
X109290000Y-83000000D03*
X109290000Y-80460000D03*
X111830000Y-83000000D03*
X111830000Y-80460000D03*
X114370000Y-83000000D03*
X114370000Y-80460000D03*
X116910000Y-83000000D03*
X116910000Y-80460000D03*
X119450000Y-83000000D03*
X119450000Y-80460000D03*
X121990000Y-83000000D03*
X121990000Y-80460000D03*
X124530000Y-83000000D03*
X124530000Y-80460000D03*
D13*
X70295000Y-5590000D03*
X77305000Y-5590000D03*
D14*
X71550000Y-3100000D03*
X76050000Y-3100000D03*
D15*
X48900000Y-25680000D03*
X64140000Y-33300000D03*
X51440000Y-25680000D03*
X61600000Y-33300000D03*
X53980000Y-25680000D03*
X59060000Y-33300000D03*
X56520000Y-25680000D03*
X56520000Y-33300000D03*
X59060000Y-25680000D03*
X53980000Y-33300000D03*
X61600000Y-25680000D03*
X51440000Y-33300000D03*
X64140000Y-25680000D03*
D16*
X48900000Y-33300000D03*
X141700000Y-75900000D03*
D17*
X139200000Y-75900000D03*
X75500000Y-64300000D03*
X75500000Y-61800000D03*
X42900000Y-61800000D03*
X42900000Y-64300000D03*
X10400000Y-64300000D03*
X10400000Y-61800000D03*
X108000000Y-61700000D03*
X108000000Y-64200000D03*
X61500000Y-15700000D03*
X59000000Y-15700000D03*
X14400000Y-17500000D03*
X14400000Y-20000000D03*
X74300000Y-28100000D03*
X74300000Y-25600000D03*
X44100000Y-25600000D03*
X44100000Y-28100000D03*
X74000000Y-42200000D03*
X74000000Y-44700000D03*
X104400000Y-44700000D03*
X104400000Y-42200000D03*
X43700000Y-44700000D03*
X43700000Y-42200000D03*
X50500000Y-7100000D03*
X48000000Y-7100000D03*
X48000000Y-12000000D03*
X50500000Y-12000000D03*
D18*
X94640000Y-4400000D03*
D19*
X92100000Y-4400000D03*
D12*
X83460000Y-3200000D03*
D11*
X86000000Y-3200000D03*
D20*
X100100000Y-9720000D03*
D21*
X100100000Y-2100000D03*
X5600000Y-11300000D03*
D20*
X13220000Y-11300000D03*
X13220000Y-8800000D03*
D21*
X5600000Y-8800000D03*
X5600000Y-6200000D03*
D20*
X13220000Y-6200000D03*
D16*
X15000000Y-75200000D03*
D15*
X17540000Y-75200000D03*
X20080000Y-75200000D03*
X22620000Y-75200000D03*
X25160000Y-75200000D03*
X27700000Y-75200000D03*
X30240000Y-75200000D03*
X32780000Y-75200000D03*
X35320000Y-75200000D03*
X80100000Y-61780000D03*
X102960000Y-69400000D03*
X82640000Y-61780000D03*
X100420000Y-69400000D03*
X85180000Y-61780000D03*
X97880000Y-69400000D03*
X87720000Y-61780000D03*
X95340000Y-69400000D03*
X90260000Y-61780000D03*
X92800000Y-69400000D03*
X92800000Y-61780000D03*
X90260000Y-69400000D03*
X95340000Y-61780000D03*
X87720000Y-69400000D03*
X97880000Y-61780000D03*
X85180000Y-69400000D03*
X100420000Y-61780000D03*
X82640000Y-69400000D03*
X102960000Y-61780000D03*
D16*
X80100000Y-69400000D03*
X47600000Y-69400000D03*
D15*
X70460000Y-61780000D03*
X50140000Y-69400000D03*
X67920000Y-61780000D03*
X52680000Y-69400000D03*
X65380000Y-61780000D03*
X55220000Y-69400000D03*
X62840000Y-61780000D03*
X57760000Y-69400000D03*
X60300000Y-61780000D03*
X60300000Y-69400000D03*
X57760000Y-61780000D03*
X62840000Y-69400000D03*
X55220000Y-61780000D03*
X65380000Y-69400000D03*
X52680000Y-61780000D03*
X67920000Y-69400000D03*
X50140000Y-61780000D03*
X70460000Y-69400000D03*
X47600000Y-61780000D03*
D16*
X15100000Y-69400000D03*
D15*
X37960000Y-61780000D03*
X17640000Y-69400000D03*
X35420000Y-61780000D03*
X20180000Y-69400000D03*
X32880000Y-61780000D03*
X22720000Y-69400000D03*
X30340000Y-61780000D03*
X25260000Y-69400000D03*
X27800000Y-61780000D03*
X27800000Y-69400000D03*
X25260000Y-61780000D03*
X30340000Y-69400000D03*
X22720000Y-61780000D03*
X32880000Y-69400000D03*
X20180000Y-61780000D03*
X35420000Y-69400000D03*
X17640000Y-61780000D03*
X37960000Y-69400000D03*
X15100000Y-61780000D03*
D16*
X112600000Y-69400000D03*
D15*
X130380000Y-61780000D03*
X115140000Y-69400000D03*
X127840000Y-61780000D03*
X117680000Y-69400000D03*
X125300000Y-61780000D03*
X120220000Y-69400000D03*
X122760000Y-61780000D03*
X122760000Y-69400000D03*
X120220000Y-61780000D03*
X125300000Y-69400000D03*
X117680000Y-61780000D03*
X127840000Y-69400000D03*
X115140000Y-61780000D03*
X130380000Y-69400000D03*
X112600000Y-61780000D03*
X56500000Y-4380000D03*
X64120000Y-12000000D03*
X59040000Y-4380000D03*
X61580000Y-12000000D03*
X61580000Y-4380000D03*
X59040000Y-12000000D03*
X64120000Y-4380000D03*
D16*
X56500000Y-12000000D03*
D15*
X35140000Y-4800000D03*
X19900000Y-53060000D03*
X35140000Y-7340000D03*
X19900000Y-50520000D03*
X35140000Y-9880000D03*
X19900000Y-47980000D03*
X35140000Y-12420000D03*
X19900000Y-45440000D03*
X35140000Y-14960000D03*
X19900000Y-42900000D03*
X35140000Y-17500000D03*
X19900000Y-40360000D03*
X35140000Y-20040000D03*
X19900000Y-37820000D03*
X35140000Y-22580000D03*
X19900000Y-35280000D03*
X35140000Y-25120000D03*
X19900000Y-32740000D03*
X35140000Y-27660000D03*
X19900000Y-30200000D03*
X35140000Y-30200000D03*
X19900000Y-27660000D03*
X35140000Y-32740000D03*
X19900000Y-25120000D03*
X35140000Y-35280000D03*
X19900000Y-22580000D03*
X35140000Y-37820000D03*
X19900000Y-20040000D03*
X35140000Y-40360000D03*
X19900000Y-17500000D03*
X35140000Y-42900000D03*
X19900000Y-14960000D03*
X35140000Y-45440000D03*
X19900000Y-12420000D03*
X35140000Y-47980000D03*
X19900000Y-9880000D03*
X35140000Y-50520000D03*
X19900000Y-7340000D03*
X35140000Y-53060000D03*
D16*
X19900000Y-4800000D03*
X79100000Y-33300000D03*
D15*
X94340000Y-25680000D03*
X81640000Y-33300000D03*
X91800000Y-25680000D03*
X84180000Y-33300000D03*
X89260000Y-25680000D03*
X86720000Y-33300000D03*
X86720000Y-25680000D03*
X89260000Y-33300000D03*
X84180000Y-25680000D03*
X91800000Y-33300000D03*
X81640000Y-25680000D03*
X94340000Y-33300000D03*
X79100000Y-25680000D03*
X78900000Y-42280000D03*
X96680000Y-49900000D03*
X81440000Y-42280000D03*
X94140000Y-49900000D03*
X83980000Y-42280000D03*
X91600000Y-49900000D03*
X86520000Y-42280000D03*
X89060000Y-49900000D03*
X89060000Y-42280000D03*
X86520000Y-49900000D03*
X91600000Y-42280000D03*
X83980000Y-49900000D03*
X94140000Y-42280000D03*
X81440000Y-49900000D03*
X96680000Y-42280000D03*
D16*
X78900000Y-49900000D03*
D15*
X109200000Y-42280000D03*
X126980000Y-49900000D03*
X111740000Y-42280000D03*
X124440000Y-49900000D03*
X114280000Y-42280000D03*
X121900000Y-49900000D03*
X116820000Y-42280000D03*
X119360000Y-49900000D03*
X119360000Y-42280000D03*
X116820000Y-49900000D03*
X121900000Y-42280000D03*
X114280000Y-49900000D03*
X124440000Y-42280000D03*
X111740000Y-49900000D03*
X126980000Y-42280000D03*
D16*
X109200000Y-49900000D03*
X48600000Y-49900000D03*
D15*
X66380000Y-42280000D03*
X51140000Y-49900000D03*
X63840000Y-42280000D03*
X53680000Y-49900000D03*
X61300000Y-42280000D03*
X56220000Y-49900000D03*
X58760000Y-42280000D03*
X58760000Y-49900000D03*
X56220000Y-42280000D03*
X61300000Y-49900000D03*
X53680000Y-42280000D03*
X63840000Y-49900000D03*
X51140000Y-42280000D03*
X66380000Y-49900000D03*
X48600000Y-42280000D03*
D22*
X41800000Y-7100000D03*
X41800000Y-12000000D03*
M02*
