G04 #@! TF.GenerationSoftware,KiCad,Pcbnew,5.1.10-88a1d61d58~88~ubuntu20.04.1*
G04 #@! TF.CreationDate,2021-05-20T09:01:22-04:00*
G04 #@! TF.ProjectId,CPUandGlueLogic,43505561-6e64-4476-9c75-654c6f676963,1*
G04 #@! TF.SameCoordinates,Original*
G04 #@! TF.FileFunction,Legend,Top*
G04 #@! TF.FilePolarity,Positive*
%FSLAX46Y46*%
G04 Gerber Fmt 4.6, Leading zero omitted, Abs format (unit mm)*
G04 Created by KiCad (PCBNEW 5.1.10-88a1d61d58~88~ubuntu20.04.1) date 2021-05-20 09:01:22*
%MOMM*%
%LPD*%
G01*
G04 APERTURE LIST*
%ADD10C,0.250000*%
%ADD11C,0.304800*%
%ADD12C,0.152400*%
%ADD13C,0.120000*%
%ADD14C,0.200000*%
%ADD15C,0.127000*%
%ADD16C,0.150000*%
%ADD17C,3.200000*%
%ADD18R,1.700000X1.700000*%
%ADD19O,1.700000X1.700000*%
%ADD20C,1.950000*%
%ADD21C,1.498000*%
%ADD22O,1.600000X1.600000*%
%ADD23R,1.600000X1.600000*%
%ADD24C,1.600000*%
%ADD25C,1.800000*%
%ADD26R,1.800000X1.800000*%
%ADD27O,1.400000X1.400000*%
%ADD28C,1.400000*%
%ADD29C,1.500000*%
G04 APERTURE END LIST*
D10*
X111766666Y-11452380D02*
X111766666Y-10452380D01*
X112195238Y-11452380D02*
X112195238Y-10928571D01*
X112147619Y-10833333D01*
X112052380Y-10785714D01*
X111909523Y-10785714D01*
X111814285Y-10833333D01*
X111766666Y-10880952D01*
X112528571Y-10785714D02*
X112909523Y-10785714D01*
X112671428Y-10452380D02*
X112671428Y-11309523D01*
X112719047Y-11404761D01*
X112814285Y-11452380D01*
X112909523Y-11452380D01*
X113100000Y-10785714D02*
X113480952Y-10785714D01*
X113242857Y-10452380D02*
X113242857Y-11309523D01*
X113290476Y-11404761D01*
X113385714Y-11452380D01*
X113480952Y-11452380D01*
X113814285Y-10785714D02*
X113814285Y-11785714D01*
X113814285Y-10833333D02*
X113909523Y-10785714D01*
X114100000Y-10785714D01*
X114195238Y-10833333D01*
X114242857Y-10880952D01*
X114290476Y-10976190D01*
X114290476Y-11261904D01*
X114242857Y-11357142D01*
X114195238Y-11404761D01*
X114100000Y-11452380D01*
X113909523Y-11452380D01*
X113814285Y-11404761D01*
X114671428Y-11404761D02*
X114766666Y-11452380D01*
X114957142Y-11452380D01*
X115052380Y-11404761D01*
X115100000Y-11309523D01*
X115100000Y-11261904D01*
X115052380Y-11166666D01*
X114957142Y-11119047D01*
X114814285Y-11119047D01*
X114719047Y-11071428D01*
X114671428Y-10976190D01*
X114671428Y-10928571D01*
X114719047Y-10833333D01*
X114814285Y-10785714D01*
X114957142Y-10785714D01*
X115052380Y-10833333D01*
X115528571Y-11357142D02*
X115576190Y-11404761D01*
X115528571Y-11452380D01*
X115480952Y-11404761D01*
X115528571Y-11357142D01*
X115528571Y-11452380D01*
X115528571Y-10833333D02*
X115576190Y-10880952D01*
X115528571Y-10928571D01*
X115480952Y-10880952D01*
X115528571Y-10833333D01*
X115528571Y-10928571D01*
X116719047Y-10404761D02*
X115861904Y-11690476D01*
X117766666Y-10404761D02*
X116909523Y-11690476D01*
X118528571Y-10785714D02*
X118528571Y-11595238D01*
X118480952Y-11690476D01*
X118433333Y-11738095D01*
X118338095Y-11785714D01*
X118195238Y-11785714D01*
X118100000Y-11738095D01*
X118528571Y-11404761D02*
X118433333Y-11452380D01*
X118242857Y-11452380D01*
X118147619Y-11404761D01*
X118100000Y-11357142D01*
X118052380Y-11261904D01*
X118052380Y-10976190D01*
X118100000Y-10880952D01*
X118147619Y-10833333D01*
X118242857Y-10785714D01*
X118433333Y-10785714D01*
X118528571Y-10833333D01*
X119004761Y-11452380D02*
X119004761Y-10785714D01*
X119004761Y-10452380D02*
X118957142Y-10500000D01*
X119004761Y-10547619D01*
X119052380Y-10500000D01*
X119004761Y-10452380D01*
X119004761Y-10547619D01*
X119338095Y-10785714D02*
X119719047Y-10785714D01*
X119480952Y-10452380D02*
X119480952Y-11309523D01*
X119528571Y-11404761D01*
X119623809Y-11452380D01*
X119719047Y-11452380D01*
X120052380Y-11452380D02*
X120052380Y-10452380D01*
X120480952Y-11452380D02*
X120480952Y-10928571D01*
X120433333Y-10833333D01*
X120338095Y-10785714D01*
X120195238Y-10785714D01*
X120100000Y-10833333D01*
X120052380Y-10880952D01*
X121385714Y-10785714D02*
X121385714Y-11452380D01*
X120957142Y-10785714D02*
X120957142Y-11309523D01*
X121004761Y-11404761D01*
X121100000Y-11452380D01*
X121242857Y-11452380D01*
X121338095Y-11404761D01*
X121385714Y-11357142D01*
X121861904Y-11452380D02*
X121861904Y-10452380D01*
X121861904Y-10833333D02*
X121957142Y-10785714D01*
X122147619Y-10785714D01*
X122242857Y-10833333D01*
X122290476Y-10880952D01*
X122338095Y-10976190D01*
X122338095Y-11261904D01*
X122290476Y-11357142D01*
X122242857Y-11404761D01*
X122147619Y-11452380D01*
X121957142Y-11452380D01*
X121861904Y-11404761D01*
X122766666Y-11357142D02*
X122814285Y-11404761D01*
X122766666Y-11452380D01*
X122719047Y-11404761D01*
X122766666Y-11357142D01*
X122766666Y-11452380D01*
X123671428Y-11404761D02*
X123576190Y-11452380D01*
X123385714Y-11452380D01*
X123290476Y-11404761D01*
X123242857Y-11357142D01*
X123195238Y-11261904D01*
X123195238Y-10976190D01*
X123242857Y-10880952D01*
X123290476Y-10833333D01*
X123385714Y-10785714D01*
X123576190Y-10785714D01*
X123671428Y-10833333D01*
X124242857Y-11452380D02*
X124147619Y-11404761D01*
X124100000Y-11357142D01*
X124052380Y-11261904D01*
X124052380Y-10976190D01*
X124100000Y-10880952D01*
X124147619Y-10833333D01*
X124242857Y-10785714D01*
X124385714Y-10785714D01*
X124480952Y-10833333D01*
X124528571Y-10880952D01*
X124576190Y-10976190D01*
X124576190Y-11261904D01*
X124528571Y-11357142D01*
X124480952Y-11404761D01*
X124385714Y-11452380D01*
X124242857Y-11452380D01*
X125004761Y-11452380D02*
X125004761Y-10785714D01*
X125004761Y-10880952D02*
X125052380Y-10833333D01*
X125147619Y-10785714D01*
X125290476Y-10785714D01*
X125385714Y-10833333D01*
X125433333Y-10928571D01*
X125433333Y-11452380D01*
X125433333Y-10928571D02*
X125480952Y-10833333D01*
X125576190Y-10785714D01*
X125719047Y-10785714D01*
X125814285Y-10833333D01*
X125861904Y-10928571D01*
X125861904Y-11452380D01*
X127052380Y-10404761D02*
X126195238Y-11690476D01*
X127814285Y-11452380D02*
X127814285Y-10452380D01*
X127814285Y-11404761D02*
X127719047Y-11452380D01*
X127528571Y-11452380D01*
X127433333Y-11404761D01*
X127385714Y-11357142D01*
X127338095Y-11261904D01*
X127338095Y-10976190D01*
X127385714Y-10880952D01*
X127433333Y-10833333D01*
X127528571Y-10785714D01*
X127719047Y-10785714D01*
X127814285Y-10833333D01*
X128719047Y-11452380D02*
X128719047Y-10928571D01*
X128671428Y-10833333D01*
X128576190Y-10785714D01*
X128385714Y-10785714D01*
X128290476Y-10833333D01*
X128719047Y-11404761D02*
X128623809Y-11452380D01*
X128385714Y-11452380D01*
X128290476Y-11404761D01*
X128242857Y-11309523D01*
X128242857Y-11214285D01*
X128290476Y-11119047D01*
X128385714Y-11071428D01*
X128623809Y-11071428D01*
X128719047Y-11023809D01*
X129100000Y-10785714D02*
X129338095Y-11452380D01*
X129576190Y-10785714D01*
X130338095Y-11404761D02*
X130242857Y-11452380D01*
X130052380Y-11452380D01*
X129957142Y-11404761D01*
X129909523Y-11309523D01*
X129909523Y-10928571D01*
X129957142Y-10833333D01*
X130052380Y-10785714D01*
X130242857Y-10785714D01*
X130338095Y-10833333D01*
X130385714Y-10928571D01*
X130385714Y-11023809D01*
X129909523Y-11119047D01*
X130814285Y-11452380D02*
X130814285Y-10452380D01*
X131242857Y-11452380D02*
X131242857Y-10928571D01*
X131195238Y-10833333D01*
X131100000Y-10785714D01*
X130957142Y-10785714D01*
X130861904Y-10833333D01*
X130814285Y-10880952D01*
X131861904Y-11452380D02*
X131766666Y-11404761D01*
X131719047Y-11357142D01*
X131671428Y-11261904D01*
X131671428Y-10976190D01*
X131719047Y-10880952D01*
X131766666Y-10833333D01*
X131861904Y-10785714D01*
X132004761Y-10785714D01*
X132100000Y-10833333D01*
X132147619Y-10880952D01*
X132195238Y-10976190D01*
X132195238Y-11261904D01*
X132147619Y-11357142D01*
X132100000Y-11404761D01*
X132004761Y-11452380D01*
X131861904Y-11452380D01*
X133338095Y-10404761D02*
X132480952Y-11690476D01*
X133671428Y-11452380D02*
X133671428Y-10452380D01*
X133909523Y-10452380D01*
X134052380Y-10500000D01*
X134147619Y-10595238D01*
X134195238Y-10690476D01*
X134242857Y-10880952D01*
X134242857Y-11023809D01*
X134195238Y-11214285D01*
X134147619Y-11309523D01*
X134052380Y-11404761D01*
X133909523Y-11452380D01*
X133671428Y-11452380D01*
X134671428Y-11452380D02*
X134671428Y-10452380D01*
X135338095Y-10976190D02*
X135338095Y-11452380D01*
X135004761Y-10452380D02*
X135338095Y-10976190D01*
X135671428Y-10452380D01*
X136147619Y-10880952D02*
X136052380Y-10833333D01*
X136004761Y-10785714D01*
X135957142Y-10690476D01*
X135957142Y-10642857D01*
X136004761Y-10547619D01*
X136052380Y-10500000D01*
X136147619Y-10452380D01*
X136338095Y-10452380D01*
X136433333Y-10500000D01*
X136480952Y-10547619D01*
X136528571Y-10642857D01*
X136528571Y-10690476D01*
X136480952Y-10785714D01*
X136433333Y-10833333D01*
X136338095Y-10880952D01*
X136147619Y-10880952D01*
X136052380Y-10928571D01*
X136004761Y-10976190D01*
X135957142Y-11071428D01*
X135957142Y-11261904D01*
X136004761Y-11357142D01*
X136052380Y-11404761D01*
X136147619Y-11452380D01*
X136338095Y-11452380D01*
X136433333Y-11404761D01*
X136480952Y-11357142D01*
X136528571Y-11261904D01*
X136528571Y-11071428D01*
X136480952Y-10976190D01*
X136433333Y-10928571D01*
X136338095Y-10880952D01*
X136957142Y-11452380D02*
X136957142Y-10452380D01*
X136957142Y-10833333D02*
X137052380Y-10785714D01*
X137242857Y-10785714D01*
X137338095Y-10833333D01*
X137385714Y-10880952D01*
X137433333Y-10976190D01*
X137433333Y-11261904D01*
X137385714Y-11357142D01*
X137338095Y-11404761D01*
X137242857Y-11452380D01*
X137052380Y-11452380D01*
X136957142Y-11404761D01*
X137861904Y-11452380D02*
X137861904Y-10785714D01*
X137861904Y-10452380D02*
X137814285Y-10500000D01*
X137861904Y-10547619D01*
X137909523Y-10500000D01*
X137861904Y-10452380D01*
X137861904Y-10547619D01*
X138195238Y-10785714D02*
X138576190Y-10785714D01*
X138338095Y-10452380D02*
X138338095Y-11309523D01*
X138385714Y-11404761D01*
X138480952Y-11452380D01*
X138576190Y-11452380D01*
D11*
X111111428Y-2400342D02*
X110603428Y-2400342D01*
X110603428Y-3198628D02*
X110603428Y-1674628D01*
X111329142Y-1674628D01*
X112562857Y-1674628D02*
X112272571Y-1674628D01*
X112127428Y-1747200D01*
X112054857Y-1819771D01*
X111909714Y-2037485D01*
X111837142Y-2327771D01*
X111837142Y-2908342D01*
X111909714Y-3053485D01*
X111982285Y-3126057D01*
X112127428Y-3198628D01*
X112417714Y-3198628D01*
X112562857Y-3126057D01*
X112635428Y-3053485D01*
X112707999Y-2908342D01*
X112707999Y-2545485D01*
X112635428Y-2400342D01*
X112562857Y-2327771D01*
X112417714Y-2255200D01*
X112127428Y-2255200D01*
X111982285Y-2327771D01*
X111909714Y-2400342D01*
X111837142Y-2545485D01*
X113578857Y-2327771D02*
X113433714Y-2255200D01*
X113361142Y-2182628D01*
X113288571Y-2037485D01*
X113288571Y-1964914D01*
X113361142Y-1819771D01*
X113433714Y-1747200D01*
X113578857Y-1674628D01*
X113869142Y-1674628D01*
X114014285Y-1747200D01*
X114086857Y-1819771D01*
X114159428Y-1964914D01*
X114159428Y-2037485D01*
X114086857Y-2182628D01*
X114014285Y-2255200D01*
X113869142Y-2327771D01*
X113578857Y-2327771D01*
X113433714Y-2400342D01*
X113361142Y-2472914D01*
X113288571Y-2618057D01*
X113288571Y-2908342D01*
X113361142Y-3053485D01*
X113433714Y-3126057D01*
X113578857Y-3198628D01*
X113869142Y-3198628D01*
X114014285Y-3126057D01*
X114086857Y-3053485D01*
X114159428Y-2908342D01*
X114159428Y-2618057D01*
X114086857Y-2472914D01*
X114014285Y-2400342D01*
X113869142Y-2327771D01*
X116626857Y-1674628D02*
X116336571Y-1674628D01*
X116191428Y-1747200D01*
X116118857Y-1819771D01*
X115973714Y-2037485D01*
X115901142Y-2327771D01*
X115901142Y-2908342D01*
X115973714Y-3053485D01*
X116046285Y-3126057D01*
X116191428Y-3198628D01*
X116481714Y-3198628D01*
X116626857Y-3126057D01*
X116699428Y-3053485D01*
X116771999Y-2908342D01*
X116771999Y-2545485D01*
X116699428Y-2400342D01*
X116626857Y-2327771D01*
X116481714Y-2255200D01*
X116191428Y-2255200D01*
X116046285Y-2327771D01*
X115973714Y-2400342D01*
X115901142Y-2545485D01*
X117642857Y-2327771D02*
X117497714Y-2255200D01*
X117425142Y-2182628D01*
X117352571Y-2037485D01*
X117352571Y-1964914D01*
X117425142Y-1819771D01*
X117497714Y-1747200D01*
X117642857Y-1674628D01*
X117933142Y-1674628D01*
X118078285Y-1747200D01*
X118150857Y-1819771D01*
X118223428Y-1964914D01*
X118223428Y-2037485D01*
X118150857Y-2182628D01*
X118078285Y-2255200D01*
X117933142Y-2327771D01*
X117642857Y-2327771D01*
X117497714Y-2400342D01*
X117425142Y-2472914D01*
X117352571Y-2618057D01*
X117352571Y-2908342D01*
X117425142Y-3053485D01*
X117497714Y-3126057D01*
X117642857Y-3198628D01*
X117933142Y-3198628D01*
X118078285Y-3126057D01*
X118150857Y-3053485D01*
X118223428Y-2908342D01*
X118223428Y-2618057D01*
X118150857Y-2472914D01*
X118078285Y-2400342D01*
X117933142Y-2327771D01*
X119166857Y-1674628D02*
X119311999Y-1674628D01*
X119457142Y-1747200D01*
X119529714Y-1819771D01*
X119602285Y-1964914D01*
X119674857Y-2255200D01*
X119674857Y-2618057D01*
X119602285Y-2908342D01*
X119529714Y-3053485D01*
X119457142Y-3126057D01*
X119311999Y-3198628D01*
X119166857Y-3198628D01*
X119021714Y-3126057D01*
X118949142Y-3053485D01*
X118876571Y-2908342D01*
X118803999Y-2618057D01*
X118803999Y-2255200D01*
X118876571Y-1964914D01*
X118949142Y-1819771D01*
X119021714Y-1747200D01*
X119166857Y-1674628D01*
X120400571Y-3198628D02*
X120690857Y-3198628D01*
X120835999Y-3126057D01*
X120908571Y-3053485D01*
X121053714Y-2835771D01*
X121126285Y-2545485D01*
X121126285Y-1964914D01*
X121053714Y-1819771D01*
X120981142Y-1747200D01*
X120835999Y-1674628D01*
X120545714Y-1674628D01*
X120400571Y-1747200D01*
X120327999Y-1819771D01*
X120255428Y-1964914D01*
X120255428Y-2327771D01*
X120327999Y-2472914D01*
X120400571Y-2545485D01*
X120545714Y-2618057D01*
X120835999Y-2618057D01*
X120981142Y-2545485D01*
X121053714Y-2472914D01*
X121126285Y-2327771D01*
X122940571Y-3198628D02*
X122940571Y-2182628D01*
X122940571Y-2327771D02*
X123013142Y-2255200D01*
X123158285Y-2182628D01*
X123375999Y-2182628D01*
X123521142Y-2255200D01*
X123593714Y-2400342D01*
X123593714Y-3198628D01*
X123593714Y-2400342D02*
X123666285Y-2255200D01*
X123811428Y-2182628D01*
X124029142Y-2182628D01*
X124174285Y-2255200D01*
X124246857Y-2400342D01*
X124246857Y-3198628D01*
X124972571Y-3198628D02*
X124972571Y-2182628D01*
X124972571Y-1674628D02*
X124899999Y-1747200D01*
X124972571Y-1819771D01*
X125045142Y-1747200D01*
X124972571Y-1674628D01*
X124972571Y-1819771D01*
X126351428Y-3126057D02*
X126206285Y-3198628D01*
X125915999Y-3198628D01*
X125770857Y-3126057D01*
X125698285Y-3053485D01*
X125625714Y-2908342D01*
X125625714Y-2472914D01*
X125698285Y-2327771D01*
X125770857Y-2255200D01*
X125915999Y-2182628D01*
X126206285Y-2182628D01*
X126351428Y-2255200D01*
X127004571Y-3198628D02*
X127004571Y-2182628D01*
X127004571Y-2472914D02*
X127077142Y-2327771D01*
X127149714Y-2255200D01*
X127294857Y-2182628D01*
X127439999Y-2182628D01*
X128165714Y-3198628D02*
X128020571Y-3126057D01*
X127947999Y-3053485D01*
X127875428Y-2908342D01*
X127875428Y-2472914D01*
X127947999Y-2327771D01*
X128020571Y-2255200D01*
X128165714Y-2182628D01*
X128383428Y-2182628D01*
X128528571Y-2255200D01*
X128601142Y-2327771D01*
X128673714Y-2472914D01*
X128673714Y-2908342D01*
X128601142Y-3053485D01*
X128528571Y-3126057D01*
X128383428Y-3198628D01*
X128165714Y-3198628D01*
X129979999Y-3126057D02*
X129834857Y-3198628D01*
X129544571Y-3198628D01*
X129399428Y-3126057D01*
X129326857Y-3053485D01*
X129254285Y-2908342D01*
X129254285Y-2472914D01*
X129326857Y-2327771D01*
X129399428Y-2255200D01*
X129544571Y-2182628D01*
X129834857Y-2182628D01*
X129979999Y-2255200D01*
X130850857Y-3198628D02*
X130705714Y-3126057D01*
X130633142Y-3053485D01*
X130560571Y-2908342D01*
X130560571Y-2472914D01*
X130633142Y-2327771D01*
X130705714Y-2255200D01*
X130850857Y-2182628D01*
X131068571Y-2182628D01*
X131213714Y-2255200D01*
X131286285Y-2327771D01*
X131358857Y-2472914D01*
X131358857Y-2908342D01*
X131286285Y-3053485D01*
X131213714Y-3126057D01*
X131068571Y-3198628D01*
X130850857Y-3198628D01*
X132011999Y-3198628D02*
X132011999Y-2182628D01*
X132011999Y-2327771D02*
X132084571Y-2255200D01*
X132229714Y-2182628D01*
X132447428Y-2182628D01*
X132592571Y-2255200D01*
X132665142Y-2400342D01*
X132665142Y-3198628D01*
X132665142Y-2400342D02*
X132737714Y-2255200D01*
X132882857Y-2182628D01*
X133100571Y-2182628D01*
X133245714Y-2255200D01*
X133318285Y-2400342D01*
X133318285Y-3198628D01*
X134043999Y-2182628D02*
X134043999Y-3706628D01*
X134043999Y-2255200D02*
X134189142Y-2182628D01*
X134479428Y-2182628D01*
X134624571Y-2255200D01*
X134697142Y-2327771D01*
X134769714Y-2472914D01*
X134769714Y-2908342D01*
X134697142Y-3053485D01*
X134624571Y-3126057D01*
X134479428Y-3198628D01*
X134189142Y-3198628D01*
X134043999Y-3126057D01*
X136075999Y-2182628D02*
X136075999Y-3198628D01*
X135422857Y-2182628D02*
X135422857Y-2980914D01*
X135495428Y-3126057D01*
X135640571Y-3198628D01*
X135858285Y-3198628D01*
X136003428Y-3126057D01*
X136075999Y-3053485D01*
X136583999Y-2182628D02*
X137164571Y-2182628D01*
X136801714Y-1674628D02*
X136801714Y-2980914D01*
X136874285Y-3126057D01*
X137019428Y-3198628D01*
X137164571Y-3198628D01*
X138253142Y-3126057D02*
X138107999Y-3198628D01*
X137817714Y-3198628D01*
X137672571Y-3126057D01*
X137599999Y-2980914D01*
X137599999Y-2400342D01*
X137672571Y-2255200D01*
X137817714Y-2182628D01*
X138107999Y-2182628D01*
X138253142Y-2255200D01*
X138325714Y-2400342D01*
X138325714Y-2545485D01*
X137599999Y-2690628D01*
X138978857Y-3198628D02*
X138978857Y-2182628D01*
X138978857Y-2472914D02*
X139051428Y-2327771D01*
X139123999Y-2255200D01*
X139269142Y-2182628D01*
X139414285Y-2182628D01*
X110059142Y-5644285D02*
X109986571Y-5716857D01*
X109768857Y-5789428D01*
X109623714Y-5789428D01*
X109406000Y-5716857D01*
X109260857Y-5571714D01*
X109188285Y-5426571D01*
X109115714Y-5136285D01*
X109115714Y-4918571D01*
X109188285Y-4628285D01*
X109260857Y-4483142D01*
X109406000Y-4338000D01*
X109623714Y-4265428D01*
X109768857Y-4265428D01*
X109986571Y-4338000D01*
X110059142Y-4410571D01*
X110712285Y-5789428D02*
X110712285Y-4265428D01*
X111292857Y-4265428D01*
X111438000Y-4338000D01*
X111510571Y-4410571D01*
X111583142Y-4555714D01*
X111583142Y-4773428D01*
X111510571Y-4918571D01*
X111438000Y-4991142D01*
X111292857Y-5063714D01*
X110712285Y-5063714D01*
X112236285Y-4265428D02*
X112236285Y-5499142D01*
X112308857Y-5644285D01*
X112381428Y-5716857D01*
X112526571Y-5789428D01*
X112816857Y-5789428D01*
X112962000Y-5716857D01*
X113034571Y-5644285D01*
X113107142Y-5499142D01*
X113107142Y-4265428D01*
X115647142Y-5789428D02*
X115647142Y-4991142D01*
X115574571Y-4846000D01*
X115429428Y-4773428D01*
X115139142Y-4773428D01*
X114994000Y-4846000D01*
X115647142Y-5716857D02*
X115502000Y-5789428D01*
X115139142Y-5789428D01*
X114994000Y-5716857D01*
X114921428Y-5571714D01*
X114921428Y-5426571D01*
X114994000Y-5281428D01*
X115139142Y-5208857D01*
X115502000Y-5208857D01*
X115647142Y-5136285D01*
X116372857Y-4773428D02*
X116372857Y-5789428D01*
X116372857Y-4918571D02*
X116445428Y-4846000D01*
X116590571Y-4773428D01*
X116808285Y-4773428D01*
X116953428Y-4846000D01*
X117026000Y-4991142D01*
X117026000Y-5789428D01*
X118404857Y-5789428D02*
X118404857Y-4265428D01*
X118404857Y-5716857D02*
X118259714Y-5789428D01*
X117969428Y-5789428D01*
X117824285Y-5716857D01*
X117751714Y-5644285D01*
X117679142Y-5499142D01*
X117679142Y-5063714D01*
X117751714Y-4918571D01*
X117824285Y-4846000D01*
X117969428Y-4773428D01*
X118259714Y-4773428D01*
X118404857Y-4846000D01*
X120944857Y-4773428D02*
X120944857Y-6007142D01*
X120872285Y-6152285D01*
X120799714Y-6224857D01*
X120654571Y-6297428D01*
X120436857Y-6297428D01*
X120291714Y-6224857D01*
X120944857Y-5716857D02*
X120799714Y-5789428D01*
X120509428Y-5789428D01*
X120364285Y-5716857D01*
X120291714Y-5644285D01*
X120219142Y-5499142D01*
X120219142Y-5063714D01*
X120291714Y-4918571D01*
X120364285Y-4846000D01*
X120509428Y-4773428D01*
X120799714Y-4773428D01*
X120944857Y-4846000D01*
X121888285Y-5789428D02*
X121743142Y-5716857D01*
X121670571Y-5571714D01*
X121670571Y-4265428D01*
X123122000Y-4773428D02*
X123122000Y-5789428D01*
X122468857Y-4773428D02*
X122468857Y-5571714D01*
X122541428Y-5716857D01*
X122686571Y-5789428D01*
X122904285Y-5789428D01*
X123049428Y-5716857D01*
X123122000Y-5644285D01*
X124428285Y-5716857D02*
X124283142Y-5789428D01*
X123992857Y-5789428D01*
X123847714Y-5716857D01*
X123775142Y-5571714D01*
X123775142Y-4991142D01*
X123847714Y-4846000D01*
X123992857Y-4773428D01*
X124283142Y-4773428D01*
X124428285Y-4846000D01*
X124500857Y-4991142D01*
X124500857Y-5136285D01*
X123775142Y-5281428D01*
X126532857Y-5789428D02*
X126387714Y-5716857D01*
X126315142Y-5571714D01*
X126315142Y-4265428D01*
X127331142Y-5789428D02*
X127186000Y-5716857D01*
X127113428Y-5644285D01*
X127040857Y-5499142D01*
X127040857Y-5063714D01*
X127113428Y-4918571D01*
X127186000Y-4846000D01*
X127331142Y-4773428D01*
X127548857Y-4773428D01*
X127694000Y-4846000D01*
X127766571Y-4918571D01*
X127839142Y-5063714D01*
X127839142Y-5499142D01*
X127766571Y-5644285D01*
X127694000Y-5716857D01*
X127548857Y-5789428D01*
X127331142Y-5789428D01*
X129145428Y-4773428D02*
X129145428Y-6007142D01*
X129072857Y-6152285D01*
X129000285Y-6224857D01*
X128855142Y-6297428D01*
X128637428Y-6297428D01*
X128492285Y-6224857D01*
X129145428Y-5716857D02*
X129000285Y-5789428D01*
X128710000Y-5789428D01*
X128564857Y-5716857D01*
X128492285Y-5644285D01*
X128419714Y-5499142D01*
X128419714Y-5063714D01*
X128492285Y-4918571D01*
X128564857Y-4846000D01*
X128710000Y-4773428D01*
X129000285Y-4773428D01*
X129145428Y-4846000D01*
X129871142Y-5789428D02*
X129871142Y-4773428D01*
X129871142Y-4265428D02*
X129798571Y-4338000D01*
X129871142Y-4410571D01*
X129943714Y-4338000D01*
X129871142Y-4265428D01*
X129871142Y-4410571D01*
X131250000Y-5716857D02*
X131104857Y-5789428D01*
X130814571Y-5789428D01*
X130669428Y-5716857D01*
X130596857Y-5644285D01*
X130524285Y-5499142D01*
X130524285Y-5063714D01*
X130596857Y-4918571D01*
X130669428Y-4846000D01*
X130814571Y-4773428D01*
X131104857Y-4773428D01*
X131250000Y-4846000D01*
X133064285Y-5789428D02*
X133064285Y-4773428D01*
X133064285Y-4918571D02*
X133136857Y-4846000D01*
X133282000Y-4773428D01*
X133499714Y-4773428D01*
X133644857Y-4846000D01*
X133717428Y-4991142D01*
X133717428Y-5789428D01*
X133717428Y-4991142D02*
X133790000Y-4846000D01*
X133935142Y-4773428D01*
X134152857Y-4773428D01*
X134298000Y-4846000D01*
X134370571Y-4991142D01*
X134370571Y-5789428D01*
X135314000Y-5789428D02*
X135168857Y-5716857D01*
X135096285Y-5644285D01*
X135023714Y-5499142D01*
X135023714Y-5063714D01*
X135096285Y-4918571D01*
X135168857Y-4846000D01*
X135314000Y-4773428D01*
X135531714Y-4773428D01*
X135676857Y-4846000D01*
X135749428Y-4918571D01*
X135822000Y-5063714D01*
X135822000Y-5499142D01*
X135749428Y-5644285D01*
X135676857Y-5716857D01*
X135531714Y-5789428D01*
X135314000Y-5789428D01*
X137128285Y-5789428D02*
X137128285Y-4265428D01*
X137128285Y-5716857D02*
X136983142Y-5789428D01*
X136692857Y-5789428D01*
X136547714Y-5716857D01*
X136475142Y-5644285D01*
X136402571Y-5499142D01*
X136402571Y-5063714D01*
X136475142Y-4918571D01*
X136547714Y-4846000D01*
X136692857Y-4773428D01*
X136983142Y-4773428D01*
X137128285Y-4846000D01*
X138507142Y-4773428D02*
X138507142Y-5789428D01*
X137854000Y-4773428D02*
X137854000Y-5571714D01*
X137926571Y-5716857D01*
X138071714Y-5789428D01*
X138289428Y-5789428D01*
X138434571Y-5716857D01*
X138507142Y-5644285D01*
X139450571Y-5789428D02*
X139305428Y-5716857D01*
X139232857Y-5571714D01*
X139232857Y-4265428D01*
X140611714Y-5716857D02*
X140466571Y-5789428D01*
X140176285Y-5789428D01*
X140031142Y-5716857D01*
X139958571Y-5571714D01*
X139958571Y-4991142D01*
X140031142Y-4846000D01*
X140176285Y-4773428D01*
X140466571Y-4773428D01*
X140611714Y-4846000D01*
X140684285Y-4991142D01*
X140684285Y-5136285D01*
X139958571Y-5281428D01*
X116808285Y-7001371D02*
X116880857Y-6928800D01*
X117026000Y-6856228D01*
X117388857Y-6856228D01*
X117534000Y-6928800D01*
X117606571Y-7001371D01*
X117679142Y-7146514D01*
X117679142Y-7291657D01*
X117606571Y-7509371D01*
X116735714Y-8380228D01*
X117679142Y-8380228D01*
X118622571Y-6856228D02*
X118767714Y-6856228D01*
X118912857Y-6928800D01*
X118985428Y-7001371D01*
X119058000Y-7146514D01*
X119130571Y-7436800D01*
X119130571Y-7799657D01*
X119058000Y-8089942D01*
X118985428Y-8235085D01*
X118912857Y-8307657D01*
X118767714Y-8380228D01*
X118622571Y-8380228D01*
X118477428Y-8307657D01*
X118404857Y-8235085D01*
X118332285Y-8089942D01*
X118259714Y-7799657D01*
X118259714Y-7436800D01*
X118332285Y-7146514D01*
X118404857Y-7001371D01*
X118477428Y-6928800D01*
X118622571Y-6856228D01*
X119783714Y-7799657D02*
X120944857Y-7799657D01*
X121670571Y-8380228D02*
X121670571Y-6856228D01*
X122178571Y-7944800D01*
X122686571Y-6856228D01*
X122686571Y-8380228D01*
X124065428Y-8380228D02*
X124065428Y-7581942D01*
X123992857Y-7436800D01*
X123847714Y-7364228D01*
X123557428Y-7364228D01*
X123412285Y-7436800D01*
X124065428Y-8307657D02*
X123920285Y-8380228D01*
X123557428Y-8380228D01*
X123412285Y-8307657D01*
X123339714Y-8162514D01*
X123339714Y-8017371D01*
X123412285Y-7872228D01*
X123557428Y-7799657D01*
X123920285Y-7799657D01*
X124065428Y-7727085D01*
X124646000Y-7364228D02*
X125008857Y-8380228D01*
X125371714Y-7364228D02*
X125008857Y-8380228D01*
X124863714Y-8743085D01*
X124791142Y-8815657D01*
X124646000Y-8888228D01*
X125952285Y-7799657D02*
X127113428Y-7799657D01*
X127766571Y-7001371D02*
X127839142Y-6928800D01*
X127984285Y-6856228D01*
X128347142Y-6856228D01*
X128492285Y-6928800D01*
X128564857Y-7001371D01*
X128637428Y-7146514D01*
X128637428Y-7291657D01*
X128564857Y-7509371D01*
X127694000Y-8380228D01*
X128637428Y-8380228D01*
X129580857Y-6856228D02*
X129726000Y-6856228D01*
X129871142Y-6928800D01*
X129943714Y-7001371D01*
X130016285Y-7146514D01*
X130088857Y-7436800D01*
X130088857Y-7799657D01*
X130016285Y-8089942D01*
X129943714Y-8235085D01*
X129871142Y-8307657D01*
X129726000Y-8380228D01*
X129580857Y-8380228D01*
X129435714Y-8307657D01*
X129363142Y-8235085D01*
X129290571Y-8089942D01*
X129218000Y-7799657D01*
X129218000Y-7436800D01*
X129290571Y-7146514D01*
X129363142Y-7001371D01*
X129435714Y-6928800D01*
X129580857Y-6856228D01*
X130669428Y-7001371D02*
X130742000Y-6928800D01*
X130887142Y-6856228D01*
X131250000Y-6856228D01*
X131395142Y-6928800D01*
X131467714Y-7001371D01*
X131540285Y-7146514D01*
X131540285Y-7291657D01*
X131467714Y-7509371D01*
X130596857Y-8380228D01*
X131540285Y-8380228D01*
X132991714Y-8380228D02*
X132120857Y-8380228D01*
X132556285Y-8380228D02*
X132556285Y-6856228D01*
X132411142Y-7073942D01*
X132266000Y-7219085D01*
X132120857Y-7291657D01*
D12*
X81390742Y-5641942D02*
X81661676Y-5641942D01*
X81777790Y-6067695D02*
X81390742Y-6067695D01*
X81390742Y-5254895D01*
X81777790Y-5254895D01*
X82048723Y-6067695D02*
X82474476Y-5525828D01*
X82048723Y-5525828D02*
X82474476Y-6067695D01*
X82668000Y-5525828D02*
X82977638Y-5525828D01*
X82784114Y-5254895D02*
X82784114Y-5951580D01*
X82822819Y-6028990D01*
X82900228Y-6067695D01*
X82977638Y-6067695D01*
X84332304Y-6067695D02*
X84061371Y-5680647D01*
X83867847Y-6067695D02*
X83867847Y-5254895D01*
X84177485Y-5254895D01*
X84254895Y-5293600D01*
X84293600Y-5332304D01*
X84332304Y-5409714D01*
X84332304Y-5525828D01*
X84293600Y-5603238D01*
X84254895Y-5641942D01*
X84177485Y-5680647D01*
X83867847Y-5680647D01*
X84641942Y-6028990D02*
X84758057Y-6067695D01*
X84951580Y-6067695D01*
X85028990Y-6028990D01*
X85067695Y-5990285D01*
X85106400Y-5912876D01*
X85106400Y-5835466D01*
X85067695Y-5758057D01*
X85028990Y-5719352D01*
X84951580Y-5680647D01*
X84796761Y-5641942D01*
X84719352Y-5603238D01*
X84680647Y-5564533D01*
X84641942Y-5487123D01*
X84641942Y-5409714D01*
X84680647Y-5332304D01*
X84719352Y-5293600D01*
X84796761Y-5254895D01*
X84990285Y-5254895D01*
X85106400Y-5293600D01*
X85338628Y-5254895D02*
X85803085Y-5254895D01*
X85570857Y-6067695D02*
X85570857Y-5254895D01*
X86654590Y-6028990D02*
X86770704Y-6067695D01*
X86964228Y-6067695D01*
X87041638Y-6028990D01*
X87080342Y-5990285D01*
X87119047Y-5912876D01*
X87119047Y-5835466D01*
X87080342Y-5758057D01*
X87041638Y-5719352D01*
X86964228Y-5680647D01*
X86809409Y-5641942D01*
X86732000Y-5603238D01*
X86693295Y-5564533D01*
X86654590Y-5487123D01*
X86654590Y-5409714D01*
X86693295Y-5332304D01*
X86732000Y-5293600D01*
X86809409Y-5254895D01*
X87002933Y-5254895D01*
X87119047Y-5293600D01*
X87389980Y-5254895D02*
X87583504Y-6067695D01*
X87738323Y-5487123D01*
X87893142Y-6067695D01*
X88086666Y-5254895D01*
D13*
X125860000Y-84330000D02*
X125860000Y-79130000D01*
X26740000Y-84330000D02*
X125860000Y-84330000D01*
X24140000Y-79130000D02*
X125860000Y-79130000D01*
X26740000Y-84330000D02*
X26740000Y-81730000D01*
X26740000Y-81730000D02*
X24140000Y-81730000D01*
X24140000Y-81730000D02*
X24140000Y-79130000D01*
X25470000Y-84330000D02*
X24140000Y-84330000D01*
X24140000Y-84330000D02*
X24140000Y-83000000D01*
D14*
X79100000Y-3100000D02*
G75*
G03*
X79100000Y-3100000I-100000J0D01*
G01*
D15*
X77355000Y-490000D02*
X77355000Y-3985000D01*
X70245000Y-3985000D02*
X70245000Y-490000D01*
X75555000Y-490000D02*
X77355000Y-490000D01*
X72045000Y-490000D02*
X75555000Y-490000D01*
X70245000Y-490000D02*
X72045000Y-490000D01*
X77355000Y-7110000D02*
X70245000Y-7110000D01*
D13*
X47510000Y-24350000D02*
X47510000Y-34630000D01*
X65530000Y-24350000D02*
X47510000Y-24350000D01*
X65530000Y-34630000D02*
X65530000Y-24350000D01*
X47510000Y-34630000D02*
X65530000Y-34630000D01*
X47570000Y-26840000D02*
X47570000Y-28490000D01*
X65470000Y-26840000D02*
X47570000Y-26840000D01*
X65470000Y-32140000D02*
X65470000Y-26840000D01*
X47570000Y-32140000D02*
X65470000Y-32140000D01*
X47570000Y-30490000D02*
X47570000Y-32140000D01*
X47570000Y-28490000D02*
G75*
G02*
X47570000Y-30490000I0J-1000000D01*
G01*
X143720000Y-75900000D02*
G75*
G03*
X143720000Y-75900000I-3270000J0D01*
G01*
X140450000Y-79130000D02*
X140450000Y-72670000D01*
X140410000Y-79130000D02*
X140410000Y-72670000D01*
X140370000Y-79130000D02*
X140370000Y-72670000D01*
X140330000Y-79128000D02*
X140330000Y-72672000D01*
X140290000Y-79127000D02*
X140290000Y-72673000D01*
X140250000Y-79124000D02*
X140250000Y-72676000D01*
X140210000Y-79122000D02*
X140210000Y-76940000D01*
X140210000Y-74860000D02*
X140210000Y-72678000D01*
X140170000Y-79118000D02*
X140170000Y-76940000D01*
X140170000Y-74860000D02*
X140170000Y-72682000D01*
X140130000Y-79115000D02*
X140130000Y-76940000D01*
X140130000Y-74860000D02*
X140130000Y-72685000D01*
X140090000Y-79111000D02*
X140090000Y-76940000D01*
X140090000Y-74860000D02*
X140090000Y-72689000D01*
X140050000Y-79106000D02*
X140050000Y-76940000D01*
X140050000Y-74860000D02*
X140050000Y-72694000D01*
X140010000Y-79101000D02*
X140010000Y-76940000D01*
X140010000Y-74860000D02*
X140010000Y-72699000D01*
X139970000Y-79095000D02*
X139970000Y-76940000D01*
X139970000Y-74860000D02*
X139970000Y-72705000D01*
X139930000Y-79089000D02*
X139930000Y-76940000D01*
X139930000Y-74860000D02*
X139930000Y-72711000D01*
X139890000Y-79082000D02*
X139890000Y-76940000D01*
X139890000Y-74860000D02*
X139890000Y-72718000D01*
X139850000Y-79075000D02*
X139850000Y-76940000D01*
X139850000Y-74860000D02*
X139850000Y-72725000D01*
X139810000Y-79067000D02*
X139810000Y-76940000D01*
X139810000Y-74860000D02*
X139810000Y-72733000D01*
X139770000Y-79059000D02*
X139770000Y-76940000D01*
X139770000Y-74860000D02*
X139770000Y-72741000D01*
X139729000Y-79050000D02*
X139729000Y-76940000D01*
X139729000Y-74860000D02*
X139729000Y-72750000D01*
X139689000Y-79041000D02*
X139689000Y-76940000D01*
X139689000Y-74860000D02*
X139689000Y-72759000D01*
X139649000Y-79031000D02*
X139649000Y-76940000D01*
X139649000Y-74860000D02*
X139649000Y-72769000D01*
X139609000Y-79021000D02*
X139609000Y-76940000D01*
X139609000Y-74860000D02*
X139609000Y-72779000D01*
X139569000Y-79010000D02*
X139569000Y-76940000D01*
X139569000Y-74860000D02*
X139569000Y-72790000D01*
X139529000Y-78998000D02*
X139529000Y-76940000D01*
X139529000Y-74860000D02*
X139529000Y-72802000D01*
X139489000Y-78986000D02*
X139489000Y-76940000D01*
X139489000Y-74860000D02*
X139489000Y-72814000D01*
X139449000Y-78974000D02*
X139449000Y-76940000D01*
X139449000Y-74860000D02*
X139449000Y-72826000D01*
X139409000Y-78961000D02*
X139409000Y-76940000D01*
X139409000Y-74860000D02*
X139409000Y-72839000D01*
X139369000Y-78947000D02*
X139369000Y-76940000D01*
X139369000Y-74860000D02*
X139369000Y-72853000D01*
X139329000Y-78933000D02*
X139329000Y-76940000D01*
X139329000Y-74860000D02*
X139329000Y-72867000D01*
X139289000Y-78918000D02*
X139289000Y-76940000D01*
X139289000Y-74860000D02*
X139289000Y-72882000D01*
X139249000Y-78902000D02*
X139249000Y-76940000D01*
X139249000Y-74860000D02*
X139249000Y-72898000D01*
X139209000Y-78886000D02*
X139209000Y-76940000D01*
X139209000Y-74860000D02*
X139209000Y-72914000D01*
X139169000Y-78870000D02*
X139169000Y-76940000D01*
X139169000Y-74860000D02*
X139169000Y-72930000D01*
X139129000Y-78852000D02*
X139129000Y-76940000D01*
X139129000Y-74860000D02*
X139129000Y-72948000D01*
X139089000Y-78834000D02*
X139089000Y-76940000D01*
X139089000Y-74860000D02*
X139089000Y-72966000D01*
X139049000Y-78816000D02*
X139049000Y-76940000D01*
X139049000Y-74860000D02*
X139049000Y-72984000D01*
X139009000Y-78796000D02*
X139009000Y-76940000D01*
X139009000Y-74860000D02*
X139009000Y-73004000D01*
X138969000Y-78776000D02*
X138969000Y-76940000D01*
X138969000Y-74860000D02*
X138969000Y-73024000D01*
X138929000Y-78756000D02*
X138929000Y-76940000D01*
X138929000Y-74860000D02*
X138929000Y-73044000D01*
X138889000Y-78734000D02*
X138889000Y-76940000D01*
X138889000Y-74860000D02*
X138889000Y-73066000D01*
X138849000Y-78712000D02*
X138849000Y-76940000D01*
X138849000Y-74860000D02*
X138849000Y-73088000D01*
X138809000Y-78690000D02*
X138809000Y-76940000D01*
X138809000Y-74860000D02*
X138809000Y-73110000D01*
X138769000Y-78666000D02*
X138769000Y-76940000D01*
X138769000Y-74860000D02*
X138769000Y-73134000D01*
X138729000Y-78642000D02*
X138729000Y-76940000D01*
X138729000Y-74860000D02*
X138729000Y-73158000D01*
X138689000Y-78616000D02*
X138689000Y-76940000D01*
X138689000Y-74860000D02*
X138689000Y-73184000D01*
X138649000Y-78590000D02*
X138649000Y-76940000D01*
X138649000Y-74860000D02*
X138649000Y-73210000D01*
X138609000Y-78564000D02*
X138609000Y-76940000D01*
X138609000Y-74860000D02*
X138609000Y-73236000D01*
X138569000Y-78536000D02*
X138569000Y-76940000D01*
X138569000Y-74860000D02*
X138569000Y-73264000D01*
X138529000Y-78507000D02*
X138529000Y-76940000D01*
X138529000Y-74860000D02*
X138529000Y-73293000D01*
X138489000Y-78478000D02*
X138489000Y-76940000D01*
X138489000Y-74860000D02*
X138489000Y-73322000D01*
X138449000Y-78448000D02*
X138449000Y-76940000D01*
X138449000Y-74860000D02*
X138449000Y-73352000D01*
X138409000Y-78416000D02*
X138409000Y-76940000D01*
X138409000Y-74860000D02*
X138409000Y-73384000D01*
X138369000Y-78384000D02*
X138369000Y-76940000D01*
X138369000Y-74860000D02*
X138369000Y-73416000D01*
X138329000Y-78350000D02*
X138329000Y-76940000D01*
X138329000Y-74860000D02*
X138329000Y-73450000D01*
X138289000Y-78316000D02*
X138289000Y-76940000D01*
X138289000Y-74860000D02*
X138289000Y-73484000D01*
X138249000Y-78280000D02*
X138249000Y-76940000D01*
X138249000Y-74860000D02*
X138249000Y-73520000D01*
X138209000Y-78243000D02*
X138209000Y-76940000D01*
X138209000Y-74860000D02*
X138209000Y-73557000D01*
X138169000Y-78205000D02*
X138169000Y-76940000D01*
X138169000Y-74860000D02*
X138169000Y-73595000D01*
X138129000Y-78165000D02*
X138129000Y-73635000D01*
X138089000Y-78124000D02*
X138089000Y-73676000D01*
X138049000Y-78082000D02*
X138049000Y-73718000D01*
X138009000Y-78037000D02*
X138009000Y-73763000D01*
X137969000Y-77992000D02*
X137969000Y-73808000D01*
X137929000Y-77944000D02*
X137929000Y-73856000D01*
X137889000Y-77895000D02*
X137889000Y-73905000D01*
X137849000Y-77844000D02*
X137849000Y-73956000D01*
X137809000Y-77790000D02*
X137809000Y-74010000D01*
X137769000Y-77734000D02*
X137769000Y-74066000D01*
X137729000Y-77676000D02*
X137729000Y-74124000D01*
X137689000Y-77614000D02*
X137689000Y-74186000D01*
X137649000Y-77550000D02*
X137649000Y-74250000D01*
X137609000Y-77481000D02*
X137609000Y-74319000D01*
X137569000Y-77409000D02*
X137569000Y-74391000D01*
X137529000Y-77332000D02*
X137529000Y-74468000D01*
X137489000Y-77250000D02*
X137489000Y-74550000D01*
X137449000Y-77162000D02*
X137449000Y-74638000D01*
X137409000Y-77065000D02*
X137409000Y-74735000D01*
X137369000Y-76959000D02*
X137369000Y-74841000D01*
X137329000Y-76840000D02*
X137329000Y-74960000D01*
X137289000Y-76702000D02*
X137289000Y-75098000D01*
X137249000Y-76533000D02*
X137249000Y-75267000D01*
X137209000Y-76302000D02*
X137209000Y-75498000D01*
X143950241Y-77739000D02*
X143320241Y-77739000D01*
X143635241Y-78054000D02*
X143635241Y-77424000D01*
X76870000Y-65670000D02*
X74130000Y-65670000D01*
X76870000Y-60430000D02*
X74130000Y-60430000D01*
X74130000Y-60430000D02*
X74130000Y-65670000D01*
X76870000Y-60430000D02*
X76870000Y-65670000D01*
X44270000Y-60430000D02*
X44270000Y-65670000D01*
X41530000Y-60430000D02*
X41530000Y-65670000D01*
X44270000Y-60430000D02*
X41530000Y-60430000D01*
X44270000Y-65670000D02*
X41530000Y-65670000D01*
X11770000Y-65670000D02*
X9030000Y-65670000D01*
X11770000Y-60430000D02*
X9030000Y-60430000D01*
X9030000Y-60430000D02*
X9030000Y-65670000D01*
X11770000Y-60430000D02*
X11770000Y-65670000D01*
X109370000Y-60330000D02*
X109370000Y-65570000D01*
X106630000Y-60330000D02*
X106630000Y-65570000D01*
X109370000Y-60330000D02*
X106630000Y-60330000D01*
X109370000Y-65570000D02*
X106630000Y-65570000D01*
X62870000Y-14330000D02*
X62870000Y-17070000D01*
X57630000Y-14330000D02*
X57630000Y-17070000D01*
X57630000Y-17070000D02*
X62870000Y-17070000D01*
X57630000Y-14330000D02*
X62870000Y-14330000D01*
X15770000Y-16130000D02*
X15770000Y-21370000D01*
X13030000Y-16130000D02*
X13030000Y-21370000D01*
X15770000Y-16130000D02*
X13030000Y-16130000D01*
X15770000Y-21370000D02*
X13030000Y-21370000D01*
X75670000Y-29470000D02*
X72930000Y-29470000D01*
X75670000Y-24230000D02*
X72930000Y-24230000D01*
X72930000Y-24230000D02*
X72930000Y-29470000D01*
X75670000Y-24230000D02*
X75670000Y-29470000D01*
X45470000Y-24230000D02*
X45470000Y-29470000D01*
X42730000Y-24230000D02*
X42730000Y-29470000D01*
X45470000Y-24230000D02*
X42730000Y-24230000D01*
X45470000Y-29470000D02*
X42730000Y-29470000D01*
X75370000Y-40830000D02*
X75370000Y-46070000D01*
X72630000Y-40830000D02*
X72630000Y-46070000D01*
X75370000Y-40830000D02*
X72630000Y-40830000D01*
X75370000Y-46070000D02*
X72630000Y-46070000D01*
X105770000Y-46070000D02*
X103030000Y-46070000D01*
X105770000Y-40830000D02*
X103030000Y-40830000D01*
X103030000Y-40830000D02*
X103030000Y-46070000D01*
X105770000Y-40830000D02*
X105770000Y-46070000D01*
X45070000Y-46070000D02*
X42330000Y-46070000D01*
X45070000Y-40830000D02*
X42330000Y-40830000D01*
X42330000Y-40830000D02*
X42330000Y-46070000D01*
X45070000Y-40830000D02*
X45070000Y-46070000D01*
X51270000Y-8520000D02*
X47230000Y-8520000D01*
X51270000Y-5680000D02*
X47230000Y-5680000D01*
X51270000Y-8520000D02*
X51270000Y-7895000D01*
X51270000Y-6305000D02*
X51270000Y-5680000D01*
X47230000Y-8520000D02*
X47230000Y-7895000D01*
X47230000Y-6305000D02*
X47230000Y-5680000D01*
X47230000Y-11205000D02*
X47230000Y-10580000D01*
X47230000Y-13420000D02*
X47230000Y-12795000D01*
X51270000Y-11205000D02*
X51270000Y-10580000D01*
X51270000Y-13420000D02*
X51270000Y-12795000D01*
X51270000Y-10580000D02*
X47230000Y-10580000D01*
X51270000Y-13420000D02*
X47230000Y-13420000D01*
X90810000Y-2855000D02*
X90810000Y-5945000D01*
X95870000Y-4400000D02*
G75*
G03*
X95870000Y-4400000I-2500000J0D01*
G01*
X96360000Y-4399538D02*
G75*
G02*
X90810000Y-5944830I-2990000J-462D01*
G01*
X96360000Y-4400462D02*
G75*
G03*
X90810000Y-2855170I-2990000J462D01*
G01*
X87330000Y-1870000D02*
X87330000Y-3200000D01*
X86000000Y-1870000D02*
X87330000Y-1870000D01*
X84730000Y-1870000D02*
X84730000Y-4530000D01*
X84730000Y-4530000D02*
X82130000Y-4530000D01*
X84730000Y-1870000D02*
X82130000Y-1870000D01*
X82130000Y-1870000D02*
X82130000Y-4530000D01*
X100100000Y-8780000D02*
X100100000Y-7830000D01*
X100100000Y-3040000D02*
X100100000Y-3990000D01*
X101020000Y-7830000D02*
X101020000Y-3990000D01*
X99180000Y-7830000D02*
X101020000Y-7830000D01*
X99180000Y-3990000D02*
X99180000Y-7830000D01*
X101020000Y-3990000D02*
X99180000Y-3990000D01*
X7490000Y-10380000D02*
X7490000Y-12220000D01*
X7490000Y-12220000D02*
X11330000Y-12220000D01*
X11330000Y-12220000D02*
X11330000Y-10380000D01*
X11330000Y-10380000D02*
X7490000Y-10380000D01*
X6540000Y-11300000D02*
X7490000Y-11300000D01*
X12280000Y-11300000D02*
X11330000Y-11300000D01*
X12280000Y-8800000D02*
X11330000Y-8800000D01*
X6540000Y-8800000D02*
X7490000Y-8800000D01*
X11330000Y-7880000D02*
X7490000Y-7880000D01*
X11330000Y-9720000D02*
X11330000Y-7880000D01*
X7490000Y-9720000D02*
X11330000Y-9720000D01*
X7490000Y-7880000D02*
X7490000Y-9720000D01*
X7490000Y-5280000D02*
X7490000Y-7120000D01*
X7490000Y-7120000D02*
X11330000Y-7120000D01*
X11330000Y-7120000D02*
X11330000Y-5280000D01*
X11330000Y-5280000D02*
X7490000Y-5280000D01*
X6540000Y-6200000D02*
X7490000Y-6200000D01*
X12280000Y-6200000D02*
X11330000Y-6200000D01*
X13560000Y-73800000D02*
X13560000Y-76600000D01*
X13560000Y-76600000D02*
X36760000Y-76600000D01*
X36760000Y-76600000D02*
X36760000Y-73800000D01*
X36760000Y-73800000D02*
X13560000Y-73800000D01*
X16270000Y-73800000D02*
X16270000Y-76600000D01*
X78710000Y-60450000D02*
X78710000Y-70730000D01*
X104350000Y-60450000D02*
X78710000Y-60450000D01*
X104350000Y-70730000D02*
X104350000Y-60450000D01*
X78710000Y-70730000D02*
X104350000Y-70730000D01*
X78770000Y-62940000D02*
X78770000Y-64590000D01*
X104290000Y-62940000D02*
X78770000Y-62940000D01*
X104290000Y-68240000D02*
X104290000Y-62940000D01*
X78770000Y-68240000D02*
X104290000Y-68240000D01*
X78770000Y-66590000D02*
X78770000Y-68240000D01*
X78770000Y-64590000D02*
G75*
G02*
X78770000Y-66590000I0J-1000000D01*
G01*
X46270000Y-66590000D02*
X46270000Y-68240000D01*
X46270000Y-68240000D02*
X71790000Y-68240000D01*
X71790000Y-68240000D02*
X71790000Y-62940000D01*
X71790000Y-62940000D02*
X46270000Y-62940000D01*
X46270000Y-62940000D02*
X46270000Y-64590000D01*
X46210000Y-70730000D02*
X71850000Y-70730000D01*
X71850000Y-70730000D02*
X71850000Y-60450000D01*
X71850000Y-60450000D02*
X46210000Y-60450000D01*
X46210000Y-60450000D02*
X46210000Y-70730000D01*
X46270000Y-64590000D02*
G75*
G02*
X46270000Y-66590000I0J-1000000D01*
G01*
X13770000Y-66590000D02*
X13770000Y-68240000D01*
X13770000Y-68240000D02*
X39290000Y-68240000D01*
X39290000Y-68240000D02*
X39290000Y-62940000D01*
X39290000Y-62940000D02*
X13770000Y-62940000D01*
X13770000Y-62940000D02*
X13770000Y-64590000D01*
X13710000Y-70730000D02*
X39350000Y-70730000D01*
X39350000Y-70730000D02*
X39350000Y-60450000D01*
X39350000Y-60450000D02*
X13710000Y-60450000D01*
X13710000Y-60450000D02*
X13710000Y-70730000D01*
X13770000Y-64590000D02*
G75*
G02*
X13770000Y-66590000I0J-1000000D01*
G01*
X111270000Y-66590000D02*
X111270000Y-68240000D01*
X111270000Y-68240000D02*
X131710000Y-68240000D01*
X131710000Y-68240000D02*
X131710000Y-62940000D01*
X131710000Y-62940000D02*
X111270000Y-62940000D01*
X111270000Y-62940000D02*
X111270000Y-64590000D01*
X111210000Y-70730000D02*
X131770000Y-70730000D01*
X131770000Y-70730000D02*
X131770000Y-60450000D01*
X131770000Y-60450000D02*
X111210000Y-60450000D01*
X111210000Y-60450000D02*
X111210000Y-70730000D01*
X111270000Y-64590000D02*
G75*
G02*
X111270000Y-66590000I0J-1000000D01*
G01*
X55110000Y-3050000D02*
X55110000Y-13330000D01*
X65510000Y-3050000D02*
X55110000Y-3050000D01*
X65510000Y-13330000D02*
X65510000Y-3050000D01*
X55110000Y-13330000D02*
X65510000Y-13330000D01*
X55170000Y-5540000D02*
X55170000Y-7190000D01*
X65450000Y-5540000D02*
X55170000Y-5540000D01*
X65450000Y-10840000D02*
X65450000Y-5540000D01*
X55170000Y-10840000D02*
X65450000Y-10840000D01*
X55170000Y-9190000D02*
X55170000Y-10840000D01*
X55170000Y-7190000D02*
G75*
G02*
X55170000Y-9190000I0J-1000000D01*
G01*
X36470000Y-3410000D02*
X18570000Y-3410000D01*
X36470000Y-54450000D02*
X36470000Y-3410000D01*
X18570000Y-54450000D02*
X36470000Y-54450000D01*
X18570000Y-3410000D02*
X18570000Y-54450000D01*
X33980000Y-3470000D02*
X28520000Y-3470000D01*
X33980000Y-54390000D02*
X33980000Y-3470000D01*
X21060000Y-54390000D02*
X33980000Y-54390000D01*
X21060000Y-3470000D02*
X21060000Y-54390000D01*
X26520000Y-3470000D02*
X21060000Y-3470000D01*
X28520000Y-3470000D02*
G75*
G02*
X26520000Y-3470000I-1000000J0D01*
G01*
X77770000Y-30490000D02*
X77770000Y-32140000D01*
X77770000Y-32140000D02*
X95670000Y-32140000D01*
X95670000Y-32140000D02*
X95670000Y-26840000D01*
X95670000Y-26840000D02*
X77770000Y-26840000D01*
X77770000Y-26840000D02*
X77770000Y-28490000D01*
X77710000Y-34630000D02*
X95730000Y-34630000D01*
X95730000Y-34630000D02*
X95730000Y-24350000D01*
X95730000Y-24350000D02*
X77710000Y-24350000D01*
X77710000Y-24350000D02*
X77710000Y-34630000D01*
X77770000Y-28490000D02*
G75*
G02*
X77770000Y-30490000I0J-1000000D01*
G01*
X77510000Y-40950000D02*
X77510000Y-51230000D01*
X98070000Y-40950000D02*
X77510000Y-40950000D01*
X98070000Y-51230000D02*
X98070000Y-40950000D01*
X77510000Y-51230000D02*
X98070000Y-51230000D01*
X77570000Y-43440000D02*
X77570000Y-45090000D01*
X98010000Y-43440000D02*
X77570000Y-43440000D01*
X98010000Y-48740000D02*
X98010000Y-43440000D01*
X77570000Y-48740000D02*
X98010000Y-48740000D01*
X77570000Y-47090000D02*
X77570000Y-48740000D01*
X77570000Y-45090000D02*
G75*
G02*
X77570000Y-47090000I0J-1000000D01*
G01*
X107810000Y-40950000D02*
X107810000Y-51230000D01*
X128370000Y-40950000D02*
X107810000Y-40950000D01*
X128370000Y-51230000D02*
X128370000Y-40950000D01*
X107810000Y-51230000D02*
X128370000Y-51230000D01*
X107870000Y-43440000D02*
X107870000Y-45090000D01*
X128310000Y-43440000D02*
X107870000Y-43440000D01*
X128310000Y-48740000D02*
X128310000Y-43440000D01*
X107870000Y-48740000D02*
X128310000Y-48740000D01*
X107870000Y-47090000D02*
X107870000Y-48740000D01*
X107870000Y-45090000D02*
G75*
G02*
X107870000Y-47090000I0J-1000000D01*
G01*
X47270000Y-47090000D02*
X47270000Y-48740000D01*
X47270000Y-48740000D02*
X67710000Y-48740000D01*
X67710000Y-48740000D02*
X67710000Y-43440000D01*
X67710000Y-43440000D02*
X47270000Y-43440000D01*
X47270000Y-43440000D02*
X47270000Y-45090000D01*
X47210000Y-51230000D02*
X67770000Y-51230000D01*
X67770000Y-51230000D02*
X67770000Y-40950000D01*
X67770000Y-40950000D02*
X47210000Y-40950000D01*
X47210000Y-40950000D02*
X47210000Y-51230000D01*
X47270000Y-45090000D02*
G75*
G02*
X47270000Y-47090000I0J-1000000D01*
G01*
X44325000Y-6425000D02*
X44325000Y-12675000D01*
X39275000Y-6425000D02*
X39275000Y-12675000D01*
X39275000Y-6425000D02*
G75*
G02*
X44325000Y-6425000I2525000J0D01*
G01*
X39275000Y-12675000D02*
G75*
G03*
X44325000Y-12675000I2525000J0D01*
G01*
D16*
X22592380Y-83015714D02*
X23306666Y-83015714D01*
X23449523Y-83063333D01*
X23544761Y-83158571D01*
X23592380Y-83301428D01*
X23592380Y-83396666D01*
X22592380Y-82349047D02*
X22592380Y-82253809D01*
X22640000Y-82158571D01*
X22687619Y-82110952D01*
X22782857Y-82063333D01*
X22973333Y-82015714D01*
X23211428Y-82015714D01*
X23401904Y-82063333D01*
X23497142Y-82110952D01*
X23544761Y-82158571D01*
X23592380Y-82253809D01*
X23592380Y-82349047D01*
X23544761Y-82444285D01*
X23497142Y-82491904D01*
X23401904Y-82539523D01*
X23211428Y-82587142D01*
X22973333Y-82587142D01*
X22782857Y-82539523D01*
X22687619Y-82491904D01*
X22640000Y-82444285D01*
X22592380Y-82349047D01*
X22592380Y-81396666D02*
X22592380Y-81301428D01*
X22640000Y-81206190D01*
X22687619Y-81158571D01*
X22782857Y-81110952D01*
X22973333Y-81063333D01*
X23211428Y-81063333D01*
X23401904Y-81110952D01*
X23497142Y-81158571D01*
X23544761Y-81206190D01*
X23592380Y-81301428D01*
X23592380Y-81396666D01*
X23544761Y-81491904D01*
X23497142Y-81539523D01*
X23401904Y-81587142D01*
X23211428Y-81634761D01*
X22973333Y-81634761D01*
X22782857Y-81587142D01*
X22687619Y-81539523D01*
X22640000Y-81491904D01*
X22592380Y-81396666D01*
X23592380Y-80110952D02*
X23592380Y-80682380D01*
X23592380Y-80396666D02*
X22592380Y-80396666D01*
X22735238Y-80491904D01*
X22830476Y-80587142D01*
X22878095Y-80682380D01*
X72185714Y-8604761D02*
X72328571Y-8652380D01*
X72566666Y-8652380D01*
X72661904Y-8604761D01*
X72709523Y-8557142D01*
X72757142Y-8461904D01*
X72757142Y-8366666D01*
X72709523Y-8271428D01*
X72661904Y-8223809D01*
X72566666Y-8176190D01*
X72376190Y-8128571D01*
X72280952Y-8080952D01*
X72233333Y-8033333D01*
X72185714Y-7938095D01*
X72185714Y-7842857D01*
X72233333Y-7747619D01*
X72280952Y-7700000D01*
X72376190Y-7652380D01*
X72614285Y-7652380D01*
X72757142Y-7700000D01*
X73709523Y-8652380D02*
X73138095Y-8652380D01*
X73423809Y-8652380D02*
X73423809Y-7652380D01*
X73328571Y-7795238D01*
X73233333Y-7890476D01*
X73138095Y-7938095D01*
X74328571Y-7652380D02*
X74423809Y-7652380D01*
X74519047Y-7700000D01*
X74566666Y-7747619D01*
X74614285Y-7842857D01*
X74661904Y-8033333D01*
X74661904Y-8271428D01*
X74614285Y-8461904D01*
X74566666Y-8557142D01*
X74519047Y-8604761D01*
X74423809Y-8652380D01*
X74328571Y-8652380D01*
X74233333Y-8604761D01*
X74185714Y-8557142D01*
X74138095Y-8461904D01*
X74090476Y-8271428D01*
X74090476Y-8033333D01*
X74138095Y-7842857D01*
X74185714Y-7747619D01*
X74233333Y-7700000D01*
X74328571Y-7652380D01*
X75280952Y-7652380D02*
X75376190Y-7652380D01*
X75471428Y-7700000D01*
X75519047Y-7747619D01*
X75566666Y-7842857D01*
X75614285Y-8033333D01*
X75614285Y-8271428D01*
X75566666Y-8461904D01*
X75519047Y-8557142D01*
X75471428Y-8604761D01*
X75376190Y-8652380D01*
X75280952Y-8652380D01*
X75185714Y-8604761D01*
X75138095Y-8557142D01*
X75090476Y-8461904D01*
X75042857Y-8271428D01*
X75042857Y-8033333D01*
X75090476Y-7842857D01*
X75138095Y-7747619D01*
X75185714Y-7700000D01*
X75280952Y-7652380D01*
X46022380Y-31204285D02*
X46831904Y-31204285D01*
X46927142Y-31156666D01*
X46974761Y-31109047D01*
X47022380Y-31013809D01*
X47022380Y-30823333D01*
X46974761Y-30728095D01*
X46927142Y-30680476D01*
X46831904Y-30632857D01*
X46022380Y-30632857D01*
X47022380Y-29632857D02*
X47022380Y-30204285D01*
X47022380Y-29918571D02*
X46022380Y-29918571D01*
X46165238Y-30013809D01*
X46260476Y-30109047D01*
X46308095Y-30204285D01*
X46022380Y-29013809D02*
X46022380Y-28918571D01*
X46070000Y-28823333D01*
X46117619Y-28775714D01*
X46212857Y-28728095D01*
X46403333Y-28680476D01*
X46641428Y-28680476D01*
X46831904Y-28728095D01*
X46927142Y-28775714D01*
X46974761Y-28823333D01*
X47022380Y-28918571D01*
X47022380Y-29013809D01*
X46974761Y-29109047D01*
X46927142Y-29156666D01*
X46831904Y-29204285D01*
X46641428Y-29251904D01*
X46403333Y-29251904D01*
X46212857Y-29204285D01*
X46117619Y-29156666D01*
X46070000Y-29109047D01*
X46022380Y-29013809D01*
X46450952Y-28109047D02*
X46403333Y-28204285D01*
X46355714Y-28251904D01*
X46260476Y-28299523D01*
X46212857Y-28299523D01*
X46117619Y-28251904D01*
X46070000Y-28204285D01*
X46022380Y-28109047D01*
X46022380Y-27918571D01*
X46070000Y-27823333D01*
X46117619Y-27775714D01*
X46212857Y-27728095D01*
X46260476Y-27728095D01*
X46355714Y-27775714D01*
X46403333Y-27823333D01*
X46450952Y-27918571D01*
X46450952Y-28109047D01*
X46498571Y-28204285D01*
X46546190Y-28251904D01*
X46641428Y-28299523D01*
X46831904Y-28299523D01*
X46927142Y-28251904D01*
X46974761Y-28204285D01*
X47022380Y-28109047D01*
X47022380Y-27918571D01*
X46974761Y-27823333D01*
X46927142Y-27775714D01*
X46831904Y-27728095D01*
X46641428Y-27728095D01*
X46546190Y-27775714D01*
X46498571Y-27823333D01*
X46450952Y-27918571D01*
X136457142Y-77019047D02*
X136504761Y-77066666D01*
X136552380Y-77209523D01*
X136552380Y-77304761D01*
X136504761Y-77447619D01*
X136409523Y-77542857D01*
X136314285Y-77590476D01*
X136123809Y-77638095D01*
X135980952Y-77638095D01*
X135790476Y-77590476D01*
X135695238Y-77542857D01*
X135600000Y-77447619D01*
X135552380Y-77304761D01*
X135552380Y-77209523D01*
X135600000Y-77066666D01*
X135647619Y-77019047D01*
X135552380Y-76400000D02*
X135552380Y-76304761D01*
X135600000Y-76209523D01*
X135647619Y-76161904D01*
X135742857Y-76114285D01*
X135933333Y-76066666D01*
X136171428Y-76066666D01*
X136361904Y-76114285D01*
X136457142Y-76161904D01*
X136504761Y-76209523D01*
X136552380Y-76304761D01*
X136552380Y-76400000D01*
X136504761Y-76495238D01*
X136457142Y-76542857D01*
X136361904Y-76590476D01*
X136171428Y-76638095D01*
X135933333Y-76638095D01*
X135742857Y-76590476D01*
X135647619Y-76542857D01*
X135600000Y-76495238D01*
X135552380Y-76400000D01*
X135552380Y-75447619D02*
X135552380Y-75352380D01*
X135600000Y-75257142D01*
X135647619Y-75209523D01*
X135742857Y-75161904D01*
X135933333Y-75114285D01*
X136171428Y-75114285D01*
X136361904Y-75161904D01*
X136457142Y-75209523D01*
X136504761Y-75257142D01*
X136552380Y-75352380D01*
X136552380Y-75447619D01*
X136504761Y-75542857D01*
X136457142Y-75590476D01*
X136361904Y-75638095D01*
X136171428Y-75685714D01*
X135933333Y-75685714D01*
X135742857Y-75638095D01*
X135647619Y-75590476D01*
X135600000Y-75542857D01*
X135552380Y-75447619D01*
X136552380Y-74161904D02*
X136552380Y-74733333D01*
X136552380Y-74447619D02*
X135552380Y-74447619D01*
X135695238Y-74542857D01*
X135790476Y-74638095D01*
X135838095Y-74733333D01*
X75257142Y-59319047D02*
X75304761Y-59366666D01*
X75352380Y-59509523D01*
X75352380Y-59604761D01*
X75304761Y-59747619D01*
X75209523Y-59842857D01*
X75114285Y-59890476D01*
X74923809Y-59938095D01*
X74780952Y-59938095D01*
X74590476Y-59890476D01*
X74495238Y-59842857D01*
X74400000Y-59747619D01*
X74352380Y-59604761D01*
X74352380Y-59509523D01*
X74400000Y-59366666D01*
X74447619Y-59319047D01*
X75352380Y-58366666D02*
X75352380Y-58938095D01*
X75352380Y-58652380D02*
X74352380Y-58652380D01*
X74495238Y-58747619D01*
X74590476Y-58842857D01*
X74638095Y-58938095D01*
X74352380Y-57747619D02*
X74352380Y-57652380D01*
X74400000Y-57557142D01*
X74447619Y-57509523D01*
X74542857Y-57461904D01*
X74733333Y-57414285D01*
X74971428Y-57414285D01*
X75161904Y-57461904D01*
X75257142Y-57509523D01*
X75304761Y-57557142D01*
X75352380Y-57652380D01*
X75352380Y-57747619D01*
X75304761Y-57842857D01*
X75257142Y-57890476D01*
X75161904Y-57938095D01*
X74971428Y-57985714D01*
X74733333Y-57985714D01*
X74542857Y-57938095D01*
X74447619Y-57890476D01*
X74400000Y-57842857D01*
X74352380Y-57747619D01*
X75352380Y-56461904D02*
X75352380Y-57033333D01*
X75352380Y-56747619D02*
X74352380Y-56747619D01*
X74495238Y-56842857D01*
X74590476Y-56938095D01*
X74638095Y-57033333D01*
X42557142Y-59319047D02*
X42604761Y-59366666D01*
X42652380Y-59509523D01*
X42652380Y-59604761D01*
X42604761Y-59747619D01*
X42509523Y-59842857D01*
X42414285Y-59890476D01*
X42223809Y-59938095D01*
X42080952Y-59938095D01*
X41890476Y-59890476D01*
X41795238Y-59842857D01*
X41700000Y-59747619D01*
X41652380Y-59604761D01*
X41652380Y-59509523D01*
X41700000Y-59366666D01*
X41747619Y-59319047D01*
X42652380Y-58366666D02*
X42652380Y-58938095D01*
X42652380Y-58652380D02*
X41652380Y-58652380D01*
X41795238Y-58747619D01*
X41890476Y-58842857D01*
X41938095Y-58938095D01*
X41652380Y-57747619D02*
X41652380Y-57652380D01*
X41700000Y-57557142D01*
X41747619Y-57509523D01*
X41842857Y-57461904D01*
X42033333Y-57414285D01*
X42271428Y-57414285D01*
X42461904Y-57461904D01*
X42557142Y-57509523D01*
X42604761Y-57557142D01*
X42652380Y-57652380D01*
X42652380Y-57747619D01*
X42604761Y-57842857D01*
X42557142Y-57890476D01*
X42461904Y-57938095D01*
X42271428Y-57985714D01*
X42033333Y-57985714D01*
X41842857Y-57938095D01*
X41747619Y-57890476D01*
X41700000Y-57842857D01*
X41652380Y-57747619D01*
X41747619Y-57033333D02*
X41700000Y-56985714D01*
X41652380Y-56890476D01*
X41652380Y-56652380D01*
X41700000Y-56557142D01*
X41747619Y-56509523D01*
X41842857Y-56461904D01*
X41938095Y-56461904D01*
X42080952Y-56509523D01*
X42652380Y-57080952D01*
X42652380Y-56461904D01*
X10057142Y-59319047D02*
X10104761Y-59366666D01*
X10152380Y-59509523D01*
X10152380Y-59604761D01*
X10104761Y-59747619D01*
X10009523Y-59842857D01*
X9914285Y-59890476D01*
X9723809Y-59938095D01*
X9580952Y-59938095D01*
X9390476Y-59890476D01*
X9295238Y-59842857D01*
X9200000Y-59747619D01*
X9152380Y-59604761D01*
X9152380Y-59509523D01*
X9200000Y-59366666D01*
X9247619Y-59319047D01*
X10152380Y-58366666D02*
X10152380Y-58938095D01*
X10152380Y-58652380D02*
X9152380Y-58652380D01*
X9295238Y-58747619D01*
X9390476Y-58842857D01*
X9438095Y-58938095D01*
X9152380Y-57747619D02*
X9152380Y-57652380D01*
X9200000Y-57557142D01*
X9247619Y-57509523D01*
X9342857Y-57461904D01*
X9533333Y-57414285D01*
X9771428Y-57414285D01*
X9961904Y-57461904D01*
X10057142Y-57509523D01*
X10104761Y-57557142D01*
X10152380Y-57652380D01*
X10152380Y-57747619D01*
X10104761Y-57842857D01*
X10057142Y-57890476D01*
X9961904Y-57938095D01*
X9771428Y-57985714D01*
X9533333Y-57985714D01*
X9342857Y-57938095D01*
X9247619Y-57890476D01*
X9200000Y-57842857D01*
X9152380Y-57747619D01*
X9152380Y-57080952D02*
X9152380Y-56461904D01*
X9533333Y-56795238D01*
X9533333Y-56652380D01*
X9580952Y-56557142D01*
X9628571Y-56509523D01*
X9723809Y-56461904D01*
X9961904Y-56461904D01*
X10057142Y-56509523D01*
X10104761Y-56557142D01*
X10152380Y-56652380D01*
X10152380Y-56938095D01*
X10104761Y-57033333D01*
X10057142Y-57080952D01*
X107657142Y-59219047D02*
X107704761Y-59266666D01*
X107752380Y-59409523D01*
X107752380Y-59504761D01*
X107704761Y-59647619D01*
X107609523Y-59742857D01*
X107514285Y-59790476D01*
X107323809Y-59838095D01*
X107180952Y-59838095D01*
X106990476Y-59790476D01*
X106895238Y-59742857D01*
X106800000Y-59647619D01*
X106752380Y-59504761D01*
X106752380Y-59409523D01*
X106800000Y-59266666D01*
X106847619Y-59219047D01*
X107752380Y-58266666D02*
X107752380Y-58838095D01*
X107752380Y-58552380D02*
X106752380Y-58552380D01*
X106895238Y-58647619D01*
X106990476Y-58742857D01*
X107038095Y-58838095D01*
X106752380Y-57647619D02*
X106752380Y-57552380D01*
X106800000Y-57457142D01*
X106847619Y-57409523D01*
X106942857Y-57361904D01*
X107133333Y-57314285D01*
X107371428Y-57314285D01*
X107561904Y-57361904D01*
X107657142Y-57409523D01*
X107704761Y-57457142D01*
X107752380Y-57552380D01*
X107752380Y-57647619D01*
X107704761Y-57742857D01*
X107657142Y-57790476D01*
X107561904Y-57838095D01*
X107371428Y-57885714D01*
X107133333Y-57885714D01*
X106942857Y-57838095D01*
X106847619Y-57790476D01*
X106800000Y-57742857D01*
X106752380Y-57647619D01*
X107085714Y-56457142D02*
X107752380Y-56457142D01*
X106704761Y-56695238D02*
X107419047Y-56933333D01*
X107419047Y-56314285D01*
X64180952Y-16157142D02*
X64133333Y-16204761D01*
X63990476Y-16252380D01*
X63895238Y-16252380D01*
X63752380Y-16204761D01*
X63657142Y-16109523D01*
X63609523Y-16014285D01*
X63561904Y-15823809D01*
X63561904Y-15680952D01*
X63609523Y-15490476D01*
X63657142Y-15395238D01*
X63752380Y-15300000D01*
X63895238Y-15252380D01*
X63990476Y-15252380D01*
X64133333Y-15300000D01*
X64180952Y-15347619D01*
X65133333Y-16252380D02*
X64561904Y-16252380D01*
X64847619Y-16252380D02*
X64847619Y-15252380D01*
X64752380Y-15395238D01*
X64657142Y-15490476D01*
X64561904Y-15538095D01*
X65752380Y-15252380D02*
X65847619Y-15252380D01*
X65942857Y-15300000D01*
X65990476Y-15347619D01*
X66038095Y-15442857D01*
X66085714Y-15633333D01*
X66085714Y-15871428D01*
X66038095Y-16061904D01*
X65990476Y-16157142D01*
X65942857Y-16204761D01*
X65847619Y-16252380D01*
X65752380Y-16252380D01*
X65657142Y-16204761D01*
X65609523Y-16157142D01*
X65561904Y-16061904D01*
X65514285Y-15871428D01*
X65514285Y-15633333D01*
X65561904Y-15442857D01*
X65609523Y-15347619D01*
X65657142Y-15300000D01*
X65752380Y-15252380D01*
X66990476Y-15252380D02*
X66514285Y-15252380D01*
X66466666Y-15728571D01*
X66514285Y-15680952D01*
X66609523Y-15633333D01*
X66847619Y-15633333D01*
X66942857Y-15680952D01*
X66990476Y-15728571D01*
X67038095Y-15823809D01*
X67038095Y-16061904D01*
X66990476Y-16157142D01*
X66942857Y-16204761D01*
X66847619Y-16252380D01*
X66609523Y-16252380D01*
X66514285Y-16204761D01*
X66466666Y-16157142D01*
X17257142Y-19869047D02*
X17304761Y-19916666D01*
X17352380Y-20059523D01*
X17352380Y-20154761D01*
X17304761Y-20297619D01*
X17209523Y-20392857D01*
X17114285Y-20440476D01*
X16923809Y-20488095D01*
X16780952Y-20488095D01*
X16590476Y-20440476D01*
X16495238Y-20392857D01*
X16400000Y-20297619D01*
X16352380Y-20154761D01*
X16352380Y-20059523D01*
X16400000Y-19916666D01*
X16447619Y-19869047D01*
X17352380Y-18916666D02*
X17352380Y-19488095D01*
X17352380Y-19202380D02*
X16352380Y-19202380D01*
X16495238Y-19297619D01*
X16590476Y-19392857D01*
X16638095Y-19488095D01*
X16352380Y-18297619D02*
X16352380Y-18202380D01*
X16400000Y-18107142D01*
X16447619Y-18059523D01*
X16542857Y-18011904D01*
X16733333Y-17964285D01*
X16971428Y-17964285D01*
X17161904Y-18011904D01*
X17257142Y-18059523D01*
X17304761Y-18107142D01*
X17352380Y-18202380D01*
X17352380Y-18297619D01*
X17304761Y-18392857D01*
X17257142Y-18440476D01*
X17161904Y-18488095D01*
X16971428Y-18535714D01*
X16733333Y-18535714D01*
X16542857Y-18488095D01*
X16447619Y-18440476D01*
X16400000Y-18392857D01*
X16352380Y-18297619D01*
X16352380Y-17107142D02*
X16352380Y-17297619D01*
X16400000Y-17392857D01*
X16447619Y-17440476D01*
X16590476Y-17535714D01*
X16780952Y-17583333D01*
X17161904Y-17583333D01*
X17257142Y-17535714D01*
X17304761Y-17488095D01*
X17352380Y-17392857D01*
X17352380Y-17202380D01*
X17304761Y-17107142D01*
X17257142Y-17059523D01*
X17161904Y-17011904D01*
X16923809Y-17011904D01*
X16828571Y-17059523D01*
X16780952Y-17107142D01*
X16733333Y-17202380D01*
X16733333Y-17392857D01*
X16780952Y-17488095D01*
X16828571Y-17535714D01*
X16923809Y-17583333D01*
X73857142Y-23219047D02*
X73904761Y-23266666D01*
X73952380Y-23409523D01*
X73952380Y-23504761D01*
X73904761Y-23647619D01*
X73809523Y-23742857D01*
X73714285Y-23790476D01*
X73523809Y-23838095D01*
X73380952Y-23838095D01*
X73190476Y-23790476D01*
X73095238Y-23742857D01*
X73000000Y-23647619D01*
X72952380Y-23504761D01*
X72952380Y-23409523D01*
X73000000Y-23266666D01*
X73047619Y-23219047D01*
X73952380Y-22266666D02*
X73952380Y-22838095D01*
X73952380Y-22552380D02*
X72952380Y-22552380D01*
X73095238Y-22647619D01*
X73190476Y-22742857D01*
X73238095Y-22838095D01*
X72952380Y-21647619D02*
X72952380Y-21552380D01*
X73000000Y-21457142D01*
X73047619Y-21409523D01*
X73142857Y-21361904D01*
X73333333Y-21314285D01*
X73571428Y-21314285D01*
X73761904Y-21361904D01*
X73857142Y-21409523D01*
X73904761Y-21457142D01*
X73952380Y-21552380D01*
X73952380Y-21647619D01*
X73904761Y-21742857D01*
X73857142Y-21790476D01*
X73761904Y-21838095D01*
X73571428Y-21885714D01*
X73333333Y-21885714D01*
X73142857Y-21838095D01*
X73047619Y-21790476D01*
X73000000Y-21742857D01*
X72952380Y-21647619D01*
X72952380Y-20980952D02*
X72952380Y-20314285D01*
X73952380Y-20742857D01*
X43757142Y-23119047D02*
X43804761Y-23166666D01*
X43852380Y-23309523D01*
X43852380Y-23404761D01*
X43804761Y-23547619D01*
X43709523Y-23642857D01*
X43614285Y-23690476D01*
X43423809Y-23738095D01*
X43280952Y-23738095D01*
X43090476Y-23690476D01*
X42995238Y-23642857D01*
X42900000Y-23547619D01*
X42852380Y-23404761D01*
X42852380Y-23309523D01*
X42900000Y-23166666D01*
X42947619Y-23119047D01*
X43852380Y-22166666D02*
X43852380Y-22738095D01*
X43852380Y-22452380D02*
X42852380Y-22452380D01*
X42995238Y-22547619D01*
X43090476Y-22642857D01*
X43138095Y-22738095D01*
X42852380Y-21547619D02*
X42852380Y-21452380D01*
X42900000Y-21357142D01*
X42947619Y-21309523D01*
X43042857Y-21261904D01*
X43233333Y-21214285D01*
X43471428Y-21214285D01*
X43661904Y-21261904D01*
X43757142Y-21309523D01*
X43804761Y-21357142D01*
X43852380Y-21452380D01*
X43852380Y-21547619D01*
X43804761Y-21642857D01*
X43757142Y-21690476D01*
X43661904Y-21738095D01*
X43471428Y-21785714D01*
X43233333Y-21785714D01*
X43042857Y-21738095D01*
X42947619Y-21690476D01*
X42900000Y-21642857D01*
X42852380Y-21547619D01*
X43280952Y-20642857D02*
X43233333Y-20738095D01*
X43185714Y-20785714D01*
X43090476Y-20833333D01*
X43042857Y-20833333D01*
X42947619Y-20785714D01*
X42900000Y-20738095D01*
X42852380Y-20642857D01*
X42852380Y-20452380D01*
X42900000Y-20357142D01*
X42947619Y-20309523D01*
X43042857Y-20261904D01*
X43090476Y-20261904D01*
X43185714Y-20309523D01*
X43233333Y-20357142D01*
X43280952Y-20452380D01*
X43280952Y-20642857D01*
X43328571Y-20738095D01*
X43376190Y-20785714D01*
X43471428Y-20833333D01*
X43661904Y-20833333D01*
X43757142Y-20785714D01*
X43804761Y-20738095D01*
X43852380Y-20642857D01*
X43852380Y-20452380D01*
X43804761Y-20357142D01*
X43757142Y-20309523D01*
X43661904Y-20261904D01*
X43471428Y-20261904D01*
X43376190Y-20309523D01*
X43328571Y-20357142D01*
X43280952Y-20452380D01*
X73657142Y-39819047D02*
X73704761Y-39866666D01*
X73752380Y-40009523D01*
X73752380Y-40104761D01*
X73704761Y-40247619D01*
X73609523Y-40342857D01*
X73514285Y-40390476D01*
X73323809Y-40438095D01*
X73180952Y-40438095D01*
X72990476Y-40390476D01*
X72895238Y-40342857D01*
X72800000Y-40247619D01*
X72752380Y-40104761D01*
X72752380Y-40009523D01*
X72800000Y-39866666D01*
X72847619Y-39819047D01*
X73752380Y-38866666D02*
X73752380Y-39438095D01*
X73752380Y-39152380D02*
X72752380Y-39152380D01*
X72895238Y-39247619D01*
X72990476Y-39342857D01*
X73038095Y-39438095D01*
X72752380Y-38247619D02*
X72752380Y-38152380D01*
X72800000Y-38057142D01*
X72847619Y-38009523D01*
X72942857Y-37961904D01*
X73133333Y-37914285D01*
X73371428Y-37914285D01*
X73561904Y-37961904D01*
X73657142Y-38009523D01*
X73704761Y-38057142D01*
X73752380Y-38152380D01*
X73752380Y-38247619D01*
X73704761Y-38342857D01*
X73657142Y-38390476D01*
X73561904Y-38438095D01*
X73371428Y-38485714D01*
X73133333Y-38485714D01*
X72942857Y-38438095D01*
X72847619Y-38390476D01*
X72800000Y-38342857D01*
X72752380Y-38247619D01*
X73752380Y-37438095D02*
X73752380Y-37247619D01*
X73704761Y-37152380D01*
X73657142Y-37104761D01*
X73514285Y-37009523D01*
X73323809Y-36961904D01*
X72942857Y-36961904D01*
X72847619Y-37009523D01*
X72800000Y-37057142D01*
X72752380Y-37152380D01*
X72752380Y-37342857D01*
X72800000Y-37438095D01*
X72847619Y-37485714D01*
X72942857Y-37533333D01*
X73180952Y-37533333D01*
X73276190Y-37485714D01*
X73323809Y-37438095D01*
X73371428Y-37342857D01*
X73371428Y-37152380D01*
X73323809Y-37057142D01*
X73276190Y-37009523D01*
X73180952Y-36961904D01*
X104057142Y-39819047D02*
X104104761Y-39866666D01*
X104152380Y-40009523D01*
X104152380Y-40104761D01*
X104104761Y-40247619D01*
X104009523Y-40342857D01*
X103914285Y-40390476D01*
X103723809Y-40438095D01*
X103580952Y-40438095D01*
X103390476Y-40390476D01*
X103295238Y-40342857D01*
X103200000Y-40247619D01*
X103152380Y-40104761D01*
X103152380Y-40009523D01*
X103200000Y-39866666D01*
X103247619Y-39819047D01*
X104152380Y-38866666D02*
X104152380Y-39438095D01*
X104152380Y-39152380D02*
X103152380Y-39152380D01*
X103295238Y-39247619D01*
X103390476Y-39342857D01*
X103438095Y-39438095D01*
X104152380Y-37914285D02*
X104152380Y-38485714D01*
X104152380Y-38200000D02*
X103152380Y-38200000D01*
X103295238Y-38295238D01*
X103390476Y-38390476D01*
X103438095Y-38485714D01*
X103152380Y-37295238D02*
X103152380Y-37200000D01*
X103200000Y-37104761D01*
X103247619Y-37057142D01*
X103342857Y-37009523D01*
X103533333Y-36961904D01*
X103771428Y-36961904D01*
X103961904Y-37009523D01*
X104057142Y-37057142D01*
X104104761Y-37104761D01*
X104152380Y-37200000D01*
X104152380Y-37295238D01*
X104104761Y-37390476D01*
X104057142Y-37438095D01*
X103961904Y-37485714D01*
X103771428Y-37533333D01*
X103533333Y-37533333D01*
X103342857Y-37485714D01*
X103247619Y-37438095D01*
X103200000Y-37390476D01*
X103152380Y-37295238D01*
X44057142Y-39619047D02*
X44104761Y-39666666D01*
X44152380Y-39809523D01*
X44152380Y-39904761D01*
X44104761Y-40047619D01*
X44009523Y-40142857D01*
X43914285Y-40190476D01*
X43723809Y-40238095D01*
X43580952Y-40238095D01*
X43390476Y-40190476D01*
X43295238Y-40142857D01*
X43200000Y-40047619D01*
X43152380Y-39904761D01*
X43152380Y-39809523D01*
X43200000Y-39666666D01*
X43247619Y-39619047D01*
X44152380Y-38666666D02*
X44152380Y-39238095D01*
X44152380Y-38952380D02*
X43152380Y-38952380D01*
X43295238Y-39047619D01*
X43390476Y-39142857D01*
X43438095Y-39238095D01*
X44152380Y-37714285D02*
X44152380Y-38285714D01*
X44152380Y-38000000D02*
X43152380Y-38000000D01*
X43295238Y-38095238D01*
X43390476Y-38190476D01*
X43438095Y-38285714D01*
X44152380Y-36761904D02*
X44152380Y-37333333D01*
X44152380Y-37047619D02*
X43152380Y-37047619D01*
X43295238Y-37142857D01*
X43390476Y-37238095D01*
X43438095Y-37333333D01*
X48757142Y-4719047D02*
X48804761Y-4766666D01*
X48852380Y-4909523D01*
X48852380Y-5004761D01*
X48804761Y-5147619D01*
X48709523Y-5242857D01*
X48614285Y-5290476D01*
X48423809Y-5338095D01*
X48280952Y-5338095D01*
X48090476Y-5290476D01*
X47995238Y-5242857D01*
X47900000Y-5147619D01*
X47852380Y-5004761D01*
X47852380Y-4909523D01*
X47900000Y-4766666D01*
X47947619Y-4719047D01*
X48852380Y-3766666D02*
X48852380Y-4338095D01*
X48852380Y-4052380D02*
X47852380Y-4052380D01*
X47995238Y-4147619D01*
X48090476Y-4242857D01*
X48138095Y-4338095D01*
X48852380Y-2814285D02*
X48852380Y-3385714D01*
X48852380Y-3100000D02*
X47852380Y-3100000D01*
X47995238Y-3195238D01*
X48090476Y-3290476D01*
X48138095Y-3385714D01*
X47852380Y-2480952D02*
X47852380Y-1861904D01*
X48233333Y-2195238D01*
X48233333Y-2052380D01*
X48280952Y-1957142D01*
X48328571Y-1909523D01*
X48423809Y-1861904D01*
X48661904Y-1861904D01*
X48757142Y-1909523D01*
X48804761Y-1957142D01*
X48852380Y-2052380D01*
X48852380Y-2338095D01*
X48804761Y-2433333D01*
X48757142Y-2480952D01*
X48657142Y-16719047D02*
X48704761Y-16766666D01*
X48752380Y-16909523D01*
X48752380Y-17004761D01*
X48704761Y-17147619D01*
X48609523Y-17242857D01*
X48514285Y-17290476D01*
X48323809Y-17338095D01*
X48180952Y-17338095D01*
X47990476Y-17290476D01*
X47895238Y-17242857D01*
X47800000Y-17147619D01*
X47752380Y-17004761D01*
X47752380Y-16909523D01*
X47800000Y-16766666D01*
X47847619Y-16719047D01*
X48752380Y-15766666D02*
X48752380Y-16338095D01*
X48752380Y-16052380D02*
X47752380Y-16052380D01*
X47895238Y-16147619D01*
X47990476Y-16242857D01*
X48038095Y-16338095D01*
X48752380Y-14814285D02*
X48752380Y-15385714D01*
X48752380Y-15100000D02*
X47752380Y-15100000D01*
X47895238Y-15195238D01*
X47990476Y-15290476D01*
X48038095Y-15385714D01*
X48085714Y-13957142D02*
X48752380Y-13957142D01*
X47704761Y-14195238D02*
X48419047Y-14433333D01*
X48419047Y-13814285D01*
X97852380Y-6090476D02*
X96852380Y-6090476D01*
X96852380Y-5852380D01*
X96900000Y-5709523D01*
X96995238Y-5614285D01*
X97090476Y-5566666D01*
X97280952Y-5519047D01*
X97423809Y-5519047D01*
X97614285Y-5566666D01*
X97709523Y-5614285D01*
X97804761Y-5709523D01*
X97852380Y-5852380D01*
X97852380Y-6090476D01*
X97852380Y-4566666D02*
X97852380Y-5138095D01*
X97852380Y-4852380D02*
X96852380Y-4852380D01*
X96995238Y-4947619D01*
X97090476Y-5042857D01*
X97138095Y-5138095D01*
X96852380Y-3947619D02*
X96852380Y-3852380D01*
X96900000Y-3757142D01*
X96947619Y-3709523D01*
X97042857Y-3661904D01*
X97233333Y-3614285D01*
X97471428Y-3614285D01*
X97661904Y-3661904D01*
X97757142Y-3709523D01*
X97804761Y-3757142D01*
X97852380Y-3852380D01*
X97852380Y-3947619D01*
X97804761Y-4042857D01*
X97757142Y-4090476D01*
X97661904Y-4138095D01*
X97471428Y-4185714D01*
X97233333Y-4185714D01*
X97042857Y-4138095D01*
X96947619Y-4090476D01*
X96900000Y-4042857D01*
X96852380Y-3947619D01*
X96852380Y-2995238D02*
X96852380Y-2900000D01*
X96900000Y-2804761D01*
X96947619Y-2757142D01*
X97042857Y-2709523D01*
X97233333Y-2661904D01*
X97471428Y-2661904D01*
X97661904Y-2709523D01*
X97757142Y-2757142D01*
X97804761Y-2804761D01*
X97852380Y-2900000D01*
X97852380Y-2995238D01*
X97804761Y-3090476D01*
X97757142Y-3138095D01*
X97661904Y-3185714D01*
X97471428Y-3233333D01*
X97233333Y-3233333D01*
X97042857Y-3185714D01*
X96947619Y-3138095D01*
X96900000Y-3090476D01*
X96852380Y-2995238D01*
X87782380Y-4485714D02*
X88496666Y-4485714D01*
X88639523Y-4533333D01*
X88734761Y-4628571D01*
X88782380Y-4771428D01*
X88782380Y-4866666D01*
X88782380Y-3485714D02*
X88782380Y-4057142D01*
X88782380Y-3771428D02*
X87782380Y-3771428D01*
X87925238Y-3866666D01*
X88020476Y-3961904D01*
X88068095Y-4057142D01*
X87782380Y-2866666D02*
X87782380Y-2771428D01*
X87830000Y-2676190D01*
X87877619Y-2628571D01*
X87972857Y-2580952D01*
X88163333Y-2533333D01*
X88401428Y-2533333D01*
X88591904Y-2580952D01*
X88687142Y-2628571D01*
X88734761Y-2676190D01*
X88782380Y-2771428D01*
X88782380Y-2866666D01*
X88734761Y-2961904D01*
X88687142Y-3009523D01*
X88591904Y-3057142D01*
X88401428Y-3104761D01*
X88163333Y-3104761D01*
X87972857Y-3057142D01*
X87877619Y-3009523D01*
X87830000Y-2961904D01*
X87782380Y-2866666D01*
X87782380Y-1914285D02*
X87782380Y-1819047D01*
X87830000Y-1723809D01*
X87877619Y-1676190D01*
X87972857Y-1628571D01*
X88163333Y-1580952D01*
X88401428Y-1580952D01*
X88591904Y-1628571D01*
X88687142Y-1676190D01*
X88734761Y-1723809D01*
X88782380Y-1819047D01*
X88782380Y-1914285D01*
X88734761Y-2009523D01*
X88687142Y-2057142D01*
X88591904Y-2104761D01*
X88401428Y-2152380D01*
X88163333Y-2152380D01*
X87972857Y-2104761D01*
X87877619Y-2057142D01*
X87830000Y-2009523D01*
X87782380Y-1914285D01*
X102472380Y-7029047D02*
X101996190Y-7362380D01*
X102472380Y-7600476D02*
X101472380Y-7600476D01*
X101472380Y-7219523D01*
X101520000Y-7124285D01*
X101567619Y-7076666D01*
X101662857Y-7029047D01*
X101805714Y-7029047D01*
X101900952Y-7076666D01*
X101948571Y-7124285D01*
X101996190Y-7219523D01*
X101996190Y-7600476D01*
X102472380Y-6076666D02*
X102472380Y-6648095D01*
X102472380Y-6362380D02*
X101472380Y-6362380D01*
X101615238Y-6457619D01*
X101710476Y-6552857D01*
X101758095Y-6648095D01*
X101472380Y-5457619D02*
X101472380Y-5362380D01*
X101520000Y-5267142D01*
X101567619Y-5219523D01*
X101662857Y-5171904D01*
X101853333Y-5124285D01*
X102091428Y-5124285D01*
X102281904Y-5171904D01*
X102377142Y-5219523D01*
X102424761Y-5267142D01*
X102472380Y-5362380D01*
X102472380Y-5457619D01*
X102424761Y-5552857D01*
X102377142Y-5600476D01*
X102281904Y-5648095D01*
X102091428Y-5695714D01*
X101853333Y-5695714D01*
X101662857Y-5648095D01*
X101567619Y-5600476D01*
X101520000Y-5552857D01*
X101472380Y-5457619D01*
X101472380Y-4505238D02*
X101472380Y-4410000D01*
X101520000Y-4314761D01*
X101567619Y-4267142D01*
X101662857Y-4219523D01*
X101853333Y-4171904D01*
X102091428Y-4171904D01*
X102281904Y-4219523D01*
X102377142Y-4267142D01*
X102424761Y-4314761D01*
X102472380Y-4410000D01*
X102472380Y-4505238D01*
X102424761Y-4600476D01*
X102377142Y-4648095D01*
X102281904Y-4695714D01*
X102091428Y-4743333D01*
X101853333Y-4743333D01*
X101662857Y-4695714D01*
X101567619Y-4648095D01*
X101520000Y-4600476D01*
X101472380Y-4505238D01*
X1480952Y-11752380D02*
X1147619Y-11276190D01*
X909523Y-11752380D02*
X909523Y-10752380D01*
X1290476Y-10752380D01*
X1385714Y-10800000D01*
X1433333Y-10847619D01*
X1480952Y-10942857D01*
X1480952Y-11085714D01*
X1433333Y-11180952D01*
X1385714Y-11228571D01*
X1290476Y-11276190D01*
X909523Y-11276190D01*
X2433333Y-11752380D02*
X1861904Y-11752380D01*
X2147619Y-11752380D02*
X2147619Y-10752380D01*
X2052380Y-10895238D01*
X1957142Y-10990476D01*
X1861904Y-11038095D01*
X3052380Y-10752380D02*
X3147619Y-10752380D01*
X3242857Y-10800000D01*
X3290476Y-10847619D01*
X3338095Y-10942857D01*
X3385714Y-11133333D01*
X3385714Y-11371428D01*
X3338095Y-11561904D01*
X3290476Y-11657142D01*
X3242857Y-11704761D01*
X3147619Y-11752380D01*
X3052380Y-11752380D01*
X2957142Y-11704761D01*
X2909523Y-11657142D01*
X2861904Y-11561904D01*
X2814285Y-11371428D01*
X2814285Y-11133333D01*
X2861904Y-10942857D01*
X2909523Y-10847619D01*
X2957142Y-10800000D01*
X3052380Y-10752380D01*
X4338095Y-11752380D02*
X3766666Y-11752380D01*
X4052380Y-11752380D02*
X4052380Y-10752380D01*
X3957142Y-10895238D01*
X3861904Y-10990476D01*
X3766666Y-11038095D01*
X1480952Y-9352380D02*
X1147619Y-8876190D01*
X909523Y-9352380D02*
X909523Y-8352380D01*
X1290476Y-8352380D01*
X1385714Y-8400000D01*
X1433333Y-8447619D01*
X1480952Y-8542857D01*
X1480952Y-8685714D01*
X1433333Y-8780952D01*
X1385714Y-8828571D01*
X1290476Y-8876190D01*
X909523Y-8876190D01*
X2433333Y-9352380D02*
X1861904Y-9352380D01*
X2147619Y-9352380D02*
X2147619Y-8352380D01*
X2052380Y-8495238D01*
X1957142Y-8590476D01*
X1861904Y-8638095D01*
X3052380Y-8352380D02*
X3147619Y-8352380D01*
X3242857Y-8400000D01*
X3290476Y-8447619D01*
X3338095Y-8542857D01*
X3385714Y-8733333D01*
X3385714Y-8971428D01*
X3338095Y-9161904D01*
X3290476Y-9257142D01*
X3242857Y-9304761D01*
X3147619Y-9352380D01*
X3052380Y-9352380D01*
X2957142Y-9304761D01*
X2909523Y-9257142D01*
X2861904Y-9161904D01*
X2814285Y-8971428D01*
X2814285Y-8733333D01*
X2861904Y-8542857D01*
X2909523Y-8447619D01*
X2957142Y-8400000D01*
X3052380Y-8352380D01*
X3766666Y-8447619D02*
X3814285Y-8400000D01*
X3909523Y-8352380D01*
X4147619Y-8352380D01*
X4242857Y-8400000D01*
X4290476Y-8447619D01*
X4338095Y-8542857D01*
X4338095Y-8638095D01*
X4290476Y-8780952D01*
X3719047Y-9352380D01*
X4338095Y-9352380D01*
X1480952Y-6752380D02*
X1147619Y-6276190D01*
X909523Y-6752380D02*
X909523Y-5752380D01*
X1290476Y-5752380D01*
X1385714Y-5800000D01*
X1433333Y-5847619D01*
X1480952Y-5942857D01*
X1480952Y-6085714D01*
X1433333Y-6180952D01*
X1385714Y-6228571D01*
X1290476Y-6276190D01*
X909523Y-6276190D01*
X2433333Y-6752380D02*
X1861904Y-6752380D01*
X2147619Y-6752380D02*
X2147619Y-5752380D01*
X2052380Y-5895238D01*
X1957142Y-5990476D01*
X1861904Y-6038095D01*
X3052380Y-5752380D02*
X3147619Y-5752380D01*
X3242857Y-5800000D01*
X3290476Y-5847619D01*
X3338095Y-5942857D01*
X3385714Y-6133333D01*
X3385714Y-6371428D01*
X3338095Y-6561904D01*
X3290476Y-6657142D01*
X3242857Y-6704761D01*
X3147619Y-6752380D01*
X3052380Y-6752380D01*
X2957142Y-6704761D01*
X2909523Y-6657142D01*
X2861904Y-6561904D01*
X2814285Y-6371428D01*
X2814285Y-6133333D01*
X2861904Y-5942857D01*
X2909523Y-5847619D01*
X2957142Y-5800000D01*
X3052380Y-5752380D01*
X3719047Y-5752380D02*
X4338095Y-5752380D01*
X4004761Y-6133333D01*
X4147619Y-6133333D01*
X4242857Y-6180952D01*
X4290476Y-6228571D01*
X4338095Y-6323809D01*
X4338095Y-6561904D01*
X4290476Y-6657142D01*
X4242857Y-6704761D01*
X4147619Y-6752380D01*
X3861904Y-6752380D01*
X3766666Y-6704761D01*
X3719047Y-6657142D01*
X24787142Y-73252380D02*
X24453809Y-72776190D01*
X24215714Y-73252380D02*
X24215714Y-72252380D01*
X24596666Y-72252380D01*
X24691904Y-72300000D01*
X24739523Y-72347619D01*
X24787142Y-72442857D01*
X24787142Y-72585714D01*
X24739523Y-72680952D01*
X24691904Y-72728571D01*
X24596666Y-72776190D01*
X24215714Y-72776190D01*
X25215714Y-73252380D02*
X25215714Y-72252380D01*
X25787142Y-73252380D01*
X25787142Y-72252380D01*
X26787142Y-73252380D02*
X26215714Y-73252380D01*
X26501428Y-73252380D02*
X26501428Y-72252380D01*
X26406190Y-72395238D01*
X26310952Y-72490476D01*
X26215714Y-72538095D01*
X27406190Y-72252380D02*
X27501428Y-72252380D01*
X27596666Y-72300000D01*
X27644285Y-72347619D01*
X27691904Y-72442857D01*
X27739523Y-72633333D01*
X27739523Y-72871428D01*
X27691904Y-73061904D01*
X27644285Y-73157142D01*
X27596666Y-73204761D01*
X27501428Y-73252380D01*
X27406190Y-73252380D01*
X27310952Y-73204761D01*
X27263333Y-73157142D01*
X27215714Y-73061904D01*
X27168095Y-72871428D01*
X27168095Y-72633333D01*
X27215714Y-72442857D01*
X27263333Y-72347619D01*
X27310952Y-72300000D01*
X27406190Y-72252380D01*
X28691904Y-73252380D02*
X28120476Y-73252380D01*
X28406190Y-73252380D02*
X28406190Y-72252380D01*
X28310952Y-72395238D01*
X28215714Y-72490476D01*
X28120476Y-72538095D01*
X77222380Y-67304285D02*
X78031904Y-67304285D01*
X78127142Y-67256666D01*
X78174761Y-67209047D01*
X78222380Y-67113809D01*
X78222380Y-66923333D01*
X78174761Y-66828095D01*
X78127142Y-66780476D01*
X78031904Y-66732857D01*
X77222380Y-66732857D01*
X78222380Y-65732857D02*
X78222380Y-66304285D01*
X78222380Y-66018571D02*
X77222380Y-66018571D01*
X77365238Y-66113809D01*
X77460476Y-66209047D01*
X77508095Y-66304285D01*
X77222380Y-65113809D02*
X77222380Y-65018571D01*
X77270000Y-64923333D01*
X77317619Y-64875714D01*
X77412857Y-64828095D01*
X77603333Y-64780476D01*
X77841428Y-64780476D01*
X78031904Y-64828095D01*
X78127142Y-64875714D01*
X78174761Y-64923333D01*
X78222380Y-65018571D01*
X78222380Y-65113809D01*
X78174761Y-65209047D01*
X78127142Y-65256666D01*
X78031904Y-65304285D01*
X77841428Y-65351904D01*
X77603333Y-65351904D01*
X77412857Y-65304285D01*
X77317619Y-65256666D01*
X77270000Y-65209047D01*
X77222380Y-65113809D01*
X78222380Y-63828095D02*
X78222380Y-64399523D01*
X78222380Y-64113809D02*
X77222380Y-64113809D01*
X77365238Y-64209047D01*
X77460476Y-64304285D01*
X77508095Y-64399523D01*
X44722380Y-67304285D02*
X45531904Y-67304285D01*
X45627142Y-67256666D01*
X45674761Y-67209047D01*
X45722380Y-67113809D01*
X45722380Y-66923333D01*
X45674761Y-66828095D01*
X45627142Y-66780476D01*
X45531904Y-66732857D01*
X44722380Y-66732857D01*
X45722380Y-65732857D02*
X45722380Y-66304285D01*
X45722380Y-66018571D02*
X44722380Y-66018571D01*
X44865238Y-66113809D01*
X44960476Y-66209047D01*
X45008095Y-66304285D01*
X44722380Y-65113809D02*
X44722380Y-65018571D01*
X44770000Y-64923333D01*
X44817619Y-64875714D01*
X44912857Y-64828095D01*
X45103333Y-64780476D01*
X45341428Y-64780476D01*
X45531904Y-64828095D01*
X45627142Y-64875714D01*
X45674761Y-64923333D01*
X45722380Y-65018571D01*
X45722380Y-65113809D01*
X45674761Y-65209047D01*
X45627142Y-65256666D01*
X45531904Y-65304285D01*
X45341428Y-65351904D01*
X45103333Y-65351904D01*
X44912857Y-65304285D01*
X44817619Y-65256666D01*
X44770000Y-65209047D01*
X44722380Y-65113809D01*
X44817619Y-64399523D02*
X44770000Y-64351904D01*
X44722380Y-64256666D01*
X44722380Y-64018571D01*
X44770000Y-63923333D01*
X44817619Y-63875714D01*
X44912857Y-63828095D01*
X45008095Y-63828095D01*
X45150952Y-63875714D01*
X45722380Y-64447142D01*
X45722380Y-63828095D01*
X12222380Y-67304285D02*
X13031904Y-67304285D01*
X13127142Y-67256666D01*
X13174761Y-67209047D01*
X13222380Y-67113809D01*
X13222380Y-66923333D01*
X13174761Y-66828095D01*
X13127142Y-66780476D01*
X13031904Y-66732857D01*
X12222380Y-66732857D01*
X13222380Y-65732857D02*
X13222380Y-66304285D01*
X13222380Y-66018571D02*
X12222380Y-66018571D01*
X12365238Y-66113809D01*
X12460476Y-66209047D01*
X12508095Y-66304285D01*
X12222380Y-65113809D02*
X12222380Y-65018571D01*
X12270000Y-64923333D01*
X12317619Y-64875714D01*
X12412857Y-64828095D01*
X12603333Y-64780476D01*
X12841428Y-64780476D01*
X13031904Y-64828095D01*
X13127142Y-64875714D01*
X13174761Y-64923333D01*
X13222380Y-65018571D01*
X13222380Y-65113809D01*
X13174761Y-65209047D01*
X13127142Y-65256666D01*
X13031904Y-65304285D01*
X12841428Y-65351904D01*
X12603333Y-65351904D01*
X12412857Y-65304285D01*
X12317619Y-65256666D01*
X12270000Y-65209047D01*
X12222380Y-65113809D01*
X12222380Y-64447142D02*
X12222380Y-63828095D01*
X12603333Y-64161428D01*
X12603333Y-64018571D01*
X12650952Y-63923333D01*
X12698571Y-63875714D01*
X12793809Y-63828095D01*
X13031904Y-63828095D01*
X13127142Y-63875714D01*
X13174761Y-63923333D01*
X13222380Y-64018571D01*
X13222380Y-64304285D01*
X13174761Y-64399523D01*
X13127142Y-64447142D01*
X109722380Y-67304285D02*
X110531904Y-67304285D01*
X110627142Y-67256666D01*
X110674761Y-67209047D01*
X110722380Y-67113809D01*
X110722380Y-66923333D01*
X110674761Y-66828095D01*
X110627142Y-66780476D01*
X110531904Y-66732857D01*
X109722380Y-66732857D01*
X110722380Y-65732857D02*
X110722380Y-66304285D01*
X110722380Y-66018571D02*
X109722380Y-66018571D01*
X109865238Y-66113809D01*
X109960476Y-66209047D01*
X110008095Y-66304285D01*
X109722380Y-65113809D02*
X109722380Y-65018571D01*
X109770000Y-64923333D01*
X109817619Y-64875714D01*
X109912857Y-64828095D01*
X110103333Y-64780476D01*
X110341428Y-64780476D01*
X110531904Y-64828095D01*
X110627142Y-64875714D01*
X110674761Y-64923333D01*
X110722380Y-65018571D01*
X110722380Y-65113809D01*
X110674761Y-65209047D01*
X110627142Y-65256666D01*
X110531904Y-65304285D01*
X110341428Y-65351904D01*
X110103333Y-65351904D01*
X109912857Y-65304285D01*
X109817619Y-65256666D01*
X109770000Y-65209047D01*
X109722380Y-65113809D01*
X110055714Y-63923333D02*
X110722380Y-63923333D01*
X109674761Y-64161428D02*
X110389047Y-64399523D01*
X110389047Y-63780476D01*
X53622380Y-9904285D02*
X54431904Y-9904285D01*
X54527142Y-9856666D01*
X54574761Y-9809047D01*
X54622380Y-9713809D01*
X54622380Y-9523333D01*
X54574761Y-9428095D01*
X54527142Y-9380476D01*
X54431904Y-9332857D01*
X53622380Y-9332857D01*
X54622380Y-8332857D02*
X54622380Y-8904285D01*
X54622380Y-8618571D02*
X53622380Y-8618571D01*
X53765238Y-8713809D01*
X53860476Y-8809047D01*
X53908095Y-8904285D01*
X53622380Y-7713809D02*
X53622380Y-7618571D01*
X53670000Y-7523333D01*
X53717619Y-7475714D01*
X53812857Y-7428095D01*
X54003333Y-7380476D01*
X54241428Y-7380476D01*
X54431904Y-7428095D01*
X54527142Y-7475714D01*
X54574761Y-7523333D01*
X54622380Y-7618571D01*
X54622380Y-7713809D01*
X54574761Y-7809047D01*
X54527142Y-7856666D01*
X54431904Y-7904285D01*
X54241428Y-7951904D01*
X54003333Y-7951904D01*
X53812857Y-7904285D01*
X53717619Y-7856666D01*
X53670000Y-7809047D01*
X53622380Y-7713809D01*
X53622380Y-6475714D02*
X53622380Y-6951904D01*
X54098571Y-6999523D01*
X54050952Y-6951904D01*
X54003333Y-6856666D01*
X54003333Y-6618571D01*
X54050952Y-6523333D01*
X54098571Y-6475714D01*
X54193809Y-6428095D01*
X54431904Y-6428095D01*
X54527142Y-6475714D01*
X54574761Y-6523333D01*
X54622380Y-6618571D01*
X54622380Y-6856666D01*
X54574761Y-6951904D01*
X54527142Y-6999523D01*
X25805714Y-1922380D02*
X25805714Y-2731904D01*
X25853333Y-2827142D01*
X25900952Y-2874761D01*
X25996190Y-2922380D01*
X26186666Y-2922380D01*
X26281904Y-2874761D01*
X26329523Y-2827142D01*
X26377142Y-2731904D01*
X26377142Y-1922380D01*
X27377142Y-2922380D02*
X26805714Y-2922380D01*
X27091428Y-2922380D02*
X27091428Y-1922380D01*
X26996190Y-2065238D01*
X26900952Y-2160476D01*
X26805714Y-2208095D01*
X27996190Y-1922380D02*
X28091428Y-1922380D01*
X28186666Y-1970000D01*
X28234285Y-2017619D01*
X28281904Y-2112857D01*
X28329523Y-2303333D01*
X28329523Y-2541428D01*
X28281904Y-2731904D01*
X28234285Y-2827142D01*
X28186666Y-2874761D01*
X28091428Y-2922380D01*
X27996190Y-2922380D01*
X27900952Y-2874761D01*
X27853333Y-2827142D01*
X27805714Y-2731904D01*
X27758095Y-2541428D01*
X27758095Y-2303333D01*
X27805714Y-2112857D01*
X27853333Y-2017619D01*
X27900952Y-1970000D01*
X27996190Y-1922380D01*
X29186666Y-1922380D02*
X28996190Y-1922380D01*
X28900952Y-1970000D01*
X28853333Y-2017619D01*
X28758095Y-2160476D01*
X28710476Y-2350952D01*
X28710476Y-2731904D01*
X28758095Y-2827142D01*
X28805714Y-2874761D01*
X28900952Y-2922380D01*
X29091428Y-2922380D01*
X29186666Y-2874761D01*
X29234285Y-2827142D01*
X29281904Y-2731904D01*
X29281904Y-2493809D01*
X29234285Y-2398571D01*
X29186666Y-2350952D01*
X29091428Y-2303333D01*
X28900952Y-2303333D01*
X28805714Y-2350952D01*
X28758095Y-2398571D01*
X28710476Y-2493809D01*
X76222380Y-31204285D02*
X77031904Y-31204285D01*
X77127142Y-31156666D01*
X77174761Y-31109047D01*
X77222380Y-31013809D01*
X77222380Y-30823333D01*
X77174761Y-30728095D01*
X77127142Y-30680476D01*
X77031904Y-30632857D01*
X76222380Y-30632857D01*
X77222380Y-29632857D02*
X77222380Y-30204285D01*
X77222380Y-29918571D02*
X76222380Y-29918571D01*
X76365238Y-30013809D01*
X76460476Y-30109047D01*
X76508095Y-30204285D01*
X76222380Y-29013809D02*
X76222380Y-28918571D01*
X76270000Y-28823333D01*
X76317619Y-28775714D01*
X76412857Y-28728095D01*
X76603333Y-28680476D01*
X76841428Y-28680476D01*
X77031904Y-28728095D01*
X77127142Y-28775714D01*
X77174761Y-28823333D01*
X77222380Y-28918571D01*
X77222380Y-29013809D01*
X77174761Y-29109047D01*
X77127142Y-29156666D01*
X77031904Y-29204285D01*
X76841428Y-29251904D01*
X76603333Y-29251904D01*
X76412857Y-29204285D01*
X76317619Y-29156666D01*
X76270000Y-29109047D01*
X76222380Y-29013809D01*
X76222380Y-28347142D02*
X76222380Y-27680476D01*
X77222380Y-28109047D01*
X76022380Y-47804285D02*
X76831904Y-47804285D01*
X76927142Y-47756666D01*
X76974761Y-47709047D01*
X77022380Y-47613809D01*
X77022380Y-47423333D01*
X76974761Y-47328095D01*
X76927142Y-47280476D01*
X76831904Y-47232857D01*
X76022380Y-47232857D01*
X77022380Y-46232857D02*
X77022380Y-46804285D01*
X77022380Y-46518571D02*
X76022380Y-46518571D01*
X76165238Y-46613809D01*
X76260476Y-46709047D01*
X76308095Y-46804285D01*
X76022380Y-45613809D02*
X76022380Y-45518571D01*
X76070000Y-45423333D01*
X76117619Y-45375714D01*
X76212857Y-45328095D01*
X76403333Y-45280476D01*
X76641428Y-45280476D01*
X76831904Y-45328095D01*
X76927142Y-45375714D01*
X76974761Y-45423333D01*
X77022380Y-45518571D01*
X77022380Y-45613809D01*
X76974761Y-45709047D01*
X76927142Y-45756666D01*
X76831904Y-45804285D01*
X76641428Y-45851904D01*
X76403333Y-45851904D01*
X76212857Y-45804285D01*
X76117619Y-45756666D01*
X76070000Y-45709047D01*
X76022380Y-45613809D01*
X77022380Y-44804285D02*
X77022380Y-44613809D01*
X76974761Y-44518571D01*
X76927142Y-44470952D01*
X76784285Y-44375714D01*
X76593809Y-44328095D01*
X76212857Y-44328095D01*
X76117619Y-44375714D01*
X76070000Y-44423333D01*
X76022380Y-44518571D01*
X76022380Y-44709047D01*
X76070000Y-44804285D01*
X76117619Y-44851904D01*
X76212857Y-44899523D01*
X76450952Y-44899523D01*
X76546190Y-44851904D01*
X76593809Y-44804285D01*
X76641428Y-44709047D01*
X76641428Y-44518571D01*
X76593809Y-44423333D01*
X76546190Y-44375714D01*
X76450952Y-44328095D01*
X106322380Y-47804285D02*
X107131904Y-47804285D01*
X107227142Y-47756666D01*
X107274761Y-47709047D01*
X107322380Y-47613809D01*
X107322380Y-47423333D01*
X107274761Y-47328095D01*
X107227142Y-47280476D01*
X107131904Y-47232857D01*
X106322380Y-47232857D01*
X107322380Y-46232857D02*
X107322380Y-46804285D01*
X107322380Y-46518571D02*
X106322380Y-46518571D01*
X106465238Y-46613809D01*
X106560476Y-46709047D01*
X106608095Y-46804285D01*
X107322380Y-45280476D02*
X107322380Y-45851904D01*
X107322380Y-45566190D02*
X106322380Y-45566190D01*
X106465238Y-45661428D01*
X106560476Y-45756666D01*
X106608095Y-45851904D01*
X106322380Y-44661428D02*
X106322380Y-44566190D01*
X106370000Y-44470952D01*
X106417619Y-44423333D01*
X106512857Y-44375714D01*
X106703333Y-44328095D01*
X106941428Y-44328095D01*
X107131904Y-44375714D01*
X107227142Y-44423333D01*
X107274761Y-44470952D01*
X107322380Y-44566190D01*
X107322380Y-44661428D01*
X107274761Y-44756666D01*
X107227142Y-44804285D01*
X107131904Y-44851904D01*
X106941428Y-44899523D01*
X106703333Y-44899523D01*
X106512857Y-44851904D01*
X106417619Y-44804285D01*
X106370000Y-44756666D01*
X106322380Y-44661428D01*
X45722380Y-47804285D02*
X46531904Y-47804285D01*
X46627142Y-47756666D01*
X46674761Y-47709047D01*
X46722380Y-47613809D01*
X46722380Y-47423333D01*
X46674761Y-47328095D01*
X46627142Y-47280476D01*
X46531904Y-47232857D01*
X45722380Y-47232857D01*
X46722380Y-46232857D02*
X46722380Y-46804285D01*
X46722380Y-46518571D02*
X45722380Y-46518571D01*
X45865238Y-46613809D01*
X45960476Y-46709047D01*
X46008095Y-46804285D01*
X46722380Y-45280476D02*
X46722380Y-45851904D01*
X46722380Y-45566190D02*
X45722380Y-45566190D01*
X45865238Y-45661428D01*
X45960476Y-45756666D01*
X46008095Y-45851904D01*
X46722380Y-44328095D02*
X46722380Y-44899523D01*
X46722380Y-44613809D02*
X45722380Y-44613809D01*
X45865238Y-44709047D01*
X45960476Y-44804285D01*
X46008095Y-44899523D01*
X45301190Y-10978571D02*
X45777380Y-10978571D01*
X44777380Y-11311904D02*
X45301190Y-10978571D01*
X44777380Y-10645238D01*
X45777380Y-9788095D02*
X45777380Y-10359523D01*
X45777380Y-10073809D02*
X44777380Y-10073809D01*
X44920238Y-10169047D01*
X45015476Y-10264285D01*
X45063095Y-10359523D01*
X44777380Y-9169047D02*
X44777380Y-9073809D01*
X44825000Y-8978571D01*
X44872619Y-8930952D01*
X44967857Y-8883333D01*
X45158333Y-8835714D01*
X45396428Y-8835714D01*
X45586904Y-8883333D01*
X45682142Y-8930952D01*
X45729761Y-8978571D01*
X45777380Y-9073809D01*
X45777380Y-9169047D01*
X45729761Y-9264285D01*
X45682142Y-9311904D01*
X45586904Y-9359523D01*
X45396428Y-9407142D01*
X45158333Y-9407142D01*
X44967857Y-9359523D01*
X44872619Y-9311904D01*
X44825000Y-9264285D01*
X44777380Y-9169047D01*
X44777380Y-8216666D02*
X44777380Y-8121428D01*
X44825000Y-8026190D01*
X44872619Y-7978571D01*
X44967857Y-7930952D01*
X45158333Y-7883333D01*
X45396428Y-7883333D01*
X45586904Y-7930952D01*
X45682142Y-7978571D01*
X45729761Y-8026190D01*
X45777380Y-8121428D01*
X45777380Y-8216666D01*
X45729761Y-8311904D01*
X45682142Y-8359523D01*
X45586904Y-8407142D01*
X45396428Y-8454761D01*
X45158333Y-8454761D01*
X44967857Y-8407142D01*
X44872619Y-8359523D01*
X44825000Y-8311904D01*
X44777380Y-8216666D01*
%LPC*%
D17*
X18400000Y-86500000D03*
X131600000Y-86500000D03*
D18*
X25470000Y-83000000D03*
D19*
X25470000Y-80460000D03*
X28010000Y-83000000D03*
X28010000Y-80460000D03*
X30550000Y-83000000D03*
X30550000Y-80460000D03*
X33090000Y-83000000D03*
X33090000Y-80460000D03*
X35630000Y-83000000D03*
X35630000Y-80460000D03*
X38170000Y-83000000D03*
X38170000Y-80460000D03*
X40710000Y-83000000D03*
X40710000Y-80460000D03*
X43250000Y-83000000D03*
X43250000Y-80460000D03*
X45790000Y-83000000D03*
X45790000Y-80460000D03*
X48330000Y-83000000D03*
X48330000Y-80460000D03*
X50870000Y-83000000D03*
X50870000Y-80460000D03*
X53410000Y-83000000D03*
X53410000Y-80460000D03*
X55950000Y-83000000D03*
X55950000Y-80460000D03*
X58490000Y-83000000D03*
X58490000Y-80460000D03*
X61030000Y-83000000D03*
X61030000Y-80460000D03*
X63570000Y-83000000D03*
X63570000Y-80460000D03*
X66110000Y-83000000D03*
X66110000Y-80460000D03*
X68650000Y-83000000D03*
X68650000Y-80460000D03*
X71190000Y-83000000D03*
X71190000Y-80460000D03*
X73730000Y-83000000D03*
X73730000Y-80460000D03*
X76270000Y-83000000D03*
X76270000Y-80460000D03*
X78810000Y-83000000D03*
X78810000Y-80460000D03*
X81350000Y-83000000D03*
X81350000Y-80460000D03*
X83890000Y-83000000D03*
X83890000Y-80460000D03*
X86430000Y-83000000D03*
X86430000Y-80460000D03*
X88970000Y-83000000D03*
X88970000Y-80460000D03*
X91510000Y-83000000D03*
X91510000Y-80460000D03*
X94050000Y-83000000D03*
X94050000Y-80460000D03*
X96590000Y-83000000D03*
X96590000Y-80460000D03*
X99130000Y-83000000D03*
X99130000Y-80460000D03*
X101670000Y-83000000D03*
X101670000Y-80460000D03*
X104210000Y-83000000D03*
X104210000Y-80460000D03*
X106750000Y-83000000D03*
X106750000Y-80460000D03*
X109290000Y-83000000D03*
X109290000Y-80460000D03*
X111830000Y-83000000D03*
X111830000Y-80460000D03*
X114370000Y-83000000D03*
X114370000Y-80460000D03*
X116910000Y-83000000D03*
X116910000Y-80460000D03*
X119450000Y-83000000D03*
X119450000Y-80460000D03*
X121990000Y-83000000D03*
X121990000Y-80460000D03*
X124530000Y-83000000D03*
X124530000Y-80460000D03*
D20*
X70295000Y-5590000D03*
X77305000Y-5590000D03*
D21*
X71550000Y-3100000D03*
X76050000Y-3100000D03*
D22*
X48900000Y-25680000D03*
X64140000Y-33300000D03*
X51440000Y-25680000D03*
X61600000Y-33300000D03*
X53980000Y-25680000D03*
X59060000Y-33300000D03*
X56520000Y-25680000D03*
X56520000Y-33300000D03*
X59060000Y-25680000D03*
X53980000Y-33300000D03*
X61600000Y-25680000D03*
X51440000Y-33300000D03*
X64140000Y-25680000D03*
D23*
X48900000Y-33300000D03*
X141700000Y-75900000D03*
D24*
X139200000Y-75900000D03*
X75500000Y-64300000D03*
X75500000Y-61800000D03*
X42900000Y-61800000D03*
X42900000Y-64300000D03*
X10400000Y-64300000D03*
X10400000Y-61800000D03*
X108000000Y-61700000D03*
X108000000Y-64200000D03*
X61500000Y-15700000D03*
X59000000Y-15700000D03*
X14400000Y-17500000D03*
X14400000Y-20000000D03*
X74300000Y-28100000D03*
X74300000Y-25600000D03*
X44100000Y-25600000D03*
X44100000Y-28100000D03*
X74000000Y-42200000D03*
X74000000Y-44700000D03*
X104400000Y-44700000D03*
X104400000Y-42200000D03*
X43700000Y-44700000D03*
X43700000Y-42200000D03*
X50500000Y-7100000D03*
X48000000Y-7100000D03*
X48000000Y-12000000D03*
X50500000Y-12000000D03*
D25*
X94640000Y-4400000D03*
D26*
X92100000Y-4400000D03*
D19*
X83460000Y-3200000D03*
D18*
X86000000Y-3200000D03*
D27*
X100100000Y-9720000D03*
D28*
X100100000Y-2100000D03*
X5600000Y-11300000D03*
D27*
X13220000Y-11300000D03*
X13220000Y-8800000D03*
D28*
X5600000Y-8800000D03*
X5600000Y-6200000D03*
D27*
X13220000Y-6200000D03*
D23*
X15000000Y-75200000D03*
D22*
X17540000Y-75200000D03*
X20080000Y-75200000D03*
X22620000Y-75200000D03*
X25160000Y-75200000D03*
X27700000Y-75200000D03*
X30240000Y-75200000D03*
X32780000Y-75200000D03*
X35320000Y-75200000D03*
X80100000Y-61780000D03*
X102960000Y-69400000D03*
X82640000Y-61780000D03*
X100420000Y-69400000D03*
X85180000Y-61780000D03*
X97880000Y-69400000D03*
X87720000Y-61780000D03*
X95340000Y-69400000D03*
X90260000Y-61780000D03*
X92800000Y-69400000D03*
X92800000Y-61780000D03*
X90260000Y-69400000D03*
X95340000Y-61780000D03*
X87720000Y-69400000D03*
X97880000Y-61780000D03*
X85180000Y-69400000D03*
X100420000Y-61780000D03*
X82640000Y-69400000D03*
X102960000Y-61780000D03*
D23*
X80100000Y-69400000D03*
X47600000Y-69400000D03*
D22*
X70460000Y-61780000D03*
X50140000Y-69400000D03*
X67920000Y-61780000D03*
X52680000Y-69400000D03*
X65380000Y-61780000D03*
X55220000Y-69400000D03*
X62840000Y-61780000D03*
X57760000Y-69400000D03*
X60300000Y-61780000D03*
X60300000Y-69400000D03*
X57760000Y-61780000D03*
X62840000Y-69400000D03*
X55220000Y-61780000D03*
X65380000Y-69400000D03*
X52680000Y-61780000D03*
X67920000Y-69400000D03*
X50140000Y-61780000D03*
X70460000Y-69400000D03*
X47600000Y-61780000D03*
D23*
X15100000Y-69400000D03*
D22*
X37960000Y-61780000D03*
X17640000Y-69400000D03*
X35420000Y-61780000D03*
X20180000Y-69400000D03*
X32880000Y-61780000D03*
X22720000Y-69400000D03*
X30340000Y-61780000D03*
X25260000Y-69400000D03*
X27800000Y-61780000D03*
X27800000Y-69400000D03*
X25260000Y-61780000D03*
X30340000Y-69400000D03*
X22720000Y-61780000D03*
X32880000Y-69400000D03*
X20180000Y-61780000D03*
X35420000Y-69400000D03*
X17640000Y-61780000D03*
X37960000Y-69400000D03*
X15100000Y-61780000D03*
D23*
X112600000Y-69400000D03*
D22*
X130380000Y-61780000D03*
X115140000Y-69400000D03*
X127840000Y-61780000D03*
X117680000Y-69400000D03*
X125300000Y-61780000D03*
X120220000Y-69400000D03*
X122760000Y-61780000D03*
X122760000Y-69400000D03*
X120220000Y-61780000D03*
X125300000Y-69400000D03*
X117680000Y-61780000D03*
X127840000Y-69400000D03*
X115140000Y-61780000D03*
X130380000Y-69400000D03*
X112600000Y-61780000D03*
X56500000Y-4380000D03*
X64120000Y-12000000D03*
X59040000Y-4380000D03*
X61580000Y-12000000D03*
X61580000Y-4380000D03*
X59040000Y-12000000D03*
X64120000Y-4380000D03*
D23*
X56500000Y-12000000D03*
D22*
X35140000Y-4800000D03*
X19900000Y-53060000D03*
X35140000Y-7340000D03*
X19900000Y-50520000D03*
X35140000Y-9880000D03*
X19900000Y-47980000D03*
X35140000Y-12420000D03*
X19900000Y-45440000D03*
X35140000Y-14960000D03*
X19900000Y-42900000D03*
X35140000Y-17500000D03*
X19900000Y-40360000D03*
X35140000Y-20040000D03*
X19900000Y-37820000D03*
X35140000Y-22580000D03*
X19900000Y-35280000D03*
X35140000Y-25120000D03*
X19900000Y-32740000D03*
X35140000Y-27660000D03*
X19900000Y-30200000D03*
X35140000Y-30200000D03*
X19900000Y-27660000D03*
X35140000Y-32740000D03*
X19900000Y-25120000D03*
X35140000Y-35280000D03*
X19900000Y-22580000D03*
X35140000Y-37820000D03*
X19900000Y-20040000D03*
X35140000Y-40360000D03*
X19900000Y-17500000D03*
X35140000Y-42900000D03*
X19900000Y-14960000D03*
X35140000Y-45440000D03*
X19900000Y-12420000D03*
X35140000Y-47980000D03*
X19900000Y-9880000D03*
X35140000Y-50520000D03*
X19900000Y-7340000D03*
X35140000Y-53060000D03*
D23*
X19900000Y-4800000D03*
X79100000Y-33300000D03*
D22*
X94340000Y-25680000D03*
X81640000Y-33300000D03*
X91800000Y-25680000D03*
X84180000Y-33300000D03*
X89260000Y-25680000D03*
X86720000Y-33300000D03*
X86720000Y-25680000D03*
X89260000Y-33300000D03*
X84180000Y-25680000D03*
X91800000Y-33300000D03*
X81640000Y-25680000D03*
X94340000Y-33300000D03*
X79100000Y-25680000D03*
X78900000Y-42280000D03*
X96680000Y-49900000D03*
X81440000Y-42280000D03*
X94140000Y-49900000D03*
X83980000Y-42280000D03*
X91600000Y-49900000D03*
X86520000Y-42280000D03*
X89060000Y-49900000D03*
X89060000Y-42280000D03*
X86520000Y-49900000D03*
X91600000Y-42280000D03*
X83980000Y-49900000D03*
X94140000Y-42280000D03*
X81440000Y-49900000D03*
X96680000Y-42280000D03*
D23*
X78900000Y-49900000D03*
D22*
X109200000Y-42280000D03*
X126980000Y-49900000D03*
X111740000Y-42280000D03*
X124440000Y-49900000D03*
X114280000Y-42280000D03*
X121900000Y-49900000D03*
X116820000Y-42280000D03*
X119360000Y-49900000D03*
X119360000Y-42280000D03*
X116820000Y-49900000D03*
X121900000Y-42280000D03*
X114280000Y-49900000D03*
X124440000Y-42280000D03*
X111740000Y-49900000D03*
X126980000Y-42280000D03*
D23*
X109200000Y-49900000D03*
X48600000Y-49900000D03*
D22*
X66380000Y-42280000D03*
X51140000Y-49900000D03*
X63840000Y-42280000D03*
X53680000Y-49900000D03*
X61300000Y-42280000D03*
X56220000Y-49900000D03*
X58760000Y-42280000D03*
X58760000Y-49900000D03*
X56220000Y-42280000D03*
X61300000Y-49900000D03*
X53680000Y-42280000D03*
X63840000Y-49900000D03*
X51140000Y-42280000D03*
X66380000Y-49900000D03*
X48600000Y-42280000D03*
D29*
X41800000Y-7100000D03*
X41800000Y-12000000D03*
M02*
