M48
; DRILL file {KiCad 5.1.5+dfsg1-2build2} date Wed 23 Jun 2021 02:54:55 PM EDT
; FORMAT={-:-/ absolute / inch / decimal}
; #@! TF.CreationDate,2021-06-23T14:54:55-04:00
; #@! TF.GenerationSoftware,Kicad,Pcbnew,5.1.5+dfsg1-2build2
FMAT,2
INCH
T1C0.0118
T2C0.0276
T3C0.0315
T4C0.0394
T5C0.1260
%
G90
G05
T1
X0.1535Y-1.7598
X0.1535Y-2.5157
X0.1732Y-2.6063
X0.1743Y-1.8622
X0.195Y-1.9606
X0.2008Y-2.6969
X0.2158Y-2.063
X0.2244Y-2.7874
X0.5039Y-2.1417
X0.5315Y-0.2992
X0.5315Y-0.5354
X0.5315Y-1.189
X0.55Y-1.85
X0.6Y-1.55
X0.63Y-1.94
X0.8819Y-2.7638
X0.9252Y-1.1496
X0.93Y-0.73
X0.9921Y-2.6535
X1.0787Y-2.185
X1.0787Y-2.4409
X1.1028Y-2.2831
X1.1063Y-1.6496
X1.14Y-1.01
X1.1654Y-1.0433
X1.189Y-1.5394
X1.2028Y-2.3799
X1.2047Y-1.7402
X1.2047Y-3.4764
X1.2283Y-1.9409
X1.2402Y-0.9724
X1.3028Y-2.4807
X1.3031Y-3.4528
X1.3071Y-1.8386
X1.3543Y-1.8622
X1.4016Y-3.4331
X1.4028Y-2.5894
X1.4094Y-1.9331
X1.41Y-1.01
X1.4235Y-3.0945
X1.4252Y-2.0394
X1.4252Y-2.5079
X1.4488Y-2.1417
X1.4488Y-2.4055
X1.4488Y-3.0709
X1.4685Y-1.2244
X1.4724Y-2.2441
X1.4724Y-2.3071
X1.4724Y-3.0472
X1.4932Y-2.3425
X1.4932Y-3.0197
X1.5Y-3.4134
X1.5039Y-3.0945
X1.5079Y-1.315
X1.592Y-2.676
X1.5945Y-2.1929
X1.6024Y-2.7874
X1.6024Y-3.0709
X1.6063Y-0.9724
X1.6378Y-2.5433
X1.6378Y-2.7441
X1.6732Y-2.874
X1.7008Y-3.0472
X1.748Y-2.8504
X1.8031Y-3.0197
X1.8465Y-2.8228
X1.9016Y-3.1024
X1.9016Y-3.3268
X1.9606Y-2.7874
X2.0394Y-1.6535
X2.1024Y-1.9528
X2.2047Y-1.752
X2.3031Y-1.3543
X2.4055Y-1.4528
X2.4606Y-1.5512
X2.4606Y-3.0984
X2.4803Y-1.248
X2.61Y-1.01
X2.6299Y-2.0512
X2.6299Y-2.7205
X2.7008Y-2.1181
X2.7047Y-3.3937
X2.8031Y-2.0512
X2.9016Y-1.9488
X3.016Y-2.978
X3.07Y-2.09
X3.075Y-2.015
X3.1063Y-1.752
X3.1339Y-2.0472
X3.1343Y-1.9921
X3.1722Y-0.8959
X3.1732Y-1.9606
X3.1732Y-2.1457
X3.2008Y-1.6496
X3.2756Y-0.8425
X3.3031Y-1.5512
X3.3031Y-3.3475
X3.378Y-0.7441
X3.4016Y-1.4488
X3.4016Y-3.3701
X3.4606Y-2.7648
X3.4764Y-0.6417
X3.5787Y-0.5906
X3.67Y-1.44
X3.6772Y-0.7008
X3.69Y-2.15
X3.71Y-2.25
X3.7107Y-1.54
X3.73Y-2.35
X3.7315Y-1.64
X3.75Y-2.44
X3.7522Y-1.74
X3.7795Y-0.7795
X3.78Y-1.84
X3.78Y-2.55
X3.8007Y-1.94
X3.8007Y-2.4228
X3.859Y-2.676
X3.86Y-2.24
X3.86Y-2.397
X3.878Y-0.8819
X3.9882Y-2.6535
X4.102Y-1.008
X4.2008Y-2.7441
X4.3031Y-2.7244
X4.378Y-2.874
X4.4034Y-2.3966
X4.4173Y-1.8819
X4.4449Y-3.3701
X4.4567Y-1.7362
X4.4795Y-1.637
X4.53Y-1.2
X4.5315Y-2.7874
X4.6024Y-1.3583
X4.6024Y-1.5394
X4.6226Y-1.1934
X4.626Y-2.2362
X4.626Y-2.437
X4.6417Y-3.3937
X4.6496Y-1.3425
X4.6496Y-1.8346
X4.6496Y-1.9488
X4.6496Y-2.1378
X4.6654Y-3.4549
X4.6772Y-1.4449
X4.6772Y-1.9055
X4.6979Y-1.6378
X4.7008Y-1.0433
X4.7283Y-2.0433
X4.7283Y-3.4341
X4.752Y-2.1417
X4.7598Y-3.4134
X4.8031Y-3.0945
X4.8307Y-2.2441
X4.8465Y-3.3475
X4.8543Y-1.1417
X4.9646Y-3.3268
X4.9882Y-1.9409
X4.9882Y-3.4764
X5.0197Y-1.6457
X5.0197Y-2.8228
X5.0472Y-1.7441
X5.0472Y-2.8504
X5.1732Y-0.126
X5.1732Y-2.3386
X5.2008Y-0.1496
X5.2008Y-2.4409
X5.2244Y-0.1732
X5.2244Y-2.5394
X5.2598Y-0.2008
X5.2638Y-2.5394
X5.2835Y-0.2244
X5.2953Y-2.4409
X5.3071Y-0.252
X5.311Y-2.3425
X5.3307Y-0.2745
X5.3346Y-2.2402
X5.3543Y-0.2953
X5.3543Y-2.1417
X5.378Y-3.0945
X5.3976Y-1.1417
X5.4005Y-1.5709
X5.4005Y-1.6417
X5.4173Y-1.505
X5.4213Y-1.7402
X5.4438Y-1.4843
X5.4438Y-1.8425
X5.4646Y-1.3622
X5.4646Y-1.3976
X5.5591Y-1.7835
X5.58Y-3.16
X5.5866Y-1.7992
X5.6063Y-2.0
X5.622Y-2.0787
X5.73Y-1.2
X5.73Y-2.05
T2
X0.2913Y-2.6969
X0.5913Y-2.6969
X0.2913Y-2.5157
X0.5913Y-2.5157
X0.2913Y-2.6063
X0.5913Y-2.6063
X0.2913Y-2.7874
X0.5913Y-2.7874
X1.2394Y-0.4055
X1.5394Y-0.4055
T3
X4.4331Y-1.2835
X4.5315Y-1.2835
X0.9409Y-1.4409
X0.9409Y-1.5409
X0.9409Y-1.6409
X0.9409Y-1.7409
X0.9409Y-1.8409
X0.9409Y-1.9409
X0.9409Y-2.0409
X0.9409Y-2.1409
X0.9409Y-2.2409
X0.9409Y-2.3409
X0.9409Y-2.4409
X0.9409Y-2.5409
X1.5409Y-1.4409
X1.5409Y-1.5409
X1.5409Y-1.6409
X1.5409Y-1.7409
X1.5409Y-1.8409
X1.5409Y-1.9409
X1.5409Y-2.0409
X1.5409Y-2.1409
X1.5409Y-2.2409
X1.5409Y-2.3409
X1.5409Y-2.4409
X1.5409Y-2.5409
X0.7402Y-0.2992
X0.937Y-0.2992
X0.8386Y-0.5346
X0.8386Y-0.8346
X0.9386Y-0.5346
X0.9386Y-0.8346
X1.0386Y-0.5346
X1.0386Y-0.8346
X1.1386Y-0.5346
X1.1386Y-0.8346
X1.2386Y-0.5346
X1.2386Y-0.8346
X1.3386Y-0.5346
X1.3386Y-0.8346
X1.4386Y-0.5346
X1.4386Y-0.8346
X1.5386Y-0.5346
X1.5386Y-0.8346
X1.4094Y-1.0945
X1.6063Y-1.0945
X3.9331Y-1.437
X3.9331Y-1.537
X3.9331Y-1.637
X3.9331Y-1.737
X3.9331Y-1.837
X3.9331Y-1.937
X3.9331Y-2.037
X3.9331Y-2.137
X3.9331Y-2.237
X3.9331Y-2.337
X3.9331Y-2.437
X3.9331Y-2.537
X4.5331Y-1.437
X4.5331Y-1.537
X4.5331Y-1.637
X4.5331Y-1.737
X4.5331Y-1.837
X4.5331Y-1.937
X4.5331Y-2.037
X4.5331Y-2.137
X4.5331Y-2.237
X4.5331Y-2.337
X4.5331Y-2.437
X4.5331Y-2.537
X0.6024Y-0.5354
X0.6024Y-0.7323
X4.9173Y-0.6417
X4.9173Y-0.7417
X4.9173Y-0.8417
X4.9173Y-0.9417
X4.9173Y-1.0417
X4.9173Y-1.1417
X4.9173Y-1.2417
X4.9173Y-1.3417
X4.9173Y-1.4417
X4.9173Y-1.5417
X4.9173Y-1.6417
X4.9173Y-1.7417
X4.9173Y-1.8417
X4.9173Y-1.9417
X4.9173Y-2.0417
X4.9173Y-2.1417
X4.9173Y-2.2417
X4.9173Y-2.3417
X4.9173Y-2.4417
X4.9173Y-2.5417
X5.5173Y-0.6417
X5.5173Y-0.7417
X5.5173Y-0.8417
X5.5173Y-0.9417
X5.5173Y-1.0417
X5.5173Y-1.1417
X5.5173Y-1.2417
X5.5173Y-1.3417
X5.5173Y-1.4417
X5.5173Y-1.5417
X5.5173Y-1.6417
X5.5173Y-1.7417
X5.5173Y-1.8417
X5.5173Y-1.9417
X5.5173Y-2.0417
X5.5173Y-2.1417
X5.5173Y-2.2417
X5.5173Y-2.3417
X5.5173Y-2.4417
X5.5173Y-2.5417
X0.7756Y-1.0945
X0.9724Y-1.0945
X3.5157Y-1.0984
X3.6142Y-1.0984
X2.7992Y-1.1535
X2.7992Y-1.252
X5.4803Y-2.9882
X5.5787Y-2.9882
X0.7992Y-2.1417
X0.7992Y-2.2402
X5.6654Y-2.0472
X5.6654Y-2.1457
X3.0157Y-1.248
X3.0157Y-1.348
X3.0157Y-1.448
X3.0157Y-1.548
X3.0157Y-1.648
X3.0157Y-1.748
X3.0157Y-1.848
X3.0157Y-1.948
X3.0157Y-2.048
X3.0157Y-2.148
X3.0157Y-2.248
X3.0157Y-2.348
X3.0157Y-2.448
X3.0157Y-2.548
X3.6157Y-1.248
X3.6157Y-1.348
X3.6157Y-1.448
X3.6157Y-1.548
X3.6157Y-1.648
X3.6157Y-1.748
X3.6157Y-1.848
X3.6157Y-1.948
X3.6157Y-2.048
X3.6157Y-2.148
X3.6157Y-2.248
X3.6157Y-2.348
X3.6157Y-2.448
X3.6157Y-2.548
X1.0945Y-1.0945
X1.2913Y-1.0945
T4
X4.2441Y-0.3504
X4.3441Y-0.3504
X4.4441Y-0.3504
X4.5441Y-0.3504
X4.6441Y-0.3504
X4.7441Y-0.3504
X4.8441Y-0.3504
X4.9441Y-0.3504
X5.0441Y-0.3504
X1.0028Y-3.1677
X1.0028Y-3.2677
X1.1028Y-3.1677
X1.1028Y-3.2677
X1.2028Y-3.1677
X1.2028Y-3.2677
X1.3028Y-3.1677
X1.3028Y-3.2677
X1.4028Y-3.1677
X1.4028Y-3.2677
X1.5028Y-3.1677
X1.5028Y-3.2677
X1.6028Y-3.1677
X1.6028Y-3.2677
X1.7028Y-3.1677
X1.7028Y-3.2677
X1.8028Y-3.1677
X1.8028Y-3.2677
X1.9028Y-3.1677
X1.9028Y-3.2677
X2.0028Y-3.1677
X2.0028Y-3.2677
X2.1028Y-3.1677
X2.1028Y-3.2677
X2.2028Y-3.1677
X2.2028Y-3.2677
X2.3028Y-3.1677
X2.3028Y-3.2677
X2.4028Y-3.1677
X2.4028Y-3.2677
X2.5028Y-3.1677
X2.5028Y-3.2677
X2.6028Y-3.1677
X2.6028Y-3.2677
X2.7028Y-3.1677
X2.7028Y-3.2677
X2.8028Y-3.1677
X2.8028Y-3.2677
X2.9028Y-3.1677
X2.9028Y-3.2677
X3.0028Y-3.1677
X3.0028Y-3.2677
X3.1028Y-3.1677
X3.1028Y-3.2677
X3.2028Y-3.1677
X3.2028Y-3.2677
X3.3028Y-3.1677
X3.3028Y-3.2677
X3.4028Y-3.1677
X3.4028Y-3.2677
X3.5028Y-3.1677
X3.5028Y-3.2677
X3.6028Y-3.1677
X3.6028Y-3.2677
X3.7028Y-3.1677
X3.7028Y-3.2677
X3.8028Y-3.1677
X3.8028Y-3.2677
X3.9028Y-3.1677
X3.9028Y-3.2677
X4.0028Y-3.1677
X4.0028Y-3.2677
X4.1028Y-3.1677
X4.1028Y-3.2677
X4.2028Y-3.1677
X4.2028Y-3.2677
X4.3028Y-3.1677
X4.3028Y-3.2677
X4.4028Y-3.1677
X4.4028Y-3.2677
X4.5028Y-3.1677
X4.5028Y-3.2677
X4.6028Y-3.1677
X4.6028Y-3.2677
X4.7028Y-3.1677
X4.7028Y-3.2677
X4.8028Y-3.1677
X4.8028Y-3.2677
X4.9028Y-3.1677
X4.9028Y-3.2677
X0.2677Y-1.7598
X0.2677Y-1.8598
X0.2677Y-1.9598
X0.2677Y-2.0598
X0.2677Y-2.1598
X1.9528Y-1.252
X1.9528Y-1.352
X1.9528Y-1.452
X1.9528Y-1.552
X1.9528Y-1.652
X1.9528Y-1.752
X1.9528Y-1.852
X1.9528Y-1.952
X1.9528Y-2.052
X1.9528Y-2.152
X1.9528Y-2.252
X1.9528Y-2.352
X1.9528Y-2.452
X1.9528Y-2.552
X2.5528Y-1.252
X2.5528Y-1.352
X2.5528Y-1.452
X2.5528Y-1.552
X2.5528Y-1.652
X2.5528Y-1.752
X2.5528Y-1.852
X2.5528Y-1.952
X2.5528Y-2.052
X2.5528Y-2.152
X2.5528Y-2.252
X2.5528Y-2.352
X2.5528Y-2.452
X2.5528Y-2.552
X2.988Y-1.008
X3.088Y-1.008
X3.188Y-1.008
X0.2717Y-1.0157
X0.2717Y-1.1157
X0.2717Y-1.2157
X0.2717Y-1.3157
X0.2717Y-1.4157
X3.1772Y-0.3504
X3.2772Y-0.3504
X3.3772Y-0.3504
X3.4772Y-0.3504
X3.5772Y-0.3504
X3.6772Y-0.3504
X3.7772Y-0.3504
X3.8772Y-0.3504
X3.9772Y-0.3504
T5
X0.7244Y-3.4055
X5.1811Y-3.4055
T0
M30
