G04 #@! TF.GenerationSoftware,KiCad,Pcbnew,5.1.5+dfsg1-2build2*
G04 #@! TF.CreationDate,2021-06-23T14:50:16-04:00*
G04 #@! TF.ProjectId,InterruptAndKeyboard,496e7465-7272-4757-9074-416e644b6579,1*
G04 #@! TF.SameCoordinates,Original*
G04 #@! TF.FileFunction,Soldermask,Bot*
G04 #@! TF.FilePolarity,Negative*
%FSLAX46Y46*%
G04 Gerber Fmt 4.6, Leading zero omitted, Abs format (unit mm)*
G04 Created by KiCad (PCBNEW 5.1.5+dfsg1-2build2) date 2021-06-23 14:50:16*
%MOMM*%
%LPD*%
G04 APERTURE LIST*
%ADD10R,1.700000X1.700000*%
%ADD11O,1.700000X1.700000*%
%ADD12C,3.200000*%
%ADD13R,1.600000X1.600000*%
%ADD14C,1.600000*%
%ADD15C,1.400000*%
%ADD16O,1.400000X1.400000*%
%ADD17O,1.600000X1.600000*%
%ADD18C,1.500000*%
G04 APERTURE END LIST*
D10*
X25470000Y-83000000D03*
D11*
X25470000Y-80460000D03*
X28010000Y-83000000D03*
X28010000Y-80460000D03*
X30550000Y-83000000D03*
X30550000Y-80460000D03*
X33090000Y-83000000D03*
X33090000Y-80460000D03*
X35630000Y-83000000D03*
X35630000Y-80460000D03*
X38170000Y-83000000D03*
X38170000Y-80460000D03*
X40710000Y-83000000D03*
X40710000Y-80460000D03*
X43250000Y-83000000D03*
X43250000Y-80460000D03*
X45790000Y-83000000D03*
X45790000Y-80460000D03*
X48330000Y-83000000D03*
X48330000Y-80460000D03*
X50870000Y-83000000D03*
X50870000Y-80460000D03*
X53410000Y-83000000D03*
X53410000Y-80460000D03*
X55950000Y-83000000D03*
X55950000Y-80460000D03*
X58490000Y-83000000D03*
X58490000Y-80460000D03*
X61030000Y-83000000D03*
X61030000Y-80460000D03*
X63570000Y-83000000D03*
X63570000Y-80460000D03*
X66110000Y-83000000D03*
X66110000Y-80460000D03*
X68650000Y-83000000D03*
X68650000Y-80460000D03*
X71190000Y-83000000D03*
X71190000Y-80460000D03*
X73730000Y-83000000D03*
X73730000Y-80460000D03*
X76270000Y-83000000D03*
X76270000Y-80460000D03*
X78810000Y-83000000D03*
X78810000Y-80460000D03*
X81350000Y-83000000D03*
X81350000Y-80460000D03*
X83890000Y-83000000D03*
X83890000Y-80460000D03*
X86430000Y-83000000D03*
X86430000Y-80460000D03*
X88970000Y-83000000D03*
X88970000Y-80460000D03*
X91510000Y-83000000D03*
X91510000Y-80460000D03*
X94050000Y-83000000D03*
X94050000Y-80460000D03*
X96590000Y-83000000D03*
X96590000Y-80460000D03*
X99130000Y-83000000D03*
X99130000Y-80460000D03*
X101670000Y-83000000D03*
X101670000Y-80460000D03*
X104210000Y-83000000D03*
X104210000Y-80460000D03*
X106750000Y-83000000D03*
X106750000Y-80460000D03*
X109290000Y-83000000D03*
X109290000Y-80460000D03*
X111830000Y-83000000D03*
X111830000Y-80460000D03*
X114370000Y-83000000D03*
X114370000Y-80460000D03*
X116910000Y-83000000D03*
X116910000Y-80460000D03*
X119450000Y-83000000D03*
X119450000Y-80460000D03*
X121990000Y-83000000D03*
X121990000Y-80460000D03*
X124530000Y-83000000D03*
X124530000Y-80460000D03*
D12*
X18400000Y-86500000D03*
X131600000Y-86500000D03*
D13*
X141700000Y-75900000D03*
D14*
X139200000Y-75900000D03*
X52750000Y-39970000D03*
X52750000Y-37470000D03*
X25920000Y-9700000D03*
X25920000Y-12200000D03*
X16710000Y-25740000D03*
X16710000Y-23240000D03*
X11700000Y-55940000D03*
X11700000Y-53440000D03*
X11470000Y-37590000D03*
X11470000Y-40090000D03*
X52720000Y-12170000D03*
X52720000Y-9670000D03*
X52980000Y-25930000D03*
X52980000Y-23430000D03*
X79140000Y-19880000D03*
X79140000Y-17380000D03*
X78410000Y-53330000D03*
X78410000Y-55830000D03*
X78350000Y-39840000D03*
X78350000Y-37340000D03*
X46110000Y-53430000D03*
X46110000Y-55930000D03*
X127390000Y-46660000D03*
X127390000Y-44160000D03*
X122420000Y-44160000D03*
X122420000Y-46660000D03*
D10*
X143640000Y-20660000D03*
D11*
X143640000Y-23200000D03*
X143640000Y-25740000D03*
X143640000Y-28280000D03*
X143640000Y-30820000D03*
X143640000Y-33360000D03*
X143640000Y-35900000D03*
X143640000Y-38440000D03*
X143640000Y-40980000D03*
X143640000Y-43520000D03*
X143640000Y-46060000D03*
X143640000Y-48600000D03*
X143640000Y-51140000D03*
X143640000Y-53680000D03*
X143640000Y-56220000D03*
X143640000Y-58760000D03*
X143640000Y-61300000D03*
X143640000Y-63840000D03*
X143640000Y-66380000D03*
X143640000Y-68920000D03*
D10*
X100840000Y-49520000D03*
D11*
X98300000Y-49520000D03*
D15*
X57250000Y-66430000D03*
D16*
X57250000Y-74050000D03*
D15*
X59465000Y-66430000D03*
D16*
X59465000Y-74050000D03*
D15*
X61680000Y-74050000D03*
D16*
X61680000Y-66430000D03*
X63895000Y-74050000D03*
D15*
X63895000Y-66430000D03*
X66110000Y-66430000D03*
D16*
X66110000Y-74050000D03*
X68325000Y-74050000D03*
D15*
X68325000Y-66430000D03*
X70540000Y-74050000D03*
D16*
X70540000Y-66430000D03*
D17*
X138960000Y-33360000D03*
X138960000Y-35900000D03*
X138960000Y-38440000D03*
X138960000Y-40980000D03*
X138960000Y-43520000D03*
X138960000Y-46060000D03*
X138960000Y-48600000D03*
X138960000Y-51140000D03*
D13*
X138960000Y-53680000D03*
D17*
X57530000Y-37540000D03*
X72770000Y-45160000D03*
X60070000Y-37540000D03*
X70230000Y-45160000D03*
X62610000Y-37540000D03*
X67690000Y-45160000D03*
X65150000Y-37540000D03*
X65150000Y-45160000D03*
X67690000Y-37540000D03*
X62610000Y-45160000D03*
X70230000Y-37540000D03*
X60070000Y-45160000D03*
X72770000Y-37540000D03*
D13*
X57530000Y-45160000D03*
X30620000Y-17320000D03*
D17*
X45860000Y-9700000D03*
X33160000Y-17320000D03*
X43320000Y-9700000D03*
X35700000Y-17320000D03*
X40780000Y-9700000D03*
X38240000Y-17320000D03*
X38240000Y-9700000D03*
X40780000Y-17320000D03*
X35700000Y-9700000D03*
X43320000Y-17320000D03*
X33160000Y-9700000D03*
X45860000Y-17320000D03*
X30620000Y-9700000D03*
X21400000Y-23240000D03*
X39180000Y-30860000D03*
X23940000Y-23240000D03*
X36640000Y-30860000D03*
X26480000Y-23240000D03*
X34100000Y-30860000D03*
X29020000Y-23240000D03*
X31560000Y-30860000D03*
X31560000Y-23240000D03*
X29020000Y-30860000D03*
X34100000Y-23240000D03*
X26480000Y-30860000D03*
X36640000Y-23240000D03*
X23940000Y-30860000D03*
X39180000Y-23240000D03*
D13*
X21400000Y-30860000D03*
D17*
X16360000Y-53440000D03*
X39220000Y-61060000D03*
X18900000Y-53440000D03*
X36680000Y-61060000D03*
X21440000Y-53440000D03*
X34140000Y-61060000D03*
X23980000Y-53440000D03*
X31600000Y-61060000D03*
X26520000Y-53440000D03*
X29060000Y-61060000D03*
X29060000Y-53440000D03*
X26520000Y-61060000D03*
X31600000Y-53440000D03*
X23980000Y-61060000D03*
X34140000Y-53440000D03*
X21440000Y-61060000D03*
X36680000Y-53440000D03*
X18900000Y-61060000D03*
X39220000Y-53440000D03*
D13*
X16360000Y-61060000D03*
X16240000Y-45210000D03*
D17*
X39100000Y-37590000D03*
X18780000Y-45210000D03*
X36560000Y-37590000D03*
X21320000Y-45210000D03*
X34020000Y-37590000D03*
X23860000Y-45210000D03*
X31480000Y-37590000D03*
X26400000Y-45210000D03*
X28940000Y-37590000D03*
X28940000Y-45210000D03*
X26400000Y-37590000D03*
X31480000Y-45210000D03*
X23860000Y-37590000D03*
X34020000Y-45210000D03*
X21320000Y-37590000D03*
X36560000Y-45210000D03*
X18780000Y-37590000D03*
X39100000Y-45210000D03*
X16240000Y-37590000D03*
X57460000Y-9660000D03*
X72700000Y-17280000D03*
X60000000Y-9660000D03*
X70160000Y-17280000D03*
X62540000Y-9660000D03*
X67620000Y-17280000D03*
X65080000Y-9660000D03*
X65080000Y-17280000D03*
X67620000Y-9660000D03*
X62540000Y-17280000D03*
X70160000Y-9660000D03*
X60000000Y-17280000D03*
X72700000Y-9660000D03*
D13*
X57460000Y-17280000D03*
X57640000Y-31010000D03*
D17*
X72880000Y-23390000D03*
X60180000Y-31010000D03*
X70340000Y-23390000D03*
X62720000Y-31010000D03*
X67800000Y-23390000D03*
X65260000Y-31010000D03*
X65260000Y-23390000D03*
X67800000Y-31010000D03*
X62720000Y-23390000D03*
X70340000Y-31010000D03*
X60180000Y-23390000D03*
X72880000Y-31010000D03*
X57640000Y-23390000D03*
D13*
X82970000Y-30950000D03*
D17*
X131230000Y-15710000D03*
X85510000Y-30950000D03*
X128690000Y-15710000D03*
X88050000Y-30950000D03*
X126150000Y-15710000D03*
X90590000Y-30950000D03*
X123610000Y-15710000D03*
X93130000Y-30950000D03*
X121070000Y-15710000D03*
X95670000Y-30950000D03*
X118530000Y-15710000D03*
X98210000Y-30950000D03*
X115990000Y-15710000D03*
X100750000Y-30950000D03*
X113450000Y-15710000D03*
X103290000Y-30950000D03*
X110910000Y-15710000D03*
X105830000Y-30950000D03*
X108370000Y-15710000D03*
X108370000Y-30950000D03*
X105830000Y-15710000D03*
X110910000Y-30950000D03*
X103290000Y-15710000D03*
X113450000Y-30950000D03*
X100750000Y-15710000D03*
X115990000Y-30950000D03*
X98210000Y-15710000D03*
X118530000Y-30950000D03*
X95670000Y-15710000D03*
X121070000Y-30950000D03*
X93130000Y-15710000D03*
X123610000Y-30950000D03*
X90590000Y-15710000D03*
X126150000Y-30950000D03*
X88050000Y-15710000D03*
X128690000Y-30950000D03*
X85510000Y-15710000D03*
X131230000Y-30950000D03*
X82970000Y-15710000D03*
D13*
X83050000Y-61020000D03*
D17*
X116070000Y-53400000D03*
X85590000Y-61020000D03*
X113530000Y-53400000D03*
X88130000Y-61020000D03*
X110990000Y-53400000D03*
X90670000Y-61020000D03*
X108450000Y-53400000D03*
X93210000Y-61020000D03*
X105910000Y-53400000D03*
X95750000Y-61020000D03*
X103370000Y-53400000D03*
X98290000Y-61020000D03*
X100830000Y-53400000D03*
X100830000Y-61020000D03*
X98290000Y-53400000D03*
X103370000Y-61020000D03*
X95750000Y-53400000D03*
X105910000Y-61020000D03*
X93210000Y-53400000D03*
X108450000Y-61020000D03*
X90670000Y-53400000D03*
X110990000Y-61020000D03*
X88130000Y-53400000D03*
X113530000Y-61020000D03*
X85590000Y-53400000D03*
X116070000Y-61020000D03*
X83050000Y-53400000D03*
D13*
X82980000Y-44970000D03*
D17*
X100760000Y-37350000D03*
X85520000Y-44970000D03*
X98220000Y-37350000D03*
X88060000Y-44970000D03*
X95680000Y-37350000D03*
X90600000Y-44970000D03*
X93140000Y-37350000D03*
X93140000Y-44970000D03*
X90600000Y-37350000D03*
X95680000Y-44970000D03*
X88060000Y-37350000D03*
X98220000Y-44970000D03*
X85520000Y-37350000D03*
X100760000Y-44970000D03*
X82980000Y-37350000D03*
X50800000Y-53400000D03*
X73660000Y-61020000D03*
X53340000Y-53400000D03*
X71120000Y-61020000D03*
X55880000Y-53400000D03*
X68580000Y-61020000D03*
X58420000Y-53400000D03*
X66040000Y-61020000D03*
X60960000Y-53400000D03*
X63500000Y-61020000D03*
X63500000Y-53400000D03*
X60960000Y-61020000D03*
X66040000Y-53400000D03*
X58420000Y-61020000D03*
X68580000Y-53400000D03*
X55880000Y-61020000D03*
X71120000Y-53400000D03*
X53340000Y-61020000D03*
X73660000Y-53400000D03*
D13*
X50800000Y-61020000D03*
D18*
X127370000Y-38840000D03*
X122470000Y-38840000D03*
M02*
