M48
; DRILL file {KiCad 5.1.5+dfsg1-2build2} date Wed 23 Jun 2021 02:50:20 PM EDT
; FORMAT={-:-/ absolute / inch / decimal}
; #@! TF.CreationDate,2021-06-23T14:50:20-04:00
; #@! TF.GenerationSoftware,Kicad,Pcbnew,5.1.5+dfsg1-2build2
; #@! TF.FileFunction,Plated,1,2,PTH
FMAT,2
INCH
T1C0.0118
T2C0.0276
T3C0.0315
T4C0.0394
%
G90
G05
T1
X0.4528Y-1.3799
X0.4646Y-2.0118
X0.6043Y-1.9567
X0.6398Y-1.378
X0.6437Y-2.0098
X0.6457Y-2.3346
X0.6575Y-0.8287
X0.7441Y-1.9803
X0.8031Y-0.3386
X0.8047Y-3.0941
X0.8406Y-0.8287
X0.8445Y-2.4843
X0.9055Y-3.0689
X0.9173Y-0.6398
X0.9449Y-2.505
X0.983Y-1.1745
X0.9833Y-0.619
X1.0059Y-3.0472
X1.0217Y-0.2933
X1.0453Y-1.128
X1.0787Y-0.563
X1.1004Y-0.5413
X1.1028Y-3.0937
X1.1063Y-3.0236
X1.1417Y-0.7343
X1.187Y-0.755
X1.187Y-1.9311
X1.2028Y-3.0689
X1.2047Y-0.2933
X1.2067Y-0.5965
X1.2067Y-1.4134
X1.2067Y-2.998
X1.2402Y-1.378
X1.2425Y-0.7681
X1.3012Y-3.0472
X1.3051Y-2.9744
X1.3071Y-0.5197
X1.3071Y-1.1496
X1.3465Y-0.4567
X1.378Y-2.505
X1.4016Y-3.0236
X1.4055Y-0.619
X1.4055Y-2.9449
X1.439Y-0.8287
X1.4409Y-1.3484
X1.4705Y-2.4843
X1.5Y-1.128
X1.502Y-2.998
X1.5059Y-0.4331
X1.5059Y-2.9173
X1.5787Y-1.5463
X1.5886Y-2.4587
X1.6043Y-2.9744
X1.6063Y-0.7972
X1.6811Y-0.4587
X1.7028Y-2.9449
X1.7067Y-0.437
X1.8031Y-2.9173
X1.8051Y-0.4783
X1.8051Y-1.0217
X1.8169Y-2.0098
X1.9843Y-1.6299
X1.998Y-2.0098
X2.0374Y-0.6181
X2.0374Y-0.748
X2.0388Y-1.7382
X2.0413Y-2.8228
X2.0748Y-0.2933
X2.0768Y-1.378
X2.0846Y-0.8287
X2.1083Y-2.8504
X2.1339Y-0.6791
X2.1388Y-2.9213
X2.1575Y-3.0965
X2.1949Y-3.0728
X2.2638Y-0.2933
X2.2657Y-1.378
X2.2677Y-0.8287
X2.2697Y-0.748
X2.2835Y-3.0472
X2.3248Y-1.5256
X2.3406Y-3.3366
X2.3425Y-2.8504
X2.3622Y-0.5404
X2.3642Y-1.5728
X2.3917Y-3.0265
X2.4055Y-1.437
X2.4291Y-2.8228
X2.435Y-3.3366
X2.4388Y-2.3327
X2.4404Y-1.8302
X2.4626Y-0.4291
X2.4685Y-0.8465
X2.4744Y-2.998
X2.5098Y-1.8307
X2.5315Y-1.5472
X2.5571Y-3.3366
X2.563Y-0.6181
X2.563Y-1.9311
X2.563Y-2.3327
X2.5689Y-1.3091
X2.5866Y-1.3484
X2.622Y-1.2795
X2.6404Y-1.9359
X2.6535Y-2.9773
X2.6614Y-0.5571
X2.7028Y-3.1172
X2.7598Y-3.315
X2.7618Y-0.5965
X2.765Y-1.3102
X2.7846Y-1.7224
X2.8051Y-1.5374
X2.8386Y-2.9528
X2.8592Y-2.8789
X2.872Y-0.811
X3.0846Y-1.378
X3.0906Y-2.0098
X3.1181Y-0.2933
X3.1181Y-0.5276
X3.2008Y-2.1535
X3.2028Y-2.3583
X3.2028Y-2.4508
X3.2205Y-0.5866
X3.2253Y-3.1172
X3.2657Y-0.5276
X3.2657Y-2.0098
X3.2677Y-1.378
X3.2697Y-1.1299
X3.3091Y-0.5571
X3.3287Y-1.3484
X3.3661Y-0.9508
X3.3681Y-1.5276
X3.3681Y-2.1988
X3.4272Y-1.4094
X3.4665Y-0.9705
X3.4665Y-1.6142
X3.5054Y-0.6969
X3.5276Y-1.3277
X3.5453Y-3.3091
X3.5689Y-1.0138
X3.5709Y-2.2933
X3.5945Y-0.6713
X3.622Y-0.8681
X3.622Y-1.9803
X3.6673Y-0.4961
X3.6673Y-1.1713
X3.6713Y-2.313
X3.7101Y-1.9581
X3.7106Y-2.9311
X3.7677Y-1.1502
X3.7697Y-0.4685
X3.7697Y-2.3375
X3.7717Y-2.0098
X3.8661Y-0.811
X3.8701Y-1.0728
X3.876Y-2.628
X3.9134Y-1.437
X3.9665Y-0.9882
X3.9685Y-0.4409
X4.0098Y-2.4735
X4.0669Y-0.4173
X4.0669Y-1.9055
X4.0689Y-3.0965
X4.1654Y-0.5276
X4.1713Y-3.0689
X4.2047Y-2.878
X4.2283Y-2.9537
X4.2717Y-3.0472
X4.3228Y-0.7205
X4.3268Y-2.2903
X4.372Y-3.0236
X4.4075Y-2.9764
X4.4193Y-2.1142
X4.4409Y-2.9331
X4.4685Y-2.998
X4.5689Y-1.5276
X4.6083Y-0.8465
X4.6398Y-1.4488
X4.6398Y-2.4528
X4.6969Y-1.439
X4.8012Y-1.9075
X5.1004Y-2.311
X5.1249Y-2.3375
X5.1969Y-0.4409
X5.2067Y-1.9114
X5.2244Y-0.4685
X5.2244Y-1.7106
X5.2441Y-0.4961
X5.248Y-1.6083
X5.2657Y-0.4173
X5.2697Y-1.9764
X5.2933Y-0.9882
X5.2933Y-2.4134
X5.3169Y-0.9646
X5.3169Y-2.0669
X5.3386Y-2.2126
X5.3406Y-0.9449
X5.374Y-0.5236
X5.374Y-1.378
X5.374Y-2.0098
X5.374Y-2.1122
X5.4075Y-1.3268
X5.4665Y-2.5551
X5.5413Y-1.135
X5.5413Y-2.5138
X5.7126Y-1.1752
X5.7126Y-1.4134
X5.7382Y-1.1555
X5.7382Y-1.6122
X5.7538Y-1.7126
X5.7598Y-1.0748
X5.7756Y-1.5728
X5.7953Y-1.6772
X5.8094Y-1.5134
X5.8169Y-1.378
X5.8169Y-1.876
X5.8386Y-1.4744
X5.8386Y-1.9134
X5.8386Y-1.9685
X5.8583Y-0.815
X5.8593Y-1.8524
T2
X2.2539Y-2.6154
X2.2539Y-2.9154
X2.3411Y-2.6154
X2.3411Y-2.9154
X2.4283Y-2.6154
X2.4283Y-2.9154
X2.7772Y-2.6154
X2.7772Y-2.9154
X2.6028Y-2.6154
X2.6028Y-2.9154
X2.5156Y-2.6154
X2.5156Y-2.9154
X2.69Y-2.6154
X2.69Y-2.9154
T3
X0.6579Y-0.915
X0.6579Y-1.0134
X0.6441Y-2.1039
X0.6441Y-2.4039
X0.7441Y-2.1039
X0.7441Y-2.4039
X0.8441Y-2.1039
X0.8441Y-2.4039
X0.9441Y-2.1039
X0.9441Y-2.4039
X1.0441Y-2.1039
X1.0441Y-2.4039
X1.1441Y-2.1039
X1.1441Y-2.4039
X1.2441Y-2.1039
X1.2441Y-2.4039
X1.3441Y-2.1039
X1.3441Y-2.4039
X1.4441Y-2.1039
X1.4441Y-2.4039
X1.5441Y-2.1039
X1.5441Y-2.4039
X2.0Y-2.1024
X2.0Y-2.4024
X2.1Y-2.1024
X2.1Y-2.4024
X2.2Y-2.1024
X2.2Y-2.4024
X2.3Y-2.1024
X2.3Y-2.4024
X2.4Y-2.1024
X2.4Y-2.4024
X2.5Y-2.1024
X2.5Y-2.4024
X2.6Y-2.1024
X2.6Y-2.4024
X2.7Y-2.1024
X2.7Y-2.4024
X2.8Y-2.1024
X2.8Y-2.4024
X2.9Y-2.1024
X2.9Y-2.4024
X2.0756Y-0.3807
X2.0756Y-0.4791
X3.2665Y-0.6185
X3.2665Y-1.2185
X3.3665Y-0.6185
X3.3665Y-1.2185
X3.4665Y-0.6185
X3.4665Y-1.2185
X3.5665Y-0.6185
X3.5665Y-1.2185
X3.6665Y-0.6185
X3.6665Y-1.2185
X3.7665Y-0.6185
X3.7665Y-1.2185
X3.8665Y-0.6185
X3.8665Y-1.2185
X3.9665Y-0.6185
X3.9665Y-1.2185
X4.0665Y-0.6185
X4.0665Y-1.2185
X4.1665Y-0.6185
X4.1665Y-1.2185
X4.2665Y-0.6185
X4.2665Y-1.2185
X4.3665Y-0.6185
X4.3665Y-1.2185
X4.4665Y-0.6185
X4.4665Y-1.2185
X4.5665Y-0.6185
X4.5665Y-1.2185
X4.6665Y-0.6185
X4.6665Y-1.2185
X4.7665Y-0.6185
X4.7665Y-1.2185
X4.8665Y-0.6185
X4.8665Y-1.2185
X4.9665Y-0.6185
X4.9665Y-1.2185
X5.0665Y-0.6185
X5.0665Y-1.2185
X5.1665Y-0.6185
X5.1665Y-1.2185
X0.6394Y-1.4799
X0.6394Y-1.7799
X0.7394Y-1.4799
X0.7394Y-1.7799
X0.8394Y-1.4799
X0.8394Y-1.7799
X0.9394Y-1.4799
X0.9394Y-1.7799
X1.0394Y-1.4799
X1.0394Y-1.7799
X1.1394Y-1.4799
X1.1394Y-1.7799
X1.2394Y-1.4799
X1.2394Y-1.7799
X1.3394Y-1.4799
X1.3394Y-1.7799
X1.4394Y-1.4799
X1.4394Y-1.7799
X1.5394Y-1.4799
X1.5394Y-1.7799
X5.4803Y-2.9882
X5.5787Y-2.9882
X2.265Y-1.478
X2.265Y-1.778
X2.365Y-1.478
X2.365Y-1.778
X2.465Y-1.478
X2.465Y-1.778
X2.565Y-1.478
X2.565Y-1.778
X2.665Y-1.478
X2.665Y-1.778
X2.765Y-1.478
X2.765Y-1.778
X2.865Y-1.478
X2.865Y-1.778
X0.4516Y-1.4799
X0.4516Y-1.5783
X0.4606Y-2.1039
X0.4606Y-2.2024
X2.2693Y-0.9209
X2.2693Y-1.2209
X2.3693Y-0.9209
X2.3693Y-1.2209
X2.4693Y-0.9209
X2.4693Y-1.2209
X2.5693Y-0.9209
X2.5693Y-1.2209
X2.6693Y-0.9209
X2.6693Y-1.2209
X2.7693Y-0.9209
X2.7693Y-1.2209
X2.8693Y-0.9209
X2.8693Y-1.2209
X0.8425Y-0.915
X0.8425Y-1.215
X0.9425Y-0.915
X0.9425Y-1.215
X1.0425Y-0.915
X1.0425Y-1.215
X1.1425Y-0.915
X1.1425Y-1.215
X1.2425Y-0.915
X1.2425Y-1.215
X1.3425Y-0.915
X1.3425Y-1.215
X1.4425Y-0.915
X1.4425Y-1.215
X1.5425Y-0.915
X1.5425Y-1.215
X3.1157Y-0.6843
X3.1157Y-0.7827
X1.2055Y-0.3819
X1.2055Y-0.6819
X1.3055Y-0.3819
X1.3055Y-0.6819
X1.4055Y-0.3819
X1.4055Y-0.6819
X1.5055Y-0.3819
X1.5055Y-0.6819
X1.6055Y-0.3819
X1.6055Y-0.6819
X1.7055Y-0.3819
X1.7055Y-0.6819
X1.8055Y-0.3819
X1.8055Y-0.6819
X4.8217Y-1.5291
X5.0146Y-1.5291
X3.0846Y-1.4701
X3.0846Y-1.5685
X4.8197Y-1.7386
X4.8197Y-1.837
X5.4709Y-1.3134
X5.4709Y-1.4134
X5.4709Y-1.5134
X5.4709Y-1.6134
X5.4709Y-1.7134
X5.4709Y-1.8134
X5.4709Y-1.9134
X5.4709Y-2.0134
X5.4709Y-2.1134
X1.8154Y-2.1035
X1.8154Y-2.202
X2.0768Y-1.4752
X2.0768Y-1.5736
X3.2697Y-2.1024
X3.2697Y-2.4024
X3.3697Y-2.1024
X3.3697Y-2.4024
X3.4697Y-2.1024
X3.4697Y-2.4024
X3.5697Y-2.1024
X3.5697Y-2.4024
X3.6697Y-2.1024
X3.6697Y-2.4024
X3.7697Y-2.1024
X3.7697Y-2.4024
X3.8697Y-2.1024
X3.8697Y-2.4024
X3.9697Y-2.1024
X3.9697Y-2.4024
X4.0697Y-2.1024
X4.0697Y-2.4024
X4.1697Y-2.1024
X4.1697Y-2.4024
X4.2697Y-2.1024
X4.2697Y-2.4024
X4.3697Y-2.1024
X4.3697Y-2.4024
X4.4697Y-2.1024
X4.4697Y-2.4024
X4.5697Y-2.1024
X4.5697Y-2.4024
X2.2622Y-0.3803
X2.2622Y-0.6803
X2.3622Y-0.3803
X2.3622Y-0.6803
X2.4622Y-0.3803
X2.4622Y-0.6803
X2.5622Y-0.3803
X2.5622Y-0.6803
X2.6622Y-0.3803
X2.6622Y-0.6803
X2.7622Y-0.3803
X2.7622Y-0.6803
X2.8622Y-0.3803
X2.8622Y-0.6803
X5.0154Y-1.7386
X5.0154Y-1.837
X3.087Y-2.0996
X3.087Y-2.198
X1.0205Y-0.3819
X1.0205Y-0.4803
X2.0858Y-0.9224
X2.0858Y-1.0209
X3.2669Y-1.4705
X3.2669Y-1.7705
X3.3669Y-1.4705
X3.3669Y-1.7705
X3.4669Y-1.4705
X3.4669Y-1.7705
X3.5669Y-1.4705
X3.5669Y-1.7705
X3.6669Y-1.4705
X3.6669Y-1.7705
X3.7669Y-1.4705
X3.7669Y-1.7705
X3.8669Y-1.4705
X3.8669Y-1.7705
X3.9669Y-1.4705
X3.9669Y-1.7705
T4
X1.0028Y-3.1677
X1.0028Y-3.2677
X1.1028Y-3.1677
X1.1028Y-3.2677
X1.2028Y-3.1677
X1.2028Y-3.2677
X1.3028Y-3.1677
X1.3028Y-3.2677
X1.4028Y-3.1677
X1.4028Y-3.2677
X1.5028Y-3.1677
X1.5028Y-3.2677
X1.6028Y-3.1677
X1.6028Y-3.2677
X1.7028Y-3.1677
X1.7028Y-3.2677
X1.8028Y-3.1677
X1.8028Y-3.2677
X1.9028Y-3.1677
X1.9028Y-3.2677
X2.0028Y-3.1677
X2.0028Y-3.2677
X2.1028Y-3.1677
X2.1028Y-3.2677
X2.2028Y-3.1677
X2.2028Y-3.2677
X2.3028Y-3.1677
X2.3028Y-3.2677
X2.4028Y-3.1677
X2.4028Y-3.2677
X2.5028Y-3.1677
X2.5028Y-3.2677
X2.6028Y-3.1677
X2.6028Y-3.2677
X2.7028Y-3.1677
X2.7028Y-3.2677
X2.8028Y-3.1677
X2.8028Y-3.2677
X2.9028Y-3.1677
X2.9028Y-3.2677
X3.0028Y-3.1677
X3.0028Y-3.2677
X3.1028Y-3.1677
X3.1028Y-3.2677
X3.2028Y-3.1677
X3.2028Y-3.2677
X3.3028Y-3.1677
X3.3028Y-3.2677
X3.4028Y-3.1677
X3.4028Y-3.2677
X3.5028Y-3.1677
X3.5028Y-3.2677
X3.6028Y-3.1677
X3.6028Y-3.2677
X3.7028Y-3.1677
X3.7028Y-3.2677
X3.8028Y-3.1677
X3.8028Y-3.2677
X3.9028Y-3.1677
X3.9028Y-3.2677
X4.0028Y-3.1677
X4.0028Y-3.2677
X4.1028Y-3.1677
X4.1028Y-3.2677
X4.2028Y-3.1677
X4.2028Y-3.2677
X4.3028Y-3.1677
X4.3028Y-3.2677
X4.4028Y-3.1677
X4.4028Y-3.2677
X4.5028Y-3.1677
X4.5028Y-3.2677
X4.6028Y-3.1677
X4.6028Y-3.2677
X4.7028Y-3.1677
X4.7028Y-3.2677
X4.8028Y-3.1677
X4.8028Y-3.2677
X4.9028Y-3.1677
X4.9028Y-3.2677
X3.8701Y-1.9496
X3.9701Y-1.9496
X5.6551Y-0.8134
X5.6551Y-0.9134
X5.6551Y-1.0134
X5.6551Y-1.1134
X5.6551Y-1.2134
X5.6551Y-1.3134
X5.6551Y-1.4134
X5.6551Y-1.5134
X5.6551Y-1.6134
X5.6551Y-1.7134
X5.6551Y-1.8134
X5.6551Y-1.9134
X5.6551Y-2.0134
X5.6551Y-2.1134
X5.6551Y-2.2134
X5.6551Y-2.3134
X5.6551Y-2.4134
X5.6551Y-2.5134
X5.6551Y-2.6134
X5.6551Y-2.7134
T0
M30
