G04 #@! TF.GenerationSoftware,KiCad,Pcbnew,6.0.10-86aedd382b~118~ubuntu20.04.1*
G04 #@! TF.CreationDate,2023-01-16T18:18:11-05:00*
G04 #@! TF.ProjectId,TMS9918A_YM2149,544d5339-3931-4384-915f-594d32313439,1*
G04 #@! TF.SameCoordinates,Original*
G04 #@! TF.FileFunction,Soldermask,Top*
G04 #@! TF.FilePolarity,Negative*
%FSLAX46Y46*%
G04 Gerber Fmt 4.6, Leading zero omitted, Abs format (unit mm)*
G04 Created by KiCad (PCBNEW 6.0.10-86aedd382b~118~ubuntu20.04.1) date 2023-01-16 18:18:11*
%MOMM*%
%LPD*%
G01*
G04 APERTURE LIST*
G04 Aperture macros list*
%AMRoundRect*
0 Rectangle with rounded corners*
0 $1 Rounding radius*
0 $2 $3 $4 $5 $6 $7 $8 $9 X,Y pos of 4 corners*
0 Add a 4 corners polygon primitive as box body*
4,1,4,$2,$3,$4,$5,$6,$7,$8,$9,$2,$3,0*
0 Add four circle primitives for the rounded corners*
1,1,$1+$1,$2,$3*
1,1,$1+$1,$4,$5*
1,1,$1+$1,$6,$7*
1,1,$1+$1,$8,$9*
0 Add four rect primitives between the rounded corners*
20,1,$1+$1,$2,$3,$4,$5,0*
20,1,$1+$1,$4,$5,$6,$7,0*
20,1,$1+$1,$6,$7,$8,$9,0*
20,1,$1+$1,$8,$9,$2,$3,0*%
G04 Aperture macros list end*
%ADD10C,3.200000*%
%ADD11R,1.600000X1.600000*%
%ADD12C,1.600000*%
%ADD13R,1.700000X1.700000*%
%ADD14O,1.700000X1.700000*%
%ADD15O,1.600000X1.600000*%
%ADD16R,1.800000X1.100000*%
%ADD17RoundRect,0.275000X-0.625000X0.275000X-0.625000X-0.275000X0.625000X-0.275000X0.625000X0.275000X0*%
%ADD18C,1.500000*%
%ADD19O,1.950000X3.900000*%
%ADD20O,3.400000X1.700000*%
%ADD21C,1.200000*%
%ADD22O,1.308000X2.616000*%
%ADD23O,2.616000X1.308000*%
G04 APERTURE END LIST*
D10*
X195100000Y-144920000D03*
X81900000Y-144920000D03*
D11*
X205200000Y-134320000D03*
D12*
X202700000Y-134320000D03*
D13*
X88970000Y-141420000D03*
D14*
X88970000Y-138880000D03*
X91510000Y-141420000D03*
X91510000Y-138880000D03*
X94050000Y-141420000D03*
X94050000Y-138880000D03*
X96590000Y-141420000D03*
X96590000Y-138880000D03*
X99130000Y-141420000D03*
X99130000Y-138880000D03*
X101670000Y-141420000D03*
X101670000Y-138880000D03*
X104210000Y-141420000D03*
X104210000Y-138880000D03*
X106750000Y-141420000D03*
X106750000Y-138880000D03*
X109290000Y-141420000D03*
X109290000Y-138880000D03*
X111830000Y-141420000D03*
X111830000Y-138880000D03*
X114370000Y-141420000D03*
X114370000Y-138880000D03*
X116910000Y-141420000D03*
X116910000Y-138880000D03*
X119450000Y-141420000D03*
X119450000Y-138880000D03*
X121990000Y-141420000D03*
X121990000Y-138880000D03*
X124530000Y-141420000D03*
X124530000Y-138880000D03*
X127070000Y-141420000D03*
X127070000Y-138880000D03*
X129610000Y-141420000D03*
X129610000Y-138880000D03*
X132150000Y-141420000D03*
X132150000Y-138880000D03*
X134690000Y-141420000D03*
X134690000Y-138880000D03*
X137230000Y-141420000D03*
X137230000Y-138880000D03*
X139770000Y-141420000D03*
X139770000Y-138880000D03*
X142310000Y-141420000D03*
X142310000Y-138880000D03*
X144850000Y-141420000D03*
X144850000Y-138880000D03*
X147390000Y-141420000D03*
X147390000Y-138880000D03*
X149930000Y-141420000D03*
X149930000Y-138880000D03*
X152470000Y-141420000D03*
X152470000Y-138880000D03*
X155010000Y-141420000D03*
X155010000Y-138880000D03*
X157550000Y-141420000D03*
X157550000Y-138880000D03*
X160090000Y-141420000D03*
X160090000Y-138880000D03*
X162630000Y-141420000D03*
X162630000Y-138880000D03*
X165170000Y-141420000D03*
X165170000Y-138880000D03*
X167710000Y-141420000D03*
X167710000Y-138880000D03*
X170250000Y-141420000D03*
X170250000Y-138880000D03*
X172790000Y-141420000D03*
X172790000Y-138880000D03*
X175330000Y-141420000D03*
X175330000Y-138880000D03*
X177870000Y-141420000D03*
X177870000Y-138880000D03*
X180410000Y-141420000D03*
X180410000Y-138880000D03*
X182950000Y-141420000D03*
X182950000Y-138880000D03*
X185490000Y-141420000D03*
X185490000Y-138880000D03*
X188030000Y-141420000D03*
X188030000Y-138880000D03*
D11*
X83576000Y-123200000D03*
D15*
X83576000Y-125740000D03*
X83576000Y-128280000D03*
X83576000Y-130820000D03*
X91196000Y-130820000D03*
X91196000Y-128280000D03*
X91196000Y-125740000D03*
X91196000Y-123200000D03*
D16*
X69704000Y-90932000D03*
D17*
X71774000Y-92202000D03*
X69704000Y-93472000D03*
D12*
X115062000Y-68580000D03*
D15*
X115062000Y-60960000D03*
D12*
X96266000Y-65786000D03*
D15*
X103886000Y-65786000D03*
D12*
X145288000Y-65786000D03*
X145288000Y-68286000D03*
X85344000Y-62992000D03*
X80344000Y-62992000D03*
D11*
X170454000Y-82814000D03*
D15*
X172994000Y-82814000D03*
X175534000Y-82814000D03*
X178074000Y-82814000D03*
X180614000Y-82814000D03*
X183154000Y-82814000D03*
X185694000Y-82814000D03*
X188234000Y-82814000D03*
X190774000Y-82814000D03*
X193314000Y-82814000D03*
X193314000Y-75194000D03*
X190774000Y-75194000D03*
X188234000Y-75194000D03*
X185694000Y-75194000D03*
X183154000Y-75194000D03*
X180614000Y-75194000D03*
X178074000Y-75194000D03*
X175534000Y-75194000D03*
X172994000Y-75194000D03*
X170454000Y-75194000D03*
D12*
X94742000Y-123210000D03*
X94742000Y-125710000D03*
X96266000Y-73406000D03*
D15*
X103886000Y-73406000D03*
D11*
X170454000Y-97790000D03*
D15*
X172994000Y-97790000D03*
X175534000Y-97790000D03*
X178074000Y-97790000D03*
X180614000Y-97790000D03*
X183154000Y-97790000D03*
X185694000Y-97790000D03*
X188234000Y-97790000D03*
X190774000Y-97790000D03*
X193314000Y-97790000D03*
X193314000Y-90170000D03*
X190774000Y-90170000D03*
X188234000Y-90170000D03*
X185694000Y-90170000D03*
X183154000Y-90170000D03*
X180614000Y-90170000D03*
X178074000Y-90170000D03*
X175534000Y-90170000D03*
X172994000Y-90170000D03*
X170454000Y-90170000D03*
D12*
X118618000Y-68580000D03*
D15*
X118618000Y-60960000D03*
D12*
X156733000Y-121696000D03*
X154233000Y-121696000D03*
D11*
X160528000Y-129286000D03*
D15*
X163068000Y-129286000D03*
X165608000Y-129286000D03*
X168148000Y-129286000D03*
X170688000Y-129286000D03*
X173228000Y-129286000D03*
X175768000Y-129286000D03*
X178308000Y-129286000D03*
X180848000Y-129286000D03*
X183388000Y-129286000D03*
X185928000Y-129286000D03*
X188468000Y-129286000D03*
X191008000Y-129286000D03*
X193548000Y-129286000D03*
X193548000Y-121666000D03*
X191008000Y-121666000D03*
X188468000Y-121666000D03*
X185928000Y-121666000D03*
X183388000Y-121666000D03*
X180848000Y-121666000D03*
X178308000Y-121666000D03*
X175768000Y-121666000D03*
X173228000Y-121666000D03*
X170688000Y-121666000D03*
X168148000Y-121666000D03*
X165608000Y-121666000D03*
X163068000Y-121666000D03*
X160528000Y-121666000D03*
D18*
X140208000Y-73406000D03*
X145108000Y-73406000D03*
D19*
X69850000Y-103886000D03*
D20*
X74350000Y-103886000D03*
D12*
X170175000Y-71384000D03*
X167675000Y-71384000D03*
X145542000Y-97810000D03*
X145542000Y-100310000D03*
X96266000Y-61976000D03*
D15*
X103886000Y-61976000D03*
D12*
X67056000Y-86614000D03*
D15*
X67056000Y-78994000D03*
D11*
X83830000Y-77211000D03*
D15*
X83830000Y-79751000D03*
X83830000Y-82291000D03*
X83830000Y-84831000D03*
X83830000Y-87371000D03*
X83830000Y-89911000D03*
X83830000Y-92451000D03*
X91450000Y-92451000D03*
X91450000Y-89911000D03*
X91450000Y-87371000D03*
X91450000Y-84831000D03*
X91450000Y-82291000D03*
X91450000Y-79751000D03*
X91450000Y-77211000D03*
D11*
X150632000Y-78227000D03*
D15*
X150632000Y-80767000D03*
X150632000Y-83307000D03*
X150632000Y-85847000D03*
X150632000Y-88387000D03*
X150632000Y-90927000D03*
X150632000Y-93467000D03*
X158252000Y-93467000D03*
X158252000Y-90927000D03*
X158252000Y-88387000D03*
X158252000Y-85847000D03*
X158252000Y-83307000D03*
X158252000Y-80767000D03*
X158252000Y-78227000D03*
D13*
X120142000Y-125272000D03*
D14*
X120142000Y-122732000D03*
D12*
X94488000Y-99842000D03*
X94488000Y-102342000D03*
D13*
X73157000Y-137150000D03*
D14*
X70617000Y-137150000D03*
X73157000Y-134610000D03*
X70617000Y-134610000D03*
X73157000Y-132070000D03*
X70617000Y-132070000D03*
X73157000Y-129530000D03*
X70617000Y-129530000D03*
X73157000Y-126990000D03*
X70617000Y-126990000D03*
X73157000Y-124450000D03*
X70617000Y-124450000D03*
X73157000Y-121910000D03*
X70617000Y-121910000D03*
X73157000Y-119370000D03*
X70617000Y-119370000D03*
X73157000Y-116830000D03*
X70617000Y-116830000D03*
D11*
X99060000Y-80010000D03*
D15*
X99060000Y-82550000D03*
X99060000Y-85090000D03*
X99060000Y-87630000D03*
X99060000Y-90170000D03*
X99060000Y-92710000D03*
X99060000Y-95250000D03*
X99060000Y-97790000D03*
X99060000Y-100330000D03*
X99060000Y-102870000D03*
X99060000Y-105410000D03*
X99060000Y-107950000D03*
X99060000Y-110490000D03*
X99060000Y-113030000D03*
X99060000Y-115570000D03*
X99060000Y-118110000D03*
X99060000Y-120650000D03*
X99060000Y-123190000D03*
X99060000Y-125730000D03*
X99060000Y-128270000D03*
X114300000Y-128270000D03*
X114300000Y-125730000D03*
X114300000Y-123190000D03*
X114300000Y-120650000D03*
X114300000Y-118110000D03*
X114300000Y-115570000D03*
X114300000Y-113030000D03*
X114300000Y-110490000D03*
X114300000Y-107950000D03*
X114300000Y-105410000D03*
X114300000Y-102870000D03*
X114300000Y-100330000D03*
X114300000Y-97790000D03*
X114300000Y-95250000D03*
X114300000Y-92710000D03*
X114300000Y-90170000D03*
X114300000Y-87630000D03*
X114300000Y-85090000D03*
X114300000Y-82550000D03*
X114300000Y-80010000D03*
D11*
X150876000Y-99822000D03*
D15*
X150876000Y-102362000D03*
X150876000Y-104902000D03*
X150876000Y-107442000D03*
X150876000Y-109982000D03*
X150876000Y-112522000D03*
X150876000Y-115062000D03*
X158496000Y-115062000D03*
X158496000Y-112522000D03*
X158496000Y-109982000D03*
X158496000Y-107442000D03*
X158496000Y-104902000D03*
X158496000Y-102362000D03*
X158496000Y-99822000D03*
D12*
X96266000Y-69596000D03*
D15*
X103886000Y-69596000D03*
D12*
X111506000Y-68580000D03*
D15*
X111506000Y-60960000D03*
D11*
X170962000Y-113030000D03*
D15*
X173502000Y-113030000D03*
X176042000Y-113030000D03*
X178582000Y-113030000D03*
X181122000Y-113030000D03*
X183662000Y-113030000D03*
X186202000Y-113030000D03*
X188742000Y-113030000D03*
X191282000Y-113030000D03*
X193822000Y-113030000D03*
X193822000Y-105410000D03*
X191282000Y-105410000D03*
X188742000Y-105410000D03*
X186202000Y-105410000D03*
X183662000Y-105410000D03*
X181122000Y-105410000D03*
X178582000Y-105410000D03*
X176042000Y-105410000D03*
X173502000Y-105410000D03*
X170962000Y-105410000D03*
D12*
X85304000Y-70612000D03*
X80304000Y-70612000D03*
X114300000Y-76434000D03*
X114300000Y-73934000D03*
X140208000Y-65786000D03*
X140208000Y-68286000D03*
X94996000Y-77236000D03*
X94996000Y-79736000D03*
X167381000Y-105166000D03*
X167381000Y-107666000D03*
X72136000Y-86614000D03*
D15*
X72136000Y-78994000D03*
D11*
X83576000Y-99817000D03*
D15*
X83576000Y-102357000D03*
X83576000Y-104897000D03*
X83576000Y-107437000D03*
X83576000Y-109977000D03*
X83576000Y-112517000D03*
X83576000Y-115057000D03*
X91196000Y-115057000D03*
X91196000Y-112517000D03*
X91196000Y-109977000D03*
X91196000Y-107437000D03*
X91196000Y-104897000D03*
X91196000Y-102357000D03*
X91196000Y-99817000D03*
D13*
X120142000Y-115366000D03*
D14*
X120142000Y-112826000D03*
D11*
X126487000Y-80015000D03*
D15*
X126487000Y-82555000D03*
X126487000Y-85095000D03*
X126487000Y-87635000D03*
X126487000Y-90175000D03*
X126487000Y-92715000D03*
X126487000Y-95255000D03*
X126487000Y-97795000D03*
X126487000Y-100335000D03*
X126487000Y-102875000D03*
X126487000Y-105415000D03*
X126487000Y-107955000D03*
X126487000Y-110495000D03*
X126487000Y-113035000D03*
X126487000Y-115575000D03*
X126487000Y-118115000D03*
X126487000Y-120655000D03*
X126487000Y-123195000D03*
X126487000Y-125735000D03*
X126487000Y-128275000D03*
X141727000Y-128275000D03*
X141727000Y-125735000D03*
X141727000Y-123195000D03*
X141727000Y-120655000D03*
X141727000Y-118115000D03*
X141727000Y-115575000D03*
X141727000Y-113035000D03*
X141727000Y-110495000D03*
X141727000Y-107955000D03*
X141727000Y-105415000D03*
X141727000Y-102875000D03*
X141727000Y-100335000D03*
X141727000Y-97795000D03*
X141727000Y-95255000D03*
X141727000Y-92715000D03*
X141727000Y-90175000D03*
X141727000Y-87635000D03*
X141727000Y-85095000D03*
X141727000Y-82555000D03*
X141727000Y-80015000D03*
D21*
X68588000Y-71880500D03*
X73588000Y-66880500D03*
X66088000Y-71880500D03*
X68588000Y-61880500D03*
X66088000Y-61880500D03*
D22*
X68588000Y-66880500D03*
D23*
X73588000Y-71880500D03*
X73588000Y-61880500D03*
X73588000Y-69380500D03*
X73588000Y-64380500D03*
D12*
X167381000Y-91196000D03*
X164881000Y-91196000D03*
X162052000Y-78252000D03*
X162052000Y-80752000D03*
X162052000Y-99842000D03*
X162052000Y-102342000D03*
M02*
