M48
; DRILL file {KiCad 6.0.10-86aedd382b~118~ubuntu20.04.1} date Mon 16 Jan 2023 06:19:29 PM EST
; FORMAT={-:-/ absolute / metric / decimal}
; #@! TF.CreationDate,2023-01-16T18:19:29-05:00
; #@! TF.GenerationSoftware,Kicad,Pcbnew,6.0.10-86aedd382b~118~ubuntu20.04.1
; #@! TF.FileFunction,Plated,1,2,PTH
FMAT,2
METRIC
; #@! TA.AperFunction,Plated,PTH,ViaDrill
T1C0.300
; #@! TA.AperFunction,Plated,PTH,ComponentDrill
T2C0.750
; #@! TA.AperFunction,Plated,PTH,ComponentDrill
T3C0.800
; #@! TA.AperFunction,Plated,PTH,ComponentDrill
T4C1.000
; #@! TA.AperFunction,Plated,PTH,ComponentDrill
T5C1.300
%
G90
G05
T1
X64.913Y-119.37
X65.278Y-110.49
X65.439Y-121.91
X65.966Y-124.45
X66.017Y-110.721
X66.492Y-126.99
X66.531Y-111.235
X67.019Y-129.53
X67.045Y-111.749
X67.545Y-132.07
X67.558Y-112.262
X68.062Y-134.61
X68.072Y-112.776
X68.58Y-113.538
X68.834Y-114.3
X69.098Y-137.15
X82.296Y-139.954
X84.836Y-109.22
X85.344Y-74.422
X88.9Y-101.092
X89.643Y-84.582
X92.456Y-108.966
X93.004Y-102.362
X94.742Y-67.564
X95.715Y-116.883
X96.501Y-105.664
X96.52Y-118.618
X97.028Y-104.902
X97.282Y-119.38
X97.933Y-70.501
X102.07Y-63.792
X105.41Y-133.096
X105.683Y-133.839
X106.426Y-134.366
X107.112Y-135.052
X107.639Y-135.579
X108.458Y-136.144
X109.239Y-136.633
X111.01Y-137.16
X115.062Y-132.08
X115.297Y-106.68
X115.57Y-143.764
X120.396Y-73.66
X120.396Y-91.694
X123.952Y-133.096
X124.206Y-89.408
X124.206Y-110.49
X124.714Y-133.604
X124.968Y-91.694
X124.968Y-105.156
X125.46Y-134.35
X125.494Y-114.046
X126.238Y-135.052
X127.762Y-109.982
X130.048Y-86.648
X130.048Y-90.17
X140.208Y-136.125
X140.462Y-121.666
X141.478Y-135.636
X142.494Y-136.633
X142.983Y-122.936
X143.51Y-143.764
X144.036Y-120.65
X144.036Y-136.906
X147.066Y-86.868
X147.066Y-94.234
X147.828Y-86.614
X147.828Y-93.726
X148.59Y-84.328
X148.59Y-94.234
X150.622Y-137.414
X152.146Y-79.502
X152.4Y-136.906
X154.178Y-83.312
X154.178Y-88.392
X154.178Y-93.472
X157.226Y-74.168
X161.544Y-108.966
X162.052Y-75.184
X163.068Y-113.03
X166.37Y-112.268
X166.878Y-114.808
X167.132Y-110.998
X167.386Y-99.822
X167.64Y-114.554
X168.148Y-109.728
X168.148Y-113.792
X168.91Y-108.966
X169.164Y-113.792
X173.99Y-106.934
X175.768Y-117.002
X176.561Y-96.655
X176.784Y-114.3
X178.562Y-114.808
X179.101Y-96.328
X181.356Y-115.316
X181.61Y-143.764
X181.641Y-96.001
X182.88Y-115.316
X184.181Y-95.674
X186.721Y-95.347
X189.261Y-95.02
X191.77Y-93.993
X192.786Y-140.97
X193.294Y-93.472
X194.564Y-84.328
X195.072Y-116.84
X195.834Y-111.506
X195.834Y-131.844
X196.361Y-110.762
X196.361Y-131.318
X196.887Y-110.019
X196.887Y-130.791
X197.413Y-109.275
X197.413Y-121.666
X198.12Y-108.458
X198.12Y-122.936
X198.882Y-107.733
X198.882Y-123.698
X199.644Y-107.206
X199.644Y-124.46
X200.406Y-106.68
X200.406Y-125.222
X201.168Y-91.44
X201.168Y-127.762
X201.676Y-85.09
X201.682Y-128.276
X202.184Y-129.032
X202.438Y-85.852
X202.692Y-129.794
X202.692Y-136.652
X202.946Y-86.614
X203.2Y-130.556
X203.454Y-87.376
X203.708Y-131.318
X204.216Y-88.138
X204.234Y-127.0
X204.47Y-88.9
X204.996Y-81.044
X204.996Y-126.238
X205.486Y-78.74
X205.523Y-120.142
X205.994Y-77.978
X206.049Y-119.38
X206.576Y-118.618
X206.756Y-79.502
X207.102Y-117.856
X207.264Y-80.264
X207.772Y-76.454
X207.772Y-117.094
X208.28Y-125.476
X208.317Y-77.216
X211.074Y-71.628
X211.074Y-92.456
X211.074Y-103.632
T2
X70.104Y-90.932
X70.104Y-93.472
X71.374Y-92.202
T3
X67.056Y-78.994
X67.056Y-86.614
X72.136Y-78.994
X72.136Y-86.614
X80.304Y-70.612
X80.344Y-62.992
X83.576Y-99.817
X83.576Y-102.357
X83.576Y-104.897
X83.576Y-107.437
X83.576Y-109.977
X83.576Y-112.517
X83.576Y-115.057
X83.576Y-123.2
X83.576Y-125.74
X83.576Y-128.28
X83.576Y-130.82
X83.83Y-77.211
X83.83Y-79.751
X83.83Y-82.291
X83.83Y-84.831
X83.83Y-87.371
X83.83Y-89.911
X83.83Y-92.451
X85.304Y-70.612
X85.344Y-62.992
X91.196Y-99.817
X91.196Y-102.357
X91.196Y-104.897
X91.196Y-107.437
X91.196Y-109.977
X91.196Y-112.517
X91.196Y-115.057
X91.196Y-123.2
X91.196Y-125.74
X91.196Y-128.28
X91.196Y-130.82
X91.45Y-77.211
X91.45Y-79.751
X91.45Y-82.291
X91.45Y-84.831
X91.45Y-87.371
X91.45Y-89.911
X91.45Y-92.451
X94.488Y-99.842
X94.488Y-102.342
X94.742Y-123.21
X94.742Y-125.71
X94.996Y-77.236
X94.996Y-79.736
X96.266Y-61.976
X96.266Y-65.786
X96.266Y-69.596
X96.266Y-73.406
X99.06Y-80.01
X99.06Y-82.55
X99.06Y-85.09
X99.06Y-87.63
X99.06Y-90.17
X99.06Y-92.71
X99.06Y-95.25
X99.06Y-97.79
X99.06Y-100.33
X99.06Y-102.87
X99.06Y-105.41
X99.06Y-107.95
X99.06Y-110.49
X99.06Y-113.03
X99.06Y-115.57
X99.06Y-118.11
X99.06Y-120.65
X99.06Y-123.19
X99.06Y-125.73
X99.06Y-128.27
X103.886Y-61.976
X103.886Y-65.786
X103.886Y-69.596
X103.886Y-73.406
X111.506Y-60.96
X111.506Y-68.58
X114.3Y-73.934
X114.3Y-76.434
X114.3Y-80.01
X114.3Y-82.55
X114.3Y-85.09
X114.3Y-87.63
X114.3Y-90.17
X114.3Y-92.71
X114.3Y-95.25
X114.3Y-97.79
X114.3Y-100.33
X114.3Y-102.87
X114.3Y-105.41
X114.3Y-107.95
X114.3Y-110.49
X114.3Y-113.03
X114.3Y-115.57
X114.3Y-118.11
X114.3Y-120.65
X114.3Y-123.19
X114.3Y-125.73
X114.3Y-128.27
X115.062Y-60.96
X115.062Y-68.58
X118.618Y-60.96
X118.618Y-68.58
X126.487Y-80.015
X126.487Y-82.555
X126.487Y-85.095
X126.487Y-87.635
X126.487Y-90.175
X126.487Y-92.715
X126.487Y-95.255
X126.487Y-97.795
X126.487Y-100.335
X126.487Y-102.875
X126.487Y-105.415
X126.487Y-107.955
X126.487Y-110.495
X126.487Y-113.035
X126.487Y-115.575
X126.487Y-118.115
X126.487Y-120.655
X126.487Y-123.195
X126.487Y-125.735
X126.487Y-128.275
X140.208Y-65.786
X140.208Y-68.286
X140.208Y-73.406
X141.727Y-80.015
X141.727Y-82.555
X141.727Y-85.095
X141.727Y-87.635
X141.727Y-90.175
X141.727Y-92.715
X141.727Y-95.255
X141.727Y-97.795
X141.727Y-100.335
X141.727Y-102.875
X141.727Y-105.415
X141.727Y-107.955
X141.727Y-110.495
X141.727Y-113.035
X141.727Y-115.575
X141.727Y-118.115
X141.727Y-120.655
X141.727Y-123.195
X141.727Y-125.735
X141.727Y-128.275
X145.108Y-73.406
X145.288Y-65.786
X145.288Y-68.286
X145.542Y-97.81
X145.542Y-100.31
X150.632Y-78.227
X150.632Y-80.767
X150.632Y-83.307
X150.632Y-85.847
X150.632Y-88.387
X150.632Y-90.927
X150.632Y-93.467
X150.876Y-99.822
X150.876Y-102.362
X150.876Y-104.902
X150.876Y-107.442
X150.876Y-109.982
X150.876Y-112.522
X150.876Y-115.062
X154.233Y-121.696
X156.733Y-121.696
X158.252Y-78.227
X158.252Y-80.767
X158.252Y-83.307
X158.252Y-85.847
X158.252Y-88.387
X158.252Y-90.927
X158.252Y-93.467
X158.496Y-99.822
X158.496Y-102.362
X158.496Y-104.902
X158.496Y-107.442
X158.496Y-109.982
X158.496Y-112.522
X158.496Y-115.062
X160.528Y-121.666
X160.528Y-129.286
X162.052Y-78.252
X162.052Y-80.752
X162.052Y-99.842
X162.052Y-102.342
X163.068Y-121.666
X163.068Y-129.286
X164.881Y-91.196
X165.608Y-121.666
X165.608Y-129.286
X167.381Y-91.196
X167.381Y-105.166
X167.381Y-107.666
X167.675Y-71.384
X168.148Y-121.666
X168.148Y-129.286
X170.175Y-71.384
X170.454Y-75.194
X170.454Y-82.814
X170.454Y-90.17
X170.454Y-97.79
X170.688Y-121.666
X170.688Y-129.286
X170.962Y-105.41
X170.962Y-113.03
X172.994Y-75.194
X172.994Y-82.814
X172.994Y-90.17
X172.994Y-97.79
X173.228Y-121.666
X173.228Y-129.286
X173.502Y-105.41
X173.502Y-113.03
X175.534Y-75.194
X175.534Y-82.814
X175.534Y-90.17
X175.534Y-97.79
X175.768Y-121.666
X175.768Y-129.286
X176.042Y-105.41
X176.042Y-113.03
X178.074Y-75.194
X178.074Y-82.814
X178.074Y-90.17
X178.074Y-97.79
X178.308Y-121.666
X178.308Y-129.286
X178.582Y-105.41
X178.582Y-113.03
X180.614Y-75.194
X180.614Y-82.814
X180.614Y-90.17
X180.614Y-97.79
X180.848Y-121.666
X180.848Y-129.286
X181.122Y-105.41
X181.122Y-113.03
X183.154Y-75.194
X183.154Y-82.814
X183.154Y-90.17
X183.154Y-97.79
X183.388Y-121.666
X183.388Y-129.286
X183.662Y-105.41
X183.662Y-113.03
X185.694Y-75.194
X185.694Y-82.814
X185.694Y-90.17
X185.694Y-97.79
X185.928Y-121.666
X185.928Y-129.286
X186.202Y-105.41
X186.202Y-113.03
X188.234Y-75.194
X188.234Y-82.814
X188.234Y-90.17
X188.234Y-97.79
X188.468Y-121.666
X188.468Y-129.286
X188.742Y-105.41
X188.742Y-113.03
X190.774Y-75.194
X190.774Y-82.814
X190.774Y-90.17
X190.774Y-97.79
X191.008Y-121.666
X191.008Y-129.286
X191.282Y-105.41
X191.282Y-113.03
X193.314Y-75.194
X193.314Y-82.814
X193.314Y-90.17
X193.314Y-97.79
X193.548Y-121.666
X193.548Y-129.286
X193.822Y-105.41
X193.822Y-113.03
X202.7Y-134.32
X205.2Y-134.32
T4
X70.617Y-116.83
X70.617Y-119.37
X70.617Y-121.91
X70.617Y-124.45
X70.617Y-126.99
X70.617Y-129.53
X70.617Y-132.07
X70.617Y-134.61
X70.617Y-137.15
X73.157Y-116.83
X73.157Y-119.37
X73.157Y-121.91
X73.157Y-124.45
X73.157Y-126.99
X73.157Y-129.53
X73.157Y-132.07
X73.157Y-134.61
X73.157Y-137.15
X88.97Y-138.88
X88.97Y-141.42
X91.51Y-138.88
X91.51Y-141.42
X94.05Y-138.88
X94.05Y-141.42
X96.59Y-138.88
X96.59Y-141.42
X99.13Y-138.88
X99.13Y-141.42
X101.67Y-138.88
X101.67Y-141.42
X104.21Y-138.88
X104.21Y-141.42
X106.75Y-138.88
X106.75Y-141.42
X109.29Y-138.88
X109.29Y-141.42
X111.83Y-138.88
X111.83Y-141.42
X114.37Y-138.88
X114.37Y-141.42
X116.91Y-138.88
X116.91Y-141.42
X119.45Y-138.88
X119.45Y-141.42
X120.142Y-112.826
X120.142Y-115.366
X120.142Y-122.732
X120.142Y-125.272
X121.99Y-138.88
X121.99Y-141.42
X124.53Y-138.88
X124.53Y-141.42
X127.07Y-138.88
X127.07Y-141.42
X129.61Y-138.88
X129.61Y-141.42
X132.15Y-138.88
X132.15Y-141.42
X134.69Y-138.88
X134.69Y-141.42
X137.23Y-138.88
X137.23Y-141.42
X139.77Y-138.88
X139.77Y-141.42
X142.31Y-138.88
X142.31Y-141.42
X144.85Y-138.88
X144.85Y-141.42
X147.39Y-138.88
X147.39Y-141.42
X149.93Y-138.88
X149.93Y-141.42
X152.47Y-138.88
X152.47Y-141.42
X155.01Y-138.88
X155.01Y-141.42
X157.55Y-138.88
X157.55Y-141.42
X160.09Y-138.88
X160.09Y-141.42
X162.63Y-138.88
X162.63Y-141.42
X165.17Y-138.88
X165.17Y-141.42
X167.71Y-138.88
X167.71Y-141.42
X170.25Y-138.88
X170.25Y-141.42
X172.79Y-138.88
X172.79Y-141.42
X175.33Y-138.88
X175.33Y-141.42
X177.87Y-138.88
X177.87Y-141.42
X180.41Y-138.88
X180.41Y-141.42
X182.95Y-138.88
X182.95Y-141.42
X185.49Y-138.88
X185.49Y-141.42
X188.03Y-138.88
X188.03Y-141.42
T3
X68.588Y-66.531G85X68.588Y-67.23
G05
X73.238Y-61.88G85X73.938Y-61.88
G05
X73.238Y-64.38G85X73.938Y-64.38
G05
X73.238Y-69.38G85X73.938Y-69.38
G05
X73.238Y-71.88G85X73.938Y-71.88
G05
T4
X75.1Y-103.886G85X73.6Y-103.886
G05
T5
X69.85Y-104.486G85X69.85Y-103.286
G05
T0
M30
