%TF.GenerationSoftware,KiCad,Pcbnew,6.0.10-86aedd382b~118~ubuntu20.04.1*%
%TF.CreationDate,2023-01-16T18:19:46-05:00*%
%TF.ProjectId,TMS9918A_YM2149,544d5339-3931-4384-915f-594d32313439,1*%
%TF.SameCoordinates,Original*%
%TF.FileFunction,Drillmap*%
%TF.FilePolarity,Positive*%
%FSLAX45Y45*%
G04 Gerber Fmt 4.5, Leading zero omitted, Abs format (unit mm)*
G04 Created by KiCad (PCBNEW 6.0.10-86aedd382b~118~ubuntu20.04.1) date 2023-01-16 18:19:46*
%MOMM*%
%LPD*%
G01*
G04 APERTURE LIST*
%ADD10C,0.038100*%
%ADD11C,0.200000*%
%ADD12C,0.120000*%
%ADD13C,0.320000*%
G04 APERTURE END LIST*
D10*
X21350000Y-5842000D02*
X6350000Y-5842000D01*
X21350000Y-14842000D02*
X21350000Y-5842000D01*
X6350000Y-14842000D02*
X21350000Y-14842000D01*
X6350000Y-5842000D02*
X6350000Y-14842000D01*
D11*
D12*
X6548800Y-6128050D02*
X6668800Y-6248050D01*
X6668800Y-6128050D02*
X6548800Y-6248050D01*
X6548800Y-7128050D02*
X6668800Y-7248050D01*
X6668800Y-7128050D02*
X6548800Y-7248050D01*
X6798800Y-6128050D02*
X6918800Y-6248050D01*
X6918800Y-6128050D02*
X6798800Y-6248050D01*
X6798800Y-7128050D02*
X6918800Y-7248050D01*
X6918800Y-7128050D02*
X6798800Y-7248050D01*
X7298800Y-6628050D02*
X7418800Y-6748050D01*
X7418800Y-6628050D02*
X7298800Y-6748050D01*
D13*
X8350000Y-14492000D02*
G75*
G03*
X8350000Y-14492000I-160000J0D01*
G01*
X19670000Y-14492000D02*
G75*
G03*
X19670000Y-14492000I-160000J0D01*
G01*
D11*
X6605714Y-15154381D02*
X6605714Y-14954381D01*
X6653333Y-14954381D01*
X6681904Y-14963905D01*
X6700952Y-14982953D01*
X6710476Y-15002000D01*
X6720000Y-15040095D01*
X6720000Y-15068667D01*
X6710476Y-15106762D01*
X6700952Y-15125810D01*
X6681904Y-15144857D01*
X6653333Y-15154381D01*
X6605714Y-15154381D01*
X6805714Y-15154381D02*
X6805714Y-15021048D01*
X6805714Y-15059143D02*
X6815238Y-15040095D01*
X6824762Y-15030572D01*
X6843809Y-15021048D01*
X6862857Y-15021048D01*
X6929523Y-15154381D02*
X6929523Y-15021048D01*
X6929523Y-14954381D02*
X6920000Y-14963905D01*
X6929523Y-14973429D01*
X6939047Y-14963905D01*
X6929523Y-14954381D01*
X6929523Y-14973429D01*
X7053333Y-15154381D02*
X7034285Y-15144857D01*
X7024762Y-15125810D01*
X7024762Y-14954381D01*
X7158095Y-15154381D02*
X7139047Y-15144857D01*
X7129523Y-15125810D01*
X7129523Y-14954381D01*
X7386666Y-15154381D02*
X7386666Y-14954381D01*
X7453333Y-15097238D01*
X7520000Y-14954381D01*
X7520000Y-15154381D01*
X7700952Y-15154381D02*
X7700952Y-15049619D01*
X7691428Y-15030572D01*
X7672381Y-15021048D01*
X7634285Y-15021048D01*
X7615238Y-15030572D01*
X7700952Y-15144857D02*
X7681904Y-15154381D01*
X7634285Y-15154381D01*
X7615238Y-15144857D01*
X7605714Y-15125810D01*
X7605714Y-15106762D01*
X7615238Y-15087714D01*
X7634285Y-15078191D01*
X7681904Y-15078191D01*
X7700952Y-15068667D01*
X7796190Y-15021048D02*
X7796190Y-15221048D01*
X7796190Y-15030572D02*
X7815238Y-15021048D01*
X7853333Y-15021048D01*
X7872381Y-15030572D01*
X7881904Y-15040095D01*
X7891428Y-15059143D01*
X7891428Y-15116286D01*
X7881904Y-15135333D01*
X7872381Y-15144857D01*
X7853333Y-15154381D01*
X7815238Y-15154381D01*
X7796190Y-15144857D01*
X7977143Y-15135333D02*
X7986666Y-15144857D01*
X7977143Y-15154381D01*
X7967619Y-15144857D01*
X7977143Y-15135333D01*
X7977143Y-15154381D01*
X7977143Y-15030572D02*
X7986666Y-15040095D01*
X7977143Y-15049619D01*
X7967619Y-15040095D01*
X7977143Y-15030572D01*
X7977143Y-15049619D01*
D12*
X6228095Y-15423905D02*
X6348095Y-15543905D01*
X6348095Y-15423905D02*
X6228095Y-15543905D01*
D11*
X6710476Y-15574381D02*
X6596190Y-15574381D01*
X6653333Y-15574381D02*
X6653333Y-15374381D01*
X6634285Y-15402953D01*
X6615238Y-15422000D01*
X6596190Y-15431524D01*
X6796190Y-15555333D02*
X6805714Y-15564857D01*
X6796190Y-15574381D01*
X6786666Y-15564857D01*
X6796190Y-15555333D01*
X6796190Y-15574381D01*
X6881904Y-15393429D02*
X6891428Y-15383905D01*
X6910476Y-15374381D01*
X6958095Y-15374381D01*
X6977143Y-15383905D01*
X6986666Y-15393429D01*
X6996190Y-15412476D01*
X6996190Y-15431524D01*
X6986666Y-15460095D01*
X6872381Y-15574381D01*
X6996190Y-15574381D01*
X7120000Y-15374381D02*
X7139047Y-15374381D01*
X7158095Y-15383905D01*
X7167619Y-15393429D01*
X7177143Y-15412476D01*
X7186666Y-15450572D01*
X7186666Y-15498191D01*
X7177143Y-15536286D01*
X7167619Y-15555333D01*
X7158095Y-15564857D01*
X7139047Y-15574381D01*
X7120000Y-15574381D01*
X7100952Y-15564857D01*
X7091428Y-15555333D01*
X7081904Y-15536286D01*
X7072381Y-15498191D01*
X7072381Y-15450572D01*
X7081904Y-15412476D01*
X7091428Y-15393429D01*
X7100952Y-15383905D01*
X7120000Y-15374381D01*
X7310476Y-15374381D02*
X7329523Y-15374381D01*
X7348571Y-15383905D01*
X7358095Y-15393429D01*
X7367619Y-15412476D01*
X7377143Y-15450572D01*
X7377143Y-15498191D01*
X7367619Y-15536286D01*
X7358095Y-15555333D01*
X7348571Y-15564857D01*
X7329523Y-15574381D01*
X7310476Y-15574381D01*
X7291428Y-15564857D01*
X7281904Y-15555333D01*
X7272381Y-15536286D01*
X7262857Y-15498191D01*
X7262857Y-15450572D01*
X7272381Y-15412476D01*
X7281904Y-15393429D01*
X7291428Y-15383905D01*
X7310476Y-15374381D01*
X7462857Y-15574381D02*
X7462857Y-15441048D01*
X7462857Y-15460095D02*
X7472381Y-15450572D01*
X7491428Y-15441048D01*
X7520000Y-15441048D01*
X7539047Y-15450572D01*
X7548571Y-15469619D01*
X7548571Y-15574381D01*
X7548571Y-15469619D02*
X7558095Y-15450572D01*
X7577143Y-15441048D01*
X7605714Y-15441048D01*
X7624762Y-15450572D01*
X7634285Y-15469619D01*
X7634285Y-15574381D01*
X7729523Y-15574381D02*
X7729523Y-15441048D01*
X7729523Y-15460095D02*
X7739047Y-15450572D01*
X7758095Y-15441048D01*
X7786666Y-15441048D01*
X7805714Y-15450572D01*
X7815238Y-15469619D01*
X7815238Y-15574381D01*
X7815238Y-15469619D02*
X7824762Y-15450572D01*
X7843809Y-15441048D01*
X7872381Y-15441048D01*
X7891428Y-15450572D01*
X7900952Y-15469619D01*
X7900952Y-15574381D01*
X8291428Y-15364857D02*
X8120000Y-15622000D01*
X8548571Y-15374381D02*
X8567619Y-15374381D01*
X8586666Y-15383905D01*
X8596190Y-15393429D01*
X8605714Y-15412476D01*
X8615238Y-15450572D01*
X8615238Y-15498191D01*
X8605714Y-15536286D01*
X8596190Y-15555333D01*
X8586666Y-15564857D01*
X8567619Y-15574381D01*
X8548571Y-15574381D01*
X8529524Y-15564857D01*
X8520000Y-15555333D01*
X8510476Y-15536286D01*
X8500952Y-15498191D01*
X8500952Y-15450572D01*
X8510476Y-15412476D01*
X8520000Y-15393429D01*
X8529524Y-15383905D01*
X8548571Y-15374381D01*
X8700952Y-15555333D02*
X8710476Y-15564857D01*
X8700952Y-15574381D01*
X8691428Y-15564857D01*
X8700952Y-15555333D01*
X8700952Y-15574381D01*
X8834285Y-15374381D02*
X8853333Y-15374381D01*
X8872381Y-15383905D01*
X8881905Y-15393429D01*
X8891428Y-15412476D01*
X8900952Y-15450572D01*
X8900952Y-15498191D01*
X8891428Y-15536286D01*
X8881905Y-15555333D01*
X8872381Y-15564857D01*
X8853333Y-15574381D01*
X8834285Y-15574381D01*
X8815238Y-15564857D01*
X8805714Y-15555333D01*
X8796190Y-15536286D01*
X8786666Y-15498191D01*
X8786666Y-15450572D01*
X8796190Y-15412476D01*
X8805714Y-15393429D01*
X8815238Y-15383905D01*
X8834285Y-15374381D01*
X9072381Y-15441048D02*
X9072381Y-15574381D01*
X9024762Y-15364857D02*
X8977143Y-15507714D01*
X9100952Y-15507714D01*
X9158095Y-15374381D02*
X9291428Y-15374381D01*
X9205714Y-15574381D01*
X9358095Y-15393429D02*
X9367619Y-15383905D01*
X9386666Y-15374381D01*
X9434285Y-15374381D01*
X9453333Y-15383905D01*
X9462857Y-15393429D01*
X9472381Y-15412476D01*
X9472381Y-15431524D01*
X9462857Y-15460095D01*
X9348571Y-15574381D01*
X9472381Y-15574381D01*
X9548571Y-15374381D02*
X9548571Y-15412476D01*
X9624762Y-15374381D02*
X9624762Y-15412476D01*
X9920000Y-15650572D02*
X9910476Y-15641048D01*
X9891428Y-15612476D01*
X9881905Y-15593429D01*
X9872381Y-15564857D01*
X9862857Y-15517238D01*
X9862857Y-15479143D01*
X9872381Y-15431524D01*
X9881905Y-15402953D01*
X9891428Y-15383905D01*
X9910476Y-15355333D01*
X9920000Y-15345810D01*
X10091428Y-15374381D02*
X9996190Y-15374381D01*
X9986666Y-15469619D01*
X9996190Y-15460095D01*
X10015238Y-15450572D01*
X10062857Y-15450572D01*
X10081905Y-15460095D01*
X10091428Y-15469619D01*
X10100952Y-15488667D01*
X10100952Y-15536286D01*
X10091428Y-15555333D01*
X10081905Y-15564857D01*
X10062857Y-15574381D01*
X10015238Y-15574381D01*
X9996190Y-15564857D01*
X9986666Y-15555333D01*
X10339047Y-15574381D02*
X10339047Y-15374381D01*
X10424762Y-15574381D02*
X10424762Y-15469619D01*
X10415238Y-15450572D01*
X10396190Y-15441048D01*
X10367619Y-15441048D01*
X10348571Y-15450572D01*
X10339047Y-15460095D01*
X10548571Y-15574381D02*
X10529524Y-15564857D01*
X10520000Y-15555333D01*
X10510476Y-15536286D01*
X10510476Y-15479143D01*
X10520000Y-15460095D01*
X10529524Y-15450572D01*
X10548571Y-15441048D01*
X10577143Y-15441048D01*
X10596190Y-15450572D01*
X10605714Y-15460095D01*
X10615238Y-15479143D01*
X10615238Y-15536286D01*
X10605714Y-15555333D01*
X10596190Y-15564857D01*
X10577143Y-15574381D01*
X10548571Y-15574381D01*
X10729524Y-15574381D02*
X10710476Y-15564857D01*
X10700952Y-15545810D01*
X10700952Y-15374381D01*
X10881905Y-15564857D02*
X10862857Y-15574381D01*
X10824762Y-15574381D01*
X10805714Y-15564857D01*
X10796190Y-15545810D01*
X10796190Y-15469619D01*
X10805714Y-15450572D01*
X10824762Y-15441048D01*
X10862857Y-15441048D01*
X10881905Y-15450572D01*
X10891428Y-15469619D01*
X10891428Y-15488667D01*
X10796190Y-15507714D01*
X10967619Y-15564857D02*
X10986666Y-15574381D01*
X11024762Y-15574381D01*
X11043809Y-15564857D01*
X11053333Y-15545810D01*
X11053333Y-15536286D01*
X11043809Y-15517238D01*
X11024762Y-15507714D01*
X10996190Y-15507714D01*
X10977143Y-15498191D01*
X10967619Y-15479143D01*
X10967619Y-15469619D01*
X10977143Y-15450572D01*
X10996190Y-15441048D01*
X11024762Y-15441048D01*
X11043809Y-15450572D01*
X11120000Y-15650572D02*
X11129524Y-15641048D01*
X11148571Y-15612476D01*
X11158095Y-15593429D01*
X11167619Y-15564857D01*
X11177143Y-15517238D01*
X11177143Y-15479143D01*
X11167619Y-15431524D01*
X11158095Y-15402953D01*
X11148571Y-15383905D01*
X11129524Y-15355333D01*
X11120000Y-15345810D01*
X11481904Y-15650572D02*
X11472381Y-15641048D01*
X11453333Y-15612476D01*
X11443809Y-15593429D01*
X11434285Y-15564857D01*
X11424762Y-15517238D01*
X11424762Y-15479143D01*
X11434285Y-15431524D01*
X11443809Y-15402953D01*
X11453333Y-15383905D01*
X11472381Y-15355333D01*
X11481904Y-15345810D01*
X11558095Y-15441048D02*
X11558095Y-15574381D01*
X11558095Y-15460095D02*
X11567619Y-15450572D01*
X11586666Y-15441048D01*
X11615238Y-15441048D01*
X11634285Y-15450572D01*
X11643809Y-15469619D01*
X11643809Y-15574381D01*
X11767619Y-15574381D02*
X11748571Y-15564857D01*
X11739047Y-15555333D01*
X11729523Y-15536286D01*
X11729523Y-15479143D01*
X11739047Y-15460095D01*
X11748571Y-15450572D01*
X11767619Y-15441048D01*
X11796190Y-15441048D01*
X11815238Y-15450572D01*
X11824762Y-15460095D01*
X11834285Y-15479143D01*
X11834285Y-15536286D01*
X11824762Y-15555333D01*
X11815238Y-15564857D01*
X11796190Y-15574381D01*
X11767619Y-15574381D01*
X11891428Y-15441048D02*
X11967619Y-15441048D01*
X11920000Y-15374381D02*
X11920000Y-15545810D01*
X11929523Y-15564857D01*
X11948571Y-15574381D01*
X11967619Y-15574381D01*
X12186666Y-15441048D02*
X12186666Y-15641048D01*
X12186666Y-15450572D02*
X12205714Y-15441048D01*
X12243809Y-15441048D01*
X12262857Y-15450572D01*
X12272381Y-15460095D01*
X12281904Y-15479143D01*
X12281904Y-15536286D01*
X12272381Y-15555333D01*
X12262857Y-15564857D01*
X12243809Y-15574381D01*
X12205714Y-15574381D01*
X12186666Y-15564857D01*
X12396190Y-15574381D02*
X12377143Y-15564857D01*
X12367619Y-15545810D01*
X12367619Y-15374381D01*
X12558095Y-15574381D02*
X12558095Y-15469619D01*
X12548571Y-15450572D01*
X12529523Y-15441048D01*
X12491428Y-15441048D01*
X12472381Y-15450572D01*
X12558095Y-15564857D02*
X12539047Y-15574381D01*
X12491428Y-15574381D01*
X12472381Y-15564857D01*
X12462857Y-15545810D01*
X12462857Y-15526762D01*
X12472381Y-15507714D01*
X12491428Y-15498191D01*
X12539047Y-15498191D01*
X12558095Y-15488667D01*
X12624762Y-15441048D02*
X12700952Y-15441048D01*
X12653333Y-15374381D02*
X12653333Y-15545810D01*
X12662857Y-15564857D01*
X12681904Y-15574381D01*
X12700952Y-15574381D01*
X12843809Y-15564857D02*
X12824762Y-15574381D01*
X12786666Y-15574381D01*
X12767619Y-15564857D01*
X12758095Y-15545810D01*
X12758095Y-15469619D01*
X12767619Y-15450572D01*
X12786666Y-15441048D01*
X12824762Y-15441048D01*
X12843809Y-15450572D01*
X12853333Y-15469619D01*
X12853333Y-15488667D01*
X12758095Y-15507714D01*
X13024762Y-15574381D02*
X13024762Y-15374381D01*
X13024762Y-15564857D02*
X13005714Y-15574381D01*
X12967619Y-15574381D01*
X12948571Y-15564857D01*
X12939047Y-15555333D01*
X12929523Y-15536286D01*
X12929523Y-15479143D01*
X12939047Y-15460095D01*
X12948571Y-15450572D01*
X12967619Y-15441048D01*
X13005714Y-15441048D01*
X13024762Y-15450572D01*
X13100952Y-15650572D02*
X13110476Y-15641048D01*
X13129523Y-15612476D01*
X13139047Y-15593429D01*
X13148571Y-15564857D01*
X13158095Y-15517238D01*
X13158095Y-15479143D01*
X13148571Y-15431524D01*
X13139047Y-15402953D01*
X13129523Y-15383905D01*
X13110476Y-15355333D01*
X13100952Y-15345810D01*
X6348095Y-15747905D02*
G75*
G03*
X6348095Y-15747905I-100000J0D01*
G01*
X6586666Y-15638381D02*
X6710476Y-15638381D01*
X6643809Y-15714572D01*
X6672381Y-15714572D01*
X6691428Y-15724095D01*
X6700952Y-15733619D01*
X6710476Y-15752667D01*
X6710476Y-15800286D01*
X6700952Y-15819333D01*
X6691428Y-15828857D01*
X6672381Y-15838381D01*
X6615238Y-15838381D01*
X6596190Y-15828857D01*
X6586666Y-15819333D01*
X6796190Y-15819333D02*
X6805714Y-15828857D01*
X6796190Y-15838381D01*
X6786666Y-15828857D01*
X6796190Y-15819333D01*
X6796190Y-15838381D01*
X6881904Y-15657429D02*
X6891428Y-15647905D01*
X6910476Y-15638381D01*
X6958095Y-15638381D01*
X6977143Y-15647905D01*
X6986666Y-15657429D01*
X6996190Y-15676476D01*
X6996190Y-15695524D01*
X6986666Y-15724095D01*
X6872381Y-15838381D01*
X6996190Y-15838381D01*
X7120000Y-15638381D02*
X7139047Y-15638381D01*
X7158095Y-15647905D01*
X7167619Y-15657429D01*
X7177143Y-15676476D01*
X7186666Y-15714572D01*
X7186666Y-15762191D01*
X7177143Y-15800286D01*
X7167619Y-15819333D01*
X7158095Y-15828857D01*
X7139047Y-15838381D01*
X7120000Y-15838381D01*
X7100952Y-15828857D01*
X7091428Y-15819333D01*
X7081904Y-15800286D01*
X7072381Y-15762191D01*
X7072381Y-15714572D01*
X7081904Y-15676476D01*
X7091428Y-15657429D01*
X7100952Y-15647905D01*
X7120000Y-15638381D01*
X7310476Y-15638381D02*
X7329523Y-15638381D01*
X7348571Y-15647905D01*
X7358095Y-15657429D01*
X7367619Y-15676476D01*
X7377143Y-15714572D01*
X7377143Y-15762191D01*
X7367619Y-15800286D01*
X7358095Y-15819333D01*
X7348571Y-15828857D01*
X7329523Y-15838381D01*
X7310476Y-15838381D01*
X7291428Y-15828857D01*
X7281904Y-15819333D01*
X7272381Y-15800286D01*
X7262857Y-15762191D01*
X7262857Y-15714572D01*
X7272381Y-15676476D01*
X7281904Y-15657429D01*
X7291428Y-15647905D01*
X7310476Y-15638381D01*
X7462857Y-15838381D02*
X7462857Y-15705048D01*
X7462857Y-15724095D02*
X7472381Y-15714572D01*
X7491428Y-15705048D01*
X7520000Y-15705048D01*
X7539047Y-15714572D01*
X7548571Y-15733619D01*
X7548571Y-15838381D01*
X7548571Y-15733619D02*
X7558095Y-15714572D01*
X7577143Y-15705048D01*
X7605714Y-15705048D01*
X7624762Y-15714572D01*
X7634285Y-15733619D01*
X7634285Y-15838381D01*
X7729523Y-15838381D02*
X7729523Y-15705048D01*
X7729523Y-15724095D02*
X7739047Y-15714572D01*
X7758095Y-15705048D01*
X7786666Y-15705048D01*
X7805714Y-15714572D01*
X7815238Y-15733619D01*
X7815238Y-15838381D01*
X7815238Y-15733619D02*
X7824762Y-15714572D01*
X7843809Y-15705048D01*
X7872381Y-15705048D01*
X7891428Y-15714572D01*
X7900952Y-15733619D01*
X7900952Y-15838381D01*
X8291428Y-15628857D02*
X8120000Y-15886000D01*
X8548571Y-15638381D02*
X8567619Y-15638381D01*
X8586666Y-15647905D01*
X8596190Y-15657429D01*
X8605714Y-15676476D01*
X8615238Y-15714572D01*
X8615238Y-15762191D01*
X8605714Y-15800286D01*
X8596190Y-15819333D01*
X8586666Y-15828857D01*
X8567619Y-15838381D01*
X8548571Y-15838381D01*
X8529524Y-15828857D01*
X8520000Y-15819333D01*
X8510476Y-15800286D01*
X8500952Y-15762191D01*
X8500952Y-15714572D01*
X8510476Y-15676476D01*
X8520000Y-15657429D01*
X8529524Y-15647905D01*
X8548571Y-15638381D01*
X8700952Y-15819333D02*
X8710476Y-15828857D01*
X8700952Y-15838381D01*
X8691428Y-15828857D01*
X8700952Y-15819333D01*
X8700952Y-15838381D01*
X8900952Y-15838381D02*
X8786666Y-15838381D01*
X8843809Y-15838381D02*
X8843809Y-15638381D01*
X8824762Y-15666953D01*
X8805714Y-15686000D01*
X8786666Y-15695524D01*
X8977143Y-15657429D02*
X8986666Y-15647905D01*
X9005714Y-15638381D01*
X9053333Y-15638381D01*
X9072381Y-15647905D01*
X9081905Y-15657429D01*
X9091428Y-15676476D01*
X9091428Y-15695524D01*
X9081905Y-15724095D01*
X8967619Y-15838381D01*
X9091428Y-15838381D01*
X9262857Y-15638381D02*
X9224762Y-15638381D01*
X9205714Y-15647905D01*
X9196190Y-15657429D01*
X9177143Y-15686000D01*
X9167619Y-15724095D01*
X9167619Y-15800286D01*
X9177143Y-15819333D01*
X9186666Y-15828857D01*
X9205714Y-15838381D01*
X9243809Y-15838381D01*
X9262857Y-15828857D01*
X9272381Y-15819333D01*
X9281905Y-15800286D01*
X9281905Y-15752667D01*
X9272381Y-15733619D01*
X9262857Y-15724095D01*
X9243809Y-15714572D01*
X9205714Y-15714572D01*
X9186666Y-15724095D01*
X9177143Y-15733619D01*
X9167619Y-15752667D01*
X9405714Y-15638381D02*
X9424762Y-15638381D01*
X9443809Y-15647905D01*
X9453333Y-15657429D01*
X9462857Y-15676476D01*
X9472381Y-15714572D01*
X9472381Y-15762191D01*
X9462857Y-15800286D01*
X9453333Y-15819333D01*
X9443809Y-15828857D01*
X9424762Y-15838381D01*
X9405714Y-15838381D01*
X9386666Y-15828857D01*
X9377143Y-15819333D01*
X9367619Y-15800286D01*
X9358095Y-15762191D01*
X9358095Y-15714572D01*
X9367619Y-15676476D01*
X9377143Y-15657429D01*
X9386666Y-15647905D01*
X9405714Y-15638381D01*
X9548571Y-15638381D02*
X9548571Y-15676476D01*
X9624762Y-15638381D02*
X9624762Y-15676476D01*
X9920000Y-15914572D02*
X9910476Y-15905048D01*
X9891428Y-15876476D01*
X9881905Y-15857429D01*
X9872381Y-15828857D01*
X9862857Y-15781238D01*
X9862857Y-15743143D01*
X9872381Y-15695524D01*
X9881905Y-15666953D01*
X9891428Y-15647905D01*
X9910476Y-15619333D01*
X9920000Y-15609810D01*
X9986666Y-15657429D02*
X9996190Y-15647905D01*
X10015238Y-15638381D01*
X10062857Y-15638381D01*
X10081905Y-15647905D01*
X10091428Y-15657429D01*
X10100952Y-15676476D01*
X10100952Y-15695524D01*
X10091428Y-15724095D01*
X9977143Y-15838381D01*
X10100952Y-15838381D01*
X10339047Y-15838381D02*
X10339047Y-15638381D01*
X10424762Y-15838381D02*
X10424762Y-15733619D01*
X10415238Y-15714572D01*
X10396190Y-15705048D01*
X10367619Y-15705048D01*
X10348571Y-15714572D01*
X10339047Y-15724095D01*
X10548571Y-15838381D02*
X10529524Y-15828857D01*
X10520000Y-15819333D01*
X10510476Y-15800286D01*
X10510476Y-15743143D01*
X10520000Y-15724095D01*
X10529524Y-15714572D01*
X10548571Y-15705048D01*
X10577143Y-15705048D01*
X10596190Y-15714572D01*
X10605714Y-15724095D01*
X10615238Y-15743143D01*
X10615238Y-15800286D01*
X10605714Y-15819333D01*
X10596190Y-15828857D01*
X10577143Y-15838381D01*
X10548571Y-15838381D01*
X10729524Y-15838381D02*
X10710476Y-15828857D01*
X10700952Y-15809810D01*
X10700952Y-15638381D01*
X10881905Y-15828857D02*
X10862857Y-15838381D01*
X10824762Y-15838381D01*
X10805714Y-15828857D01*
X10796190Y-15809810D01*
X10796190Y-15733619D01*
X10805714Y-15714572D01*
X10824762Y-15705048D01*
X10862857Y-15705048D01*
X10881905Y-15714572D01*
X10891428Y-15733619D01*
X10891428Y-15752667D01*
X10796190Y-15771714D01*
X10967619Y-15828857D02*
X10986666Y-15838381D01*
X11024762Y-15838381D01*
X11043809Y-15828857D01*
X11053333Y-15809810D01*
X11053333Y-15800286D01*
X11043809Y-15781238D01*
X11024762Y-15771714D01*
X10996190Y-15771714D01*
X10977143Y-15762191D01*
X10967619Y-15743143D01*
X10967619Y-15733619D01*
X10977143Y-15714572D01*
X10996190Y-15705048D01*
X11024762Y-15705048D01*
X11043809Y-15714572D01*
X11120000Y-15914572D02*
X11129524Y-15905048D01*
X11148571Y-15876476D01*
X11158095Y-15857429D01*
X11167619Y-15828857D01*
X11177143Y-15781238D01*
X11177143Y-15743143D01*
X11167619Y-15695524D01*
X11158095Y-15666953D01*
X11148571Y-15647905D01*
X11129524Y-15619333D01*
X11120000Y-15609810D01*
X11481904Y-15914572D02*
X11472381Y-15905048D01*
X11453333Y-15876476D01*
X11443809Y-15857429D01*
X11434285Y-15828857D01*
X11424762Y-15781238D01*
X11424762Y-15743143D01*
X11434285Y-15695524D01*
X11443809Y-15666953D01*
X11453333Y-15647905D01*
X11472381Y-15619333D01*
X11481904Y-15609810D01*
X11558095Y-15705048D02*
X11558095Y-15838381D01*
X11558095Y-15724095D02*
X11567619Y-15714572D01*
X11586666Y-15705048D01*
X11615238Y-15705048D01*
X11634285Y-15714572D01*
X11643809Y-15733619D01*
X11643809Y-15838381D01*
X11767619Y-15838381D02*
X11748571Y-15828857D01*
X11739047Y-15819333D01*
X11729523Y-15800286D01*
X11729523Y-15743143D01*
X11739047Y-15724095D01*
X11748571Y-15714572D01*
X11767619Y-15705048D01*
X11796190Y-15705048D01*
X11815238Y-15714572D01*
X11824762Y-15724095D01*
X11834285Y-15743143D01*
X11834285Y-15800286D01*
X11824762Y-15819333D01*
X11815238Y-15828857D01*
X11796190Y-15838381D01*
X11767619Y-15838381D01*
X11891428Y-15705048D02*
X11967619Y-15705048D01*
X11920000Y-15638381D02*
X11920000Y-15809810D01*
X11929523Y-15828857D01*
X11948571Y-15838381D01*
X11967619Y-15838381D01*
X12186666Y-15705048D02*
X12186666Y-15905048D01*
X12186666Y-15714572D02*
X12205714Y-15705048D01*
X12243809Y-15705048D01*
X12262857Y-15714572D01*
X12272381Y-15724095D01*
X12281904Y-15743143D01*
X12281904Y-15800286D01*
X12272381Y-15819333D01*
X12262857Y-15828857D01*
X12243809Y-15838381D01*
X12205714Y-15838381D01*
X12186666Y-15828857D01*
X12396190Y-15838381D02*
X12377143Y-15828857D01*
X12367619Y-15809810D01*
X12367619Y-15638381D01*
X12558095Y-15838381D02*
X12558095Y-15733619D01*
X12548571Y-15714572D01*
X12529523Y-15705048D01*
X12491428Y-15705048D01*
X12472381Y-15714572D01*
X12558095Y-15828857D02*
X12539047Y-15838381D01*
X12491428Y-15838381D01*
X12472381Y-15828857D01*
X12462857Y-15809810D01*
X12462857Y-15790762D01*
X12472381Y-15771714D01*
X12491428Y-15762191D01*
X12539047Y-15762191D01*
X12558095Y-15752667D01*
X12624762Y-15705048D02*
X12700952Y-15705048D01*
X12653333Y-15638381D02*
X12653333Y-15809810D01*
X12662857Y-15828857D01*
X12681904Y-15838381D01*
X12700952Y-15838381D01*
X12843809Y-15828857D02*
X12824762Y-15838381D01*
X12786666Y-15838381D01*
X12767619Y-15828857D01*
X12758095Y-15809810D01*
X12758095Y-15733619D01*
X12767619Y-15714572D01*
X12786666Y-15705048D01*
X12824762Y-15705048D01*
X12843809Y-15714572D01*
X12853333Y-15733619D01*
X12853333Y-15752667D01*
X12758095Y-15771714D01*
X13024762Y-15838381D02*
X13024762Y-15638381D01*
X13024762Y-15828857D02*
X13005714Y-15838381D01*
X12967619Y-15838381D01*
X12948571Y-15828857D01*
X12939047Y-15819333D01*
X12929523Y-15800286D01*
X12929523Y-15743143D01*
X12939047Y-15724095D01*
X12948571Y-15714572D01*
X12967619Y-15705048D01*
X13005714Y-15705048D01*
X13024762Y-15714572D01*
X13100952Y-15914572D02*
X13110476Y-15905048D01*
X13129523Y-15876476D01*
X13139047Y-15857429D01*
X13148571Y-15828857D01*
X13158095Y-15781238D01*
X13158095Y-15743143D01*
X13148571Y-15695524D01*
X13139047Y-15666953D01*
X13129523Y-15647905D01*
X13110476Y-15619333D01*
X13100952Y-15609810D01*
M02*
