G04 #@! TF.GenerationSoftware,KiCad,Pcbnew,8.0.4-8.0.4-0~ubuntu22.04.1*
G04 #@! TF.CreationDate,2024-08-01T15:45:40-04:00*
G04 #@! TF.ProjectId,HW_VGA,48575f56-4741-42e6-9b69-6361645f7063,1*
G04 #@! TF.SameCoordinates,Original*
G04 #@! TF.FileFunction,Soldermask,Bot*
G04 #@! TF.FilePolarity,Negative*
%FSLAX46Y46*%
G04 Gerber Fmt 4.6, Leading zero omitted, Abs format (unit mm)*
G04 Created by KiCad (PCBNEW 8.0.4-8.0.4-0~ubuntu22.04.1) date 2024-08-01 15:45:40*
%MOMM*%
%LPD*%
G01*
G04 APERTURE LIST*
G04 Aperture macros list*
%AMRoundRect*
0 Rectangle with rounded corners*
0 $1 Rounding radius*
0 $2 $3 $4 $5 $6 $7 $8 $9 X,Y pos of 4 corners*
0 Add a 4 corners polygon primitive as box body*
4,1,4,$2,$3,$4,$5,$6,$7,$8,$9,$2,$3,0*
0 Add four circle primitives for the rounded corners*
1,1,$1+$1,$2,$3*
1,1,$1+$1,$4,$5*
1,1,$1+$1,$6,$7*
1,1,$1+$1,$8,$9*
0 Add four rect primitives between the rounded corners*
20,1,$1+$1,$2,$3,$4,$5,0*
20,1,$1+$1,$4,$5,$6,$7,0*
20,1,$1+$1,$6,$7,$8,$9,0*
20,1,$1+$1,$8,$9,$2,$3,0*%
G04 Aperture macros list end*
%ADD10C,3.200000*%
%ADD11R,1.422400X1.422400*%
%ADD12C,1.422400*%
%ADD13R,1.600000X1.600000*%
%ADD14O,1.600000X1.600000*%
%ADD15R,1.700000X1.700000*%
%ADD16O,1.700000X1.700000*%
%ADD17C,1.600000*%
%ADD18RoundRect,0.250000X0.475000X-0.337500X0.475000X0.337500X-0.475000X0.337500X-0.475000X-0.337500X0*%
%ADD19RoundRect,0.250000X-0.475000X0.337500X-0.475000X-0.337500X0.475000X-0.337500X0.475000X0.337500X0*%
%ADD20RoundRect,0.150000X-0.150000X0.875000X-0.150000X-0.875000X0.150000X-0.875000X0.150000X0.875000X0*%
%ADD21RoundRect,0.150000X-0.150000X1.050000X-0.150000X-1.050000X0.150000X-1.050000X0.150000X1.050000X0*%
%ADD22RoundRect,0.250000X-0.337500X-0.475000X0.337500X-0.475000X0.337500X0.475000X-0.337500X0.475000X0*%
G04 APERTURE END LIST*
D10*
X195100000Y-144920000D03*
X81900000Y-144920000D03*
D11*
X94880000Y-110270000D03*
D12*
X94880000Y-112810000D03*
X92340000Y-110270000D03*
X92340000Y-112810000D03*
X89800000Y-110270000D03*
X89800000Y-112810000D03*
X87260000Y-110270000D03*
X84720000Y-112810000D03*
X87260000Y-112810000D03*
X84720000Y-115350000D03*
X87260000Y-115350000D03*
X84720000Y-117890000D03*
X87260000Y-117890000D03*
X84720000Y-120430000D03*
X87260000Y-120430000D03*
X84720000Y-122970000D03*
X87260000Y-122970000D03*
X84720000Y-125510000D03*
X87260000Y-125510000D03*
X84720000Y-128050000D03*
X87260000Y-130590000D03*
X87260000Y-128050000D03*
X89800000Y-130590000D03*
X89800000Y-128050000D03*
X92340000Y-130590000D03*
X92340000Y-128050000D03*
X94880000Y-130590000D03*
X94880000Y-128050000D03*
X97420000Y-130590000D03*
X97420000Y-128050000D03*
X99960000Y-130590000D03*
X99960000Y-128050000D03*
X102500000Y-130590000D03*
X105040000Y-128050000D03*
X102500000Y-128050000D03*
X105040000Y-125510000D03*
X102500000Y-125510000D03*
X105040000Y-122970000D03*
X102500000Y-122970000D03*
X105040000Y-120430000D03*
X102500000Y-120430000D03*
X105040000Y-117890000D03*
X102500000Y-117890000D03*
X105040000Y-115350000D03*
X102500000Y-115350000D03*
X105040000Y-112810000D03*
X102500000Y-110270000D03*
X102500000Y-112810000D03*
X99960000Y-110270000D03*
X99960000Y-112810000D03*
X97420000Y-110270000D03*
X97420000Y-112810000D03*
D13*
X161425000Y-95500000D03*
D14*
X161425000Y-92960000D03*
X161425000Y-90420000D03*
X161425000Y-87880000D03*
X161425000Y-85340000D03*
X161425000Y-82800000D03*
X161425000Y-80260000D03*
X161425000Y-77720000D03*
X161425000Y-75180000D03*
X161425000Y-72640000D03*
X161425000Y-70100000D03*
X161425000Y-67560000D03*
X161425000Y-65020000D03*
X161425000Y-62480000D03*
X146185000Y-62480000D03*
X146185000Y-65020000D03*
X146185000Y-67560000D03*
X146185000Y-70100000D03*
X146185000Y-72640000D03*
X146185000Y-75180000D03*
X146185000Y-77720000D03*
X146185000Y-80260000D03*
X146185000Y-82800000D03*
X146185000Y-85340000D03*
X146185000Y-87880000D03*
X146185000Y-90420000D03*
X146185000Y-92960000D03*
X146185000Y-95500000D03*
D11*
X123340000Y-110270000D03*
D12*
X123340000Y-112810000D03*
X120800000Y-110270000D03*
X120800000Y-112810000D03*
X118260000Y-110270000D03*
X118260000Y-112810000D03*
X115720000Y-110270000D03*
X113180000Y-112810000D03*
X115720000Y-112810000D03*
X113180000Y-115350000D03*
X115720000Y-115350000D03*
X113180000Y-117890000D03*
X115720000Y-117890000D03*
X113180000Y-120430000D03*
X115720000Y-120430000D03*
X113180000Y-122970000D03*
X115720000Y-122970000D03*
X113180000Y-125510000D03*
X115720000Y-125510000D03*
X113180000Y-128050000D03*
X115720000Y-130590000D03*
X115720000Y-128050000D03*
X118260000Y-130590000D03*
X118260000Y-128050000D03*
X120800000Y-130590000D03*
X120800000Y-128050000D03*
X123340000Y-130590000D03*
X123340000Y-128050000D03*
X125880000Y-130590000D03*
X125880000Y-128050000D03*
X128420000Y-130590000D03*
X128420000Y-128050000D03*
X130960000Y-130590000D03*
X133500000Y-128050000D03*
X130960000Y-128050000D03*
X133500000Y-125510000D03*
X130960000Y-125510000D03*
X133500000Y-122970000D03*
X130960000Y-122970000D03*
X133500000Y-120430000D03*
X130960000Y-120430000D03*
X133500000Y-117890000D03*
X130960000Y-117890000D03*
X133500000Y-115350000D03*
X130960000Y-115350000D03*
X133500000Y-112810000D03*
X130960000Y-110270000D03*
X130960000Y-112810000D03*
X128420000Y-110270000D03*
X128420000Y-112810000D03*
X125880000Y-110270000D03*
X125880000Y-112810000D03*
D15*
X88970000Y-141420000D03*
D16*
X88970000Y-138880000D03*
X91510000Y-141420000D03*
X91510000Y-138880000D03*
X94050000Y-141420000D03*
X94050000Y-138880000D03*
X96590000Y-141420000D03*
X96590000Y-138880000D03*
X99130000Y-141420000D03*
X99130000Y-138880000D03*
X101670000Y-141420000D03*
X101670000Y-138880000D03*
X104210000Y-141420000D03*
X104210000Y-138880000D03*
X106750000Y-141420000D03*
X106750000Y-138880000D03*
X109290000Y-141420000D03*
X109290000Y-138880000D03*
X111830000Y-141420000D03*
X111830000Y-138880000D03*
X114370000Y-141420000D03*
X114370000Y-138880000D03*
X116910000Y-141420000D03*
X116910000Y-138880000D03*
X119450000Y-141420000D03*
X119450000Y-138880000D03*
X121990000Y-141420000D03*
X121990000Y-138880000D03*
X124530000Y-141420000D03*
X124530000Y-138880000D03*
X127070000Y-141420000D03*
X127070000Y-138880000D03*
X129610000Y-141420000D03*
X129610000Y-138880000D03*
X132150000Y-141420000D03*
X132150000Y-138880000D03*
X134690000Y-141420000D03*
X134690000Y-138880000D03*
X137230000Y-141420000D03*
X137230000Y-138880000D03*
X139770000Y-141420000D03*
X139770000Y-138880000D03*
X142310000Y-141420000D03*
X142310000Y-138880000D03*
X144850000Y-141420000D03*
X144850000Y-138880000D03*
X147390000Y-141420000D03*
X147390000Y-138880000D03*
X149930000Y-141420000D03*
X149930000Y-138880000D03*
X152470000Y-141420000D03*
X152470000Y-138880000D03*
X155010000Y-141420000D03*
X155010000Y-138880000D03*
X157550000Y-141420000D03*
X157550000Y-138880000D03*
X160090000Y-141420000D03*
X160090000Y-138880000D03*
X162630000Y-141420000D03*
X162630000Y-138880000D03*
X165170000Y-141420000D03*
X165170000Y-138880000D03*
X167710000Y-141420000D03*
X167710000Y-138880000D03*
X170250000Y-141420000D03*
X170250000Y-138880000D03*
X172790000Y-141420000D03*
X172790000Y-138880000D03*
X175330000Y-141420000D03*
X175330000Y-138880000D03*
X177870000Y-141420000D03*
X177870000Y-138880000D03*
X180410000Y-141420000D03*
X180410000Y-138880000D03*
X182950000Y-141420000D03*
X182950000Y-138880000D03*
X185490000Y-141420000D03*
X185490000Y-138880000D03*
X188030000Y-141420000D03*
X188030000Y-138880000D03*
D15*
X66600000Y-63020000D03*
D16*
X66600000Y-65560000D03*
X66600000Y-68100000D03*
X66600000Y-70640000D03*
X66600000Y-73180000D03*
X66600000Y-75720000D03*
D15*
X139140000Y-92800000D03*
D16*
X136600000Y-92800000D03*
D13*
X205200000Y-134320000D03*
D17*
X202700000Y-134320000D03*
D18*
X85900000Y-68427500D03*
X85900000Y-66352500D03*
D19*
X178475000Y-70812500D03*
X178475000Y-72887500D03*
X94880000Y-119392500D03*
X94880000Y-121467500D03*
X148900000Y-109562500D03*
X148900000Y-111637500D03*
X206325000Y-114750000D03*
X206325000Y-116825000D03*
X195225000Y-114750000D03*
X195225000Y-116825000D03*
X184025000Y-114750000D03*
X184025000Y-116825000D03*
D20*
X80310000Y-79950000D03*
X81580000Y-79950000D03*
X82850000Y-79950000D03*
X84120000Y-79950000D03*
X85390000Y-79950000D03*
X86660000Y-79950000D03*
X87930000Y-79950000D03*
X89200000Y-79950000D03*
X90470000Y-79950000D03*
X91740000Y-79950000D03*
X91740000Y-89250000D03*
X90470000Y-89250000D03*
X89200000Y-89250000D03*
X87930000Y-89250000D03*
X86660000Y-89250000D03*
X85390000Y-89250000D03*
X84120000Y-89250000D03*
X82850000Y-89250000D03*
X81580000Y-89250000D03*
X80310000Y-89250000D03*
D19*
X123340000Y-119392500D03*
X123340000Y-121467500D03*
X71300000Y-130802500D03*
X71300000Y-132877500D03*
D20*
X96470000Y-79950000D03*
X97740000Y-79950000D03*
X99010000Y-79950000D03*
X100280000Y-79950000D03*
X101550000Y-79950000D03*
X102820000Y-79950000D03*
X104090000Y-79950000D03*
X105360000Y-79950000D03*
X106630000Y-79950000D03*
X107900000Y-79950000D03*
X107900000Y-89250000D03*
X106630000Y-89250000D03*
X105360000Y-89250000D03*
X104090000Y-89250000D03*
X102820000Y-89250000D03*
X101550000Y-89250000D03*
X100280000Y-89250000D03*
X99010000Y-89250000D03*
X97740000Y-89250000D03*
X96470000Y-89250000D03*
D21*
X75385000Y-95000000D03*
X76655000Y-95000000D03*
X77925000Y-95000000D03*
X79195000Y-95000000D03*
X80465000Y-95000000D03*
X81735000Y-95000000D03*
X83005000Y-95000000D03*
X84275000Y-95000000D03*
X84275000Y-101500000D03*
X83005000Y-101500000D03*
X81735000Y-101500000D03*
X80465000Y-101500000D03*
X79195000Y-101500000D03*
X77925000Y-101500000D03*
X76655000Y-101500000D03*
X75385000Y-101500000D03*
X89585000Y-95000000D03*
X90855000Y-95000000D03*
X92125000Y-95000000D03*
X93395000Y-95000000D03*
X94665000Y-95000000D03*
X95935000Y-95000000D03*
X97205000Y-95000000D03*
X98475000Y-95000000D03*
X98475000Y-101500000D03*
X97205000Y-101500000D03*
X95935000Y-101500000D03*
X94665000Y-101500000D03*
X93395000Y-101500000D03*
X92125000Y-101500000D03*
X90855000Y-101500000D03*
X89585000Y-101500000D03*
D18*
X184075000Y-94175000D03*
X184075000Y-92100000D03*
X101100000Y-67192500D03*
X101100000Y-65117500D03*
D21*
X103410000Y-95000000D03*
X104680000Y-95000000D03*
X105950000Y-95000000D03*
X107220000Y-95000000D03*
X108490000Y-95000000D03*
X109760000Y-95000000D03*
X111030000Y-95000000D03*
X112300000Y-95000000D03*
X112300000Y-101500000D03*
X111030000Y-101500000D03*
X109760000Y-101500000D03*
X108490000Y-101500000D03*
X107220000Y-101500000D03*
X105950000Y-101500000D03*
X104680000Y-101500000D03*
X103410000Y-101500000D03*
D19*
X134900000Y-72575000D03*
X134900000Y-74650000D03*
D18*
X205975000Y-94137500D03*
X205975000Y-92062500D03*
X172407500Y-119267500D03*
X172407500Y-117192500D03*
D19*
X149100000Y-126087500D03*
X149100000Y-128162500D03*
X194675000Y-70762500D03*
X194675000Y-72837500D03*
D22*
X121012500Y-98650000D03*
X123087500Y-98650000D03*
D18*
X172275000Y-96637500D03*
X172275000Y-94562500D03*
D19*
X119250000Y-82225000D03*
X119250000Y-84300000D03*
X71375000Y-113497500D03*
X71375000Y-115572500D03*
D18*
X194875000Y-94200000D03*
X194875000Y-92125000D03*
X153475000Y-80025000D03*
X153475000Y-77950000D03*
M02*
