G04 #@! TF.GenerationSoftware,KiCad,Pcbnew,8.0.4-8.0.4-0~ubuntu22.04.1*
G04 #@! TF.CreationDate,2024-07-29T10:16:42-04:00*
G04 #@! TF.ProjectId,HW_VGA,48575f56-4741-42e6-9b69-6361645f7063,1*
G04 #@! TF.SameCoordinates,Original*
G04 #@! TF.FileFunction,Soldermask,Top*
G04 #@! TF.FilePolarity,Negative*
%FSLAX46Y46*%
G04 Gerber Fmt 4.6, Leading zero omitted, Abs format (unit mm)*
G04 Created by KiCad (PCBNEW 8.0.4-8.0.4-0~ubuntu22.04.1) date 2024-07-29 10:16:42*
%MOMM*%
%LPD*%
G01*
G04 APERTURE LIST*
G04 Aperture macros list*
%AMRoundRect*
0 Rectangle with rounded corners*
0 $1 Rounding radius*
0 $2 $3 $4 $5 $6 $7 $8 $9 X,Y pos of 4 corners*
0 Add a 4 corners polygon primitive as box body*
4,1,4,$2,$3,$4,$5,$6,$7,$8,$9,$2,$3,0*
0 Add four circle primitives for the rounded corners*
1,1,$1+$1,$2,$3*
1,1,$1+$1,$4,$5*
1,1,$1+$1,$6,$7*
1,1,$1+$1,$8,$9*
0 Add four rect primitives between the rounded corners*
20,1,$1+$1,$2,$3,$4,$5,0*
20,1,$1+$1,$4,$5,$6,$7,0*
20,1,$1+$1,$6,$7,$8,$9,0*
20,1,$1+$1,$8,$9,$2,$3,0*%
G04 Aperture macros list end*
%ADD10C,3.200000*%
%ADD11RoundRect,0.250000X0.350000X0.450000X-0.350000X0.450000X-0.350000X-0.450000X0.350000X-0.450000X0*%
%ADD12RoundRect,0.150000X-0.875000X-0.150000X0.875000X-0.150000X0.875000X0.150000X-0.875000X0.150000X0*%
%ADD13RoundRect,0.250000X-0.350000X-0.450000X0.350000X-0.450000X0.350000X0.450000X-0.350000X0.450000X0*%
%ADD14RoundRect,0.325000X-0.325000X-0.725000X0.325000X-0.725000X0.325000X0.725000X-0.325000X0.725000X0*%
%ADD15R,1.422400X1.422400*%
%ADD16C,1.422400*%
%ADD17RoundRect,0.150000X0.875000X0.150000X-0.875000X0.150000X-0.875000X-0.150000X0.875000X-0.150000X0*%
%ADD18RoundRect,0.150000X1.050000X0.150000X-1.050000X0.150000X-1.050000X-0.150000X1.050000X-0.150000X0*%
%ADD19RoundRect,0.250000X0.450000X-0.350000X0.450000X0.350000X-0.450000X0.350000X-0.450000X-0.350000X0*%
%ADD20RoundRect,0.250000X-0.450000X0.350000X-0.450000X-0.350000X0.450000X-0.350000X0.450000X0.350000X0*%
%ADD21RoundRect,0.250000X-0.337500X-0.475000X0.337500X-0.475000X0.337500X0.475000X-0.337500X0.475000X0*%
%ADD22R,1.600000X1.600000*%
%ADD23O,1.600000X1.600000*%
%ADD24RoundRect,0.150000X-1.050000X-0.150000X1.050000X-0.150000X1.050000X0.150000X-1.050000X0.150000X0*%
%ADD25R,1.700000X1.700000*%
%ADD26O,1.700000X1.700000*%
%ADD27C,1.600000*%
G04 APERTURE END LIST*
D10*
X195100000Y-144920000D03*
X81900000Y-144920000D03*
D11*
X76200000Y-68500000D03*
X74200000Y-68500000D03*
D12*
X114700000Y-76277500D03*
X114700000Y-77547500D03*
X114700000Y-78817500D03*
X114700000Y-80087500D03*
X114700000Y-81357500D03*
X114700000Y-82627500D03*
X114700000Y-83897500D03*
X114700000Y-85167500D03*
X114700000Y-86437500D03*
X114700000Y-87707500D03*
X114700000Y-88977500D03*
X114700000Y-90247500D03*
X124000000Y-90247500D03*
X124000000Y-88977500D03*
X124000000Y-87707500D03*
X124000000Y-86437500D03*
X124000000Y-85167500D03*
X124000000Y-83897500D03*
X124000000Y-82627500D03*
X124000000Y-81357500D03*
X124000000Y-80087500D03*
X124000000Y-78817500D03*
X124000000Y-77547500D03*
X124000000Y-76277500D03*
D13*
X74200000Y-65100000D03*
X76200000Y-65100000D03*
D14*
X119470000Y-100950000D03*
X124550000Y-100950000D03*
X124550000Y-96350000D03*
X119470000Y-96350000D03*
D15*
X94880000Y-110270000D03*
D16*
X94880000Y-112810000D03*
X92340000Y-110270000D03*
X92340000Y-112810000D03*
X89800000Y-110270000D03*
X89800000Y-112810000D03*
X87260000Y-110270000D03*
X84720000Y-112810000D03*
X87260000Y-112810000D03*
X84720000Y-115350000D03*
X87260000Y-115350000D03*
X84720000Y-117890000D03*
X87260000Y-117890000D03*
X84720000Y-120430000D03*
X87260000Y-120430000D03*
X84720000Y-122970000D03*
X87260000Y-122970000D03*
X84720000Y-125510000D03*
X87260000Y-125510000D03*
X84720000Y-128050000D03*
X87260000Y-130590000D03*
X87260000Y-128050000D03*
X89800000Y-130590000D03*
X89800000Y-128050000D03*
X92340000Y-130590000D03*
X92340000Y-128050000D03*
X94880000Y-130590000D03*
X94880000Y-128050000D03*
X97420000Y-130590000D03*
X97420000Y-128050000D03*
X99960000Y-130590000D03*
X99960000Y-128050000D03*
X102500000Y-130590000D03*
X105040000Y-128050000D03*
X102500000Y-128050000D03*
X105040000Y-125510000D03*
X102500000Y-125510000D03*
X105040000Y-122970000D03*
X102500000Y-122970000D03*
X105040000Y-120430000D03*
X102500000Y-120430000D03*
X105040000Y-117890000D03*
X102500000Y-117890000D03*
X105040000Y-115350000D03*
X102500000Y-115350000D03*
X105040000Y-112810000D03*
X102500000Y-110270000D03*
X102500000Y-112810000D03*
X99960000Y-110270000D03*
X99960000Y-112810000D03*
X97420000Y-110270000D03*
X97420000Y-112810000D03*
D11*
X72200000Y-68500000D03*
X70200000Y-68500000D03*
D17*
X90550000Y-73105000D03*
X90550000Y-71835000D03*
X90550000Y-70565000D03*
X90550000Y-69295000D03*
X90550000Y-68025000D03*
X90550000Y-66755000D03*
X90550000Y-65485000D03*
X90550000Y-64215000D03*
X90550000Y-62945000D03*
X90550000Y-61675000D03*
X81250000Y-61675000D03*
X81250000Y-62945000D03*
X81250000Y-64215000D03*
X81250000Y-65485000D03*
X81250000Y-66755000D03*
X81250000Y-68025000D03*
X81250000Y-69295000D03*
X81250000Y-70565000D03*
X81250000Y-71835000D03*
X81250000Y-73105000D03*
D12*
X190025000Y-64830000D03*
X190025000Y-66100000D03*
X190025000Y-67370000D03*
X190025000Y-68640000D03*
X190025000Y-69910000D03*
X190025000Y-71180000D03*
X190025000Y-72450000D03*
X190025000Y-73720000D03*
X190025000Y-74990000D03*
X190025000Y-76260000D03*
X190025000Y-77530000D03*
X190025000Y-78800000D03*
X199325000Y-78800000D03*
X199325000Y-77530000D03*
X199325000Y-76260000D03*
X199325000Y-74990000D03*
X199325000Y-73720000D03*
X199325000Y-72450000D03*
X199325000Y-71180000D03*
X199325000Y-69910000D03*
X199325000Y-68640000D03*
X199325000Y-67370000D03*
X199325000Y-66100000D03*
X199325000Y-64830000D03*
D11*
X72200000Y-75200000D03*
X70200000Y-75200000D03*
D18*
X209275000Y-97385000D03*
X209275000Y-96115000D03*
X209275000Y-94845000D03*
X209275000Y-93575000D03*
X209275000Y-92305000D03*
X209275000Y-91035000D03*
X209275000Y-89765000D03*
X209275000Y-88495000D03*
X202775000Y-88495000D03*
X202775000Y-89765000D03*
X202775000Y-91035000D03*
X202775000Y-92305000D03*
X202775000Y-93575000D03*
X202775000Y-94845000D03*
X202775000Y-96115000D03*
X202775000Y-97385000D03*
D13*
X74200000Y-78600000D03*
X76200000Y-78600000D03*
D19*
X66725000Y-96325000D03*
X66725000Y-94325000D03*
D20*
X66725000Y-81150000D03*
X66725000Y-83150000D03*
D17*
X176925000Y-125220000D03*
X176925000Y-123950000D03*
X176925000Y-122680000D03*
X176925000Y-121410000D03*
X176925000Y-120140000D03*
X176925000Y-118870000D03*
X176925000Y-117600000D03*
X176925000Y-116330000D03*
X176925000Y-115060000D03*
X176925000Y-113790000D03*
X176925000Y-112520000D03*
X176925000Y-111250000D03*
X167625000Y-111250000D03*
X167625000Y-112520000D03*
X167625000Y-113790000D03*
X167625000Y-115060000D03*
X167625000Y-116330000D03*
X167625000Y-117600000D03*
X167625000Y-118870000D03*
X167625000Y-120140000D03*
X167625000Y-121410000D03*
X167625000Y-122680000D03*
X167625000Y-123950000D03*
X167625000Y-125220000D03*
D21*
X101162500Y-84600000D03*
X103237500Y-84600000D03*
D11*
X76200000Y-75200000D03*
X74200000Y-75200000D03*
D12*
X144250000Y-104885000D03*
X144250000Y-106155000D03*
X144250000Y-107425000D03*
X144250000Y-108695000D03*
X144250000Y-109965000D03*
X144250000Y-111235000D03*
X144250000Y-112505000D03*
X144250000Y-113775000D03*
X144250000Y-115045000D03*
X144250000Y-116315000D03*
X153550000Y-116315000D03*
X153550000Y-115045000D03*
X153550000Y-113775000D03*
X153550000Y-112505000D03*
X153550000Y-111235000D03*
X153550000Y-109965000D03*
X153550000Y-108695000D03*
X153550000Y-107425000D03*
X153550000Y-106155000D03*
X153550000Y-104885000D03*
D22*
X161425000Y-95500000D03*
D23*
X161425000Y-92960000D03*
X161425000Y-90420000D03*
X161425000Y-87880000D03*
X161425000Y-85340000D03*
X161425000Y-82800000D03*
X161425000Y-80260000D03*
X161425000Y-77720000D03*
X161425000Y-75180000D03*
X161425000Y-72640000D03*
X161425000Y-70100000D03*
X161425000Y-67560000D03*
X161425000Y-65020000D03*
X161425000Y-62480000D03*
X146185000Y-62480000D03*
X146185000Y-65020000D03*
X146185000Y-67560000D03*
X146185000Y-70100000D03*
X146185000Y-72640000D03*
X146185000Y-75180000D03*
X146185000Y-77720000D03*
X146185000Y-80260000D03*
X146185000Y-82800000D03*
X146185000Y-85340000D03*
X146185000Y-87880000D03*
X146185000Y-90420000D03*
X146185000Y-92960000D03*
X146185000Y-95500000D03*
D15*
X123340000Y-110270000D03*
D16*
X123340000Y-112810000D03*
X120800000Y-110270000D03*
X120800000Y-112810000D03*
X118260000Y-110270000D03*
X118260000Y-112810000D03*
X115720000Y-110270000D03*
X113180000Y-112810000D03*
X115720000Y-112810000D03*
X113180000Y-115350000D03*
X115720000Y-115350000D03*
X113180000Y-117890000D03*
X115720000Y-117890000D03*
X113180000Y-120430000D03*
X115720000Y-120430000D03*
X113180000Y-122970000D03*
X115720000Y-122970000D03*
X113180000Y-125510000D03*
X115720000Y-125510000D03*
X113180000Y-128050000D03*
X115720000Y-130590000D03*
X115720000Y-128050000D03*
X118260000Y-130590000D03*
X118260000Y-128050000D03*
X120800000Y-130590000D03*
X120800000Y-128050000D03*
X123340000Y-130590000D03*
X123340000Y-128050000D03*
X125880000Y-130590000D03*
X125880000Y-128050000D03*
X128420000Y-130590000D03*
X128420000Y-128050000D03*
X130960000Y-130590000D03*
X133500000Y-128050000D03*
X130960000Y-128050000D03*
X133500000Y-125510000D03*
X130960000Y-125510000D03*
X133500000Y-122970000D03*
X130960000Y-122970000D03*
X133500000Y-120430000D03*
X130960000Y-120430000D03*
X133500000Y-117890000D03*
X130960000Y-117890000D03*
X133500000Y-115350000D03*
X130960000Y-115350000D03*
X133500000Y-112810000D03*
X130960000Y-110270000D03*
X130960000Y-112810000D03*
X128420000Y-110270000D03*
X128420000Y-112810000D03*
X125880000Y-110270000D03*
X125880000Y-112810000D03*
D24*
X191625000Y-111210000D03*
X191625000Y-112480000D03*
X191625000Y-113750000D03*
X191625000Y-115020000D03*
X191625000Y-116290000D03*
X191625000Y-117560000D03*
X191625000Y-118830000D03*
X191625000Y-120100000D03*
X198125000Y-120100000D03*
X198125000Y-118830000D03*
X198125000Y-117560000D03*
X198125000Y-116290000D03*
X198125000Y-115020000D03*
X198125000Y-113750000D03*
X198125000Y-112480000D03*
X198125000Y-111210000D03*
D21*
X92992500Y-98250000D03*
X95067500Y-98250000D03*
D18*
X104350000Y-70600000D03*
X104350000Y-69330000D03*
X104350000Y-68060000D03*
X104350000Y-66790000D03*
X104350000Y-65520000D03*
X104350000Y-64250000D03*
X104350000Y-62980000D03*
X104350000Y-61710000D03*
X97850000Y-61710000D03*
X97850000Y-62980000D03*
X97850000Y-64250000D03*
X97850000Y-65520000D03*
X97850000Y-66790000D03*
X97850000Y-68060000D03*
X97850000Y-69330000D03*
X97850000Y-70600000D03*
D17*
X76025000Y-120250000D03*
X76025000Y-118980000D03*
X76025000Y-117710000D03*
X76025000Y-116440000D03*
X76025000Y-115170000D03*
X76025000Y-113900000D03*
X76025000Y-112630000D03*
X76025000Y-111360000D03*
X76025000Y-110090000D03*
X76025000Y-108820000D03*
X66725000Y-108820000D03*
X66725000Y-110090000D03*
X66725000Y-111360000D03*
X66725000Y-112630000D03*
X66725000Y-113900000D03*
X66725000Y-115170000D03*
X66725000Y-116440000D03*
X66725000Y-117710000D03*
X66725000Y-118980000D03*
X66725000Y-120250000D03*
D24*
X202775000Y-111210000D03*
X202775000Y-112480000D03*
X202775000Y-113750000D03*
X202775000Y-115020000D03*
X202775000Y-116290000D03*
X202775000Y-117560000D03*
X202775000Y-118830000D03*
X202775000Y-120100000D03*
X209275000Y-120100000D03*
X209275000Y-118830000D03*
X209275000Y-117560000D03*
X209275000Y-116290000D03*
X209275000Y-115020000D03*
X209275000Y-113750000D03*
X209275000Y-112480000D03*
X209275000Y-111210000D03*
D13*
X70200000Y-71800000D03*
X72200000Y-71800000D03*
X70200000Y-65100000D03*
X72200000Y-65100000D03*
D11*
X76200000Y-61700000D03*
X74200000Y-61700000D03*
D24*
X180825000Y-111210000D03*
X180825000Y-112480000D03*
X180825000Y-113750000D03*
X180825000Y-115020000D03*
X180825000Y-116290000D03*
X180825000Y-117560000D03*
X180825000Y-118830000D03*
X180825000Y-120100000D03*
X187325000Y-120100000D03*
X187325000Y-118830000D03*
X187325000Y-117560000D03*
X187325000Y-116290000D03*
X187325000Y-115020000D03*
X187325000Y-113750000D03*
X187325000Y-112480000D03*
X187325000Y-111210000D03*
D25*
X88970000Y-141420000D03*
D26*
X88970000Y-138880000D03*
X91510000Y-141420000D03*
X91510000Y-138880000D03*
X94050000Y-141420000D03*
X94050000Y-138880000D03*
X96590000Y-141420000D03*
X96590000Y-138880000D03*
X99130000Y-141420000D03*
X99130000Y-138880000D03*
X101670000Y-141420000D03*
X101670000Y-138880000D03*
X104210000Y-141420000D03*
X104210000Y-138880000D03*
X106750000Y-141420000D03*
X106750000Y-138880000D03*
X109290000Y-141420000D03*
X109290000Y-138880000D03*
X111830000Y-141420000D03*
X111830000Y-138880000D03*
X114370000Y-141420000D03*
X114370000Y-138880000D03*
X116910000Y-141420000D03*
X116910000Y-138880000D03*
X119450000Y-141420000D03*
X119450000Y-138880000D03*
X121990000Y-141420000D03*
X121990000Y-138880000D03*
X124530000Y-141420000D03*
X124530000Y-138880000D03*
X127070000Y-141420000D03*
X127070000Y-138880000D03*
X129610000Y-141420000D03*
X129610000Y-138880000D03*
X132150000Y-141420000D03*
X132150000Y-138880000D03*
X134690000Y-141420000D03*
X134690000Y-138880000D03*
X137230000Y-141420000D03*
X137230000Y-138880000D03*
X139770000Y-141420000D03*
X139770000Y-138880000D03*
X142310000Y-141420000D03*
X142310000Y-138880000D03*
X144850000Y-141420000D03*
X144850000Y-138880000D03*
X147390000Y-141420000D03*
X147390000Y-138880000D03*
X149930000Y-141420000D03*
X149930000Y-138880000D03*
X152470000Y-141420000D03*
X152470000Y-138880000D03*
X155010000Y-141420000D03*
X155010000Y-138880000D03*
X157550000Y-141420000D03*
X157550000Y-138880000D03*
X160090000Y-141420000D03*
X160090000Y-138880000D03*
X162630000Y-141420000D03*
X162630000Y-138880000D03*
X165170000Y-141420000D03*
X165170000Y-138880000D03*
X167710000Y-141420000D03*
X167710000Y-138880000D03*
X170250000Y-141420000D03*
X170250000Y-138880000D03*
X172790000Y-141420000D03*
X172790000Y-138880000D03*
X175330000Y-141420000D03*
X175330000Y-138880000D03*
X177870000Y-141420000D03*
X177870000Y-138880000D03*
X180410000Y-141420000D03*
X180410000Y-138880000D03*
X182950000Y-141420000D03*
X182950000Y-138880000D03*
X185490000Y-141420000D03*
X185490000Y-138880000D03*
X188030000Y-141420000D03*
X188030000Y-138880000D03*
D18*
X187325000Y-97385000D03*
X187325000Y-96115000D03*
X187325000Y-94845000D03*
X187325000Y-93575000D03*
X187325000Y-92305000D03*
X187325000Y-91035000D03*
X187325000Y-89765000D03*
X187325000Y-88495000D03*
X180825000Y-88495000D03*
X180825000Y-89765000D03*
X180825000Y-91035000D03*
X180825000Y-92305000D03*
X180825000Y-93575000D03*
X180825000Y-94845000D03*
X180825000Y-96115000D03*
X180825000Y-97385000D03*
D11*
X72200000Y-61700000D03*
X70200000Y-61700000D03*
D19*
X66725000Y-87425000D03*
X66725000Y-85425000D03*
X161450000Y-102325000D03*
X161450000Y-100325000D03*
D12*
X144450000Y-121395000D03*
X144450000Y-122665000D03*
X144450000Y-123935000D03*
X144450000Y-125205000D03*
X144450000Y-126475000D03*
X144450000Y-127745000D03*
X144450000Y-129015000D03*
X144450000Y-130285000D03*
X144450000Y-131555000D03*
X144450000Y-132825000D03*
X153750000Y-132825000D03*
X153750000Y-131555000D03*
X153750000Y-130285000D03*
X153750000Y-129015000D03*
X153750000Y-127745000D03*
X153750000Y-126475000D03*
X153750000Y-125205000D03*
X153750000Y-123935000D03*
X153750000Y-122665000D03*
X153750000Y-121395000D03*
D25*
X66600000Y-63020000D03*
D26*
X66600000Y-65560000D03*
X66600000Y-68100000D03*
X66600000Y-70640000D03*
X66600000Y-73180000D03*
X66600000Y-75720000D03*
D13*
X74200000Y-71800000D03*
X76200000Y-71800000D03*
D20*
X66725000Y-90000000D03*
X66725000Y-92000000D03*
D17*
X176925000Y-102525000D03*
X176925000Y-101255000D03*
X176925000Y-99985000D03*
X176925000Y-98715000D03*
X176925000Y-97445000D03*
X176925000Y-96175000D03*
X176925000Y-94905000D03*
X176925000Y-93635000D03*
X176925000Y-92365000D03*
X176925000Y-91095000D03*
X176925000Y-89825000D03*
X176925000Y-88555000D03*
X167625000Y-88555000D03*
X167625000Y-89825000D03*
X167625000Y-91095000D03*
X167625000Y-92365000D03*
X167625000Y-93635000D03*
X167625000Y-94905000D03*
X167625000Y-96175000D03*
X167625000Y-97445000D03*
X167625000Y-98715000D03*
X167625000Y-99985000D03*
X167625000Y-101255000D03*
X167625000Y-102525000D03*
D21*
X106817500Y-98250000D03*
X108892500Y-98250000D03*
D12*
X130200000Y-66605000D03*
X130200000Y-67875000D03*
X130200000Y-69145000D03*
X130200000Y-70415000D03*
X130200000Y-71685000D03*
X130200000Y-72955000D03*
X130200000Y-74225000D03*
X130200000Y-75495000D03*
X130200000Y-76765000D03*
X130200000Y-78035000D03*
X130200000Y-79305000D03*
X130200000Y-80575000D03*
X139500000Y-80575000D03*
X139500000Y-79305000D03*
X139500000Y-78035000D03*
X139500000Y-76765000D03*
X139500000Y-75495000D03*
X139500000Y-74225000D03*
X139500000Y-72955000D03*
X139500000Y-71685000D03*
X139500000Y-70415000D03*
X139500000Y-69145000D03*
X139500000Y-67875000D03*
X139500000Y-66605000D03*
D21*
X85027500Y-84600000D03*
X87102500Y-84600000D03*
D12*
X173825000Y-64870000D03*
X173825000Y-66140000D03*
X173825000Y-67410000D03*
X173825000Y-68680000D03*
X173825000Y-69950000D03*
X173825000Y-71220000D03*
X173825000Y-72490000D03*
X173825000Y-73760000D03*
X173825000Y-75030000D03*
X173825000Y-76300000D03*
X173825000Y-77570000D03*
X173825000Y-78840000D03*
X183125000Y-78840000D03*
X183125000Y-77570000D03*
X183125000Y-76300000D03*
X183125000Y-75030000D03*
X183125000Y-73760000D03*
X183125000Y-72490000D03*
X183125000Y-71220000D03*
X183125000Y-69950000D03*
X183125000Y-68680000D03*
X183125000Y-67410000D03*
X183125000Y-66140000D03*
X183125000Y-64870000D03*
D21*
X78792500Y-98250000D03*
X80867500Y-98250000D03*
D12*
X66650000Y-124855000D03*
X66650000Y-126125000D03*
X66650000Y-127395000D03*
X66650000Y-128665000D03*
X66650000Y-129935000D03*
X66650000Y-131205000D03*
X66650000Y-132475000D03*
X66650000Y-133745000D03*
X66650000Y-135015000D03*
X66650000Y-136285000D03*
X66650000Y-137555000D03*
X66650000Y-138825000D03*
X75950000Y-138825000D03*
X75950000Y-137555000D03*
X75950000Y-136285000D03*
X75950000Y-135015000D03*
X75950000Y-133745000D03*
X75950000Y-132475000D03*
X75950000Y-131205000D03*
X75950000Y-129935000D03*
X75950000Y-128665000D03*
X75950000Y-127395000D03*
X75950000Y-126125000D03*
X75950000Y-124855000D03*
D25*
X139140000Y-92800000D03*
D26*
X136600000Y-92800000D03*
D18*
X198125000Y-97385000D03*
X198125000Y-96115000D03*
X198125000Y-94845000D03*
X198125000Y-93575000D03*
X198125000Y-92305000D03*
X198125000Y-91035000D03*
X198125000Y-89765000D03*
X198125000Y-88495000D03*
X191625000Y-88495000D03*
X191625000Y-89765000D03*
X191625000Y-91035000D03*
X191625000Y-92305000D03*
X191625000Y-93575000D03*
X191625000Y-94845000D03*
X191625000Y-96115000D03*
X191625000Y-97385000D03*
D13*
X70200000Y-78600000D03*
X72200000Y-78600000D03*
D22*
X205200000Y-134320000D03*
D27*
X202700000Y-134320000D03*
M02*
